<?xml version="1.0" encoding="UTF-8" standalone="no"?>
<!-- Created with Inkscape (http://www.inkscape.org/) -->

<svg
   version="1.1"
   id="svg1"
   width="3395.8655"
   height="1927.0009"
   viewBox="0 0 3395.8655 1927.0009"
   xml:space="preserve"
   xmlns="http://www.w3.org/2000/svg"
   xmlns:svg="http://www.w3.org/2000/svg"><defs
     id="defs1" /><g
     id="g1"
     transform="translate(-180.37329,-208.61748)"><path
       style="display:inline;fill:#060606;stroke:none"
       d="m 1480.8973,282.46283 h -229.3334 -58.6666 c -6.8446,0 -17.8992,-2.05762 -23.6955,2.32292 -5.3804,4.0664 -4.3041,11.74446 -4.3045,17.67708 v 44 162.66667 c 0,13.81217 -6.0711,46.26009 6.7252,55.02994 13.7017,9.3903 43.9196,3.63672 59.9414,3.63672 h 156 V 793.1295 H 548.89728 v -53.33334 c 0,-6.70605 1.70076,-16.55827 -3.53703,-21.79622 -4.51343,-4.51335 -11.98979,-3.53678 -17.7963,-3.53711 h -44 -177.33334 -89.33333 c -8.46718,0 -25.46122,-3.34473 -30.42798,5.47852 -3.67942,6.53645 -1.57202,17.91569 -1.57202,25.18815 v 58.66666 c 0,72.05697 -1.33333,144.01465 -1.33333,216.00004 0,261.8532 -1.33334,523.4856 -1.33334,785.3333 0,79.14 -1.33333,158.1473 -1.33333,237.3333 v 61.3334 c 0,7.2757 -2.17033,18.9148 2.32304,25.1409 6.55562,9.0837 30.50822,5.5257 40.34363,5.5257 h 118.66666 489.33334 2013.33335 549.3333 133.3333 c 11.3939,0 37.8575,4.9437 45.321,-5.6183 4.806,-6.8014 2.679,-18.5008 2.679,-26.3817 V 2041.1295 1802.4628 1009.1295 791.79616 733.1295 c 0,-7.10612 2.2107,-18.82683 -1.3704,-25.18815 -3.6999,-6.57292 -12.2497,-5.47819 -18.6296,-5.47852 h -53.3333 -181.3333 -46.6667 c -6.001,0 -14.5778,-1.49284 -19.7005,2.32292 -7.1654,5.33756 -5.6328,16.5638 -5.6328,24.34375 v 64 h -780 V 567.79616 h 146.6666 c 14.1791,0 43.6154,6.51302 55.6955,-1.51953 5.5051,-3.66048 4.3042,-11.42643 4.3045,-17.14713 v -44 -164 -40 c -3e-4,-5.14258 1.161,-12.39388 -3.2449,-16.14193 -5.2533,-4.46875 -15.6916,-2.52474 -22.0884,-2.52474 h -57.3333 -222.6667 v -50.66667 c 0,-6.7386 1.4372,-15.49804 -5.4785,-19.39095 -12.7616,-7.18359 -40.0609,-1.94238 -54.5215,-1.94238 h -136 -501.3333 -138.6667 c -13.2225,0 -39.311,-5.07682 -49.0288,5.47852 -5.4145,5.88118 -4.3045,13.79264 -4.3045,21.18815 v 45.33333 m 164,-52 v 153.33333 c 0,9.88314 -5.5697,46.22136 9.3333,47.27149 15.6786,1.10482 10.6667,-36.83985 10.6667,-45.93815 V 230.46283 h 532 V 377.1295 c 0,10.36425 -5.3871,42.14127 8.0195,45.71712 15.4512,4.12142 11.0916,-34.15527 11.0916,-42.60612 v -97.77767 c 0,-16.52767 1.8373,-34.29915 -0.4445,-50.66667 l 45.3334,-1.33333 h 90.6666 v 200 46.66667 c 0.013,6.15787 0.302,14.28645 8.0053,15.68326 15.8427,2.87273 10.6614,-34.96875 10.6614,-43.68326 V 302.46283 h 78.6667 c 0,10.27669 -5.1478,39.17155 8.0195,42.86523 6.2798,1.76172 9.7095,-4.45247 10.8828,-9.53287 2.4431,-10.5778 0.527,-22.56641 -0.2357,-33.33236 h 189.3334 V 549.1295 h -188 c 0,-7.89844 1.4796,-18.12468 -2.8529,-25.18815 -4.4902,-7.32064 -13.2827,-4.74642 -16.1574,2.54199 -2.5705,6.51692 -0.9897,15.73567 -0.9897,22.64616 -21.1465,0.0605 -21.1545,18.65039 0,18.66666 v 196 48 c 0,6.7308 -1.5069,15.62565 3.2449,21.13575 12.7243,14.75423 16.7543,-12.0752 16.7551,-19.80241 h 96 v 185.33333 h -96 v -112 c 0,-7.87891 -5.2769,-37.64356 -17.6769,-19.85482 -5.8975,8.46061 -2.3231,27.23503 -2.3231,37.18815 v 84 c 0,9.76595 -3.0399,25.81964 1.5721,34.64094 6.0034,11.4824 16.0547,3.7575 18.4279,-5.3076 h 780 v 85.3333 h -780 c -1.5209,-10.1006 -13.2092,-21.3545 -19.0103,-6.6461 -4.2765,10.8427 -2.1369,32.4218 -0.8445,43.9795 1.0242,9.1595 11.0657,15.9365 17.3774,6.5214 4.2578,-6.3512 2.4774,-16.5859 2.4774,-23.8548 h 182.6666 v 182.6667 h -182.6666 v -46.6667 c 0,-18.1119 3.1849,-39.5924 -0.4588,-57.3333 -1.8321,-8.9199 -12.087,-15.0977 -17.5988,-5.1934 -6.2692,11.2653 -1.9424,33.8555 -1.9424,46.5267 v 116 c 0,11.2686 -5.4525,42.0013 6.7252,47.9374 6.4787,3.158 11.6495,-3.5935 12.816,-9.2707 2.8113,-13.6826 0.4588,-30.043 0.4588,-44 v -36 h 182.6666 v 185.3333 h -182.6666 c 0,-13.8082 2.584,-30.535 -0.5257,-43.999 -1.2904,-5.5867 -6.3594,-12.0578 -12.7346,-9.0369 -6.5192,3.0892 -6.7085,10.8486 -6.7387,17.0359 -0.072,14.6659 -10e-4,29.334 -10e-4,44 v 130.6667 c 0,19.7642 -3.5301,43.3141 0.4588,62.6657 0.9876,4.7913 4.6255,10.2965 10.2026,9.7848 6.0829,-0.5581 8.3902,-7.5742 14.6967,-8.3053 16.8715,-1.9559 34.9856,-0.1387 51.9752,-0.1452 6.1823,0 15.2414,0.7534 17.5988,-6.7253 2.5695,-8.1515 -7.4652,-11.7283 -13.5988,-11.9209 -20.401,-0.6403 -40.9212,-0.021 -61.3333,-0.021 v -34.6666 c 10e-5,-3.7372 -1.2241,-10.6338 2.1378,-13.2964 3.4906,-2.7645 11.0336,-1.3703 15.1955,-1.3703 h 41.3333 132 c 13.7354,0 40.6166,-5.2445 52.9096,0.8045 3.5895,1.7663 3.0664,6.5077 3.0895,9.8622 0.05,7.3248 3.8877,32.5247 -2.1371,37.2963 -6.1976,4.9086 -16.2723,-1.3131 -22.8896,4.6153 -4.6309,4.1487 -3.8931,9.8061 1.1069,13.2838 7.6353,5.3106 24.2814,2.1379 33.2541,2.1379 h 85.3333 324 92 c 10.4567,0 28.236,3.2712 37.0287,-3.6369 7.5367,-5.9214 4.3046,-22.5329 4.3046,-31.0298 0,-25.9059 -5.9957,-60.5359 1.3334,-85.3333 18.6526,2.2822 38.5394,0.4445 57.3333,0.4445 4.5391,0 17.1449,-2.1629 20.0876,1.9495 4.0071,5.6001 1.2457,20.2543 1.2457,26.9393 v 69.3334 c 0,8.0018 -2.9244,30.59 10.6657,29.6295 12.4681,-0.8812 9.3343,-21.4931 9.3343,-29.6295 v -70.6667 c 0,-6.266 -2.649,-20.4577 1.3168,-25.606 4.387,-5.6953 29.5078,-1.9495 36.4609,-1.9495 h 108.4447 30.222 c 3.04,0 8.2565,-0.9203 10.3099,1.9495 2.3997,3.3536 1.2457,9.7242 1.2457,13.606 v 36 137.3333 c -8.0289,0 -29.8798,-3.3397 -29.1923,10.1008 0.8265,16.1549 26.7692,1.3364 28.9948,14.0444 5.6142,32.0573 0.1975,69.9269 0.1975,102.5215 v 214.6667 h -216 -52 c -4.6347,0 -15.3753,1.971 -18.6295,-2.1379 -2.5863,-3.2655 -1.3705,-9.9814 -1.3705,-13.8621 v -34.6667 -133.3333 c 0,-14.2002 0.4258,-28.474 -0.021,-42.6667 -0.1634,-5.1986 -1.7727,-11.5811 -7.999,-12.3436 -13.5166,-1.6554 -10.6471,20.6707 -10.6471,28.3436 v 100 h -88 v -98.6667 c 0,-5.9856 3.3327,-30.3909 -6.5801,-30.3909 -8.5964,0 -5.4199,24.985 -5.4199,30.3909 v 98.6667 h -177.3334 v -212 c 9.7966,0 24.112,2.6584 33.3272,-0.8045 8.2282,-3.092 9.2858,-12.3236 1.3138,-16.4919 -13.3278,-6.9686 -42.3079,-1.3703 -57.3076,-1.3703 -7.3181,0 -18.6651,-2.1074 -25.3076,1.3703 -7.2015,3.7704 -7.1176,12.1105 0.033,15.9261 7.1485,3.8146 19.9984,1.3703 27.9414,1.3703 v 212 h -85.3333 v -212 c 8.0707,-8e-4 31.2259,-7.6875 14.5215,-17.0946 -5.404,-3.0433 -13.8776,-1.5721 -19.8548,-1.5721 -8.8617,0 -23.9818,-2.8828 -31.9414,1.3703 -7.0508,3.7674 -6.9925,11.988 0,15.7243 6.7496,3.6066 17.8216,1.5721 25.2747,1.5721 v 212 h -64 l -23.1953,-1.3703 -2.138,-13.2964 v -38.6666 -158.6667 c 5.6865,0 13.4531,1.3421 18.6409,-1.3703 6.5293,-3.4136 8.2276,-11.7742 1.2139,-15.7243 -8.4264,-4.7457 -25.0527,-1.5721 -34.5215,-1.5721 -8.5921,0 -33.1045,7.4408 -14.6409,17.0946 5.0009,2.6147 11.846,1.5721 17.3076,1.5721 v 212 l -85.3334,-1.3333 V 1793.129 c 6.0263,0 14.4847,1.4998 19.9743,-1.3703 7.1739,-3.7506 7.9947,-13.0351 -0.033,-16.3066 -5.7473,-2.3421 -13.8482,-0.9898 -19.9415,-0.9898 -10.4474,0 -29.275,-3.6167 -38.608,1.3703 -7.0511,3.7676 -6.9922,11.9881 0,15.7243 7.0371,3.7601 18.8274,1.5721 26.608,1.5721 v 210.6667 h -96 V 1793.129 c 6.6957,0 16.5593,1.8094 22.641,-1.3703 6.5291,-3.4136 8.2275,-11.7742 1.2139,-15.7243 -7.6241,-4.2939 -21.9878,-1.5721 -30.5215,-1.5721 -24.4426,0 -48.8915,0.1673 -73.3334,-9e-4 -9.9152,-0.068 -13.1274,-11.898 -21.3178,-11.1163 -6.5961,0.6296 -7.3809,9.0414 -13.3643,10.572 -11.595,2.9661 -24.8205,-4.5903 -35.9259,1.8631 -7.494,4.3548 -6.767,13.1782 1.2952,16.3591 10.5241,4.1521 27.3976,0.9897 38.6462,0.9897 v 210.6667 h -106.6667 c 0,-66.5756 -1.3333,-133.3212 -1.3333,-200 0,-15.8155 1.2956,-32.2479 -0.078,-48 -0.4545,-5.2097 -4.3282,-11.9818 -10.5824,-10.7058 -8.7168,1.7785 -8.0057,12.028 -8.0062,18.7058 v 60 252 h -125.3333 v -74.6667 c 0,-6.9577 1.4324,-21.5103 -9.3293,-21.5103 -10.5255,0 -9.3374,14.6895 -9.3374,21.5103 0,24.9521 -1.3333,49.778 -1.3333,74.6667 -9.6755,0 -40.4248,-5.1369 -41.7839,9.3333 -1.4409,15.3413 33.0513,10.6667 41.7839,10.6667 v 20 l -496,-1.3334 v -18.6666 c 24.8395,-0.017 24.8221,-19.9974 0,-20 0,-14.0793 2.1712,-30.2077 -0.8457,-44 -1.1,-5.0288 -4.8529,-12.0041 -11.1338,-10.7058 -6.1541,1.2722 -7.8335,8.0682 -8,13.3724 -0.4315,13.7495 -0.02,27.5765 -0.02,41.3334 h -128 c 0,-25.1895 5.7693,-58.3042 -0.4238,-82.6615 -1.9999,-7.8651 -10.8944,-11.0391 -15.9198,-3.859 -2.918,4.1691 -2.3198,9.6997 -2.3231,14.5205 h -76 c -6.7835,0 -23.033,2.9824 -28.5288,-1.3703 -6.1875,-4.9006 -2.1379,-31.0814 -2.1379,-38.6297 v -116 c 9.4159,0 37.7873,4.8255 39.1172,-9.3334 1.4087,-14.9987 -30.604,-10.6666 -39.1172,-10.6666 0,-7.6119 -5.0825,-33.2766 -16.3435,-17.1872 -7.7351,11.0514 -2.3231,39.9565 -2.3231,53.1872 v 140 h -68 c -5.2499,0 -19.005,2.4388 -22.6297,-2.1379 -4.5029,-5.6855 -1.3703,-22.8249 -1.3703,-29.8621 v -80 c 0,-7.2826 3.749,-30.5498 -3.0844,-34.9979 -4.1097,-2.6752 -6.9874,2.3828 -7.9506,5.6707 -2.3983,8.1869 -0.965,18.2092 -0.965,26.6605 v 114.6667 l -308.00002,-1.3334 c 0,-16.6647 1.46444,-34.0882 -0.22738,-50.6666 -0.59155,-5.7967 -3.03035,-14.8436 -10.43522,-14.8436 -6.95695,0 -9.14486,8.0299 -9.31681,13.5102 -0.54264,17.2971 -0.0206,34.6936 -0.0206,52 H 654.23061 c 0,-16.4435 0.0857,-32.8899 -10e-4,-49.3333 -0.0219,-4.151 0.0929,-14.3734 -6.64612,-13.4383 -6.37956,0.8851 -5.35083,10.2912 -5.35287,14.7716 v 48 h -93.33333 v -150.6666 -41.3334 c 0,-5.2052 -1.54492,-13.4681 0.80452,-18.2428 2.67343,-5.4331 15.54965,-3.0905 20.52881,-3.0905 h 50.66667 c 4.97485,0 15.06909,-1.898 19.19547,1.3703 4.27067,3.3825 2.13786,15.1196 2.13786,19.963 v 56 c 0,4.9222 -2.62658,23.4094 5.41976,23.5391 8.80449,0.1419 6.58024,-16.9793 6.58024,-22.2057 v -58.6667 c 0,-5.2661 -2.41044,-17.6144 4.19751,-19.5762 19.20158,-5.7005 47.71883,-0.4238 67.80249,-0.4238 h 150.66667 54.66667 c 5.9768,0.01 16.83756,-1.8521 22.24283,0.8045 5.27271,2.5915 3.0905,14.3916 3.0905,19.1955 v 60 c 0,6.7249 -1.26042,25.1462 10.66154,22.7057 6.08349,-1.2453 8.22534,-8.0628 8.95158,-13.3724 2.00626,-14.6679 0.38688,-30.5358 0.38688,-45.3333 v -189.3333 h 308.00001 v 126.6666 c 0,8.7287 -4.4106,36.2105 4.3838,41.3724 5.9611,3.499 7.4776,-5.6185 7.5956,-9.3724 0.446,-14.1928 0.021,-28.4661 0.021,-42.6666 6.2632,0 30.193,3.4904 32.3313,-4.2788 3.2207,-11.7025 -29.2462,-1.6213 -31.9075,-10.5855 -2.7328,-9.2051 -0.4238,-22.2163 -0.4238,-31.8024 v -69.3333 h 92 v 105.3333 c -6.0207,0 -26.8762,-3.2718 -28.105,5.3333 -1.2622,8.8386 23.0631,6.6667 28.105,6.6667 2.1159,10.4565 14.88,15.9858 18.2428,2.6657 3.0236,-11.9766 0.4238,-27.6535 0.4238,-39.999 v -84 c 0,-8.3163 2.5306,-21.7723 -1.7571,-29.1882 -8.5986,-14.8717 -16.9032,4.9357 -16.9095,13.1882 h -268 v -101.3334 h 268 c 0.01,10.0939 11.2078,28.3688 17.8621,10.6605 2.5625,-6.8192 0.8045,-16.7881 0.8045,-23.9938 0,-16.3115 2.3132,-34.5576 -0.1975,-50.6667 -1.6013,-10.2741 -13.6604,-13.3165 -17.6646,-2.6605 -4.7308,12.5897 -0.8045,33.2256 -0.8045,46.6605 h -200 v -376 h 200 v 218.6667 c 0,17.5706 -1.4481,35.8337 0.078,53.3333 0.4893,5.6109 5.2406,13.0272 11.8633,10.2829 7.7244,-3.2008 6.7248,-12.861 6.7252,-19.6162 v -54.6667 -168 -46.6666 c 0,-6.0007 1.4952,-14.4935 -1.3702,-19.9743 -6.3509,-12.1472 -16.7546,-3.2461 -17.2964,6.6409 H 548.89728 v -85.3333 h 86.66667 c 7.58467,0 26.0535,1.8714 27.11726,-9.3529 1.21664,-12.83753 -18.18322,-10.6471 -25.78393,-10.6471 h -88 v -188 h 190.66667 v 188 c -8.10979,0 -20.61394,-2.33789 -27.94141,1.5719 -5.77596,3.0821 -8.14356,10.3396 -2.41968,14.7771 9.70899,7.527 30.82634,3.651 42.36109,3.651 7.17602,0 16.09904,1.0811 22.52164,-2.8529 7.47201,-4.5765 4.91968,-13.2581 -2.52783,-16.1575 -5.86076,-2.2816 -13.79964,-0.9896 -19.99381,-0.9896 v -188 h 93.33333 v 188 c -7.24512,6e-4 -31.10799,5.4329 -17.02775,16.349 5.15999,4.0003 13.53377,3.6412 19.69442,3.651 11.44043,0.018 29.69995,3.3669 39.85498,-2.8529 6.82194,-4.1784 5.47566,-12.0774 -1.21403,-15.5752 -5.93596,-3.10348 -14.80298,-1.5719 -21.30762,-1.5719 v -188 h 89.33333 v 188 c -7.51994,0 -28.88891,5.9297 -15.69441,16.3633 4.96321,3.9245 12.40502,3.6273 18.36108,3.6367 8.05892,0.013 19.55314,1.7262 26.36214,-3.6367 14.10254,-11.1078 -9.56201,-16.3627 -17.02881,-16.3633 v -188 h 195.99999 v 188 h -109.3333 c -6.6756,0 -38.3098,-0.4863 -26.0679,14.47 7.3495,8.9792 26.5116,5.53 36.7345,5.53 h 90.6667 c 10.0448,0 27.337,3.1383 35.8025,-3.4518 13.4828,-10.4961 -8.1475,-16.543 -15.8025,-16.5482 v -188 h 86.6667 v 188 c -7.1264,0 -17.4777,-1.87696 -23.9414,1.5719 -7.3049,3.8978 -7.5786,12.5811 0,16.2243 12.4856,6.002 33.0363,2.2038 46.608,2.2038 h 105.3334 c 2.4246,11.7598 16.054,12.5973 18.3621,-10e-4 2.1519,-11.7454 0.3045,-25.39744 0.3045,-37.33234 v -77.33333 c 0,-8.31706 4.3135,-38.38867 -10.6471,-36.55762 -12.4157,1.51953 -9.3529,22.86979 -9.3529,31.22429 0,23.7041 0.1135,47.26106 1.212,70.91243 0.2936,6.32064 2.8325,21.79655 -1.2489,26.94955 -3.9645,5.00552 -20.7884,2.13802 -26.6297,2.13802 h -80 v -188 h 106.6666 c 0,7.58854 3.4668,35.88997 16.7551,21.02767 4.5845,-5.12728 3.2449,-13.35808 3.2449,-19.69434 V 765.1295 567.79616 h 108 c 11.5235,0 32.6252,4.02116 42.5886,-2.47754 8.9077,-5.81022 3.4367,-15.27734 -5.2552,-17.06347 -16.1223,-3.31283 -35.5428,-0.45899 -52,-0.45899 -0.017,-6.18424 0.3581,-14.52278 -3.6512,-19.69433 -4.8635,-6.27311 -12.8094,-2.74935 -15.3591,3.71484 -1.8857,4.78093 -0.9897,10.93392 -0.9897,15.97949 h -296 V 302.46283 h 296 v 148 c 0,8.85775 -5.0925,45.15137 10.6471,43.22428 6.4894,-0.79459 8.5316,-8.48632 9.1214,-13.89095 1.7093,-15.66373 0.2315,-32.24446 0.2315,-48 V 230.46283 h 144 m 810.7252,141.01042 c -9.1674,3.43522 -6.7252,16.66243 -6.7252,24.32291 v 73.33334 c 0,7.53678 1.387,22.48991 13.1881,17.67089 8.4479,-3.44987 6.8119,-17.08658 6.8119,-24.33756 0,-24.43815 0.2871,-48.89681 -0.01,-73.33333 -0.09,-7.49349 -2.1252,-21.83236 -13.2696,-17.65625 m -258.7252,177.65625 -533.3334,-1.33334 c 4.1101,-22.13834 2.2746,-48.17122 1.281,-70.66666 -0.3366,-7.61947 -3.6214,-21.69499 -14.4691,-15.75619 -7.514,4.11361 -5.4785,15.31055 -5.4785,22.42285 v 64 c -13.9461,0 -30.3327,-2.38216 -43.9948,0.45899 -5.9245,1.23209 -10.7204,6.49511 -8.3283,12.80143 4.2147,11.11068 28.3361,6.73958 37.6564,6.73958 h 114.6667 392 93.3333 c 8.4875,0 27.1914,3.62826 31.9569,-5.41146 2.9077,-5.51562 -1.0713,-11.41113 -6.6297,-12.83138 -11.9519,-3.05403 -27.6592,-0.42382 -39.9939,-0.42382 2.5149,-24.13054 0.8912,-49.07162 0.8889,-73.33334 -7e-4,-7.26237 -0.6283,-21.10189 -11.535,-19.27669 -9.9002,1.6569 -8.0205,14.74316 -8.0205,21.94336 v 70.66667 m 173.3333,0 c 0,-6.83171 -2.6751,-39.59082 -16.5288,-22.29427 -4.8962,6.11295 1.9714,19.25553 -7.5493,21.87044 -11.5342,3.16764 -47.2819,-7.27735 -52.2069,7.14909 -3.0496,8.93326 7.0373,11.8444 13.6183,11.93619 18.2142,0.25424 36.4506,0.005 54.6667,0.005 6.5012,0 16.6641,1.86524 22.4691,-1.57194 15.7868,-9.34798 -6.8944,-17.09407 -14.4691,-17.09472 m -857.3323,120.76334 c -14.9981,4.33203 -9.3344,32.48763 -9.3344,44.56999 v 137.33333 462.66665 120 c 0,11.0511 -4.6388,36.071 2.1379,45.1358 7.0399,9.4168 37.7116,4.1976 48.5288,4.1976 47.2015,0 95.5863,-3.1053 142.6667,0.1193 137.6579,9.4284 276.7884,-3.4383 414.6666,2.5997 54.521,2.3877 109.3599,1.281 164,1.281 14.6257,0 29.3887,-0.5874 44,0.052 8.7105,0.3815 18.0453,2.993 26.6462,0.209 13.5148,-4.3746 8.0205,-32.948 8.0205,-44.2614 V 1305.1295 839.79616 718.46283 c 0,-11.1543 4.6024,-35.86426 -2.3231,-45.02865 -7.2921,-9.64974 -38.577,-4.30468 -49.6769,-4.30468 h -148 -442.6667 -136 c -18.9464,0 -44.4578,-4.49577 -62.6656,0.76334 m 822.6656,19.23666 v 780 l -813.3333,-5.3333 V 689.1295 h 813.3333 m 1012,33.33333 v 276 h -57.3333 l -20.5286,-1.37044 -2.1381,-17.29623 V 929.1295 722.46283 h 80 m 208,0 v 276 h -188 l -1.3333,-276 h 189.3333 m -3250.66662,12 v 112 c 0,6.54427 -3.78029,33.70605 5.35288,34.97331 10.07931,1.39843 6.64712,-27.92416 6.64712,-33.63998 V 734.46283 h 88 v 193.33333 h -88 c -0.18001,-15.24446 -11.86015,-15.45312 -12,0 -13.10604,0 -26.9775,-1.3138 -40,0.14519 -3.78042,0.4235 -11.48279,3.47428 -8.1461,8.61523 4.61739,7.11426 28.61302,3.23958 36.1461,3.23958 h 112 v 61.33334 c -7.23181,0.3962 -19.50407,7.1116 -11.41667,15.4228 2.91927,3 8.6663,2.6257 10.61214,6.4877 2.81674,5.5905 -0.67818,12.3922 3.12757,18.0114 12.3433,18.2246 17.67696,-11.906 17.67696,-19.9219 8.34839,0 37.62195,3.7702 36.60494,-10.6667 -0.9683,-13.74574 -27.69519,-9.3333 -36.60494,-9.3333 V 734.46283 h 104 v 266.66667 c -7.64177,0 -18.11796,-1.84799 -25.31275,0.9896 -8.14473,3.2122 -9.55794,12.8346 -1.29528,16.8066 7.79846,3.749 18.21626,2.2038 26.60803,2.2038 v 85.3333 c -5.42428,0 -12.17782,-1.0355 -17.31275,0.9896 -7.40181,2.9193 -9.73677,11.6113 -2.54219,16.2246 5.72986,3.6742 13.37744,2.7858 19.85494,2.7858 v 406.6667 118.6667 c 0,14.8714 -4.41846,38.1025 0.9897,51.9938 5.24899,13.4824 17.80571,5.4876 19.0103,-5.3272 19.40218,-2.5075 20.78552,-19.812 0,-20 v -65.3333 l 2.01335,-22.3065 23.31998,-1.249 61.33334,-0.4445 c 5.46549,18.4906 1.33333,43.38 1.33333,62.6667 0,6.5351 2.12524,17.622 -0.80453,23.5761 -3.67915,7.4771 -35.99967,-2.4529 -29.37141,15.0648 2.30603,6.0946 8.97005,7.0676 14.61523,7.1328 14.81217,0.1714 29.63635,0 44.44963,0 h 124.44441 c 20.83146,0 43.37622,2.4307 64,-0.4445 0,5.8162 -1.12532,13.2819 1.75716,18.5824 2.87435,5.2854 8.30762,4.4519 9.81901,-1.2758 3.74178,-14.1798 -2.80916,-25.8077 -4.71712,-38.6923 -2.33187,-15.7471 -0.19238,-33.3542 -0.19238,-49.281 h 96 v 144 h -408 c -3.60645,-13.7758 -16.39351,-13.776 -20,0 -9.67562,0 -40.42476,-5.1369 -41.78394,9.3334 -1.8566,19.7664 39.09721,0.1347 41.58643,14.7448 5.55509,32.6044 0.19751,70.8004 0.19751,103.9218 v 216 h -328 v -216 c 0,-33.0869 -5.37356,-71.2843 0.19649,-103.8507 2.28858,-13.3807 38.40194,4.5985 36.51544,-14.8119 -1.3386,-13.7729 -27.59499,-9.3374 -36.71193,-9.3374 v -52 c 0,-4.9471 -1.86853,-14.804 1.31687,-18.9393 2.42214,-3.1443 8.98637,-1.9495 12.4609,-1.9495 h 34.66667 143.1111 c 3.21301,0 9.01892,-1.0628 11.19959,1.9495 3.56119,4.9195 3.94254,23.7741 15.73356,15.462 5.76928,-4.0671 5.50126,-11.5954 5.51131,-17.856 0.0252,-15.7052 5.54333,-44.5522 -1.7572,-58.6081 -3.86556,-7.4424 -12.62008,-7.4422 -16.4856,0 -2.97733,5.7323 -1.7572,13.7017 -1.7572,19.9414 v 20 H 255.56395 218.23061 l -15.19547,-1.3703 -1.18518,-15.963 0.38065,-41.3333 v -177.3334 c 21.87565,0 21.8819,-12 0,-12 v -142.6666 c 0,-18.9177 -4.94726,-45.7113 0.42387,-63.8024 2.42601,-8.1713 17.03143,-0.1905 18.34774,-9.5362 1.13523,-8.0602 -14.22241,-6.6611 -18.77161,-6.6614 l 1.33334,-81.3334 h 201.33333 c 0,6.9102 -1.58061,16.1293 0.9897,22.6462 3.26148,8.2692 12.77776,9.417 16.91358,1.2952 3.54256,-6.9567 2.09672,-16.3847 2.09672,-23.9414 6.74467,0 15.24939,1.1576 21.25517,-2.5843 7.53572,-4.695 4.99174,-13.4726 -2.59469,-16.4261 -5.51192,-2.1458 -12.84053,-0.9896 -18.66048,-0.9896 0,-7.5296 1.48775,-17.1897 -2.78601,-23.8548 -4.61332,-7.1946 -13.30489,-4.86 -16.22429,2.542 -2.43562,6.1751 -0.9897,14.7708 -0.9897,21.3128 H 203.56395 v -85.3333 h 117.33333 c 8.20345,0 34.92334,3.4228 33.93827,-10.6624 -0.94808,-13.55635 -26.5297,-9.3376 -35.2716,-9.3376 h -116 v -61.33334 c 5.519,0 23.02356,2.82259 23.95062,-5.33854 1.03806,-9.13802 -18.83673,-6.66146 -23.95062,-6.66146 V 734.46283 H 304.89728 M 2754.2306,813.1295 V 998.46283 H 2584.8973 V 813.1295 h 169.3333 m 198.6667,0 v 134.66666 34.66667 l -1.3705,13.86198 -11.9629,2.13802 h -34.6666 -138.6667 V 813.1295 h 186.6667 m 201.3333,0 V 998.46283 H 2971.5639 V 813.1295 h 182.6667 m 94.6667,0 v 185.33333 h -58.6667 l -21.862,-1.37044 -2.138,-11.96289 V 951.79616 813.1295 h 82.6667 m 98.6666,204 v 85.3333 h -57.3333 c -5.2389,0 -16.1995,2.0583 -20.5286,-1.3704 -3.9392,-3.1201 -2.1381,-12.875 -2.1381,-17.2962 v -48 c 0,-4.6283 -2.0087,-15.3526 3.0905,-17.862 5.6608,-2.7858 16.0388,-0.8047 22.2429,-0.8047 h 54.6666 m 208,0 v 85.3333 h -188 v -85.3333 h 188 m -306.6666,105.3333 v 564 h -514.6667 v -134.6666 c 0,-10.6286 5.2412,-39.0367 -2.8642,-46.2429 -4.8783,-4.3369 -12.4428,-3.0905 -18.4691,-3.0905 h -41.3334 v -380 h 577.3334 m 98.6666,0 v 444 h -58.6666 l -19.9629,-2.1378 -1.3705,-31.1955 v -84 -326.6667 h 80 m 208,0 v 109.3334 h -188 v -109.3334 h 188 m -2386.6666,4 v 376 h -44 c -5.7795,0 -13.569,-1.3331 -18.5885,2.1379 -8.6776,6.0006 -5.4115,22.0488 -5.4115,31.1955 v 88 H 976.89728 c -0.93693,-7.2118 -2.68921,-14.5575 -10.66773,-16.7551 -8.80419,-2.425 -20.2373,-0.5783 -29.33227,-0.5783 h -60 c -9.09033,0 -22.80265,-2.448 -30.52165,3.4186 -6.56274,4.988 -5.47835,13.2717 -5.47835,20.5814 v 48 H 655.56395 v -76 c 0,-7.9777 2.85461,-21.3706 -3.08643,-27.7005 -6.5446,-6.973 -20.26546,-4.2995 -28.91357,-4.2995 h -74.66667 v -444 h 620.00002 m -764.00002,81.3334 h -116 c -6.53648,0 -34.84363,-3.809 -34.84363,6.5947 0,9.0081 28.8172,5.4053 34.84363,5.4053 h 116 v 105.3333 c 0,7.2726 2.22648,37.0257 16.64815,22.0884 6.92448,-7.1721 3.35185,-26.2009 3.35185,-35.4217 v -84 c 0,-9.4239 2.87956,-24.8825 -2.78601,-33.0287 -9.25777,-13.3112 -17.19035,4.7897 -17.21399,13.0287 m 3150.66662,36 v 93.3333 h -188 v -93.3333 h 188 m 0,105.3333 v 217.3333 h -188 v -217.3333 h 188 M 404.89728,1430.4628 H 286.23061 c -6.29213,0 -36.08262,-3.7516 -36.33128,5.4527 -0.28534,10.5621 29.59815,6.5473 36.33128,6.5473 h 118.66667 v 65.3334 40 c 0,13.7819 -3.16024,32.0638 0.76335,45.3128 2.4121,8.1452 13.07714,10.5758 17.47945,2.542 6.12911,-11.1852 1.7572,-33.964 1.7572,-46.5215 v -113.3333 c 0,-11.313 5.66829,-45.2424 -5.61833,-51.7562 -5.64245,-3.2565 -12.16569,0.6439 -13.80346,6.4433 -3.32544,11.7759 -0.57821,27.7593 -0.57821,39.9795 m 2310.66662,92 v 96 h -246.6666 v -96 h 246.6666 m -1198.6666,156 c 0,19.0562 0.7812,38.2967 -0.052,57.3334 -0.4982,11.3761 -2.8057,23.2526 -0.996,34.6657 2.6516,16.7211 19.0746,9.7768 19.715,-3.9991 h 65.3334 c 0.3817,11.656 10.285,11.6561 10.6666,0 h 49.3334 v 45.3334 h -49.3334 c -0.047,-3.9735 -1.5571,-15.6444 -8.5309,-10.604 -3.4707,2.5084 -1.7837,7.8144 -6.3333,9.7994 -4.9263,2.1493 -18.3872,-2.0584 -19.0741,6.2243 -0.7238,8.7274 14.176,6.5803 19.2717,6.5803 h 64 v 121.3333 c -31.8522,-7.3685 -63.6293,-20.3208 -94.6667,-30.6667 -7.6701,-2.5566 -27.7817,-5.451 -31.1955,-13.5114 -2.326,-5.4923 -0.8045,-13.9537 -0.8045,-19.8219 0,-15.7043 -3.7306,-36.7931 0.4238,-51.9219 1.7902,-6.519 21.7758,-5.2287 16.5927,-14.1717 -2.8119,-4.8516 -9.7614,-1.9157 -13.7777,-4.61 -3.4297,-2.3008 -3.6961,-7.1146 -7.4312,-9.2585 -16.0078,-9.1883 -14.4743,18.9499 -14.4743,26.6288 -8.4513,0 -20.1598,-2.0373 -27.8548,2.0966 -6.6189,3.556 -6.5486,12.6447 0,16.3313 7.1003,3.997 19.9134,1.5721 27.8548,1.5721 0,26.9227 -6.9065,60.4855 -0.8076,86.6614 1.8255,7.8348 11.2175,12.6944 16.7953,5.034 4.3117,-5.9213 2.679,-15.4635 2.679,-22.3621 l 126.6667,40 c 0,7.6243 -2.271,19.695 1.5721,26.5215 3.2793,5.8252 11.6911,6.8535 15.5421,1.0197 8.2811,-12.5448 2.8858,-41.0137 2.8858,-55.5412 v -132 c 0,-13.8561 4.8719,-39.6014 -2.8858,-51.6955 -7.0179,-10.9409 -16.6621,0.7741 -17.1142,9.0288 h -125.3334 v -76 h 125.3334 c 5e-4,4.6678 -0.7547,10.3405 1.5721,14.5886 9.3035,16.9858 18.3566,-5.9698 18.4279,-14.5886 9.4181,0 21.7633,1.9283 30.5215,-2.2705 7.4873,-3.5895 5.9721,-13.798 -1.2468,-16.7397 -14.5666,-5.9361 -40.2324,-0.9898 -55.9414,-0.9898 h -118.6667 c -12.5566,0 -36.7939,-4.6546 -47.8548,1.5721 -6.3626,3.5819 -6.8375,12.8794 0,16.1574 8.4258,4.0394 20.1319,2.2705 29.1882,2.2705 m 245.3919,-19.0102 c -9.132,3.7213 -7.5384,15.0691 1.2953,17.5988 14.2288,4.0747 31.9519,1.4114 46.6461,1.4114 h 201.3333 56 c 6.9268,0 17.7492,1.2787 23.4218,-3.6512 7.262,-6.3112 0.054,-15.3636 -7.4227,-16.2036 -19.4981,-2.1907 -40.3715,-0.1452 -59.9991,-0.1452 h -184 -53.3333 c -7.1803,0 -17.1898,-1.7615 -23.9414,0.9898 m 417.2747,17.6769 c 4.3651,18.3333 0,38.6914 0,57.3333 5e-4,6.8228 -1.2426,17.2953 6.7398,20.3231 10.2742,3.8971 13.22,-7.5459 13.2593,-14.9897 0.08,-15.1102 9e-4,-30.2229 9e-4,-45.3334 0,-4.3637 -1.4861,-12.5071 2.6565,-15.4516 5.9926,-4.2593 23.8356,-0.9929 31.1214,-0.9929 26.5875,0 62.0063,6.1545 87.5555,-0.8888 1.6619,6.9801 -0.018,14.5247 1.9116,21.3086 2.174,7.6414 12.3068,9.8156 16.5163,2.5133 3.7479,-6.5014 4.4061,-34.8294 -1.6729,-39.8095 -8.7029,-7.1301 -32.6487,-2.6791 -43.4217,-2.6791 h -118.6667 c -10.2366,0 -40.7779,-5.1416 -46.2223,5.4785 -3.1873,6.2173 1.5667,11.7702 7.5073,13.3003 11.0905,2.8566 31.7142,2.9206 42.715,-0.1121 m 405.392,10.3231 c -7.7904,3.1749 -7.9662,13.7391 0,16.8724 12.6476,4.9747 34.3665,0.8045 47.9414,0.8045 4.8091,0 11.3968,1.0565 15.6955,-1.5721 7.331,-4.4828 3.6071,-14.8034 -3.7017,-16.6707 -12.3299,-3.1503 -28.6058,-0.4239 -41.3272,-0.4239 -5.7273,0 -13.2001,-1.2142 -18.608,0.9898 M 404.89728,1770.4628 H 302.23061 c -6.93192,0 -35.57462,3.0834 -20.56994,16.3488 7.41023,6.5513 26.35011,3.2067 35.68105,3.2067 h 88.88889 c 9.05782,0 26.79773,3.0437 34.08846,-3.2109 12.50069,-10.7241 -7.9694,-16.3397 -15.42179,-16.3446 0,-5.0986 0.77441,-11.1176 -1.19137,-15.9414 -2.76684,-6.7895 -11.79333,-8.653 -16.33125,-2.4207 -3.60796,4.9551 -2.47738,12.5937 -2.47738,18.3621 m 2942.66662,4 h -229.3333 -53.3333 c -6.5964,0 -16.1009,-1.6792 -19.7409,5.4115 -6.7256,13.102 12.4316,13.2552 19.7409,13.2552 h 84 c 0,10.2187 -0.1377,20.4489 0.01,30.6667 0.05,3.5547 -0.1804,9.5636 4.2747,10.7057 4.8073,1.2324 6.9528,-4.3752 7.4681,-8.0443 1.5101,-10.7549 0.252,-22.4717 0.252,-33.3281 h 88 c 0,9.6022 -4.9763,38.3128 8.0195,40.8509 21.1934,4.139 1.2158,-38.0321 17.3395,-40.6533 16.4512,-2.6745 35.2969,-0.1976 51.9743,-0.1976 h 105.3333 40 c 4.8477,0 11.4893,0.9079 15.0105,-3.245 11.4935,-13.5551 -13.1993,-15.4217 -20.3438,-15.4217 h -98.6667 c 0,-5.7819 1.1908,-13.1798 -0.9895,-18.6409 -2.7536,-6.8968 -12.0147,-8.9051 -16.5329,-2.4948 -3.9665,5.6273 -2.4776,14.6341 -2.4776,21.1357 m -800,18.6667 v 210.6667 h -78.6666 v -210.6667 h 78.6666 m -1158.6666,229.3333 v 92 H 548.89728 v -92 h 840.00002 m 124,92 h -69.3334 l -36,-1.3333 c 2.5223,-20.6375 0,-43.1541 0,-64 0,-6.0173 -2.5266,-19.6084 1.3703,-24.5288 3.5056,-4.4263 16.2481,-2.1379 21.2964,-2.1379 h 60 c 5.3132,0 20.3792,-2.6329 23.1955,3.0905 3.6678,7.4541 -0.1314,19.6976 -0.4764,27.5762 -0.8918,20.3639 -0.052,40.9486 -0.052,61.3333 m 936,-90.6666 v 92 H 2342.231 v -92 h 106.6667 m 800,0 v 92 h -780 v -92 h 780 m -1502.6462,52.7633 c -9.8011,2.9025 -9.325,15.0495 0.037,18.1647 14.4595,4.8114 35.4318,1.072 50.6091,1.072 h 218.6666 62.6667 c 7.3174,0 19.0586,2.1155 24.9095,-3.3519 7.1374,-6.6696 0.2792,-15.6232 -7.5762,-16.503 -22.958,-2.5711 -47.5551,-0.1451 -70.6666,-0.1451 h -192 -58.6667 c -8.7028,0 -19.5762,-1.7253 -27.9795,0.7633 m -85.3538,19.2367 v 18.6666 h -128 v -18.6666 h 128 m 661.3333,0 v 20 h -125.3333 v -20 z"
       id="path2" /></g></svg>
