<?xml version="1.0" encoding="UTF-8" standalone="no"?>
<!-- Created with Inkscape (http://www.inkscape.org/) -->

<svg
   version="1.1"
   id="svg1"
   width="3397.0293"
   height="1967.6776"
   viewBox="0 0 3397.0293 1967.6776"
   xml:space="preserve"
   xmlns="http://www.w3.org/2000/svg"
   xmlns:svg="http://www.w3.org/2000/svg"><defs
     id="defs1" /><g
     id="g1"
     transform="translate(-209.30957,-194.93811)"><path
       style="display:inline;fill:#000000"
       d="m 1643.4676,2159.5888 c -2.8063,-2.8063 -3.0913,-4.5782 -3.9095,-24.3079 -0.4854,-11.7045 -0.8845,-25.9309 -0.887,-31.6142 v -10.3334 h -57.8202 c -56.4762,0 -57.9019,-0.064 -61.3334,-2.7634 L 1516,2087.8065 v -27.9051 -27.9051 l -474.3333,0.3352 -474.33337,0.3352 -0.0973,45.7163 c -0.084,39.4733 -0.38016,45.9992 -2.16882,47.7879 -2.45449,2.4544 -23.28037,2.4575 -222.85017,0.032 l -126.4496,-1.5365 -3.21707,-3.7411 -3.21707,-3.741 -0.0121,-204.5923 c -0.0155,-262.0748 -0.0155,-725.5734 0,-994.65291 l 0.0121,-210.0606 3.27273,-3.27273 3.27273,-3.27273 H 389.04028 562.2018 l 3.1555,3.35888 3.1555,3.35888 -0.35411,48.47654 -0.35411,48.47654 219.76436,0.8085 c 120.8704,0.44468 304.22166,1.14751 407.44726,1.56185 l 187.6828,0.75335 -0.702,-43.7306 c -0.3861,-24.05183 -1.0649,-75.9806 -1.5084,-115.39727 l -0.8065,-71.66667 h -101.1 -101.1001 l -3.741,-3.21757 -3.741,-3.21758 -0.6667,-142.30623 c -0.69,-147.29408 -0.6571,-148.36453 4.6275,-150.3924 1.2415,-0.47642 69.4508,-0.86622 151.5762,-0.86622 h 149.3189 l -0.3131,-38.87747 -0.3131,-38.87748 3.0861,-2.49894 c 2.9654,-2.40123 6.245,-2.46847 83.8851,-1.7199 44.4395,0.42847 82.7536,1.07589 85.1425,1.43872 6.3594,0.96589 8.4948,5.22141 9.3289,18.59116 l 0.7118,11.40897 55.4746,-0.23732 c 61.7318,-0.26409 62.9404,-0.11576 68.1071,8.3587 3.4518,5.66157 3.5369,15.02614 0.1866,20.52028 -2.6252,4.30504 -9.9258,8.55995 -14.6872,8.55995 -2.7892,0 -2.7985,0.15612 -2.7985,46.66667 v 46.66666 h 9.7033 c 10.3643,0 15.63,2.18161 15.63,6.47561 0,4.40261 -2.897,5.52439 -14.2667,5.52439 h -11.0666 v 40 40 l 4.3333,0.0197 c 5.8327,0.0265 10.6426,2.64645 12.6875,6.91097 3.3068,6.89644 -2.558,13.06937 -12.4169,13.06937 h -4.6039 V 514 c 0,43.77778 0.053,44.66667 2.6666,44.66667 6.9743,0 10.5641,10.76931 5.3334,16 -2.6125,2.61242 -4.4445,2.66666 -90.0606,2.66666 h -87.394 l -3.2727,-3.27272 c -3.9982,-3.99818 -4.1383,-7.26725 -0.5093,-11.8808 l 2.7634,-3.51314 22.2366,1.2e-4 22.2366,1.3e-4 -0.3582,-170.9138 c -0.1969,-94.00259 -0.6117,-171.16741 -0.9216,-171.47737 -0.31,-0.30996 -32.1646,-0.89017 -70.788,-1.28934 l -70.2244,-0.72576 0.4794,139.39629 c 0.4663,135.56657 0.4097,139.4734 -2.0606,142.20301 -1.5965,1.76416 -4.1607,2.80672 -6.9032,2.80672 -5.9866,0 -9.8901,-5.07033 -9.8901,-12.84648 V 480 h -9.3939 c -8.1961,0 -9.8113,-0.41733 -12.6667,-3.27273 C 1445.4923,468.28016 1453.2731,460 1469.6579,460 H 1476 v -61.78801 c 0,-33.9834 -0.3941,-70.89232 -0.8757,-82.01981 l -0.8757,-20.23179 -38.791,0.35314 -38.7909,0.35314 -0.034,18 c -0.042,22.15157 -0.03,22.06401 -3.2996,25.33333 -3.36,3.36003 -8.1214,3.40762 -12.1856,0.1218 -3.0002,-2.42558 -3.1789,-3.50357 -3.8144,-23 l -0.6666,-20.45513 h -70 c -38.5,0 -80.653,0.17677 -93.6733,0.39283 l -23.6732,0.39284 0.3399,130.27383 L 1190,558 h 94.6667 94.6666 l 0.3833,-13.96725 c 0.3327,-12.12081 0.76,-14.36817 3.2324,-17 3.4767,-3.70071 7.7138,-3.87469 11.9033,-0.48874 2.8675,2.31757 3.207,3.83073 3.8144,17 l 0.6666,14.45599 9.6151,0.3907 c 8.5208,0.34625 9.9243,0.78396 12.3333,3.84648 3.5845,4.55697 3.4306,7.83837 -0.5544,11.82343 -2.8228,2.82276 -4.4997,3.27272 -12.1966,3.27272 h -8.9239 l 1.1336,117 c 0.9709,100.20304 1.1487,138.89606 0.6894,150 -0.151,3.65144 -5.039,7.66667 -9.333,7.66667 -6.403,0 -9.4301,-5.19378 -9.4301,-16.17981 v -9.15352 h -49.4137 -49.4136 l 0.746,15.66666 c 0.4103,8.61667 1.1169,40.11667 1.5701,70 l 0.8241,54.33334 h 48.7107 48.7107 l -0.7316,-38.85646 c -0.4428,-23.51247 -0.2245,-40.31134 0.5527,-42.54075 1.4663,-4.20621 7.5243,-7.28616 11.7151,-5.95605 6.4534,2.04822 6.4148,1.59598 7.3942,86.68659 l 0.9208,80 -2.8447,3 c -3.4919,3.6825 -9.8062,3.9346 -13.2133,0.5275 -1.5761,-1.5761 -2.8086,-5.4432 -3.3995,-10.6666 l -0.9271,-8.1942 h -69.7861 c -64.5236,0 -69.994,-0.176 -72.5436,-2.3334 -4.5059,-3.8127 -4.9091,-8.6987 -1.0848,-13.1457 l 3.3146,-3.8543 70.1162,-0.3677 70.1161,-0.3678 v -15.96556 -15.96557 h -48.6667 c -46.8889,0 -48.764,0.0974 -51.3333,2.66666 -1.4815,1.48148 -4.4444,2.66667 -6.6667,2.66667 -2.2222,0 -5.1852,-1.18519 -6.6666,-2.66667 -2.2616,-2.26159 -4.4445,-2.66666 -14.37,-2.66666 -15.3986,0 -21.5301,-3.90942 -15.5348,-9.90477 1.6094,-1.60934 5.0193,-2.09523 14.7042,-2.09523 h 12.6089 L 1267.3659,951 c -0.3901,-8.61667 -1.0774,-40.11667 -1.5274,-70 l -0.8181,-54.33333 h -43.1769 -43.1768 v 70 70 h 12.7543 c 13.6586,0 17.9123,1.2597 17.9123,5.30464 0,5.78175 -4.2755,6.69536 -31.3333,6.69536 -20.837,0 -25.9396,-0.37332 -28.37,-2.07561 -6.9525,-4.86969 -1.9618,-9.92439 9.7986,-9.92439 H 1168 v -70 -70 l -84.6667,-0.3 c -46.5666,-0.165 -89.91663,-0.315 -96.3333,-0.33334 L 975.33333,826 l -0.66666,45.04982 c -0.56371,38.09236 -0.97555,45.24489 -2.66667,46.31292 -2.85194,1.80113 -3.67002,1.63391 -6.66667,-1.36274 -2.55892,-2.55892 -2.66666,-4.44444 -2.66666,-46.66667 v -44 H 918 873.33333 v 22.48686 c 0,20.73042 -0.21585,22.76126 -2.76344,26 -3.51193,4.4647 -10.32349,4.80479 -14.02991,0.70049 C 854.25041,871.98532 854,869.45487 854,848.85401 V 826 l -45.62893,-0.35079 -45.62892,-0.35079 -0.37108,18.35079 L 762,862 h -4.66667 -4.66666 l -0.37096,-18.33333 -0.37096,-18.33334 h -45.29571 -45.29571 v 59.89095 c 0,32.94003 -0.36419,60.84003 -0.80932,62 -1.06727,2.78129 -7.98075,2.78129 -9.04802,0 -0.44513,-1.15997 -0.80932,-29.05997 -0.80932,-62 V 825.33333 H 609.33333 568 v 94 93.99997 h 10.48686 c 8.59034,0 11.12219,0.4998 14,2.7635 4.23519,3.3314 4.69757,9.3854 0.99927,13.0837 -2.23928,2.2393 -5.65457,2.621 -31.26782,3.494 -15.81467,0.5391 -30.9169,0.5744 -33.5605,0.078 -9.58847,-1.7988 -12.96102,-9.9043 -6.71842,-16.1469 2.99234,-2.9924 4.30603,-3.2728 15.33334,-3.2728 h 12.0606 v -145.99997 -146 H 502.46384 455.59435 L 456.46958,791 c 0.48137,38.31667 0.95469,94.82707 1.05182,125.57867 l 0.17658,55.912 -3.7033,3.18545 c -2.71247,2.33317 -4.63412,2.96579 -7.18232,2.36447 -7.85047,-1.85253 -7.62764,-0.0338 -8.593,-70.1365 -0.48731,-35.38826 -0.88603,-89.05995 -0.88603,-119.27043 0,-30.21047 -0.38155,-57.71188 -0.8479,-61.11423 l -0.84789,-6.1861 H 332.48543 229.33333 V 868 1014.6667 h 19.90323 19.90323 l 2.76344,3.5131 c 3.62902,4.6136 3.48888,7.8826 -0.50929,11.8808 -3.17475,3.1748 -3.85335,3.2727 -22.66667,3.2727 H 229.33333 V 1078 1122.6667 H 334.66667 440 v -10.7273 c 0,-9.6117 0.34035,-11.0676 3.27273,-14 3.98426,-3.9843 8.57516,-4.1882 12.47585,-0.5541 2.29766,2.1406 2.91809,4.2313 2.91809,9.8333 0,3.9131 0.375,8.9897 0.83333,11.2814 0.75623,3.7811 1.29773,4.1667 5.85229,4.1667 14.84664,0 15.23506,17.5897 0.43225,19.5752 l -5.54462,0.7437 -0.45329,13.2914 c -0.43495,12.7533 -0.60932,13.4255 -4.30761,16.6046 -2.87326,2.47 -4.73983,3.0965 -7.33333,2.4614 -6.54116,-1.6016 -7.44546,-3.7354 -7.93372,-18.7209 l -0.4547,-13.9554 H 334.5453 229.33333 v 39.8009 39.801 l 30.33334,0.8569 C 276.35,1223.5968 323.75,1224.379 365,1224.8637 l 75,0.8813 v -6.026 c 0,-11.1912 8.51061,-16.7152 16.18562,-10.5056 3.05981,2.4756 3.16018,3.2069 3.59407,26.1885 0.24549,13.003 0.062,25.6905 -0.40771,28.1943 -1.75312,9.345 -9.93384,12.6298 -16.09925,6.4644 C 440.19862,1266.9865 440,1265.9065 440,1252.2658 v -14.5221 l -59,-0.876 c -32.45,-0.4818 -79.85,-1.2651 -105.33333,-1.7406 l -46.33334,-0.8647 v 55.5355 55.5354 h 64 c 62.22223,0 64.07408,0.074 66.66667,2.6667 3.42844,3.4284 3.42844,9.9049 0,13.3333 -2.59259,2.5926 -4.44444,2.6667 -66.66667,2.6667 h -64 v 105.1415 105.1415 l 76.33334,0.98 c 49.01423,0.6292 76.92982,1.4721 78,2.3551 2.73459,2.2562 2.01474,7.6724 -1.17664,8.853 -1.56381,0.5785 -36.66381,0.7791 -78,0.4459 l -75.1567,-0.6059 v 53.5111 53.5111 H 334.66667 440 l 0.0182,-17 c 0.0218,-20.3203 0.5039,-22.512 5.52325,-25.1076 3.23589,-1.6733 4.45661,-1.7192 7.45817,-0.2799 6.50877,3.1209 7.01067,5.9108 6.90576,38.3875 -0.0533,16.5 -0.70187,31.9546 -1.44127,34.3436 C 454.85386,1735.3416 440,1731.3597 440,1718.7273 v -5.394 H 334.66667 229.33333 v 40.217 40.2169 l 55,-0.8818 c 30.25,-0.4851 77.65,-0.8827 105.33334,-0.8836 L 440,1792 v -12.519 c 0,-9.9834 0.47258,-13.0774 2.33333,-15.2764 3.81244,-4.5056 8.69865,-4.9091 13.14569,-1.0857 3.6639,3.15 3.87672,3.9331 4.30794,15.8505 0.4499,12.434 0.4852,12.5487 4.30412,13.9902 4.60949,1.7399 7.24617,6.8538 6.03069,11.6966 -1.87726,7.4796 0.44165,7.3438 -125.41228,7.3438 H 229.33333 v 146.498 146.4979 L 277,2105.8265 c 26.21667,0.4569 78.56667,1.1368 116.33333,1.511 37.76667,0.3741 87.71667,1.043 111,1.4863 l 42.33334,0.8061 0.007,-56.4816 c 0.004,-33.4462 0.54986,-58.4343 1.33743,-61.2695 2.17867,-7.843 9.84876,-10.1397 15.38241,-4.6061 2.96411,2.9641 3.27273,4.3472 3.27273,14.6667 v 11.3939 h 94.10804 94.10805 l -0.80266,-37 c -0.44147,-20.35 -1.13187,-42.2082 -1.53422,-48.5738 -0.66208,-10.4748 -0.46951,-11.8359 2.02795,-14.3333 3.25347,-3.2535 4.57855,-3.4167 7.11861,-0.8766 2.08566,2.0856 3.64089,25.7731 3.64089,55.4538 0,9.3033 0.39118,23.3084 0.86929,31.1225 l 0.86929,14.2074 h 49.85733 49.85732 l -0.89349,-101 c -0.49143,-55.55 -1.2684,-101.3 -1.72662,-101.6666 -0.45821,-0.3667 -23.7834,-0.4777 -51.83374,-0.2468 l -51.00062,0.4199 0.87695,27.1909 c 0.92359,28.6371 0.50094,31.3026 -4.96336,31.3026 -5.50402,0 -6.57901,-4.5963 -6.57901,-28.13 0,-12.2118 -0.375,-24.0783 -0.83334,-26.37 L 749,1810.6667 h -35.22727 -35.22728 l -3.27272,-3.2728 c -4.12647,-4.1264 -4.14231,-7.567 -0.0567,-12.3195 l 3.216,-3.7411 37.45066,-0.4105 37.45067,-0.4106 v -7.6261 c 0,-8.2482 2.53456,-13.5528 6.47561,-13.5528 4.19973,0 5.52439,2.9414 5.52439,12.2667 v 9.0667 H 814.66667 864 V 1752 1713.3333 h -49.33333 -49.33334 v 9.0367 c 0,12.6791 -4.39013,18.3827 -9.90476,12.8681 -1.52869,-1.5287 -2.09524,-4.7735 -2.09524,-12 v -9.9048 H 660 566.66667 v 10.4343 c 0,9.1828 -0.37011,10.7819 -3.08594,13.3333 -4.02359,3.78 -9.04677,3.6823 -12.7388,-0.2477 l -2.95624,-3.1467 0.0791,-295.5199 0.0791,-295.5199 h -6.06473 c -11.97178,0 -18.49362,-5.4107 -15.99834,-13.2727 2.3052,-7.263 -21.67824,-6.7991 348.7618,-6.7453 372.53648,0.054 346.74348,-0.4837 348.69008,7.2719 2.0985,8.3611 -4.2939,12.7461 -18.5812,12.7461 h -8.5675 l -0.7907,21.6666 c -0.4349,11.9167 -0.9956,97.0201 -1.2459,189.1186 l -0.4552,167.452 65.9898,0.8814 c 36.2944,0.4847 80.2912,0.8814 97.7706,0.8814 h 31.7808 l -0.07,-31 c -0.063,-27.7791 -3.5763,-347.8522 -3.827,-348.6667 -0.056,-0.1833 -25.813,-0.3333 -57.2369,-0.3333 -38.276,0 -58.5297,-0.4864 -61.3615,-1.4736 -7.3812,-2.5731 -9.0603,-9.7582 -3.5648,-15.2537 l 3.2728,-3.2727 h 59.3939 59.3939 v -6.0606 c 0,-14.6833 17.0185,-17.357 19.1832,-3.0138 0.3658,2.4242 1.6064,101.6052 2.7567,220.4021 2.0361,210.279 2.0258,216.0827 -0.3894,219.3333 -5.1939,6.9904 -14.0381,4.5393 -16.4732,-4.5654 l -1.5482,-5.7885 -11.4312,-0.7781 c -6.2872,-0.428 -63.3312,-0.9471 -126.7645,-1.1536 l -115.3334,-0.3754 -0.3503,46.1154 -0.3504,46.1154 64.2361,0.8846 c 35.3299,0.4865 92.9376,0.8846 128.0171,0.8846 h 63.7809 v -4.0606 c 0,-2.5335 1.2308,-5.2915 3.2727,-7.3334 5.3076,-5.3076 12.4616,-3.6521 15.1862,3.5143 0.6768,1.78 1.4504,35.7178 1.7191,75.4172 0.4704,69.4806 0.3936,72.2858 -2.0514,74.9883 -6.0576,6.6957 -16.7933,1.1303 -16.7933,-8.7056 V 1764 h -11.2814 c -9.8884,0 -11.6171,-0.3603 -14,-2.9181 -3.634,-3.9007 -3.4301,-8.4916 0.5541,-12.4758 2.9431,-2.9431 4.3751,-3.2728 14.2154,-3.2728 h 10.9427 l -0.8952,-44.902 c -0.4924,-24.6961 -1.1813,-45.1881 -1.5309,-45.5377 -0.3497,-0.3497 -21.3437,-0.9273 -46.6535,-1.2837 l -46.0179,-0.6481 v 46.1858 46.1857 h 16.4869 c 14.6604,0 16.876,0.3062 20,2.7635 4.4603,3.5085 4.8041,10.3209 0.708,14.0299 -2.6754,2.4226 -6.9129,2.5856 -91.6667,3.528 -48.8738,0.5434 -109.497,0.8434 -134.7181,0.6666 l -45.8567,-0.3213 -2.6503,-3.5506 c -3.2643,-4.373 -2.3193,-9.5037 2.3089,-12.5362 2.8594,-1.8735 15.5513,-2.2249 108.9788,-3.0168 l 105.7426,-0.8964 0.3504,-46.1393 0.3503,-46.1392 -145.017,-0.7181 c -79.7594,-0.395 -145.34549,-0.3323 -145.74689,0.1392 -0.4014,0.4716 -0.4931,22.0074 -0.20378,47.8574 l 0.52603,47 h 16.35734 c 14.5293,0 16.7499,0.3088 19.8704,2.7634 4.4587,3.5073 4.8039,10.3201 0.7108,14.0299 -2.3878,2.1643 -5.3444,2.605 -19.987,2.9791 l -17.18471,0.439 0.68545,67.561 c 0.37699,37.1585 1.04167,92.3109 1.47707,122.5609 l 0.79163,55 h 202.51386 202.5139 l -0.8875,-98.4126 -0.8874,-98.4127 3.1349,-2.9207 c 4.1062,-3.8254 8.641,-3.6997 12.6928,0.3521 2.8554,2.8554 3.2727,4.4706 3.2727,12.6667 V 1836 h 18 c 16.2222,0 18.2634,0.2634 20.6667,2.6667 3.1107,3.1107 3.4734,9.0513 0.7782,12.7451 -1.6661,2.2834 -4.0609,2.6667 -20.3334,3.2549 l -18.4448,0.6666 0.3932,73.3334 c 0.2163,40.3333 0.7344,75.8833 1.1514,79 l 0.7582,5.6666 H 1465.4847 1516 V 1934 1854.6667 h -8.4342 c -7.0923,0 -8.8956,-0.491 -11.3334,-3.086 -3.7368,-3.9776 -3.6926,-9.0371 0.1102,-12.6096 2.2986,-2.1594 5.0538,-2.9228 11.6667,-3.2324 l 8.6574,-0.4054 0.13,-20.6666 c 0.071,-11.3667 0.2215,-46.8832 0.3333,-78.9257 l 0.2033,-58.259 3,-3.3281 3,-3.3281 89.7818,-0.4129 89.7818,-0.4129 3.3157,3.8543 c 2.4503,2.8484 3.1014,4.7623 2.4947,7.3333 -1.4953,6.3367 -5.2386,8.1457 -16.855,8.1457 h -10.519 v 15.1536 c 0,13.3114 -0.3359,15.5805 -2.7634,18.6666 -2.0043,2.5481 -3.9923,3.5132 -7.2366,3.5132 -3.2443,0 -5.2322,-0.9651 -7.2365,-3.5132 -2.4275,-3.0861 -2.7635,-5.3552 -2.7635,-18.6666 v -15.1536 h -61.7968 -61.7968 l -0.8583,15.0285 c -0.4721,8.2656 -0.8769,81.0156 -0.8996,161.6666 l -0.041,146.6383 6.3631,0.4179 c 16.8164,1.1045 16.5471,18.1077 -0.3036,19.1641 l -6.6667,0.418 -0.368,20.3333 -0.3681,20.3333 H 1599.2986 1664 v -17.1535 c 0,-15.3348 0.293,-17.526 2.7634,-20.6667 3.5086,-4.4604 10.3211,-4.8041 14.0299,-0.7078 2.3931,2.6429 2.5619,5.8445 2.9177,55.3333 l 0.3777,52.5281 H 1736.0443 1788 L 1787.992,2129 c 0,-7.5167 -0.3933,-18.6167 -0.8643,-24.6667 l -0.8563,-11 -7.469,-0.01 c -10.6449,-0.011 -16.7393,-1.9971 -18.5902,-6.0594 -2.2593,-4.9585 -1.9276,-7.0057 1.7272,-10.6604 2.9324,-2.9324 4.3883,-3.2728 14,-3.2728 h 10.7273 v -14.0606 c 0,-13.1507 0.2117,-14.2724 3.2727,-17.3333 3.9249,-3.9249 8.6316,-4.1897 12.9129,-0.7265 2.9068,2.3514 3.1822,3.6781 3.599,17.3334 l 0.4513,14.787 h 10.3163 c 9.0595,0 10.6694,0.376 13.2153,3.086 3.3311,3.5457 3.7438,8.5803 1.0103,12.3259 -1.5259,2.0909 -4.0232,2.7162 -13,3.2548 l -11.1112,0.6667 -0.3627,25 -0.3628,25 h 37.3628 37.3627 V 2117.3333 2092 h -7.9032 c -6.9499,0 -8.2366,-0.4238 -10.6667,-3.5131 -3.629,-4.6136 -3.4888,-7.8827 0.5093,-11.8808 2.6693,-2.6693 4.6046,-3.2728 10.4963,-3.2728 h 7.2235 l 0.8558,-5.3521 c 1.6142,-10.0943 9.7789,-13.8085 16.2123,-7.3751 2.244,2.2439 3.2727,4.7587 3.2727,8 v 4.7272 h 10 c 11.4586,0 15.3334,2.3586 15.3334,9.3334 0,6.9747 -3.8748,9.3333 -15.3334,9.3333 h -10 v 25.3333 25.3334 H 1942 1982.6667 V 2117.3333 2092 H 1974 c -9.917,0 -14,-2.6477 -14,-9.0785 0,-6.7477 2.8163,-8.8504 12.8425,-9.5882 l 9.0598,-0.6666 0.9353,-4.6016 c 1.0813,-5.3198 4.2001,-8.0651 9.1624,-8.0651 4.9618,0 8.0808,2.7449 9.1641,8.0651 l 0.9369,4.6016 9.5645,0.3907 c 8.4662,0.3458 9.8767,0.7875 12.2829,3.8464 3.3896,4.3092 3.4344,7.2489 0.1719,11.2818 -2.1394,2.6446 -4.1101,3.2543 -12.3304,3.8144 l -9.784,0.6667 0.4606,24.6666 c 0.2533,13.5667 0.6244,24.8391 0.8246,25.0498 0.2002,0.2107 17.2416,-0.034 37.8698,-0.5437 l 37.5058,-0.9269 V 2116.4563 2092 h -13.394 c -12.4429,0 -13.6263,-0.2324 -16.6666,-3.2727 -3.964,-3.964 -4.2097,-9.1237 -0.6061,-12.7273 2.06,-2.06 4.4444,-2.6667 10.4806,-2.6667 4.2976,0 10.5976,-0.3815 14,-0.8479 l 6.1861,-0.8479 v -10.546 c 0,-9.4193 0.3496,-10.8957 3.2727,-13.8188 4.1078,-4.1078 8.7461,-4.1771 12.4948,-0.1868 2.4892,2.6496 2.8991,4.6294 2.8991,14 V 2072 h 5.8011 c 7.3722,0 13.8843,2.254 15.5604,5.3859 4.3052,8.0443 -1.4826,14.6141 -12.8746,14.6141 h -7.1535 v 24.6667 24.6666 H 2141.3333 2184 v -14.4655 c 0,-7.956 -0.388,-19.056 -0.8623,-24.6666 -0.8595,-10.1682 -0.8748,-10.2012 -4.7273,-10.2012 -6.9338,0 -12.0663,-7.4668 -9.5822,-13.9403 1.0001,-2.606 7.3297,-6.0597 11.1056,-6.0597 2.5785,0 2.7329,-0.7777 2.7329,-13.7676 0,-12.6671 0.2466,-13.9993 3.0859,-16.6666 4.0035,-3.7611 9.0425,-3.6869 12.6816,0.1868 2.4115,2.5669 2.8991,4.6694 2.8991,12.5 0,5.1777 0.375,11.2891 0.8334,13.5807 L 2203,2072 h 60.5 60.5 v -192 -192 h -64.6667 -64.6666 v 17.9032 c 0,17.7531 -0.03,17.9264 -3.5132,20.6667 -4.365,3.4335 -7.2925,3.4901 -11.3391,0.219 -2.9526,-2.3867 -3.1891,-3.6469 -3.8144,-20.3333 l -0.6667,-17.7889 h -40 -40 l -0.3752,17.2746 c -0.2973,13.6902 -0.8244,17.771 -2.54,19.6667 -2.999,3.3139 -10.315,3.1068 -13.5672,-0.3841 -2.2988,-2.4674 -2.6493,-5.321 -3.1526,-25.6666 -0.6096,-24.6415 0.1142,-28.21 5.9852,-29.5076 5.2346,-1.1569 282.8579,-1.6853 285.9832,-0.5443 3.3774,1.2331 4.1307,6.563 1.2639,8.9422 -0.9549,0.7925 -7.1049,1.616 -13.6667,1.83 -10.3762,0.3384 -11.9161,0.6931 -11.8195,2.7224 0.061,1.2833 0.2112,24.8333 0.3334,52.3333 l 0.2222,50 h 8.7273 c 7.4882,0 9.1919,0.4647 12,3.2728 4.1078,4.1078 4.1771,8.746 0.1868,12.4948 -2.5332,2.3798 -4.6828,2.8991 -12,2.8991 H 2344 v 100.6667 100.6666 h 44.6667 44.6666 v -60.0286 -60.0285 l 3.3826,-1.5412 c 2.7963,-1.2741 3.7785,-1.1455 5.6667,0.7418 2.0764,2.0754 2.318,7.6742 2.6573,61.5698 l 0.3733,59.2867 h 42.1765 42.1765 l -0.8831,-50.2182 c -0.4857,-27.62 -0.8831,-72.92 -0.8831,-100.6666 V 1804 h -41.3333 -41.3334 v 17.0367 c 0,17.981 -1.405,22.9633 -6.4756,22.9633 -4.8424,0 -5.5244,-2.6663 -5.5244,-21.6 V 1804 h -11.3939 c -10.3195,0 -11.7026,-0.3086 -14.6667,-3.2727 -3.9981,-3.9982 -4.1383,-7.2673 -0.5093,-11.8808 2.7258,-3.4653 2.994,-3.5132 19.6667,-3.5132 h 16.9032 l 3.7235,-4.6667 c 5.3535,-6.7095 12.722,-6.2099 16.566,1.1232 1.2171,2.3219 4.3606,2.468 57.3577,2.6667 53.103,0.199 56.2187,0.3446 58.8781,2.7502 3.7172,3.3623 3.7201,10.2201 0.01,13.5866 -2.4233,2.1964 -5.3547,2.5976 -21.6667,2.9657 l -18.8643,0.4257 0.3004,70.9076 c 0.1652,38.9992 0.682,84.2577 1.1484,100.5744 l 0.8481,29.6666 h 48.5182 48.5183 v -61.9032 -61.9032 l 3.6089,-2.8388 c 4.1539,-3.2675 9.1116,-2.748 12.5622,1.3162 1.9044,2.243 2.2928,10.1005 3.1614,63.9431 l 0.9901,61.3859 h 48.6535 48.6535 l -0.9845,-55.1956 c -0.9777,-54.8203 -0.9658,-55.2056 1.7553,-56.6619 3.2545,-1.7417 6.3907,-0.7951 7.5994,2.294 0.8704,2.2241 3.19,69.9615 3.284,95.8969 l 0.05,13.6666 h 89.3509 89.351 l -0.9006,-53.3505 -0.9006,-53.3504 3.1154,-3.3162 c 3.8785,-4.1285 8.1168,-4.2209 12.702,-0.2768 l 3.5335,3.0393 0.8742,53.294 0.8742,53.294 h 150 150 L 3266.1779,1908 c 0.098,-53.1667 -0.1178,-98.9167 -0.4792,-101.6667 l -0.6571,-5 h -104.1875 c -57.3031,0 -125.3374,0.3983 -151.1874,0.8827 l -47,0.8807 v 21.5773 c 0,19.2104 -0.2675,21.8193 -2.4384,23.7839 -3.0837,2.7908 -10.0586,2.8526 -12.7977,0.1134 -3.0137,-3.0137 -3.4115,-5.7931 -3.7729,-26.3659 l -0.3244,-18.4591 -5.3157,-1.8256 c -8.7147,-2.993 -11.1838,-9.2064 -6.1361,-15.4418 l 2.5481,-3.1477 179.1185,-1.0271 c 98.5152,-0.565 181.4151,-0.7658 184.2221,-0.4464 9.4394,1.0744 13.2611,8.768 7.7413,15.5846 -2.0336,2.5114 -4.1055,3.1762 -11.3333,3.6364 l -8.8449,0.5632 v 145.8447 145.8446 h 151.4184 151.4183 l -0.7773,-83.6666 c -0.4275,-46.0167 -1.1378,-112.0793 -1.5785,-146.8058 l -0.8011,-63.139 -116.8399,0.3542 c -64.2619,0.1948 -117.8086,-0.076 -118.9926,-0.601 -2.3134,-1.0264 -5.1806,-6.3387 -5.1806,-9.5984 0,-1.0989 1.4727,-3.4706 3.2727,-5.2706 2.753,-2.753 4.553,-3.2728 11.3334,-3.2728 h 8.0606 v -11.9032 c 0,-11.2711 0.1865,-12.05 3.5131,-14.6667 4.6136,-3.629 7.8826,-3.4888 11.8808,0.5093 2.9641,2.9641 3.2727,4.3472 3.2727,14.6667 v 11.3939 h 77.7871 c 42.7829,0 87.7829,-0.3942 100,-0.876 l 22.2129,-0.8761 -0.01,-37.4573 c 0,-20.6015 -0.3933,-42.4072 -0.8642,-48.4572 l -0.8563,-11 h -99.9742 -99.9741 l 0.8648,13 c 0.9685,14.5585 -0.1729,18.5032 -6.1883,21.3875 -3.0016,1.4393 -4.2223,1.3934 -7.4582,-0.2799 -2.1281,-1.1005 -4.2373,-3.3749 -4.6871,-5.0542 -0.4499,-1.6794 -0.8261,-14.4699 -0.8362,-28.4234 -0.021,-29.3792 0.5497,-31.2967 9.3152,-31.2967 6.6275,0 9.3333,3.565 9.3333,12.2967 v 6.37 h 100 100 V 1633.3333 1596 h -70.4677 c -48.0108,0 -71.8148,-0.4696 -74.6948,-1.4736 -7.3812,-2.5731 -9.0603,-9.7581 -3.5648,-15.2537 l 3.2728,-3.2727 h 72.9402 72.9402 l -0.8765,-31 c -0.4821,-17.05 -0.878,-41.05 -0.8797,-53.3333 v -22.3334 h -65.7034 c -57.3086,0 -66.0819,-0.2652 -68.6666,-2.0756 -3.4891,-2.4438 -3.765,-4.9322 -0.8681,-7.8291 1.8488,-1.8488 9.9249,-2.0953 68.6666,-2.0953 h 66.5715 v -41.7918 -41.7918 l -20.212,-0.8749 c -11.1166,-0.4811 -40.7738,-0.8748 -65.9048,-0.8748 -39.7611,0 -45.9648,-0.272 -47.788,-2.0952 -2.7055,-2.7055 -2.6531,-5.1564 0.1704,-7.9799 2.0974,-2.0974 7.0956,-2.1925 67.3333,-1.2813 l 65.0677,0.9843 v -48.1473 -48.1473 h -63.801 c -43.1434,0 -65.1697,-0.4771 -68.0281,-1.4735 -7.3812,-2.5731 -9.0604,-9.7582 -3.5648,-15.2537 l 3.2727,-3.2728 h 66.273 66.2729 l -0.8757,-29 c -0.4817,-15.95 -0.8772,-37.55 -0.879,-48 v -19 h -61.801 c -39.7155,0 -63.236,-0.5002 -65.8163,-1.3997 -3.8665,-1.3479 -7.0494,-5.8886 -7.0494,-10.0569 0,-1.0989 1.4728,-3.4706 3.2728,-5.2706 l 3.2727,-3.2728 h 64.0788 64.0788 l -0.3515,-43.6666 -0.3516,-43.6667 -121.8002,-0.021 -121.8002,-0.021 -3.2972,-3.8332 c -2.4557,-2.8549 -3.0798,-4.7213 -2.4454,-7.3123 1.5473,-6.3193 3.901,-7.4452 16.5981,-7.9404 l 11.8295,-0.4614 0.9039,-4.872 c 0.4971,-2.6795 1.8461,-5.9219 2.9977,-7.2053 2.1102,-2.3516 9.0959,-3.1279 11.8142,-1.3129 2.3453,1.566 4.533,6.5151 4.533,10.2547 v 3.4504 l 24.8253,-0.3627 24.8254,-0.3628 0.2992,-4.9452 c 0.7132,-11.787 11.3834,-12.5995 11.3834,-0.8668 0,2.7434 0.523,5.3112 1.1622,5.7062 0.6391,0.395 31.851,0.3325 69.3597,-0.139 l 68.1975,-0.8573 -0.3597,-27.2043 -0.3597,-27.20428 -54,0.0928 c -29.7,0.0511 -60.7184,0.47714 -68.9298,0.94682 l -14.9298,0.85397 -0.4035,3.99054 c -0.2231,2.206 -1.6237,4.79564 -3.1321,5.79089 -2.3204,1.53105 -3.1679,1.49252 -5.6666,-0.25763 -2.6246,-1.83835 -2.9382,-3.23093 -2.9382,-13.04903 0,-6.77083 0.6144,-11.60542 1.6,-12.59106 2.4552,-2.45521 7.201,-1.90281 9.2374,1.0752 1.8051,2.63991 2.7425,2.66339 71.0431,1.77953 l 69.2139,-0.89568 -0.8805,-57.9983 c -0.4843,-31.89906 -0.8806,-78.89985 -0.8806,-104.44619 v -46.4479 h -70.1338 -70.1339 l 0.9846,85.18792 0.9846,85.18791 -2.8507,1.52566 c -4.3386,2.32193 -7.6749,-0.18162 -8.6884,-6.51972 -0.7647,-4.78208 -1.2714,-5.38177 -4.5481,-5.38177 -4.7127,0 -9.6143,-3.41347 -9.6143,-6.69536 0,-3.12304 3.8024,-5.30464 9.2457,-5.30464 h 4.0877 v -33 c 0,-18.15 -0.3981,-51.45 -0.8818,-74 l -0.8795,-41 H 3402.4515 3380 v 73.05761 73.0576 l 4.3333,1.27573 c 3.6425,1.07233 4.3334,1.91349 4.3334,5.27573 0,3.39551 -0.7053,4.22773 -4.6667,5.5069 l -4.6667,1.5069 -0.6666,36.94615 c -0.665,36.85065 -0.6748,36.95274 -3.8144,39.4931 -4.085,3.30533 -6.9757,3.21577 -11.5176,-0.35683 l -3.6915,-2.90377 0.612,-116.42956 0.612,-116.42956 h -46.5052 -46.5053 l 0.7176,14.33334 c 0.3946,7.88333 1.029,47.33333 1.4097,87.66666 0.3807,40.33334 1.08,96.2223 1.5539,124.19769 l 0.8617,50.86433 9.9449,0.5022 c 8.4739,0.4279 10.318,0.9629 12.4669,3.6167 3.4402,4.2485 3.1654,8.9635 -0.7508,12.8796 -2.8687,2.8687 -4.4579,3.2728 -12.8724,3.2728 h -9.5997 l 0.867,17 c 0.4769,9.35 0.8695,28.85 0.8724,43.3333 l 0.01,26.3333 H 3278 c 5.8219,0 10,3.8996 10,9.3334 0,5.4169 -4.1795,9.3333 -9.9603,9.3333 h -4.627 l 0.6911,34.3333 c 1.0176,50.5568 4.5641,335.2962 4.5634,366.391 l -5e-4,26.7242 4.3333,1.2758 c 5.9353,1.7473 8.8557,7.701 6.1475,12.5328 -1.0511,1.8752 -3.606,4.2243 -5.6776,5.2201 l -3.7665,1.8104 0.4248,51.5229 c 0.2336,28.3376 -0.02,52.8083 -0.5627,54.3794 -0.5431,1.5712 -2.6176,3.4878 -4.6098,4.2592 -2.4663,0.9549 -94.0791,1.6942 -287.0562,2.3163 l -283.4339,0.9139 -2.9748,-3.782 c -5.0837,-6.4628 -0.484,-15.2306 7.9902,-15.2306 h 3.8523 V 1670 1649.3333 h -65.6666 c -36.1167,9e-4 -92.2167,0.3987 -124.6667,0.8839 l -59,0.8823 v 31.1161 c 0,29.3383 -0.1524,31.2684 -2.6667,33.7827 -3.5775,3.5775 -9.5052,3.4082 -13.0575,-0.3731 -2.5531,-2.7177 -2.8956,-4.8014 -3.2324,-19.6666 l -0.3767,-16.627 -12.2048,0.462 c -10.962,0.4148 -12.4893,0.1773 -15,-2.3334 -3.1269,-3.1269 -3.3025,-3.9254 -1.4942,-6.7952 0.937,-1.4873 4.7774,-2.171 14.9795,-2.6667 l 13.7195,-0.6667 0.3645,-24.6139 c 0.3419,-23.0882 0.5422,-24.8031 3.2324,-27.6666 6.5774,-7.0014 15.7364,-1.5498 15.7364,9.3665 v 6.2474 h 67.6667 c 37.2166,-10e-4 93.3166,-0.3987 124.6666,-0.8838 l 57,-0.8821 v -45.1162 -45.1162 H 2588.6667 2464 v 3.421 c 0,10.571 -12.6527,14.6581 -17.4763,5.6452 -2.5724,-4.8065 -1.7727,-77.9788 0.8967,-82.0529 2.58,-3.9375 10.1338,-4.1258 13.9129,-0.3467 2.4796,2.4796 2.6667,4.4445 2.6667,28 v 25.3334 h 94.8835 94.8835 l -0.8835,-54.2185 C 2652.3976,1434.628 2652,1393.528 2652,1373.1148 V 1336 h -94 -94 v 41.8202 c 0,40.2894 -0.1012,41.9488 -2.7634,45.3333 -3.3086,4.2062 -9.379,4.7041 -13.0154,1.0677 -2.3128,-2.3128 -2.493,-7.9404 -3.3241,-103.8275 -0.6265,-72.2931 -0.4585,-102.5873 0.5857,-105.5827 2.5642,-7.3555 9.7576,-9.0251 15.2445,-3.5383 3.051,3.051 3.2727,4.2028 3.2721,17 l -5e-4,13.7273 70.3339,-0.3074 c 38.6836,-0.1691 80.7129,-0.6848 93.3983,-1.146 l 23.0645,-0.8386 -0.3978,-45.7446 c -0.2188,-25.1596 -0.6978,-46.0258 -1.0645,-46.3695 -0.3666,-0.3437 -42.2166,-1.064 -93,-1.6006 L 2464,1145.0175 v 9.9781 c 0,8.0757 -0.5269,10.6479 -2.7634,13.4913 -4.7157,5.9949 -13.1331,4.2197 -15.763,-3.3244 -1.9403,-5.5658 -1.9403,-47.4259 0,-52.9917 2.5731,-7.3812 9.7581,-9.0603 15.2537,-3.5647 2.6878,2.6878 3.2727,4.594 3.2727,10.6666 v 7.394 l 121,0.1206 c 66.55,0.066 244,0.5616 394.3333,1.1005 150.3334,0.5389 273.6334,0.6346 274,0.2127 0.3667,-0.4219 0.4786,-20.1172 0.2487,-43.7672 l -0.418,-43 h -106.383 c -74.2332,0 -107.6605,-0.4453 -110.6102,-1.4735 -7.3812,-2.5731 -9.0603,-9.7582 -3.5647,-15.2537 2.8915,-2.8916 4.4347,-3.2728 13.2488,-3.2728 h 9.9761 l 0.4179,-4.3333 c 0.3841,-3.9839 0.7941,-4.3333 5.0844,-4.3333 4.2904,0 4.7004,0.3494 5.0845,4.3333 l 0.4178,4.3333 h 46.5822 c 27.7771,0 46.5822,-0.4998 46.5822,-1.2381 0,-2.1582 4.0908,-5.4285 6.7905,-5.4285 1.4794,0 3.2546,1.4366 4.1188,3.3333 l 1.5187,3.3333 h 39.5638 c 21.7601,0 39.8138,-0.2489 40.1193,-0.5532 0.3056,-0.3043 0.046,-42.4543 -0.5772,-93.66668 -0.8229,-67.63959 -1.5524,-93.38141 -2.6667,-94.093 -0.8436,-0.53877 -18.8752,-0.98877 -40.0701,-1 L 3170.2609,832 l 0.7293,77.23681 c 0.625,66.18256 0.4524,77.63229 -1.206,80 -1.0645,1.51976 -2.7585,2.76319 -3.7646,2.76319 -2.8772,0 -6.0196,-3.87786 -6.0196,-7.42857 0,-3.23753 0,-3.2381 -15.0667,-3.2381 -15.9655,0 -18.2666,-0.78353 -18.2666,-6.21975 0,-4.6834 4.1952,-5.95361 18.7691,-5.68286 7.3316,0.1362 13.6393,-0.0613 14.0169,-0.43901 0.3777,-0.37767 0.2606,-31.3553 -0.2602,-68.83919 L 3158.2455,832 h -45.7894 -45.7894 v 67.81006 67.81006 l 8.1956,0.8566 c 4.5075,0.47114 11.6585,0.85661 15.8909,0.85661 4.2325,0 8.6444,0.3642 9.8044,0.80932 2.3884,0.91652 2.9112,7.87087 0.6947,9.24075 -0.7779,0.48076 -8.8779,0.79671 -18,0.70211 l -16.5856,-0.172 v 4.07183 c 0,5.27717 -5.505,8.41446 -8.8665,5.053 -1.8695,-1.86958 -2.0776,-10.64219 -1.8872,-79.56979 L 3056.127,832 h -44.7302 -44.7301 v 49.66667 c 0,27.31666 0.3983,69.91666 0.8824,94.66666 l 0.8803,44.99997 h 10.2711 c 8.3721,0 10.9207,0.511 13.7843,2.7635 4.4594,3.5078 4.8039,10.3204 0.7095,14.0299 -2.5169,2.2803 -5.4715,2.5848 -28.8986,2.9782 -14.3523,0.241 -28.0931,0.063 -30.535,-0.3948 -9.1423,-1.7151 -12.5136,-10.0805 -6.4901,-16.104 2.8081,-2.8081 4.5118,-3.2728 12,-3.2728 H 2948 V 969.66667 C 2947.9965,941.25 2947.5996,898.65 2947.1156,875 l -0.8799,-43 H 2909.1179 2872 v 94.66667 94.66663 h 5.1535 c 12.9295,0 17.0908,14.4309 5.3423,18.5265 -2.8669,0.9994 -25.5507,1.4735 -70.4958,1.4735 -44.9451,0 -67.6289,-0.4741 -70.4958,-1.4735 -7.3812,-2.5731 -9.0604,-9.7582 -3.5648,-15.2537 2.5429,-2.543 4.6651,-3.2728 9.5168,-3.2728 h 6.2441 l -0.839,-24.99997 c -0.4614,-13.75 -1.1605,-52.3 -1.5535,-85.66666 -0.393,-33.36667 -1.0492,-65.01667 -1.4583,-70.33334 l -0.7437,-9.66666 h -39.4356 -39.4356 l 0.8806,47 c 0.4844,25.85 0.8816,68.75 0.8827,95.33333 v 48.3333 h 11.1535 c 9.2648,0 11.7485,0.468 14.6667,2.7635 4.242,3.3368 4.6412,8.8802 0.9664,13.4222 -2.4756,3.0598 -3.2069,3.1601 -26.1885,3.594 -13.003,0.2455 -25.6905,0.062 -28.1943,-0.4077 -9.345,-1.7531 -12.6298,-9.9338 -6.4644,-16.0992 2.8768,-2.8768 4.4496,-3.2727 13,-3.2722 l 9.7273,6e-4 -0.2926,-67.00056 c -0.1609,-36.85033 -0.6774,-79.75061 -1.1476,-95.33394 l -0.855,-28.33333 h -38.9406 -38.9407 L 2580.9438,919 c 0.2505,48.58333 0.7834,91.4833 1.1841,95.3333 l 0.7286,7 h 5.0575 c 10.39,0 16.2041,10.5234 9.2782,16.7934 -2.6662,2.4137 -6.0463,2.5584 -68,2.9099 l -65.1943,0.37 v 4.024 c 0,4.9311 -5.2235,10.5694 -9.7917,10.5694 -1.7854,0 -4.6627,-1.147 -6.3939,-2.5489 l -3.1477,-2.5488 v -81.56897 -81.56894 l 3.1477,-2.54886 c 4.0043,-3.24249 8.3664,-3.24274 12.3712,-7.1e-4 l 3.1477,2.54815 0.3693,66.78518 0.3694,66.78515 h 49.5145 49.5146 l -0.8839,-58.21874 c -0.4861,-32.02032 -0.8839,-74.92032 -0.8839,-95.33333 v -37.11456 h -48.5209 -48.5209 l -0.5123,10.1447 c -0.4382,8.6778 -0.9627,10.50937 -3.6268,12.66667 -4.2485,3.44025 -8.9635,3.16541 -12.8797,-0.75077 -2.8554,-2.85539 -3.2727,-4.47063 -3.2727,-12.66666 v -9.39394 h -48.1896 -48.1895 l 0.8542,119.66666 c 0.4698,65.81667 1.2413,214.33617 1.7146,330.04337 l 0.8604,210.3766 -3.0927,3.2921 c -1.701,1.8106 -5.2373,3.8877 -7.8584,4.6159 -6.8099,1.8917 -826.2798,1.8342 -831.7089,-0.058 -2.2043,-0.7684 -4.6801,-2.7184 -5.5019,-4.3334 -1.0664,-2.0957 -2.2687,-90.5287 -4.2004,-308.9362 -1.4884,-168.3 -3.0938,-349.24396 -3.5674,-402.09774 -0.4736,-52.85377 -0.4623,-97.68645 0.025,-99.62818 0.4874,-1.94172 2.229,-4.26111 3.8703,-5.15419 2.3234,-1.26415 66.4728,-1.56647 289.651,-1.36503 157.6666,0.14232 346.6666,0.6217 420,1.06531 129.0061,0.78039 133.4198,0.88952 136,3.36265 2.5826,2.47555 2.6783,4.55042 3.0376,65.85332 l 0.371,63.29723 H 2396.0356 2444 v -116 -116 h -5.801 c -14.7635,0 -21.7378,-8.58245 -13.5929,-16.72728 2.7529,-2.75294 4.5529,-3.27272 11.3333,-3.27272 H 2444 v -9.39394 c 0,-8.19604 0.4173,-9.81128 3.2727,-12.66667 3.676,-3.67594 8.2799,-4.20061 12.1391,-1.38339 2.0594,1.50329 2.7244,4.0233 3.2549,12.33333 l 0.6666,10.444 95,0.34222 95,0.34221 V 427.34222 296 H 2558 2462.6667 v 101.03666 c 0,112.5063 0.453,106.96334 -8.7423,106.96334 -2.8133,0 -5.6237,-1.0326 -7.2577,-2.66667 -2.6199,-2.61988 -2.6667,-4.44444 -2.6667,-104 V 296 h -38.6667 -38.6666 v 101.23656 101.23656 l -3.5132,2.76344 c -4.4319,3.48614 -7.2084,3.48614 -11.6404,0 L 2348,498.47312 V 360.56989 222.66667 l -32.3333,-0.003 c -17.7834,-0.001 -49.0343,-0.39912 -69.4464,-0.88376 l -37.1131,-0.88117 0.3702,131.06323 0.3703,131.06323 -3.0716,2.4872 c -7.0037,5.67127 -16.1094,0.56943 -16.1094,-9.02595 V 472 H 2150 2109.3333 v 43.33333 43.33334 h 40.5706 40.5706 l 0.4294,-20.12084 c 0.4116,-19.28659 0.5599,-20.2264 3.5771,-22.66667 4.0046,-3.23885 8.3667,-3.23885 12.3713,0 3.0172,2.44027 3.1655,3.38008 3.5771,22.66667 l 0.4294,20.12084 h 20.3908 c 18.6099,0 20.6976,0.24135 23.9039,2.76344 6.3151,4.96742 3.0708,15.73894 -4.8202,16.00399 -1.65,0.0554 -40.5,0.015 -86.3333,-0.0897 -82.7765,-0.18923 -83.3534,-0.20928 -86.3333,-2.99985 -1.65,-1.54513 -3,-4.23202 -3,-5.97086 0,-4.44014 5.6769,-9.70697 10.4627,-9.70697 h 3.9173 l 0.9023,-23 c 0.4963,-12.65 0.7108,-32.3 0.4766,-43.66667 L 2090,471.33333 l -6.2927,-0.40473 c -4.8957,-0.31487 -6.8938,-1.16883 -9,-3.84647 -3.5737,-4.54314 -3.4164,-7.82758 0.5654,-11.8094 2.5148,-2.51475 4.6764,-3.27273 9.3334,-3.27273 h 6.0606 v -6 c 0,-7.50054 3.3563,-11.33333 9.9244,-11.33333 5.8342,0 8.7422,3.86865 8.7422,11.63 V 452 H 2150 h 40.6667 v -47.78214 c 0,-26.28018 -0.3974,-68.58909 -0.883,-94.0198 l -0.883,-46.23765 -38.7837,0.35313 -38.7837,0.35313 -0.6666,73.52794 c -0.634,69.91999 -0.7913,73.6656 -3.2067,76.33333 -3.7088,4.09639 -10.5213,3.75273 -14.0299,-0.70775 -2.5234,-3.20794 -2.7634,-5.29293 -2.7634,-24 v -20.48686 h -14.5715 c -14.9226,0 -18.7619,-1.23181 -18.7619,-6.01963 0,-4.27871 5.5856,-5.98037 19.63,-5.98037 h 13.7034 l 0.1762,-41 c 0.097,-22.55 0.247,-43.4 0.3334,-46.33333 l 0.157,-5.33333 L 2081.2647,264 c -11.228,-0.74343 -15.817,-2.97052 -20.0681,-9.73911 -1.9696,-3.136 -2.5195,-5.79712 -2.083,-10.07987 0.7286,-7.14781 4.1649,-12.07225 10.6856,-15.31304 4.61,-2.29117 9.0079,-2.45396 62.2473,-2.30411 l 57.2868,0.16124 v -8.75649 c 0,-7.51925 0.4625,-9.21892 3.2728,-12.02923 l 3.2727,-3.27272 h 57.8462 c 31.8154,0 69.741,0.39837 84.2792,0.88527 23.6616,0.79245 26.7034,1.15563 29.0117,3.46395 2.0583,2.05828 2.3836,3.5614 1.6121,7.44807 -0.5316,2.67815 -1.2131,17.61168 -1.5144,33.1856 l -0.5478,28.31623 148.6917,0.35044 148.6916,0.35044 4.3509,4.35103 4.3508,4.35102 -0.046,142.31564 c -0.05,152.59033 0.2001,147.06193 -6.7722,149.7128 -2.0065,0.76287 -43.2937,1.26951 -103.456,1.26951 h -100.1169 l 0.8644,15 c 0.4753,8.25 0.867,60.37702 0.8703,115.83782 l 0.01,100.83782 123,0.80322 c 67.65,0.44177 244.35,1.14838 392.6667,1.57023 l 269.6666,0.76702 v -42.07472 c 0,-41.11909 0.064,-42.13907 2.8328,-44.90745 2.4209,-2.42091 3.8262,-2.71335 9.6666,-2.01159 3.7587,0.45163 78.9505,0.82635 167.0929,0.83272 l 160.259,0.0116 3.4624,3 3.4624,3 1.8642,232 c 1.0254,127.59996 2.1783,262.29996 2.562,299.33336 2.3326,225.145 6.4881,838.5996 5.7012,841.6424 -0.5575,2.1555 -2.7032,4.6048 -5.2561,6 -4.0455,2.2108 -14.0908,2.38 -161.4058,2.7176 -108.7228,0.2492 -158.7272,-0.08 -162.4036,-1.0703 -10.8197,-2.9135 -10.5046,-1.5153 -10.5046,-46.6231 v -40 H 2805.3333 2344 v 29.8523 c 0,27.4009 -0.2092,30.1108 -2.5478,33 l -2.5478,3.1477 -56.9884,0.3885 -56.9884,0.3884 0.9302,31.7222 c 0.8617,29.3844 0.7539,31.9263 -1.4638,34.4914 l -2.394,2.7692 -287.7528,0.7613 -287.7528,0.7614 z M 1665.3253,2129 c 0,-7.5167 -0.3933,-18.6167 -0.8642,-24.6667 -0.8256,-10.6047 -0.9757,-11 -4.1778,-11 -3.2247,0 -3.2969,0.2039 -2.4806,7 0.4624,3.85 0.846,14.95 0.8524,24.6667 l 0.012,17.6667 h 3.3333 3.3333 z m 541.3345,0.6667 c -0.01,-17.2103 -1.5639,-37.6667 -2.8609,-37.6667 -1.2756,0 -1.5381,41.6828 -0.2919,46.3333 1.7216,6.4239 3.1594,2.4715 3.1528,-8.6666 z M 969.33174,1972.3333 c -8.7e-4,-22.55 -0.39872,-68.45 -0.8841,-102 l -0.88252,-61 h -10.02996 c -8.46292,0 -10.51209,-0.4529 -13.11589,-2.8991 -3.87368,-3.6391 -3.94793,-8.6781 -0.18685,-12.6816 2.51454,-2.6766 4.18425,-3.0859 12.58798,-3.0859 5.32889,0 10.00007,-0.5035 10.38041,-1.1189 0.38033,-0.6154 0.31865,-34.8154 -0.13709,-76 l -0.8286,-74.8811 h -41.95088 -41.95087 l 0.60227,40.6578 c 0.33124,22.3618 0.98007,41.0357 1.44184,41.4974 0.46177,0.4618 6.28991,1.1504 12.95142,1.5302 10.0059,0.5705 12.34249,1.1215 13.43838,3.1692 0.8944,1.6712 0.86162,3.3474 -0.10061,5.1454 -1.27284,2.3783 -2.79177,2.6666 -14.04692,2.6666 H 884 V 1762 v 28.6667 h 8.66667 c 9.91697,0 14,2.6477 14,9.0785 0,6.7586 -2.81255,8.8505 -12.89133,9.5881 l -9.10867,0.6667 0.39988,93.3333 c 0.21993,51.3334 0.73983,97.0834 1.15533,101.6667 l 0.75545,8.3333 h 41.178 41.178 z M 649.33333,1651.3141 v -42.0193 l -41,0.3526 -41,0.3526 -0.35233,41.6667 -0.35232,41.6666 h 41.35232 41.35233 z m 214.48181,7.2381 -0.48181,-34.7811 3.14772,-2.5522 c 2.98711,-2.422 5.95568,-2.5522 58.18562,-2.5522 51.78805,0 55.21983,0.1473 58.11895,2.4948 2.1948,1.7773 3.08105,3.8867 3.08105,7.3334 v 4.8384 h 65.16303 65.163 l -0.3142,-54.1919 c -0.2982,-51.4371 -0.1885,-54.2838 2.1585,-56 1.8891,-1.3813 8.8635,-1.8081 29.5512,-1.8081 h 27.0785 l 8e-4,-70.3333 c 4e-4,-38.6833 0.3993,-123.8833 0.8864,-189.3333 l 0.8856,-119 H 872.21975 568 l -0.29825,212.6666 C 567.53772,1472.3 567.38772,1572.95 567.36842,1579 l -0.0351,11 47.78348,0.6667 47.78348,0.6666 3.21652,3.7411 3.21652,3.741 v 47.259 47.2589 h 97.48181 97.48181 z m 2273.36956,29.9219 124.518,-0.8015 -0.8594,-45.503 c -0.4727,-25.0266 -2.1244,-146.3029 -3.6706,-269.5029 -1.5462,-123.2 -2.8926,-224.0909 -2.992,-224.202 -0.099,-0.1111 -131.8245,-0.6452 -292.7225,-1.1868 l -292.5419,-0.9847 0.8706,61.8534 c 0.4788,34.0194 1.202,115.8534 1.607,181.8534 0.405,66 1.0343,121.95 1.3983,124.3333 l 0.662,4.3334 h 25.3157 c 25.8678,0 34.4815,1.3929 34.621,5.5986 0.032,0.9541 0.01,38.7988 -0.055,84.0995 l -0.1129,82.3647 139.7221,-0.727 c 76.8471,-0.3998 195.7552,-1.0876 264.2401,-1.5284 z M 2331.2534,1385 c -0.3699,-52.25 -1.2693,-228.1661 -1.9987,-390.92462 -0.7294,-162.75854 -1.4601,-296.0302 -1.6238,-296.15925 -0.1636,-0.12904 -183.495,-0.65995 -407.403,-1.17979 l -407.1054,-0.94517 0.777,29.10441 c 0.4273,16.00743 2.0126,189.90442 3.5228,386.43772 1.5103,196.5334 3.0448,359.8834 3.4102,363 l 0.6642,5.6667 h 405.2146 405.2146 z m 319.8974,-96.6667 c -0.4699,-19.6166 -0.952,-35.7975 -1.0711,-35.9574 -0.1192,-0.1599 -42.0359,0.088 -93.1482,0.5508 L 2464,1253.7681 v 35.116 V 1324 h 94.0027 94.0026 z M 2860,926.88095 v -94.45238 l -48.2316,-0.91603 c -26.5274,-0.50382 -48.6889,-0.45025 -49.2478,0.11905 -0.7452,0.75905 1.9001,187.31661 2.6852,189.36841 0.07,0.1833 21.4275,0.3333 47.4609,0.3333 H 2860 Z M 1742.6667,514 v -44.66667 l -11,-0.0197 c -11.9866,-0.0214 -16.7526,-1.63822 -19.1797,-6.50642 -2.0998,-4.21184 -0.02,-9.98472 4.3088,-11.95681 1.8313,-0.83442 8.4014,-1.51712 14.6003,-1.51712 h 11.2706 V 356.66667 264 H 1699.3333 1656 v 92.66667 92.66666 h 15.3939 c 14.5664,0 15.5699,0.17594 18.6667,3.27273 3.9982,3.99818 4.1383,7.26724 0.5093,11.8808 -2.7094,3.44448 -3.0743,3.51314 -18.6667,3.51314 H 1656 l -0.018,42.33333 c -0.01,23.28334 -0.38,43.68334 -0.8222,45.33334 l -0.804,3 h 44.1556 44.1555 z m 442.0407,1466.8614 c -3.5648,-2.6067 -4.4983,-11.8463 -4.6101,-45.629 -0.096,-29.1028 -0.063,-29.4669 2.9886,-32.3333 4.0157,-3.7726 9.0451,-3.6841 12.7163,0.2236 2.819,3.0007 2.9651,4.4729 3.7386,37.6667 0.7968,34.1916 0.7751,34.5813 -2.1313,38.2106 -3.259,4.0696 -8.6098,4.8537 -12.7021,1.8614 z m -518.0407,-3.5281 c -2.4007,-2.4007 -2.6993,-4.6947 -2.9933,-23 -0.6644,-41.364 -0.8167,-39.4911 3.5142,-43.2145 4.4471,-3.8233 9.3333,-3.4197 13.1457,1.0858 2.0707,2.447 2.3334,6.1184 2.3334,32.6098 0,28.0745 -0.1588,30.0111 -2.6667,32.5189 -1.4815,1.4815 -4.4444,2.6667 -6.6667,2.6667 -2.2222,0 -5.1852,-1.1852 -6.6666,-2.6667 z m 415.0743,-0.549 -3.741,-3.2157 -0.399,-31.8544 c -0.3852,-30.7569 -0.3014,-31.9783 2.4302,-35.451 3.5733,-4.5428 10.353,-4.924 14.0955,-0.7926 2.325,2.5666 2.5754,5.5543 2.9589,35.3083 l 0.419,32.5044 -3.3584,3.3583 c -4.2102,4.2102 -7.6275,4.2495 -12.4052,0.1427 z m -292.1896,-0.5662 c -2.1613,-2.1614 -2.5475,-5.7486 -3.2927,-30.5842 -0.5629,-18.7603 -0.3667,-29.5053 0.5888,-32.2462 2.5338,-7.2684 9.756,-8.9054 15.2131,-3.4483 l 3.2727,3.2727 v 29.8282 c 0,29.4551 -0.039,29.8645 -3.0859,32.7273 -3.7702,3.5419 -9.4046,3.7418 -12.696,0.4505 z M 550.49659,1941.7962 c -1.47376,-1.7748 -1.95968,-14.6853 -2.49659,-66.3333 l -0.66667,-64.1296 -17.11173,-0.6666 c -14.94877,-0.5824 -17.35041,-0.9939 -19,-3.2549 -3.02575,-4.1473 -2.33367,-9.5346 1.62488,-12.6484 3.10581,-2.443 5.3474,-2.7634 19.33333,-2.7634 H 548 v -11.9032 c 0,-11.2712 0.18655,-12.05 3.51314,-14.6667 4.61356,-3.629 7.88262,-3.4889 11.8808,0.5093 2.96411,2.9641 3.27273,4.3472 3.27273,14.6667 V 1792 h 32.66666 c 30.88889,0 32.81179,0.1451 35.33334,2.6667 3.4855,3.4855 3.42041,9.5704 -0.13685,12.7933 -2.54653,2.3072 -5.75482,2.6011 -35,3.2067 l -32.19649,0.6666 -0.66666,63.6243 c -0.60718,57.9472 -0.8737,63.866 -2.98695,66.3334 -2.87303,3.3544 -10.57227,3.6495 -13.18313,0.5052 z M 1666.481,1853.4548 c -3.0821,-2.4922 -3.1618,-3.1237 -3.827,-30.3333 -0.7433,-30.4024 -0.1366,-37.4065 3.4683,-40.0425 3.1311,-2.2895 8.7153,-2.2223 11.9562,0.144 2.3911,1.7458 2.6389,4.1568 3.2548,31.6667 0.3667,16.3773 0.2149,31.6315 -0.3374,33.8981 -0.6161,2.5287 -2.3149,4.7185 -4.3961,5.6667 -4.6718,2.1287 -6.4695,1.951 -10.1188,-0.9997 z m 122.1072,-0.6775 c -2.3787,-1.7364 -2.6479,-4.1914 -3.3263,-30.3333 -0.7637,-29.429 -0.2198,-36.0576 3.2432,-39.5205 3.2734,-3.2734 9.8764,-2.5371 13.6393,1.5209 1.8132,1.9556 4.0796,3.5556 5.0362,3.5556 3.3074,0 6.3568,4.9119 5.9132,9.5246 -0.3191,3.3178 -1.5164,5.1193 -4.7352,7.1247 l -4.3082,2.684 0.082,21.1098 c 0.071,18.2402 -0.2325,21.4574 -2.2319,23.6667 -2.744,3.0321 -9.6022,3.376 -13.3124,0.6675 z m 294.3777,0.4058 c -4.476,-1.6558 -5.6326,-5.5367 -5.6326,-18.8999 0,-6.9073 -0.3854,-16.2467 -0.8566,-20.7543 -0.8319,-7.9597 -0.968,-8.1956 -4.7272,-8.1956 -4.7387,0 -10.4162,-5.2909 -10.4162,-9.7069 0,-4.3634 5.271,-8.9597 10.2748,-8.9597 3.3618,0 4.2687,-0.6609 5.0212,-3.6592 1.1594,-4.6196 3.1057,-6.9728 6.9879,-8.4487 5.5917,-2.126 12.3828,3.4518 12.3828,10.1706 0,1.0655 0.6,1.9373 1.3333,1.9373 2.7428,0 6.6667,5.47 6.6667,9.2934 0,2.854 -1.1172,4.7861 -4,6.9174 l -4,2.9573 v 20.7859 c 0,16.1376 -0.4387,21.4122 -1.9616,23.5865 -2.2449,3.205 -6.999,4.4828 -11.0725,2.9759 z m 99.1121,-2.9839 c -2.9339,-2.9338 -3.1964,-4.5068 -4.1075,-24.6121 -0.8403,-18.5428 -1.3148,-21.787 -3.4719,-23.7392 -3.3455,-3.0276 -3.2555,-10.0829 0.1681,-13.1812 1.4763,-1.3361 2.6666,-4.1067 2.6666,-6.2067 0,-4.9395 4.282,-9.1267 9.3334,-9.1267 4.7719,0 9.3333,4.1149 9.3333,8.4198 0,2.21 1.315,3.7134 4.6317,5.295 7.7174,3.6802 7.7488,14.0191 0.051,16.9457 l -3.3498,1.2735 v 21.2696 21.2696 l -3.5131,2.7634 c -4.5726,3.5968 -7.8791,3.4924 -11.7422,-0.3707 z m 572.4186,-3.0663 c -1.3369,-1.6076 -1.9445,-7.8937 -2.255,-23.3333 l -0.4251,-21.1329 -42.2416,0.015 c -23.2329,0.01 -44.4312,0.3768 -47.1073,0.8194 l -4.8658,0.8046 -0.4834,10.6446 c -0.4198,9.2439 -0.8955,10.9784 -3.6153,13.1807 -1.7225,1.3948 -4.4989,2.5361 -6.1698,2.5361 -1.6708,0 -4.4472,-1.1413 -6.1698,-2.5361 -2.7241,-2.2058 -3.1954,-3.9344 -3.6196,-13.2756 l -0.4877,-10.7397 -4.6172,-1.5238 c -5.2529,-1.7336 -7.8472,-6.1222 -6.5871,-11.143 1.8768,-7.4776 -3.3068,-7.1718 127.4814,-7.5189 66.3667,-0.1761 121.7167,-0.2323 123,-0.1249 3.5338,0.2958 7.6667,5.1057 7.6667,8.9226 0,1.8666 -1.4727,4.8666 -3.2727,6.6666 l -3.2728,3.2728 H 2820.7273 2764 V 1824.4 c 0,22.3092 -0.5722,24.9333 -5.4367,24.9333 -1.2302,0 -3.0602,-0.9901 -4.0667,-2.2004 z M 1885.8543,1727.5462 1882,1724.2309 v -21.9755 c 0,-19.739 0.2585,-22.2611 2.54,-24.7821 3.7084,-4.0977 10.5207,-3.7547 14.0299,0.7065 2.5301,3.2165 2.7634,5.2869 2.7634,24.519 0,18.0661 -0.3265,21.3917 -2.3333,23.7633 -3.813,4.5062 -8.6988,4.9092 -13.1457,1.0841 z m 95.479,0.4538 c -2.3359,-2.3359 -2.7055,-4.6925 -2.9803,-19 -0.5998,-31.2309 -0.7007,-30.2652 3.5419,-33.9145 4.4058,-3.7897 9.3055,-3.3713 13.1051,1.1191 2.027,2.3955 2.3333,5.8009 2.3333,25.9431 0,21.4079 -0.2044,23.3901 -2.6666,25.8523 -1.4815,1.4815 -4.4445,2.6667 -6.6667,2.6667 -2.2222,0 -5.1852,-1.1852 -6.6667,-2.6667 z m -193.5189,-3.8793 c -2.9416,-2.3792 -3.1769,-3.6018 -3.5927,-18.6667 l -0.445,-16.1207 h -11.0419 c -13.3132,0 -18.0681,-2.6027 -18.0681,-9.8901 0,-7.8535 3.33,-9.3795 21.5837,-9.8908 26.1546,-0.7327 27.0829,0.3491 27.0829,31.5619 0,19.8797 -0.087,20.5186 -3.1477,23 -4.0021,3.2452 -8.3642,3.2474 -12.3712,0.01 z m 743.1575,-14.3229 c -3.1055,-1.2926 -5.7286,-8.0542 -4.4396,-11.4443 2.7384,-7.2026 0.6347,-6.9901 73.3381,-7.4075 37.1046,-0.2131 68.771,-0.062 70.3697,0.3353 7.1948,1.7888 9.7079,11.2716 4.2876,16.1787 -2.6756,2.4224 -6.0257,2.5517 -72.3333,2.7916 -38.2402,0.1383 -70.2904,-0.066 -71.2225,-0.4538 z M 443.27273,1616.7273 c -3.01761,-3.0176 -3.27273,-4.2649 -3.27273,-16 V 1588 H 428.57901 C 415.6427,1588 412,1586.6817 412,1582 c 0,-4.6817 3.6427,-6 16.57901,-6 H 440 v -69.1535 c 0,-67.9418 0.0484,-69.2151 2.76344,-72.6667 3.33726,-4.2426 8.88111,-4.6411 13.42218,-0.9649 l 3.14771,2.5483 0.39517,85.1184 c 0.21734,46.8151 0.0339,87.1019 -0.4077,89.5261 -1.6749,9.1951 -9.92409,12.4436 -16.04807,6.3196 z m 2924.74287,-5.7799 c -1.9894,-1.6109 -3.171,-4.3772 -3.6375,-8.5157 l -0.6909,-6.1296 -6.4624,-0.8573 C 3342.0604,1593.4332 3343.5143,1576 3358.8465,1576 H 3364 v -14.4342 c 0,-13.364 0.2288,-14.6493 3.0859,-17.3334 3.8563,-3.6228 9.4235,-3.723 12.9141,-0.2324 2.3291,2.3291 2.6667,4.4444 2.6667,16.7085 0,10.1084 0.4668,14.1659 1.6666,14.4847 7.4349,1.9756 9.8457,3.3079 11.5814,6.4003 3.1034,5.5291 0.706,10.6074 -6.1286,12.9817 -5.1617,1.7932 -5.535,2.2736 -6.1745,7.9474 -0.7503,6.6565 -4.4437,10.8107 -9.6116,10.8107 -1.6709,0 -4.3638,-1.0736 -5.9844,-2.3859 z m -1.2746,-101.5397 c -1.4257,-1.4258 -2.8942,-4.5758 -3.2632,-7 -0.369,-2.4242 -1.3093,-66.8054 -2.0896,-143.0693 -1.3742,-134.3108 -1.3409,-138.7663 1.0617,-142 3.1918,-4.2958 9.3523,-5.0057 13.599,-1.5669 2.8891,2.3395 3.2264,3.7964 3.7192,16.0673 l 0.5421,13.4945 h 9.0305 c 10.0289,0 13.9327,2.0694 15.3666,8.1457 0.6048,2.5633 -0.04,4.4797 -2.4491,7.2807 -2.9124,3.3858 -4.3084,3.8603 -12.7641,4.3381 l -9.4941,0.5365 v 26.9708 c 0,14.834 0.3937,36.0663 0.8748,47.1829 l 0.8749,20.212 h 8.9619 c 9.4537,0 12.5987,1.6733 11.72,6.2358 -0.7547,3.9189 -6.3248,5.8762 -14.0983,4.954 l -7,-0.8304 0.021,41.8203 c 0.011,23.0012 0.4787,42.5413 1.0389,43.4226 0.5994,0.9431 5.0521,1.7659 10.8227,2 8.3435,0.3384 10.0905,0.8301 11.7255,3.3 1.7279,2.6102 1.643,3.1804 -0.8432,5.6666 -2.2704,2.2705 -4.4322,2.7644 -12.0977,2.7644 h -9.3333 v 18.0606 c 0,17.3977 -0.1202,18.1808 -3.2728,21.3334 -3.9362,3.9362 -9.1184,4.2149 -12.6529,0.6804 z M 445.75383,1397.324 C 441.08567,1395.4432 440,1391.6877 440,1377.421 V 1364 h -21.23656 -21.23656 l -2.76344,-3.5131 C 393.24355,1358.5546 392,1355.9355 392,1354.6667 c 0,-1.2689 1.24355,-3.888 2.76344,-5.8202 l 2.76344,-3.5132 H 418.76344 440 v -16.4868 c 0,-14.6604 0.30614,-16.8761 2.76344,-20 3.50919,-4.4612 10.32148,-4.8043 14.02991,-0.7065 2.38082,2.6308 2.53998,5.3534 2.53998,43.4488 v 40.6421 l -3.74101,3.2179 c -4.01485,3.4534 -5.30921,3.7001 -9.83849,1.8752 z M 3362.8991,1172.9141 c -1.8514,-1.9707 -2.8991,-4.7947 -2.8991,-7.8139 0,-2.6004 -0.3816,-7.5118 -0.8479,-10.9141 -0.8424,-6.1457 -0.8816,-6.1861 -6,-6.1861 -9.5547,0 -14.0307,-9.5379 -7.3995,-15.7676 2.9354,-2.7577 4.2714,-2.8991 27.3939,-2.8991 24.0308,0 24.3454,0.037 27.5808,3.2728 3.9842,3.9842 4.1881,8.5751 0.5541,12.4758 -2.3275,2.4983 -4.1499,2.9181 -12.6667,2.9181 h -9.948 v 10.7273 c 0,9.6116 -0.3404,11.0676 -3.2728,14 -4.1078,4.1078 -8.746,4.1771 -12.4948,0.1868 z M 442.16644,1059.6667 c -1.04227,-1.65 -2.30996,-8.25 -2.8171,-14.6667 l -0.92206,-11.6667 h -63.27424 -63.27425 l -3.27273,-3.2727 c -3.69061,-3.6906 -4.13827,-8.137 -1.20925,-12.0109 2.93824,-3.8861 13.70706,-4.5402 76.29844,-4.6339 l 55.02859,-0.082 1.4777,-3.2432 c 3.24478,-7.1215 14.43014,-7.196 17.1227,-0.114 1.19348,3.1391 1.87339,3.3572 10.46295,3.3572 7.27483,0 9.9176,0.5751 12.69967,2.7635 4.23226,3.3291 4.64312,8.879 0.99118,13.3889 -2.1573,2.6642 -3.98887,3.1886 -12.66667,3.6268 l -10.1447,0.5123 v 11.8543 c 0,10.0765 -0.39992,12.2542 -2.66667,14.5209 -3.77776,3.7778 -11.35196,3.5952 -13.83356,-0.3333 z m 191.26367,-31.1798 c -5.78727,-7.3574 -1.65387,-13.9908 9.4099,-15.1015 l 7.15999,-0.7187 0.38136,-12.97882 c 0.33236,-11.31113 0.71783,-13.15887 3,-14.38025 1.83062,-0.97972 3.40666,-0.97972 5.23728,0 2.28217,1.22138 2.66764,3.06912 3,14.38025 L 662,1012.6667 h 44.66667 44.66666 l 0.34732,-58.29394 c 0.33749,-56.64324 0.42244,-58.33411 3,-59.71358 1.87601,-1.00401 3.42936,-1.00401 5.30536,0 2.57722,1.37929 2.66257,3.06986 3,59.4259 l 0.34732,58.00622 13.52838,0.2877 c 11.17102,0.2375 14.01714,0.7303 16.33333,2.8277 4.09592,3.7089 3.75205,10.5214 -0.70818,14.0299 -3.46131,2.7226 -4.64037,2.7634 -79.90323,2.7634 h -76.39008 z m 202.08303,0.7497 C 832.99652,1027.257 832,1025.2355 832,1022.1099 c 0,-6.1137 3.81322,-9.0978 12.55143,-9.8224 6.73376,-0.5584 7.22631,-0.8429 7.97934,-4.608 0.44141,-2.2071 0.80256,-24.66511 0.80256,-49.90677 v -45.89394 l 3.27273,-3.27273 c 5.22481,-5.22481 11.93272,-4.13523 14.67363,2.38347 1.25105,2.97537 1.49227,15.65702 0.99797,52.46712 L 871.6258,1012 h 11.4577 c 6.30173,0 12.94537,0.6778 14.76364,1.5063 4.36141,1.9872 6.8879,7.9622 4.92086,11.6377 -3.45231,6.4507 -5.55404,6.856 -35.55153,6.856 -26.50032,0 -28.40078,-0.1657 -31.70333,-2.7634 z m 105.01974,0.9715 c -6.73853,-3.1161 -7.87398,-9.6549 -2.59349,-14.9354 2.93238,-2.9323 4.38833,-3.2727 14,-3.2727 h 10.72728 v -29.70333 c 0,-24.72587 0.34781,-30.19989 2.0756,-32.66666 2.44385,-3.48909 4.93226,-3.765 7.82916,-0.86811 1.78292,1.78293 2.09524,6.65224 2.09524,32.66667 V 1012 H 1030 h 55.3333 v -16.66667 -16.66666 h -26.6666 c -25.2032,0 -26.8184,-0.15172 -29.4311,-2.76441 -2.4887,-2.48872 -2.5722,-3.05382 -0.8374,-5.66666 1.9168,-2.88682 2.1702,-2.90227 47.6018,-2.90227 45.4316,0 45.685,0.0154 47.6018,2.90227 1.7348,2.61284 1.6513,3.17794 -0.8374,5.66666 -2.3633,2.36335 -4.4086,2.76441 -14.0977,2.76441 h -11.3334 V 995.33333 1012 h 49.3334 c 47.5555,0 49.4294,0.096 52,2.6667 3.6036,3.6036 3.3579,8.7632 -0.6061,12.7272 l -3.2727,3.2728 h -86.394 c -47.5166,0 -103.7939,0.3283 -125.06057,0.7265 -31.89708,0.5973 -39.39039,0.3894 -42.80045,-1.1875 z M 2294,577.73807 c -6.6144,-1.71568 -9.6698,-7.93057 -6.7115,-13.65143 1.0704,-2.06992 2.9175,-4.1362 4.1046,-4.59173 1.1871,-0.45553 14.4093,-0.82824 29.3826,-0.82824 H 2348 v -10 c 0,-11.45855 2.3586,-15.33334 9.3333,-15.33334 6.9748,0 9.3334,3.87479 9.3334,15.33334 0,9.72662 0.089,10 3.2706,10 10.7963,0 15.8166,10.89336 8.0094,17.37962 -1.9351,1.60771 -9.3406,1.99177 -41.8158,2.1686 -21.7053,0.11818 -40.6642,-0.0964 -42.1309,-0.47682 z m -827.8202,-3.16818 c -6.654,-5.23403 -2.7145,-15.90322 5.8721,-15.90322 H 1476 v -12.37 c 0,-13.43211 1.513,-17.41712 7.4732,-19.68317 4.1404,-1.57419 9.0894,0.63434 11.0464,4.9296 0.8142,1.78697 1.4804,8.62081 1.4804,15.1863 v 11.93727 h 30 c 28.2222,0 30.158,0.15802 32.6667,2.66666 3.5969,3.5969 3.4078,9.50557 -0.4193,13.10092 -3.0359,2.85207 -3.779,2.89908 -45.8202,2.89908 -41.2142,0 -42.8592,-0.0983 -46.2474,-2.76344 z m 363.2503,-0.7497 c -3.629,-4.61355 -3.4889,-7.88262 0.5093,-11.8808 3.1708,-3.1708 3.8689,-3.27272 22.4152,-3.27272 17.4215,0 19.4049,0.24442 22.0607,2.7186 3.6811,3.42956 3.8005,9.73231 0.2514,13.2814 -2.4285,2.42847 -4.4445,2.66666 -22.5699,2.66666 h -19.9033 z m 146.6667,0 c -3.629,-4.61355 -3.4889,-7.88262 0.5093,-11.8808 3.148,-3.14805 3.9511,-3.27272 21.0819,-3.27272 16.0796,0 18.0926,0.26402 20.7273,2.7186 3.6811,3.42956 3.8005,9.73231 0.2514,13.2814 -2.4114,2.41137 -4.4445,2.66666 -21.2366,2.66666 -18.4732,0 -18.5843,-0.0183 -21.3333,-3.51314 z m -594.2235,-77.95758 c -2.3911,-2.63968 -2.5808,-6.17642 -3.2373,-60.33333 -0.3835,-31.6411 -0.1704,-59.19195 0.4736,-61.22409 2.1699,-6.84735 9.6242,-8.35927 14.951,-3.03246 l 3.2727,3.27272 0.01,33.72728 c 0.01,18.55 0.3855,37.70772 0.8451,42.57271 l 0.8355,8.84543 12.0114,0.57427 c 11.0984,0.53062 12.2503,0.85206 15.1549,4.22892 4.0147,4.66738 3.9782,8.12588 -0.1291,12.23321 -2.9923,2.99234 -4.306,3.27273 -15.3333,3.27273 h -12.0606 v 5.82019 c 0,7.77615 -3.9035,12.84648 -9.8902,12.84648 -2.7404,0 -5.3079,-1.04291 -6.9032,-2.80406 z m 596.0661,-28.46867 c -3.6488,-3.64881 -3.9858,-5.7034 -1.743,-10.62597 2.314,-5.07858 8.6492,-6.50657 25.9312,-5.84506 12.2654,0.46948 15.6225,1.04096 17.8252,3.0344 4.0052,3.62463 3.6125,10.47558 -0.7993,13.94592 -3.1421,2.47159 -5.3311,2.76344 -20.7273,2.76344 -16.4989,0 -17.35,-0.13597 -20.4868,-3.27273 z m -146.6667,-1.33333 c -3.9981,-3.99818 -4.1383,-7.26725 -0.5093,-11.8808 2.7308,-3.47162 2.9672,-3.51314 20,-3.51314 15.4588,0 17.5116,0.27504 19.9033,2.66666 1.4814,1.48148 2.6666,4.44445 2.6666,6.66667 0,2.22222 -1.1852,5.18519 -2.6666,6.66667 -2.3833,2.38325 -4.4445,2.66666 -19.394,2.66666 -15.982,0 -16.8731,-0.1458 -20,-3.27272 z m -17.1775,-98.82251 c -2.8969,-2.8969 -2.6209,-5.38531 0.8681,-7.82916 2.496,-1.74827 8.3838,-2.07561 37.3334,-2.07561 32.5922,0 34.5079,0.13794 37.0366,2.66667 3.2152,3.21512 3.3161,4.49348 0.5715,7.2381 -1.8008,1.80074 -7.1285,2.09523 -37.9048,2.09523 -30.7763,0 -36.104,-0.29449 -37.9048,-2.09523 z m 147.5048,0.49523 c -2.8619,-2.86188 -1.8969,-7.68647 1.8201,-9.09966 1.8811,-0.71519 16.842,-1.30034 33.2466,-1.30034 16.4045,0 31.3654,0.58515 33.2465,1.30034 3.717,1.41319 4.682,6.23778 1.8201,9.09966 -2.2763,2.27636 -67.8569,2.27636 -70.1333,0 z M 1833.3125,261.56801 c -9.8239,-5.14259 -12.8469,-18.19278 -6.3331,-27.34051 4.4519,-6.2522 9.5487,-7.56083 29.4473,-7.56083 16.3335,0 18.2295,0.25644 22.3761,3.02657 12.3951,8.28043 11.5634,25.27738 -1.5642,31.97135 -6.7649,3.4495 -37.2801,3.3824 -43.9261,-0.0966 z m 133.4489,0.0966 c -6.8752,-3.50578 -10.0947,-8.71428 -10.0947,-16.33126 0,-7.61697 3.2195,-12.82547 10.0947,-16.33126 3.6584,-1.86545 8.0353,-2.33126 21.9053,-2.33126 13.8699,0 18.2468,0.46581 21.9052,2.33126 13.1277,6.69397 13.9593,23.69093 1.5643,31.97135 -4.1562,2.77648 -6.0292,3.02641 -22.6667,3.02451 -14.6314,-0.002 -19.0197,-0.45259 -22.7081,-2.33334 z"
       id="path1" /></g></svg>
