<?xml version="1.0" encoding="UTF-8" standalone="no"?>
<!-- Created with Inkscape (http://www.inkscape.org/) -->

<svg
   width="3580.5291"
   height="2073.9749"
   viewBox="0 0 947.34828 548.73916"
   version="1.1"
   id="svg1"
   xml:space="preserve"
   xmlns="http://www.w3.org/2000/svg"
   xmlns:svg="http://www.w3.org/2000/svg"><defs
     id="defs1" /><g
     id="layer1"
     transform="translate(-63.39572,-120.56032)"><path
       style="display:none;fill:#000000;stroke-width:3.11549"
       d="m 404.64226,334.8541 c 38.52219,0.12947 159.6853,0.51572 269.25132,0.85858 186.58167,0.58383 199.29693,0.71657 200.56641,2.09413 1.12057,1.21589 1.19692,1.84824 0.44068,3.64889 -0.85493,2.03554 -1.28445,2.17812 -6.56179,2.17812 h -5.64696 l 0.28806,38.50302 c 0.23721,31.71588 0.0962,38.75339 -0.79822,39.92313 -0.87544,1.14456 -2.59301,1.42012 -8.85192,1.42012 -9.14457,0 -11.82585,-0.83223 -11.82585,-3.67056 0,-3.37584 1.44207,-4.0565 8.59418,-4.0565 h 6.69477 l -0.51979,-18.67373 c -0.28594,-10.27056 -0.52065,-26.49736 -0.52175,-36.05961 l -0.002,-17.38587 H 837.94257 820.1357 v 36.0596 36.05961 h 6.56875 c 6.74858,0 8.46813,0.72233 8.46813,3.55726 0,3.19226 -2.9977,4.1698 -12.78722,4.1698 -10.62333,0 -13.32952,-0.7452 -13.32952,-3.67056 0,-2.85151 1.45762,-4.0565 4.90679,-4.0565 h 3.00741 v -36.05961 -36.0596 h -44.31927 -44.31925 v 36.0596 36.05961 h 35.95287 c 31.62923,0 36.10245,0.16226 37.19653,1.34915 1.7195,1.86538 1.55572,3.46774 -0.51525,5.04138 -1.55713,1.18321 -9.11529,1.33517 -65.88539,1.32478 -35.26954,-0.006 -64.93166,-0.24564 -65.91578,-0.53185 -2.11984,-0.61621 -3.15596,-4.08663 -1.7635,-5.90676 0.83118,-1.08647 5.20729,-1.2767 29.37077,-1.2767 h 28.39405 v -36.05961 -36.0596 l -31.85447,-0.006 c -17.51998,-0.003 -34.79262,-0.25309 -38.38367,-0.55654 l -6.52919,-0.55138 v 35.2581 c 0,19.39194 0.21627,35.8692 0.48038,36.61612 0.35475,1.00295 1.58162,1.35809 4.69196,1.35809 2.77349,0 4.63623,0.46068 5.45525,1.34914 1.52876,1.65847 1.54314,2.17109 0.12024,4.28202 -1.03412,1.53433 -2.17002,1.66661 -14.30928,1.66661 -11.90895,0 -13.28947,-0.15347 -14.25488,-1.58593 -1.09845,-1.62962 -0.75892,-3.93903 0.74312,-5.05478 0.467,-0.34694 3.96921,-0.63669 7.78261,-0.64393 l 6.93347,-0.013 -0.20639,-36.27426 -0.2064,-36.27424 -18.79615,-0.23006 -18.79612,-0.23007 v 36.50443 36.50441 h 6.67052 c 5.0089,0 6.98029,0.33609 7.91414,1.34917 1.62912,1.76733 1.56922,2.59049 -0.33917,4.66077 -1.39829,1.51689 -2.63801,1.71714 -10.63259,1.71714 -10.40697,0 -13.10988,-0.75679 -13.10988,-3.67058 0,-2.65924 1.41754,-4.0565 4.11534,-4.0565 h 2.21599 V 379.26342 342.7745 h -35.218 -35.21802 v 35.13084 c 0,19.32194 0.21627,35.74196 0.48039,36.48888 0.42512,1.20187 3.60431,1.35807 27.64301,1.35807 23.6381,0 27.32405,0.17491 28.4063,1.34917 1.62909,1.76733 1.56921,2.59048 -0.33915,4.66076 -1.52777,1.65736 -2.63809,1.71714 -31.90111,1.71714 -23.00978,0 -30.6424,-0.25862 -31.66295,-1.07321 -1.20409,-0.96096 -1.36382,-3.67751 -1.52708,-25.97152 -0.15794,-21.56203 -0.0239,-24.89827 0.99559,-24.89827 1.00189,0 1.23711,3.27287 1.57367,21.89331 l 0.39573,21.89335 1.78929,0.2755 1.78933,0.27549 -0.2064,-36.3352 -0.2064,-36.33516 -2.17641,-0.27161 -2.17636,-0.2716 v 8.2849 c 0,6.24521 -0.24349,8.19735 -0.98929,7.92928 -0.6724,-0.24175 -1.06215,-2.87727 -1.21682,-8.22788 l -0.22762,-7.87227 H 477.8188 430.75925 v 36.48892 36.48887 h 42.5782 c 32.06114,0 42.81274,0.25441 43.52786,1.03028 1.69873,1.84282 1.12592,4.94948 -1.08036,5.85946 -1.24814,0.51481 -23.16173,0.83733 -56.89428,0.83733 -51.78841,0 -54.96349,-0.0873 -56.63523,-1.5558 -2.2196,-1.94979 -1.54947,-5.07008 1.2527,-5.83307 l 1.92584,-0.52436 V 379.17008 342.77426 H 389.20992 372.9859 v 36.48891 36.48889 h 9.04474 c 7.16728,0 9.30293,0.28004 10.28838,1.34916 1.71951,1.86536 1.55574,3.46773 -0.51526,5.04136 -2.56898,1.95204 -25.56981,1.95204 -28.13878,0 -3.3171,-2.52051 -1.23279,-6.39052 3.44182,-6.39052 h 2.71342 v -36.3564 -36.35638 l -10.09056,-0.5583 c -5.54981,-0.30697 -12.62183,-0.55988 -15.71556,-0.5618 l -5.62504,-0.003 -0.50844,5.27732 c -0.27968,2.90251 -0.50846,15.07263 -0.50846,27.04471 v 21.76739 h 3.89235 c 6.50532,0 6.39607,-0.1775 6.39607,10.3946 v 9.35233 h 2.61167 c 3.07258,0 4.51109,1.29354 4.51109,4.0565 0,2.90906 -2.70158,3.67056 -13.02224,3.67056 -7.42707,0 -9.22308,-0.25732 -10.48618,-1.50247 -1.47982,-1.45882 -1.50534,-2.61327 -0.87936,-39.70851 0.35462,-21.01331 0.47797,-38.68896 0.2743,-39.27921 -0.27817,-0.80576 -4.04395,-1.07322 -15.11104,-1.07322 h -14.74037 l 0.25423,39.15614 0.25426,39.15611 -1.85051,1.62556 c -2.08201,1.82899 -3.78151,2.02 -6.82032,0.76663 -1.66172,-0.6854 -2.03202,-1.33605 -1.83223,-3.21961 0.16122,-1.52101 0.92184,-2.66603 2.13809,-3.2192 l 1.88773,-0.85855 -0.50081,-18.45912 c -0.27547,-10.15247 -0.50166,-26.66908 -0.50271,-36.7035 l -0.002,-18.24446 H 261.00043 228.1567 v 36.91815 36.9182 h 26.8516 c 23.35532,0 27.01353,0.17556 28.09527,1.34917 1.62909,1.76732 1.56917,2.59048 -0.3392,4.66076 -1.53107,1.66096 -2.63804,1.71713 -33.85477,1.71713 -27.92779,0 -32.50874,-0.18009 -34.03088,-1.33653 -4.16419,-3.1642 -1.16343,-6.39053 5.94376,-6.39053 h 5.21538 l -0.52204,-26.40079 c -0.28715,-14.52045 -0.52265,-31.13359 -0.52343,-36.91815 l -9.4e-4,-10.51741 H 192.147 159.3032 v 36.91815 36.9182 h 22.49886 c 19.39825,0 22.6702,0.18594 23.74248,1.34917 1.62909,1.76732 1.5692,2.59048 -0.33916,4.66076 -1.51453,1.64301 -2.63809,1.71713 -26.02907,1.71713 -22.42197,0 -24.59287,-0.12882 -26.21726,-1.5558 -2.21961,-1.94979 -1.5495,-5.07007 1.25275,-5.83306 l 1.92578,-0.52436 v -36.8253 -36.82509 h -27.69946 -27.69953 v 36.91815 36.91819 h 20.5203 c 17.59954,0 20.69728,0.19211 21.76393,1.34917 1.71947,1.86536 1.55572,3.46772 -0.51529,5.04136 -1.47936,1.12408 -4.93871,1.33653 -21.76393,1.33653 h -20.00501 v 12.87844 12.87843 h 3.00736 c 3.25629,0 4.90679,1.19654 4.90679,3.55725 0,1.99199 -2.98537,4.16981 -5.71598,4.16981 h -2.19817 v 36.91816 36.91816 h 13.05834 13.05838 v -36.91816 -36.91816 h -4.1767 c -4.54219,0 -7.69454,-1.70831 -7.69454,-4.16981 0,-3.07814 1.61267,-3.55725 11.973,-3.55725 8.10257,0 10.31692,0.26381 11.31724,1.34916 1.51214,1.64045 1.53881,2.17752 0.2064,4.15455 -0.63708,0.94519 -2.46942,1.71419 -4.74849,1.99286 l -3.71111,0.45381 v 36.80649 36.80651 l 21.56613,-0.003 c 11.86133,-0.002 25.57261,-0.25441 30.46946,-0.56047 l 8.90345,-0.55655 v -36.35779 -36.3577 l -20.37895,-0.013 c -21.01127,-0.013 -24.01503,-0.44757 -24.56643,-3.55359 -0.1343,-0.75721 0.33303,-2.00314 1.03881,-2.76876 1.15183,-1.24957 5.68698,-1.39205 44.30228,-1.39205 38.05304,0 43.16268,0.15576 44.26277,1.34915 1.50492,1.63264 1.53709,2.1801 0.24078,4.1031 -0.89029,1.32082 -3.30823,1.54489 -21.56609,1.99859 -11.30985,0.28102 -20.67761,0.61427 -20.81719,0.7405 -0.13969,0.12623 0.003,16.49342 0.31804,36.37149 l 0.57186,36.142 h 33.0121 33.01206 l -0.34679,-35.84496 c -0.19085,-19.71475 -0.48745,-36.32793 -0.65937,-36.91819 -0.21953,-0.7539 -2.43085,-1.07321 -7.43231,-1.07321 -6.30978,0 -7.21614,-0.19534 -7.96685,-1.71709 -0.60305,-1.22245 -0.60067,-2.21671 0.009,-3.45121 0.82252,-1.66737 1.49806,-1.72519 17.55122,-1.50249 14.89997,0.2067 16.78971,0.39319 17.56875,1.73407 0.63562,1.09398 0.63602,1.91099 9.7e-4,3.00497 -0.72118,1.24333 -2.27815,1.54495 -9.02647,1.74867 l -8.15496,0.2463 0.52141,26.36925 c 0.28687,14.50305 0.52204,31.10202 0.5228,36.88659 l 9.6e-4,10.51739 h 16.12907 16.12906 l -0.36061,-35.84496 c -0.19832,-19.71475 -0.49236,-36.30466 -0.65337,-36.86652 -0.16092,-0.56186 -1.78941,-1.14139 -3.61874,-1.28787 -3.84748,-0.30795 -5.61413,-2.3216 -4.18833,-4.77371 0.75467,-1.29796 2.19691,-1.50248 10.5938,-1.50248 8.39693,0 9.83913,0.20442 10.59383,1.50248 1.66725,2.8674 -0.31249,4.47872 -5.8565,4.76661 l -4.99077,0.25927 0.52244,25.8522 c 0.28744,14.2187 0.52244,30.81183 0.52244,36.87361 v 11.02147 h 18.60675 18.60677 l -0.2064,-36.70353 -0.2064,-36.70355 -9.80905,-0.42927 c -8.20823,-0.35922 -9.95124,-0.67447 -10.68009,-1.93176 -0.63399,-1.09368 -0.63328,-1.91127 0.003,-3.00496 0.77545,-1.33361 2.36651,-1.50248 14.15519,-1.50248 11.7887,0 13.37978,0.16873 14.15519,1.50248 1.13833,1.95771 -0.15853,4.29117 -2.75455,4.95577 l -1.90365,0.48732 -0.20638,36.665 -0.2064,36.66498 h 16.62822 16.62825 v -36.89263 -36.89253 l -10.00583,-0.24045 c -8.51793,-0.20444 -10.13552,-0.46371 -10.87794,-1.74277 -0.63532,-1.09456 -0.63495,-1.91041 9.6e-4,-3.00497 0.8034,-1.3821 3.32131,-1.52049 31.4219,-1.72717 29.90573,-0.22 30.56651,-0.18852 31.4006,1.50249 1.5122,3.06525 -0.2647,5.1614 -4.37568,5.1614 h -3.53351 v 36.48889 36.48891 h 15.71121 15.7112 l -0.33576,-35.41571 c -0.18456,-19.47862 -0.4768,-35.89862 -0.64948,-36.48888 -0.21985,-0.75183 -2.40691,-1.07321 -7.30328,-1.07321 -7.14393,0 -8.88872,-0.68719 -8.88872,-3.50082 0,-3.19853 2.12984,-3.76084 14.31385,-3.77925 10.03729,-0.0162 11.9326,0.19503 13.09674,1.45306 1.12618,1.21694 1.20322,1.84675 0.44632,3.64889 -0.80806,1.92398 -1.39345,2.17812 -5.01657,2.17812 h -4.10177 l 0.52206,26.40079 c 0.28714,14.52046 0.52265,30.94043 0.52339,36.48889 l 9.5e-4,10.08812 h 17.93435 17.93437 l -0.52176,-25.11296 c -0.28685,-13.81211 -0.52242,-30.23212 -0.52322,-36.48888 l -0.002,-11.37596 h -9.00438 c -9.45985,0 -11.23539,-0.66995 -10.6415,-4.01535 0.53972,-3.04033 3.64847,-3.68584 17.81367,-3.69905 14.90179,-0.013 17.66053,0.55755 17.66053,3.65791 0,3.22328 -1.49556,4.05649 -7.28103,4.05649 h -5.3816 v 36.48889 36.48891 h 17.47529 17.47535 l -0.47854,-26.83007 c -0.26322,-14.75654 -0.68333,-31.17655 -0.93367,-36.48888 l -0.45513,-9.65885 h -5.69928 c -6.11533,0 -7.59867,-0.79187 -7.59867,-4.05649 0,-1.3525 0.65444,-2.26585 2.03006,-2.83324 1.11704,-0.46075 10.68793,-0.83733 21.28055,-0.83733 17.6709,0 19.40148,0.13272 21.09042,1.61629 1.62388,1.42647 1.72908,1.88013 0.89604,3.8635 l -0.94383,2.24727 h -13.99453 -13.99438 l 0.52335,25.89672 c 0.28773,14.2432 0.52329,30.66321 0.52329,36.48889 v 10.59219 h 34.84661 34.84656 l -0.42508,-13.52236 c -0.2339,-7.43728 -0.64122,-23.8573 -0.9054,-36.48888 l -0.47804,-22.96656 h -15.64171 c -12.87752,0 -15.81429,-0.22553 -16.61838,-1.2767 -1.39245,-1.82013 -0.35636,-5.29055 1.76349,-5.90677 0.98416,-0.2862 10.34641,-0.52541 20.80508,-0.53184 15.94209,-0.009 19.30003,0.20443 20.77465,1.32478 1.93524,1.47049 2.28138,3.76325 0.80923,5.36026 -0.52231,0.56666 -2.83421,1.03027 -5.1375,1.03027 h -4.18782 l 0.39331,10.08813 c 0.21626,5.54846 0.61036,21.96843 0.87566,36.48888 l 0.4823,26.40079 h 14.81707 c 8.1494,0 25.5592,-0.25537 38.68847,-0.56774 l 23.87139,-0.56773 v -35.92115 -35.92118 h -30.31116 c -22.52018,0 -30.55533,-0.26479 -31.26093,-1.03027 -1.69872,-1.84282 -1.1259,-4.94947 1.08037,-5.85946 1.20305,-0.49622 15.68834,-0.83733 35.55716,-0.83733 29.424,0 33.67934,0.16517 34.7708,1.3492 2.6276,2.85053 0.43912,6.37786 -3.95708,6.37786 h -2.71343 v 36.0596 36.05962 h 60.1563 60.15628 l -0.20638,-35.84496 -0.20669,-35.84498 -51.76361,-0.22098 c -36.6339,-0.15641 -52.07443,-0.50076 -52.82702,-1.17835 -1.56732,-1.41113 -1.29381,-4.84579 0.46741,-5.86831 2.34453,-1.36122 138.71625,-1.22335 139.97434,0.14147 1.45396,1.57728 1.13002,4.81455 -0.58109,5.80803 -0.90569,0.52584 -7.85765,0.88876 -17.0241,0.88876 h -15.49333 l 0.20639,35.84498 0.20669,35.84497 h 23.34677 23.34677 l 0.20669,-35.84497 0.20639,-35.84498 h -1.93072 c -2.10908,0 -4.41798,-2.01911 -4.41798,-3.8635 0,-0.64086 0.55965,-1.77234 1.24366,-2.51437 1.86458,-2.02278 39.96742,-2.02278 41.83199,0 1.71948,1.86537 1.55572,3.46769 -0.51529,5.04137 -1.44702,1.09953 -4.51527,1.3365 -17.30293,1.3365 h -15.54396 l -0.58476,35.28507 c -0.32162,19.40678 -0.28116,35.57612 0.0899,35.93183 0.37096,0.3557 23.79059,0.46175 52.04368,0.23558 l 51.36923,-0.41113 -0.52077,-24.49906 c -0.28656,-13.47446 -0.52079,-29.45878 -0.52079,-35.52068 v -11.02164 h -28.93874 c -18.43473,0 -29.49437,-0.32255 -30.46952,-0.88876 -1.71114,-0.99348 -2.03502,-4.23075 -0.5811,-5.80803 1.36685,-1.48281 71.91826,-1.48281 73.28509,0 1.45391,1.57728 1.13004,4.81455 -0.58109,5.80803 -0.84194,0.48882 -3.33489,0.88876 -5.5399,0.88876 h -4.00911 v 35.63034 35.63032 h 26.90813 26.90817 v -31.64697 c 0,-17.40583 -0.22656,-33.43947 -0.50323,-35.63031 l -0.50344,-3.98338 h -15.72079 c -14.85078,0 -15.81153,-0.0983 -17.36161,-1.78006 -1.47691,-1.6022 -1.52661,-1.96676 -0.49772,-3.64889 1.1043,-1.80546 1.69668,-1.87669 17.46914,-2.10088 l 16.32598,-0.23201 v -12.4318 -12.43174 h -6.55087 c -6.96506,0 -10.06875,-1.28535 -10.06875,-4.1698 0,-2.90472 1.69856,-3.55726 9.25955,-3.55726 h 7.36007 v -35.58967 -35.58966 l -20.77455,-0.25538 c -11.4261,-0.14051 -21.0035,-0.062 -21.28319,0.17392 -0.27964,0.23623 -0.76309,16.36634 -1.07437,35.84496 l -0.56588,35.41571 h 9.42382 c 9.68839,0 11.3232,0.51358 11.3232,3.55725 0,0.82322 -0.7915,2.0982 -1.75892,2.83328 -1.44756,1.0999 -4.52064,1.33653 -17.35961,1.33653 -16.89314,0 -19.66083,-0.51673 -19.66083,-3.67057 0,-3.40196 1.43021,-4.05649 8.86382,-4.05649 h 6.96452 v -6.00996 -6.00992 l -6.1335,-0.013 c -6.29352,-0.013 -8.72826,-0.78629 -7.77099,-2.46656 0.32949,-0.57838 3.17643,-0.95454 7.22412,-0.95454 h 6.68037 V 371.9659 343.63335 h -21.76399 -21.76394 v 28.33255 28.33255 h 8.65886 c 5.4994,0 8.85731,0.34828 9.20271,0.95454 1.01967,1.78985 -1.63092,2.45337 -9.85308,2.46656 l -8.21556,0.013 0.49052,3.21962 c 0.26981,1.77076 0.49448,4.47525 0.49926,6.00992 l 0.009,2.79034 h 9.3387 c 9.62117,0 11.2381,0.51595 11.2381,3.58616 0,0.83909 -0.8716,2.14514 -1.9369,2.90239 -1.58588,1.12726 -3.80518,1.32534 -12.24718,1.09297 -9.05448,-0.24922 -10.50149,-0.4929 -11.87947,-2.00087 -1.49927,-1.64066 -1.59387,-3.409 -2.12363,-39.70851 l -0.55446,-37.99136 h -3.05728 c -2.48334,0 -3.22455,-0.39819 -3.94812,-2.121 -0.68116,-1.62176 -0.65435,-2.43005 0.11395,-3.43424 0.88379,-1.15523 7.51933,-1.31327 55.13937,-1.31327 h 54.13477 l 0.6885,1.96457 c 0.3786,1.08047 0.8128,45.15759 0.9647,97.94912 0.271,94.09979 0.2461,96.00841 -1.255,97.19938 -1.2913,1.02423 -12.27609,1.22269 -70.03549,1.26521 -37.67723,0.0292 -241.40865,0.75007 -452.73648,1.60519 -326.69788,1.32192 -384.496631,1.37741 -385.996975,0.3705 l -1.764643,-1.18422 -0.21387,-58.15924 c -0.117555,-31.9876 -0.03589,-77.00829 0.181864,-100.04601 0.339528,-35.94042 0.564226,-42.01131 1.582812,-42.76435 1.120435,-0.8283 86.761112,-0.8591 309.443612,-0.1113 z m 3.95712,44.41005 v 36.48888 h 10.0204 10.02042 l -0.52206,-26.40079 c -0.28716,-14.52044 -0.52264,-30.94042 -0.52339,-36.48888 l -9.7e-4,-10.08813 h -9.49698 -9.49698 z m -71.22746,28.33254 v 8.15634 h 3.9571 3.95709 v -8.15634 -8.15636 h -3.95709 -3.9571 z m 36.40516,85.42693 v 36.91817 h 13.84975 13.84979 v -36.91817 -36.91819 h -13.84979 -13.84975 z"
       id="path4" /><path
       style="display:none;fill:#000000;stroke-width:0.754853"
       d="m 701.49868,689.13453 c -0.23728,-0.19223 -0.51472,-0.70901 -0.61653,-1.1484 -0.10891,-0.47011 -0.18706,-12.50278 -0.18985,-29.23796 l -0.004,-28.4391 -71.05097,0.12852 c -39.07805,0.0707 -99.45294,0.18659 -134.16644,0.25757 -58.08494,0.11879 -63.1656,0.10315 -63.74451,-0.19621 -0.41137,-0.21273 -0.72119,-0.58566 -0.89533,-1.07772 -0.21878,-0.61821 -0.26628,-8.51359 -0.26628,-44.2591 v -43.50667 l 0.56036,-0.48203 c 0.80141,-0.68934 1.79937,-0.64952 2.55068,0.10179 l 0.5838,0.58379 v 6.30818 6.30818 l 21.91945,-0.008 21.91945,-0.008 0.57092,0.63271 c 0.47723,0.52888 0.55208,0.75112 0.45612,1.35425 -0.0642,0.40334 -0.32604,0.90523 -0.59381,1.13807 -0.45772,0.39802 -0.77438,0.42242 -7.12946,0.54922 -3.65775,0.073 -13.51121,0.13271 -21.89657,0.13271 h -15.2461 v 34.35271 34.35271 l 33.162,-0.0505 33.16201,-0.0505 -0.035,-8.6879 c -0.0192,-4.77833 -0.0904,-20.23679 -0.158,-34.35212 l -0.123,-25.66423 -2.16539,-0.0999 c -1.97264,-0.091 -2.19929,-0.14182 -2.54645,-0.57135 -0.48202,-0.59642 -0.49823,-1.83615 -0.0316,-2.4122 0.44,-0.54313 1.53302,-0.80029 3.42736,-0.80639 l 1.48007,-0.004 -0.13195,-5.42493 c -0.0725,-2.98372 -0.13195,-11.25219 -0.13195,-18.37439 v -12.94946 l -32.5047,0.003 c -17.87758,10e-4 -32.70692,0.0569 -32.95407,0.12314 -0.44787,0.12004 -0.44938,0.13443 -0.44938,4.30122 0,4.70901 -0.10401,5.16487 -1.26595,5.54834 -0.78579,0.25935 -1.43697,0.0711 -2.02946,-0.58671 -0.37834,-0.42006 -0.39944,-0.72445 -0.39944,-5.76492 0,-5.81238 0.0672,-6.19642 1.21594,-6.94911 0.47255,-0.30963 7.44584,-0.34161 98.38755,-0.45125 l 97.87895,-0.11801 -0.0327,-7.09012 c -0.0347,-7.52557 -0.79949,-109.08958 -0.87759,-116.53759 l -0.046,-4.39388 -11.58385,-0.10016 c -10.82243,-0.0936 -11.64117,-0.12516 -12.45579,-0.48031 -0.62368,-0.27192 -0.95065,-0.56853 -1.1484,-1.04182 -0.23017,-0.55087 -0.27646,-4.60707 -0.27646,-24.22345 0,-13.20146 -0.0766,-23.60915 -0.1743,-23.66951 -0.0959,-0.0592 -46.56111,-0.16932 -103.2561,-0.24461 l -103.08179,-0.13688 0.008,25.54755 c 0.004,14.05114 0.0876,54.08275 0.18558,88.95915 0.16803,59.83705 0.19758,63.42289 0.52419,63.61135 0.81378,0.46957 1.0802,0.90431 1.0802,1.76268 0,0.64482 -0.11723,0.97407 -0.46224,1.29819 -0.25423,0.23884 -0.5688,0.43426 -0.69903,0.43426 -0.18111,0 -0.23678,5.12035 -0.23678,21.77874 v 21.77874 l -0.49023,0.49022 c -0.59881,0.59881 -1.84131,0.66893 -2.49332,0.14072 -0.46468,-0.37646 -0.79874,-1.49342 -0.80639,-2.69625 l -0.004,-0.74895 h -3.68371 c -3.5978,0 -3.69668,-0.0112 -4.23955,-0.47811 -0.73079,-0.6286 -0.78286,-1.88892 -0.10604,-2.56664 0.42658,-0.42713 0.64284,-0.45554 4.18962,-0.55024 l 3.73982,-0.0999 0.051,-18.41185 0.051,-18.41186 -5.08976,-0.0624 -5.08976,-0.0624 -0.51591,-0.51626 c -0.85186,-0.85246 -0.68815,-2.36397 0.31207,-2.88119 0.46375,-0.23982 1.52971,-0.29739 5.50585,-0.29739 h 4.93076 l -0.12736,-32.20512 c -0.0701,-17.71282 -0.18489,-57.75201 -0.25521,-88.976 l -0.12787,-56.77088 h -3.37385 c -4.43288,0 -5.15851,-0.29065 -5.15851,-2.0662 0,-0.53021 0.14528,-0.81664 0.61448,-1.21146 0.61248,-0.51536 0.62657,-0.51705 4.2983,-0.51705 h 3.68381 l 0.21747,-0.47728 c 0.44327,-0.97288 2.07321,-1.23607 2.84922,-0.46005 0.2534,0.25339 0.49647,0.56143 0.54016,0.68453 0.0584,0.16463 33.60412,0.27875 126.90269,0.43169 69.75279,0.11433 127.09287,0.20016 127.42241,0.19072 0.32954,-0.009 21.52456,-0.029 47.10006,-0.0436 l 46.50088,-0.0264 -0.0628,-4.09429 c -0.12683,-8.26555 -0.14461,-7.95852 0.492,-8.50576 1.08326,-0.93121 2.7945,-0.381 3.03215,0.97493 0.0618,0.35223 0.17743,3.11199 0.25709,6.13278 l 0.14482,5.49234 27.71138,0.0507 27.71135,0.0507 v -7.20604 -7.20604 l 0.58381,-0.5838 c 0.61657,-0.61656 1.26672,-0.73308 2.06384,-0.36988 1.00962,0.46001 1.0266,0.58527 1.11175,8.22431 l 0.0796,7.14005 h 17.95278 17.95285 l 0.021,-6.14145 c 0.0111,-3.37779 0.12379,-30.66246 0.24962,-60.63258 0.15256,-36.32095 0.1622,-54.53542 0.0292,-54.62388 -0.1099,-0.073 -8.35585,-0.10391 -18.32451,-0.0686 l -18.12472,0.064 v 46.53015 46.53014 l -0.4902,0.49023 c -0.66473,0.6647 -1.93355,0.68099 -2.58145,0.0332 -0.45223,-0.45224 -0.45842,-0.52769 -0.59007,-7.12272 -0.0732,-3.6661 -0.133,-24.62624 -0.133,-46.57807 v -39.91284 l -27.71134,0.0507 -27.71138,0.0507 -0.0999,46.47967 -0.0999,46.47968 -0.41922,0.41921 c -0.23058,0.23057 -0.76983,0.50054 -1.19833,0.59994 -1.02436,0.23762 -41.87624,0.23762 -42.9006,0 -1.10501,-0.25633 -1.60848,-0.82887 -1.60848,-1.82917 0,-0.64821 0.11595,-0.91881 0.55584,-1.29718 l 0.55583,-0.47811 h 20.66006 20.66005 v -28.06086 -28.06089 h -33.55399 -33.55323 v 28.06089 28.06089 h 6.18023 c 6.12274,0 6.18504,0.004 6.69741,0.44937 0.30351,0.26372 0.56462,0.74747 0.63198,1.17092 0.0969,0.60901 0.0205,0.82703 -0.48943,1.39805 l -0.60424,0.67651 -6.30784,0.065 c -5.38736,0.0555 -6.30785,0.10783 -6.30785,0.35859 0,0.55334 -0.93997,1.27406 -1.66162,1.27406 -0.74899,0 -1.63827,-0.5832 -1.83516,-1.20353 -0.11998,-0.37804 -0.32768,-0.39472 -5.05477,-0.40613 -5.6158,-0.0136 -6.73833,-0.13459 -7.26344,-0.78307 -0.47977,-0.59249 -0.4701,-1.82386 0.0191,-2.42838 l 0.38154,-0.4715 5.85976,-0.0999 5.85977,-0.0999 0.0507,-28.01096 0.0507,-28.01096 h -18.97547 -18.97494 l 0.0507,28.01096 0.0507,28.01096 3.66274,0.0999 3.66274,0.0999 0.48148,0.56036 c 0.62647,0.72911 0.61391,1.54842 -0.0356,2.32027 l -0.51706,0.61449 h -5.98296 -5.98298 l -0.49023,-0.49023 c -0.97657,-0.97657 -0.36051,-3.10476 0.89875,-3.10476 h 0.40853 V 273.3644 245.30351 h -33.75369 -33.75365 l 0.0507,28.01096 0.0507,28.01095 23.76688,0.0999 c 13.07177,0.055 23.88838,0.17825 24.0369,0.27404 0.14851,0.0958 0.39688,0.47776 0.55191,0.84882 0.24318,0.58199 0.2427,0.76845 -0.004,1.35759 -0.15695,0.37563 -0.4668,0.78006 -0.68858,0.89875 -0.28582,0.15297 -15.2894,0.2158 -51.53396,0.2158 h -51.13073 l -0.55583,-0.4781 c -0.73082,-0.62863 -0.78287,-1.88895 -0.106,-2.56665 0.4287,-0.42922 0.63489,-0.45507 4.38933,-0.55025 l 3.9395,-0.0999 0.0999,-7.93358 c 0.0995,-7.90327 0.10158,-7.9353 0.55024,-8.38376 0.66561,-0.66532 1.87705,-0.61921 2.59538,0.0988 l 0.54922,0.54898 0.0999,7.83479 0.0999,7.83478 19.7225,0.0509 19.72252,0.0509 v -28.06182 -28.06187 h -19.8672 -19.86719 l -0.055,10.56441 c -0.0523,10.03109 -0.074,10.58542 -0.43197,10.98078 -0.87949,0.97151 -2.66992,0.62565 -3.09655,-0.59815 -0.15079,-0.43256 -0.22138,-3.87322 -0.22138,-10.79105 v -10.15599 h -60.1065 -60.10523 l 0.11184,19.12334 c 0.0615,10.51784 0.1689,23.12278 0.23866,28.01096 l 0.12683,8.88761 5.46035,0.0999 c 5.44223,0.0995 5.46162,0.10144 5.84186,0.57137 0.56023,0.69238 0.50768,1.91701 -0.10872,2.5334 l -0.49022,0.49023 h -11.90161 -11.90159 l -0.49022,-0.49023 c -0.67148,-0.67148 -0.68108,-1.93345 -0.0197,-2.59479 0.60224,-0.60226 2.28892,-0.77775 6.53893,-0.68034 l 3.07652,0.0705 0.0643,-3.69485 c 0.0353,-2.03216 0.002,-8.30092 -0.0737,-13.93059 l -0.13798,-10.23573 h -3.08184 c -3.51558,0 -4.0851,-0.16203 -4.44942,-1.26594 -0.25921,-0.78543 -0.0712,-1.43654 0.58598,-2.02947 0.398,-0.35908 0.77525,-0.40586 3.73394,-0.46302 l 3.29121,-0.0636 -0.11937,-20.9072 c -0.0657,-11.49895 -0.17337,-24.61451 -0.23937,-29.1457 l -0.11999,-8.23852 H 373.6198 356.36735 v 29.15937 29.15935 h 2.68091 c 2.59281,0 2.70112,0.017 3.29541,0.51706 0.82952,0.698 0.87635,1.96312 0.0997,2.6936 -0.48517,0.45634 -0.67332,0.48791 -3.2706,0.54879 l -2.75581,0.0646 -0.0936,1.61661 c -0.0841,1.4523 -0.14862,1.66396 -0.63511,2.08242 -0.36085,0.31039 -0.78769,0.46369 -1.27935,0.45945 -1.35505,-0.0117 -1.83628,-0.73932 -1.83628,-2.77662 v -1.41118 h -4.16436 c -2.53269,0 -4.41316,-0.0867 -4.79938,-0.22138 -1.287,-0.44864 -1.57453,-2.3111 -0.48868,-3.16524 0.48734,-0.38334 0.78965,-0.40809 4.98561,-0.40809 h 4.46681 v -29.16058 -29.16057 l -15.72809,0.0512 -15.72808,0.0512 -0.0506,29.10944 -0.0505,29.10943 h 1.06997 c 1.42333,0 2.12691,0.59445 2.12691,1.79705 0,1.09354 -0.62379,1.71726 -1.91043,1.91021 -0.52908,0.0793 -4.24226,0.0982 -8.25153,0.0419 l -7.28955,-0.10236 -0.5613,-0.62822 c -0.75199,-0.84162 -0.74436,-1.66791 0.0225,-2.43477 l 0.5838,-0.5838 h 5.30865 5.30866 l -0.0506,-29.10942 -0.0506,-29.10944 h -26.6628 -26.66283 l -0.0506,29.00014 -0.0506,29.00015 11.10175,0.0594 11.10174,0.0594 0.58265,0.65224 c 0.72203,0.8083 0.75636,1.62001 0.10072,2.38238 l -0.48192,0.56037 -11.15186,0.0999 -11.15188,0.0999 -0.0513,13.93058 -0.0513,13.93059 h 44.33955 44.33957 v -2.46959 c 0,-2.18462 0.0471,-2.52945 0.4081,-2.9884 0.85412,-1.08585 2.71658,-0.7983 3.16523,0.48869 0.12176,0.34927 0.22138,1.61024 0.22138,2.80217 v 2.16713 l 3.04576,0.009 c 3.56578,0.0102 4.69074,0.18229 5.18551,0.7933 0.53545,0.66127 0.46941,1.89961 -0.13347,2.50249 -0.48616,0.48617 -0.52171,0.49023 -4.29401,0.49023 h -3.80379 v 13.48121 13.48121 h 4.07217 c 3.58346,0 4.12309,0.042 4.49649,0.34952 1.09694,0.90354 0.76518,2.72561 -0.5798,3.18427 -0.43509,0.14837 -2.07049,0.24264 -4.33133,0.24964 l -3.63232,0.0113 -0.0626,3.57944 c -0.0603,3.45125 -0.0795,3.5975 -0.53699,4.08393 -0.26095,0.27747 -0.72623,0.55979 -1.03396,0.62738 -0.72508,0.15926 -1.74441,-0.3636 -1.9953,-1.02348 -0.10512,-0.2765 -0.19114,-2.01335 -0.19114,-3.85965 v -3.35691 l -5.44241,-0.14279 c -5.86002,-0.15374 -6.16263,-0.21123 -6.55579,-1.24532 -0.22932,-0.60315 0.0554,-1.6769 0.5547,-2.09182 0.24202,-0.20115 1.65787,-0.28988 5.83164,-0.3655 l 5.512,-0.0999 v -13.38141 -13.38135 h -44.23834 -44.23833 v 13.28149 13.28149 l 27.16214,0.0998 c 21.47733,0.079 27.25523,0.15307 27.60693,0.3541 1.00406,0.57388 1.17215,2.0688 0.32757,2.91338 l -0.52584,0.52582 -27.2854,0.0507 -27.2854,0.0507 -0.0512,15.1289 -0.0512,15.12892 h 44.13973 c 24.27686,0 44.20715,0.0225 44.28954,0.0499 0.0824,0.0275 0.19472,-1.40362 0.24965,-3.1802 0.0951,-3.07599 0.12296,-3.25468 0.58404,-3.74478 1.02124,-1.08549 2.82349,-0.44124 3.10722,1.11074 0.0675,0.36927 0.0959,4.3694 0.0632,8.88915 -0.0572,7.89239 -0.0754,8.2353 -0.45902,8.66088 -0.59269,0.65753 -1.24384,0.84566 -2.02946,0.58638 -1.13478,-0.3745 -1.26595,-0.8898 -1.26595,-4.97292 v -3.60609 l -44.28828,0.0504 -44.28827,0.0504 -0.0511,18.06375 c -0.0281,9.93506 0.0169,18.12645 0.0999,18.20307 0.083,0.0766 20.01317,0.17146 44.28933,0.21077 l 44.13848,0.0715 0.0999,-4.19416 c 0.10766,-4.52168 0.19419,-4.91265 1.16206,-5.25005 0.78081,-0.2722 1.51266,-0.0977 2.06764,0.49308 l 0.46515,0.49514 v 25.06627 25.06627 l -0.56037,0.48201 c -0.71695,0.61669 -1.87864,0.65148 -2.49766,0.0748 -0.24041,-0.22397 -0.45843,-0.42619 -0.4845,-0.44937 -0.026,-0.0232 -0.0935,-8.58025 -0.14979,-19.01571 l -0.1024,-18.97361 h -44.23834 -44.23834 v 33.55323 33.55324 l 44.28827,0.0504 44.28828,0.0504 v -4.30982 -4.30983 l 0.5838,-0.58379 c 1.12362,-1.12363 2.81424,-0.55707 3.10815,1.04159 0.0678,0.36927 0.0963,4.73109 0.0632,9.69291 l -0.0603,9.02151 -0.48419,0.51521 c -0.3532,0.37583 -0.68646,0.51519 -1.23192,0.51519 -1.72507,0 -1.85458,-0.2895 -1.97873,-4.42311 l -0.0999,-3.32464 -44.23835,-0.0707 -44.23833,-0.0707 v 16.27732 16.27732 l 44.28826,0.0504 44.28829,0.0504 v -3.58046 c 0,-3.56017 0.003,-3.58352 0.51705,-4.19459 0.3948,-0.46921 0.68123,-0.61449 1.21147,-0.61449 1.76848,0 2.06618,0.73287 2.06618,5.08649 v 3.30182 h 2.60952 c 2.6146,0 3.22326,0.1277 3.72529,0.78158 0.41985,0.54683 0.30588,1.73451 -0.22579,2.3529 -0.47909,0.55722 -0.49755,0.56075 -3.28436,0.6292 l -2.80256,0.0689 -0.061,4.15962 c -0.0596,4.06388 -0.072,4.17125 -0.53544,4.66421 -0.26095,0.2775 -0.72624,0.55986 -1.03396,0.62745 -0.65233,0.14327 -1.67332,-0.31547 -1.9808,-0.88999 -0.12191,-0.22782 -0.20563,-2.05664 -0.20563,-4.49211 v -4.10787 l -44.28829,0.0504 -44.28826,0.0504 v 18.3744 18.37439 h 44.23834 44.23834 l 0.0999,-5.09291 c 0.055,-2.80109 0.17296,-5.20588 0.26231,-5.34397 0.0894,-0.13809 0.43294,-0.39095 0.76353,-0.5619 0.75637,-0.39113 1.56595,-0.229 2.19455,0.43953 0.46739,0.49708 0.47595,0.57941 0.57431,5.53192 l 0.0999,5.02733 2.54105,0.0999 c 2.01128,0.079 2.62432,0.17134 2.94042,0.44273 0.79029,0.67849 0.77627,1.99687 -0.0292,2.74729 -0.3894,0.36278 -0.6992,0.40496 -2.97413,0.40496 h -2.53944 l -0.0693,1.87679 c -0.0743,2.01647 -0.31956,2.55294 -1.34624,2.94544 -0.63424,0.24248 -1.74737,-0.13075 -2.06984,-0.694 -0.13646,-0.23835 -0.29305,-1.24224 -0.34798,-2.23087 l -0.0999,-1.79761 h -44.23834 -44.23834 l -0.0502,58.06907 -0.0502,58.06907 h 44.33854 44.33854 v -48.04618 c 0,-36.14504 0.0575,-48.15425 0.23235,-48.48243 0.56399,-1.05893 1.94703,-1.27508 2.90213,-0.45355 l 0.56037,0.482 0.0515,48.25009 0.0515,48.25007 h 17.86272 17.86274 l -0.12144,-50.68204 c -0.0963,-40.18421 -0.0701,-50.77807 0.12669,-51.14564 0.13646,-0.25499 0.55544,-0.59202 0.93107,-0.74897 0.59193,-0.24733 0.77396,-0.24733 1.36589,0 0.37563,0.15695 0.80253,0.49518 0.94869,0.75163 0.21828,0.38305 0.28878,9.53969 0.39495,51.29545 0.0822,32.33742 0.0591,51.26511 -0.0635,52.02749 -0.20855,1.29699 -0.42614,1.70493 -1.10116,2.06445 -0.32915,0.17531 -16.73959,0.23234 -66.84569,0.23234 h -66.40939 l -0.51582,-0.44937 -0.51582,-0.44936 -0.0827,-202.4179 c -0.0454,-111.32985 -0.0825,-202.82234 -0.0823,-203.31666 0.008,-18.49309 0.32356,-62.5115 0.44955,-62.7699 0.0957,-0.1963 0.45518,-0.50998 0.79888,-0.69708 0.58424,-0.31804 4.8775,-0.34469 65.99982,-0.40965 52.25857,-0.0556 65.49685,-0.0189 65.98264,0.18224 1.18364,0.49028 1.22409,0.78881 1.37801,10.16899 0.0766,4.6685 0.14825,11.88117 0.15922,16.02817 l 0.02,7.54001 173.82685,-0.002 173.82685,-0.002 0.11165,-16.48124 c 0.12218,-18.03818 0.0631,-17.21705 1.27169,-17.67656 0.3141,-0.11942 19.24209,-0.1908 50.59206,-0.1908 49.95396,0 50.09164,7.5e-4 50.60319,0.40345 0.36215,0.2849 0.58422,0.73972 0.75569,1.54784 0.19039,0.89809 0.19074,14.5061 0,63.22687 -0.13289,34.14536 -0.3193,62.28682 -0.41432,62.53658 -0.0949,0.24976 -0.41619,0.64566 -0.71378,0.87978 l -0.54121,0.42566 h -48.70509 -48.70516 v 2.06921 c 0,1.13806 0.0555,2.47425 0.12337,2.96931 l 0.12338,0.9001 1.12488,0.25041 c 7.72411,1.7195 12.82782,8.57653 12.33998,16.57924 -0.46454,7.62066 -5.6812,13.94688 -12.86883,15.60599 l -0.98818,0.2281 -0.12682,34.17429 c -0.0698,18.79587 -0.18414,86.75049 -0.25421,151.01028 -0.10964,100.56257 -0.16698,116.8964 -0.41162,117.26976 -0.15634,0.2386 -0.43613,0.50876 -0.62178,0.60037 -0.18563,0.0916 -9.43734,0.1911 -20.55935,0.22108 l -20.22181,0.0545 v 5.16092 5.16094 l -0.52654,0.52653 c -0.63119,0.6312 -1.79307,0.71491 -2.45702,0.17703 z m 40.80062,-14.98021 c 0.0512,-0.083 0.12006,-26.21406 0.15282,-58.06907 l 0.0596,-57.9182 -2.25615,-0.0998 c -2.16901,-0.096 -2.27474,-0.12151 -2.7374,-0.66024 -0.51511,-0.59979 -0.62477,-1.49451 -0.26546,-2.1659 0.35991,-0.67251 1.41127,-0.96858 3.43949,-0.96858 h 1.87062 l 0.12999,-90.58776 c 0.11948,-83.26752 0.15632,-90.63235 0.45586,-91.13943 0.4598,-0.77838 0.84861,-0.97342 3.03847,-1.52419 5.03779,-1.26706 8.28639,-4.10781 9.90061,-8.6576 0.56229,-1.58487 0.61044,-1.92675 0.6081,-4.31754 -0.002,-2.30388 -0.0635,-2.77118 -0.54352,-4.14793 -1.59885,-4.58569 -5.15225,-7.41637 -10.18938,-8.11697 -1.73302,-0.24104 -2.23881,-0.48438 -2.5166,-1.21077 -0.10618,-0.27767 -0.25344,-2.27987 -0.32724,-4.44934 l -0.13418,-3.94451 -16.65494,-0.0466 c -9.16021,-0.0257 -17.88471,-0.0481 -19.38776,-0.0499 l -2.73283,-0.003 0.0533,68.85264 0.0534,68.85263 -0.60056,0.60058 c -0.64072,0.64071 -1.50562,0.78802 -2.25911,0.38477 -1.01569,-0.54358 -0.96858,1.6547 -0.96858,-45.19014 v -43.62126 l -19.72251,-0.12181 c -10.84738,-0.067 -26.50324,-0.14536 -34.79081,-0.17412 l -15.0683,-0.0523 0.0383,4.69347 c 0.021,2.5814 0.22677,31.29638 0.45706,63.81106 0.23029,32.51469 0.45267,59.23021 0.49416,59.36783 0.0602,0.19948 7.03371,0.23998 34.38367,0.19972 l 34.30825,-0.0505 -0.0753,-10.58524 c -0.0797,-11.20823 -0.0293,-11.97721 0.82444,-12.57515 0.70281,-0.49229 1.80749,-0.39199 2.41911,0.21963 l 0.52654,0.52655 -0.004,12.30557 c -0.005,13.61272 0.0856,12.65948 -1.28493,13.52887 -0.57274,0.36332 -2.30208,0.37746 -58.01914,0.47434 l -57.42879,0.0999 -0.051,18.32163 -0.051,18.32166 27.05881,0.0528 27.05883,0.0528 0.54919,0.54923 c 0.71816,0.71819 0.76445,1.92957 0.0992,2.59537 -0.43957,0.43992 -0.57633,0.4527 -5.88725,0.55025 l -5.43722,0.0998 -0.0999,2.34208 c -0.0892,2.09089 -0.14817,2.39026 -0.55025,2.79155 -0.31644,0.31583 -0.68736,0.44951 -1.24725,0.44951 -0.55989,0 -0.93081,-0.13368 -1.24725,-0.44951 -0.40208,-0.40129 -0.4611,-0.70066 -0.55024,-2.79155 l -0.0999,-2.34208 h -19.77244 -19.77245 v 34.25227 34.25226 h 19.77245 19.77244 l 0.0999,-25.33238 0.0999,-25.33239 0.4715,-0.38177 c 0.69226,-0.56054 1.91685,-0.50811 2.53341,0.10845 0.38616,0.38616 0.49631,0.71471 0.51895,1.54784 0.0158,0.58169 0.0832,11.93246 0.1498,25.22393 l 0.12105,24.16632 15.57828,-0.0708 c 8.56807,-0.0389 15.64596,-0.13356 15.72866,-0.21028 0.0827,-0.0767 0.12764,-15.45841 0.0999,-34.18149 l -0.0505,-34.04198 -2.11749,-0.0999 c -2.31512,-0.10918 -2.62763,-0.24438 -2.97119,-1.28541 -0.2528,-0.76597 -0.0592,-1.42239 0.59294,-2.01 0.43075,-0.38815 0.7242,-0.39944 10.37811,-0.39944 10.68281,0 10.70335,0.002 11.17177,1.02995 0.371,0.81425 0.25858,1.46049 -0.36202,2.08109 l -0.5838,0.58381 h -6.10687 -6.10688 l -1.4e-4,18.52418 c -8e-5,10.1883 -0.0597,25.60183 -0.13273,34.25226 l -0.13259,15.72809 h 17.30936 17.30937 l -0.0505,-34.20234 -0.0505,-34.20233 -3.19554,-0.0999 c -1.75755,-0.055 -3.30854,-0.17296 -3.44662,-0.26232 -0.13809,-0.0893 -0.39095,-0.43294 -0.5619,-0.76353 -0.39115,-0.7564 -0.22899,-1.56596 0.43958,-2.19455 0.48027,-0.45154 0.65814,-0.47771 3.68448,-0.54193 l 3.17986,-0.0675 v -1.19615 c 0,-1.05576 0.0686,-1.26467 0.5838,-1.77995 0.66542,-0.66541 1.64263,-0.78067 2.35983,-0.27833 0.48816,0.34193 0.8483,1.41535 0.84997,2.53348 l 5.8e-4,0.74187 9.9817,0.057 9.98169,0.0571 0.54908,0.54924 c 0.77745,0.77765 0.77436,1.99563 -0.007,2.66751 l -0.55583,0.47811 h -9.97494 -9.97495 v 34.25226 34.25226 h 3.08036 c 3.02255,0 3.09189,0.01 3.69485,0.51706 0.4692,0.39481 0.61449,0.68124 0.61449,1.21146 0,1.71414 -0.7816,2.06619 -4.58719,2.06619 h -2.80251 v 21.83623 c 0,12.00993 0.06,21.89616 0.13315,21.96939 0.1856,0.18559 37.56912,0.16801 37.68392,-0.0177 z M 583.60128,626.66425 c 0.19946,-0.0641 0.23997,-7.02084 0.19973,-34.28881 l -0.0505,-34.20839 -5.29262,-0.0998 c -2.91095,-0.055 -5.41415,-0.17824 -5.56266,-0.27404 -0.14852,-0.0958 -0.39977,-0.48468 -0.55834,-0.86419 -0.25945,-0.62097 -0.25242,-0.76343 0.0703,-1.4236 0.54517,-1.11517 1.05052,-1.2087 6.60096,-1.22162 l 4.84431,-0.0112 -0.051,-18.32446 -0.051,-18.32446 -39.89543,-0.0505 -39.89545,-0.0505 0.051,18.32495 0.0509,18.32496 25.7641,0.0999 c 20.34529,0.0789 25.85764,0.15333 26.20889,0.3541 1.00449,0.57412 1.17214,2.06879 0.32686,2.91408 l -0.52654,0.52654 h -25.86593 -25.86592 l 0.11724,34.40205 c 0.0645,18.92113 0.12255,34.40859 0.12905,34.41658 0.0502,0.0615 79.05843,-0.15937 79.25195,-0.22158 z M 700.4878,364.63051 c 0,-13.80545 -0.0525,-17.50043 -0.24964,-17.56993 -0.13732,-0.0484 -21.5275,-0.11299 -47.53378,-0.14352 l -47.28413,-0.0555 3e-5,17.33213 c 2e-5,13.6877 0.0526,17.34979 0.24968,17.41617 0.23508,0.0792 55.20989,0.39118 82.38518,0.46761 l 12.43266,0.035 z m -0.0999,-24.95895 v -3.59499 h -24.66563 -24.66562 v 3.49514 3.49512 l 20.07202,0.10309 c 11.03962,0.0567 22.13916,0.10163 24.66563,0.0999 l 4.5936,-0.003 z m -53.12597,-0.0999 v -3.49514 h -20.97078 -20.97077 l -0.0571,3.09569 c -0.0314,1.70263 -0.007,3.29832 0.054,3.54598 l 0.11114,0.4503 20.91681,-0.0509 20.91679,-0.0509 z M 424.51256,304.61489 c -0.23908,-0.22273 -0.49045,-0.62717 -0.55861,-0.89875 -0.1713,-0.68246 0.043,-1.40587 0.55861,-1.8863 0.43295,-0.40335 0.56367,-0.40498 32.76101,-0.40498 h 32.32633 l 0.49023,0.49024 c 0.3607,0.36071 0.49022,0.70609 0.49022,1.30726 0,0.60119 -0.12952,0.94656 -0.49022,1.30728 l -0.49023,0.49022 h -32.32633 c -32.19734,0 -32.32806,-0.002 -32.76101,-0.40497 z"
       id="path5" /><path
       style="fill:#000000;stroke-width:1.40536"
       d="m 463.34764,668.45568 c -0.78259,-0.7826 -0.86206,-1.27676 -1.09024,-6.77889 -0.13534,-3.26411 -0.24669,-7.23153 -0.24737,-8.81648 l -9.8e-4,-2.88173 h -16.1247 c -15.74988,0 -16.14747,-0.0178 -17.10442,-0.77066 l -0.97973,-0.77065 v -7.78207 -7.78208 l -132.28044,0.0935 -132.28044,0.0934 -0.0271,12.74921 c -0.0235,11.00817 -0.10597,12.82811 -0.60484,13.32692 -0.68449,0.68449 -6.49235,0.68534 -62.14768,0.009 l -35.263826,-0.42851 -0.897161,-1.04329 -0.897171,-1.04328 -0.0029,-57.05599 c -0.0039,-73.08653 -0.0039,-202.34539 0,-277.38537 l 0.0029,-58.58096 0.912679,-0.9127 0.9127,-0.91269 h 48.290689 48.29067 l 0.87999,0.93672 0.87999,0.93671 -0.0988,13.51897 -0.0988,13.51896 61.28713,0.22549 c 33.70792,0.12395 84.84027,0.32001 113.62745,0.43556 l 52.3401,0.2097 -0.19578,-12.19543 c -0.10766,-6.70749 -0.29698,-21.18921 -0.42067,-32.1816 l -0.22488,-19.98614 h -28.19444 -28.19443 l -1.04329,-0.89731 -1.04329,-0.89731 -0.18591,-39.68587 c -0.19244,-41.07686 -0.18324,-41.37538 1.29049,-41.94091 0.34623,-0.13286 19.3682,-0.24157 42.27105,-0.24157 h 41.64153 l -0.0872,-10.84201 -0.0872,-10.84202 0.86063,-0.69689 c 0.82697,-0.66965 1.7416,-0.6884 23.3936,-0.47964 12.39313,0.11949 23.07804,0.30004 23.74423,0.40123 1.7735,0.26935 2.36901,1.45612 2.60163,5.18463 l 0.19849,3.18169 15.47057,-0.0662 c 17.21553,-0.0736 17.55259,-0.0323 18.99347,2.33104 0.96262,1.57889 0.98638,4.19044 0.052,5.72263 -0.73211,1.20057 -2.76808,2.38717 -4.09594,2.38717 -0.77783,0 -0.78042,0.0436 -0.78042,13.01424 v 13.01424 h 2.70602 c 2.89037,0 4.35884,0.6084 4.35884,1.80589 0,1.22779 -0.8079,1.54062 -3.97863,1.54062 h -3.08623 v 11.15507 11.15506 l 1.20845,0.006 c 1.62663,0.008 2.96799,0.73803 3.53824,1.9273 0.9222,1.92326 -0.71335,3.64475 -3.46276,3.64475 h -1.28393 v 12.45649 c 0,12.20859 0.0148,12.45648 0.74366,12.45648 1.94496,0 2.94606,3.0033 1.48735,4.46203 -0.72855,0.72854 -1.23946,0.74367 -25.11581,0.74367 h -24.3721 L 448.42,226.28911 c -1.11501,-1.115 -1.1541,-2.02666 -0.14204,-3.31327 l 0.77067,-0.97974 6.20124,3e-5 6.20125,4e-5 -0.0999,-47.66385 c -0.0548,-26.21447 -0.17048,-47.73393 -0.25692,-47.82036 -0.0864,-0.0864 -8.96993,-0.24826 -19.74109,-0.35957 l -19.58394,-0.2024 0.13366,38.87435 c 0.12999,37.80634 0.11426,38.89586 -0.57465,39.65709 -0.44524,0.49198 -1.16033,0.78273 -1.92515,0.78273 -1.66953,0 -2.75812,-1.414 -2.75812,-3.58259 v -1.62311 h -2.61976 c -2.28567,0 -2.73614,-0.11639 -3.53242,-0.91269 -2.35572,-2.3557 -0.18582,-4.66484 4.3835,-4.66484 h 1.76868 V 177.2497 c 0,-9.47717 -0.1099,-19.7702 -0.24421,-22.8734 l -0.24422,-5.64217 -10.81789,0.0985 -10.8179,0.0985 -0.01,5.01978 c -0.0113,6.17755 -0.009,6.15313 -0.92016,7.06487 -0.93703,0.93703 -2.26487,0.95031 -3.39828,0.034 -0.83668,-0.67644 -0.88655,-0.97707 -1.06374,-6.41416 l -0.18547,-5.70447 h -19.52135 c -10.73676,0 -22.49222,0.0494 -26.12327,0.10955 l -6.60191,0.10955 0.0949,36.33031 0.0947,36.33031 h 26.40032 26.40032 l 0.10695,-3.89514 c 0.0927,-3.3802 0.21193,-4.00693 0.90144,-4.74089 0.96956,-1.03204 2.1512,-1.08056 3.31953,-0.13629 0.79969,0.64631 0.89437,1.06829 1.06375,4.7409 l 0.18591,4.03143 2.68141,0.10896 c 2.37627,0.0965 2.76766,0.21863 3.43946,1.07269 0.99965,1.27083 0.95673,2.18594 -0.15459,3.29727 -0.78722,0.78722 -1.25485,0.91269 -3.40136,0.91269 h -2.48866 l 0.31614,32.62856 c 0.27075,27.94428 0.32035,38.73486 0.19226,41.83148 -0.0422,1.0183 -1.40525,2.13806 -2.60277,2.13806 -1.78564,0 -2.62982,-1.44843 -2.62982,-4.51217 v -2.55272 h -13.78026 -13.78031 l 0.20806,4.36908 c 0.1144,2.40298 0.31148,11.18759 0.43787,19.52135 l 0.22981,15.15229 h 13.58428 13.58427 l -0.20404,-10.83615 c -0.12354,-6.55708 -0.0626,-11.24188 0.15412,-11.86361 0.40892,-1.17302 2.09838,-2.03194 3.2671,-1.66101 1.79968,0.57121 1.78893,0.44507 2.06207,24.17485 l 0.25678,22.31013 -0.79332,0.83664 c -0.9738,1.02695 -2.73474,1.09726 -3.68489,0.14711 -0.43953,-0.43954 -0.78323,-1.51799 -0.94804,-2.97469 l -0.25855,-2.28517 h -19.46169 c -17.99412,0 -19.51969,-0.049 -20.2307,-0.65072 -1.25661,-1.06328 -1.36905,-2.42586 -0.30254,-3.66601 l 0.92438,-1.07487 19.55374,-0.10259 19.55374,-0.1026 v -4.45242 -4.45243 h -13.57199 c -13.07621,0 -13.59915,0.0271 -14.31566,0.74368 -0.41314,0.41314 -1.23946,0.74367 -1.85918,0.74367 -0.61973,0 -1.44602,-0.33053 -1.85917,-0.74367 -0.63071,-0.6307 -1.23945,-0.74368 -4.00746,-0.74368 -4.29428,0 -6.00424,-1.09024 -4.33228,-2.76219 0.4488,-0.44882 1.39975,-0.58433 4.10065,-0.58433 h 3.51635 l -0.19779,-4.36906 c -0.10877,-2.40299 -0.30043,-11.1876 -0.42592,-19.52135 l -0.22816,-15.1523 h -12.04101 -12.04102 v 19.52136 19.52135 h 3.55688 c 3.80907,0 4.99533,0.35132 4.99533,1.47934 0,1.6124 -1.19236,1.86718 -8.73814,1.86718 -5.81096,0 -7.23395,-0.10413 -7.91172,-0.57882 -1.93888,-1.35805 -0.54711,-2.7677 2.7326,-2.7677 h 2.39036 v -19.52175 -19.52136 l -23.61154,-0.0836 c -12.98636,-0.0459 -25.07565,-0.0878 -26.86511,-0.0929 l -3.25356,-0.01 -0.18591,12.56334 c -0.1572,10.62307 -0.27207,12.61774 -0.74367,12.91558 -0.79534,0.5023 -1.02349,0.45567 -1.85919,-0.38003 -0.71361,-0.71363 -0.74366,-1.23946 -0.74366,-13.01424 v -12.27072 h -12.4565 -12.45648 v 6.27105 c 0,5.78123 -0.0601,6.34759 -0.77066,7.25078 -0.97939,1.24512 -2.87899,1.33995 -3.91261,0.19537 -0.6385,-0.70706 -0.70835,-1.41275 -0.70835,-7.15784 v -6.37346 l -12.72483,-0.0978 -12.72484,-0.0978 -0.10343,5.11762 -0.10344,5.1176 h -1.30142 -1.30142 l -0.10344,-5.11274 -0.10343,-5.11273 h -12.63192 -12.63191 v 16.70218 c 0,9.18621 -0.1016,16.96685 -0.2257,17.29035 -0.29763,0.77563 -2.22565,0.77563 -2.52327,0 -0.1241,-0.3235 -0.22571,-8.10414 -0.22571,-17.29035 v -16.70219 h -11.5269 -11.52689 v 26.2144 26.21439 h 2.92453 c 2.39565,0 3.10173,0.13941 3.90427,0.77065 1.1811,0.92906 1.31004,2.61739 0.27868,3.64876 -0.62448,0.62449 -1.57694,0.73092 -8.71985,0.97439 -4.41035,0.15035 -8.62202,0.16019 -9.35925,0.0219 -2.674,-0.50164 -3.61453,-2.76208 -1.8736,-4.50299 0.83449,-0.83449 1.20084,-0.91269 4.2761,-0.91269 h 3.36342 v -40.71597 -40.71598 h -13.07088 -13.07081 l 0.24409,19.4284 c 0.13421,10.68562 0.26625,26.44505 0.29333,35.02094 l 0.0491,15.59256 -1.03275,0.88833 c -0.75645,0.65068 -1.29236,0.82709 -2.00298,0.65941 -2.18932,-0.51663 -2.12717,-0.01 -2.3964,-19.55943 -0.13589,-9.86896 -0.24709,-24.83673 -0.24709,-33.26172 0,-8.42499 -0.10638,-16.09449 -0.23645,-17.04334 l -0.23646,-1.72515 H 97.745619 68.978906 v 40.9019 40.90188 h 5.550547 5.550548 l 0.770664,0.97973 c 1.012037,1.28663 0.972962,2.19828 -0.142045,3.31329 -0.885344,0.88536 -1.074591,0.91268 -6.321192,0.91268 h -5.408522 v 12.45648 12.45649 h 29.375006 29.374978 v -2.99158 c 0,-2.68046 0.0949,-3.08651 0.91269,-3.90427 1.11112,-1.11113 2.39142,-1.16798 3.47923,-0.15453 0.64076,0.59695 0.81379,1.18 0.81379,2.74228 0,1.09128 0.10455,2.50702 0.23238,3.14612 0.2109,1.05447 0.36192,1.16198 1.63207,1.16198 4.14038,0 4.24871,4.90538 0.12058,5.45908 l -1.54627,0.20739 -0.12634,3.70665 c -0.12128,3.55661 -0.16992,3.74406 -1.20129,4.63066 -0.80129,0.6888 -1.32183,0.86353 -2.04509,0.68642 -1.82418,-0.44665 -2.07637,-1.04173 -2.21253,-5.22082 l -0.12676,-3.89185 H 98.320202 68.979053 v 11.09956 11.09955 l 8.45925,0.23898 c 4.652593,0.1314 17.871342,0.34957 29.375007,0.48474 l 20.91573,0.24578 v -1.68051 c 0,-3.12098 2.3734,-4.6615 4.51378,-2.92978 0.85331,0.69038 0.88131,0.89434 1.0023,7.30336 0.0684,3.62624 0.0173,7.16447 -0.11369,7.86275 -0.48891,2.60608 -2.77032,3.52214 -4.48971,1.80275 -0.85729,-0.85729 -0.91268,-1.15848 -0.91268,-4.96255 v -4.04988 l -16.45371,-0.24429 c -9.04954,-0.13435 -22.268294,-0.3528 -29.375002,-0.48543 l -12.921275,-0.24113 v 15.48754 15.48754 h 17.848089 c 17.352318,0 17.868758,0.0207 18.591778,0.74367 0.95611,0.95611 0.95611,2.76224 0,3.71835 -0.72302,0.72302 -1.23946,0.74368 -18.591778,0.74368 H 68.979053 v 29.32148 29.3215 l 21.287581,0.27331 c 13.668906,0.17548 21.453916,0.41053 21.752356,0.65676 0.76262,0.62922 0.56187,2.13967 -0.32812,2.4689 -0.43612,0.16135 -10.22469,0.2173 -21.752375,0.12438 L 68.979053,508.5816 v 14.92299 14.923 h 29.374996 29.374991 l 0.006,-4.74091 c 0.006,-5.66684 0.14054,-6.27807 1.5403,-7.00192 0.90242,-0.46665 1.24285,-0.47944 2.07992,-0.0781 1.81515,0.87034 1.95511,1.6484 1.92585,10.70539 -0.0149,4.60147 -0.19573,8.91138 -0.40193,9.57761 -1.00682,3.25301 -5.14921,2.14257 -5.14921,-1.38033 v -1.50424 H 98.354627 68.97963 v 11.21556 11.21555 l 15.338215,-0.24592 c 8.436007,-0.13519 21.654755,-0.24614 29.374985,-0.24641 l 14.03679,-4.9e-4 v -3.49125 c 0,-2.78414 0.13182,-3.647 0.65071,-4.26025 1.0632,-1.25648 2.42584,-1.36902 3.66603,-0.30277 1.02177,0.87848 1.08111,1.09686 1.20137,4.42034 0.1255,3.46754 0.13534,3.49953 1.20031,3.90152 1.2855,0.48522 2.02079,1.91136 1.68183,3.26192 -0.52353,2.08588 0.12311,2.04802 -34.97453,2.04802 H 68.97963 v 40.85485 40.85484 l 13.293121,0.23163 c 7.311209,0.12747 21.910389,0.31702 32.442619,0.42138 10.53225,0.10427 24.46212,0.29086 30.95531,0.41449 l 11.80577,0.22479 9.8e-4,-15.75138 c 9.8e-4,-9.32735 0.15333,-16.29595 0.37298,-17.08662 0.60758,-2.18724 2.74659,-2.82773 4.28978,-1.28453 0.82662,0.82661 0.9127,1.21232 0.9127,4.09019 v 3.17749 h 26.24452 26.24453 l -0.22385,-10.31843 c -0.12311,-5.67513 -0.31566,-11.77088 -0.42786,-13.5461 -0.18463,-2.92117 -0.13098,-3.30074 0.56555,-3.99723 0.90731,-0.90732 1.27686,-0.95283 1.98521,-0.24445 0.58165,0.58164 1.01536,7.18751 1.01536,15.46476 0,2.59448 0.10906,6.50018 0.24243,8.67935 l 0.24242,3.9621 h 13.90404 13.90404 l -0.24918,-28.16652 c -0.13702,-15.49159 -0.35371,-28.25019 -0.4815,-28.35246 -0.12775,-0.10231 -6.63264,-0.13322 -14.45523,-0.0688 l -14.22286,0.11705 0.24456,7.58291 c 0.25756,7.98622 0.13969,8.72957 -1.38417,8.72957 -1.53494,0 -1.83473,-1.28182 -1.83473,-7.8448 0,-3.40558 -0.10456,-6.71488 -0.23241,-7.35396 l -0.23238,-1.162 h -9.82407 -9.82406 l -0.91269,-0.91268 c -1.15076,-1.15077 -1.15519,-2.11027 -0.0159,-3.43565 l 0.89687,-1.04327 10.44412,-0.11454 10.4441,-0.11453 v -2.12674 c 0,-2.30023 0.70683,-3.77955 1.80591,-3.77955 1.17119,0 1.54061,0.82028 1.54061,3.42089 v 2.52847 h 13.75792 13.7579 v -10.78325 -10.78323 h -13.7579 -13.75792 v 2.52011 c 0,3.53592 -1.2243,5.12653 -2.7622,3.58863 -0.42632,-0.42633 -0.58432,-1.33121 -0.58432,-3.34652 v -2.76222 h -26.02844 -26.02847 v 2.90987 c 0,2.56089 -0.10315,3.00684 -0.8606,3.71836 -1.12208,1.05414 -2.52293,1.0269 -3.55254,-0.069 l -0.82443,-0.87756 0.022,-82.41357 0.022,-82.41357 h -1.69131 c -3.33865,0 -5.15744,-1.50891 -4.46156,-3.70141 0.64287,-2.0255 -6.04556,-1.89614 97.26148,-1.8811 103.89167,0.0152 96.69863,-0.13492 97.24147,2.02795 0.58522,2.33172 -1.19745,3.55456 -5.18185,3.55456 h -2.38928 l -0.22052,6.04233 c -0.12129,3.32329 -0.27763,27.05662 -0.34744,52.74075 l -0.12691,46.69841 18.403,0.2458 c 10.12166,0.13519 22.39133,0.2458 27.26594,0.2458 h 8.86291 l -0.0197,-8.64517 c -0.0175,-7.74694 -0.99734,-97.00782 -1.06725,-97.23495 -0.0158,-0.0511 -7.19867,-0.0929 -15.96205,-0.0929 -10.67426,0 -16.32253,-0.13561 -17.11228,-0.41094 -2.05844,-0.71758 -2.5267,-2.72131 -0.99413,-4.25389 l 0.91269,-0.9127 h 16.56359 16.56356 v -1.69016 c 0,-4.0948 4.74605,-4.84043 5.34974,-0.84046 0.10203,0.67607 0.44798,28.33531 0.76877,61.46497 0.56784,58.64189 0.56496,60.2604 -0.10863,61.16692 -1.44845,1.94946 -3.91489,1.2659 -4.59399,-1.27319 l -0.43176,-1.61427 -3.18789,-0.217 c -1.75334,-0.11932 -17.66158,-0.26411 -35.35164,-0.32171 l -32.16377,-0.10469 -0.0977,12.8605 -0.0977,12.86051 17.91394,0.24668 c 9.85268,0.13563 25.91811,0.24669 35.70095,0.24669 h 17.787 v -1.1324 c 0,-0.70653 0.34325,-1.47565 0.91269,-2.0451 1.48017,-1.48016 3.47523,-1.01848 4.23509,0.98006 0.18872,0.49641 0.40445,9.96083 0.4794,21.03207 0.13112,19.37652 0.10977,20.15883 -0.57207,20.9125 -1.68935,1.86725 -4.68327,0.3152 -4.68327,-2.42781 v -1.25127 h -3.14612 c -2.75764,0 -3.23974,-0.10049 -3.90427,-0.8138 -1.01346,-1.0878 -0.9566,-2.3681 0.15452,-3.47922 0.82075,-0.82075 1.2201,-0.91269 3.96435,-0.91269 h 3.05164 l -0.24965,-12.52212 c -0.1373,-6.88716 -0.32943,-12.6019 -0.42693,-12.69941 -0.0975,-0.0975 -5.95226,-0.25859 -13.01057,-0.358 l -12.83272,-0.18071 v 12.88013 12.88011 h 4.59781 c 4.08843,0 4.70632,0.0855 5.57753,0.77067 1.24388,0.97843 1.33975,2.87827 0.19745,3.9126 -0.74613,0.6756 -1.92786,0.72108 -25.56368,0.98389 -13.62978,0.15153 -30.53616,0.23519 -37.56974,0.18591 l -12.78834,-0.0897 -0.73913,-0.99018 c -0.91032,-1.21952 -0.64679,-2.65035 0.64391,-3.49605 0.79741,-0.52248 4.33691,-0.62047 30.39165,-0.84132 l 29.4891,-0.24998 0.0976,-12.86716 0.0977,-12.86714 -40.44184,-0.20027 c -22.24302,-0.11018 -40.53345,-0.0926 -40.6454,0.0388 -0.112,0.13154 -0.13744,6.13734 -0.0568,13.3463 l 0.14669,13.10719 h 4.56166 c 4.05191,0 4.67115,0.0862 5.54142,0.77066 1.24341,0.97808 1.33967,2.87802 0.19823,3.91261 -0.66591,0.60357 -1.49044,0.72645 -5.57392,0.83078 l -4.79242,0.12242 0.19116,18.84116 c 0.10512,10.36264 0.2905,25.74336 0.41193,34.17937 l 0.22076,15.33821 h 56.47636 56.47637 l -0.24749,-27.44497 -0.24749,-27.44499 0.87427,-0.81451 c 1.14511,-1.06683 2.40977,-1.03175 3.53971,0.0982 0.79628,0.79629 0.91268,1.24675 0.91268,3.53243 v 2.61975 h 5.01978 c 4.524,0 5.09322,0.0735 5.76345,0.74366 0.8675,0.86753 0.96866,2.5242 0.21702,3.55433 -0.46463,0.63678 -1.13248,0.74368 -5.6705,0.9077 l -5.14383,0.18593 0.10961,20.45094 c 0.0603,11.24803 0.20482,21.16208 0.3211,22.03124 l 0.21144,1.58031 h 14.08751 14.08754 v -22.12421 -22.12421 h -2.35212 c -1.97786,0 -2.48075,-0.13688 -3.1606,-0.86059 -1.0421,-1.10927 -1.02977,-2.52023 0.0308,-3.51652 0.64103,-0.60222 1.40939,-0.8151 3.25357,-0.90144 l 2.41434,-0.113 0.0362,-5.76346 c 0.02,-3.16989 0.0617,-13.07462 0.0929,-22.01049 l 0.0566,-16.24707 0.83664,-0.92813 0.83663,-0.92813 25.03803,-0.1151 25.03804,-0.1151 0.92466,1.07487 c 0.68334,0.79437 0.8649,1.32809 0.69571,2.04511 -0.41701,1.76714 -1.46092,2.27163 -4.70046,2.27163 h -2.9335 v 4.22597 c 0,3.71227 -0.0937,4.34506 -0.77065,5.20571 -0.55895,0.71057 -1.11334,0.97971 -2.0181,0.97971 -0.90476,0 -1.45917,-0.26914 -2.01812,-0.97971 -0.67698,-0.86065 -0.77066,-1.49344 -0.77066,-5.20571 v -4.22597 h -17.23368 -17.23366 l -0.23938,4.19109 c -0.13168,2.30509 -0.24455,22.59336 -0.25089,45.08504 l -0.0113,40.89396 1.77452,0.11651 c 4.68971,0.30804 4.6146,5.04982 -0.0846,5.34442 l -1.85917,0.1165 -0.10259,5.67049 -0.10259,5.67049 h 18.04371 18.04369 v -4.78371 c 0,-4.27654 0.0817,-4.8876 0.77067,-5.76345 0.97845,-1.2439 2.87829,-1.33976 3.91261,-0.19741 0.66735,0.73706 0.71443,1.62988 0.81366,15.43117 l 0.10527,14.64883 h 14.48922 14.48922 l -0.003,-3.8113 c -9.8e-4,-2.09622 -0.10962,-5.19175 -0.24101,-6.87896 l -0.23882,-3.06764 -2.08293,-9.8e-4 c -2.9686,-0.003 -4.66821,-0.55694 -5.18438,-1.68983 -0.63006,-1.38279 -0.53753,-1.95371 0.48169,-2.97294 0.81777,-0.81777 1.2238,-0.91269 3.90426,-0.91269 h 2.99159 v -3.92117 c 0,-3.66745 0.059,-3.98024 0.91269,-4.83385 1.09455,-1.09458 2.40716,-1.16841 3.6011,-0.20261 0.81064,0.65576 0.88746,1.02572 1.00368,4.83387 l 0.12592,4.12376 h 2.87698 c 2.52649,0 2.97546,0.10484 3.68546,0.8606 0.92895,0.98883 1.04403,2.39284 0.28175,3.43741 -0.42556,0.58311 -1.122,0.75748 -3.6254,0.90769 l -3.09866,0.18591 -0.10119,6.97192 -0.10117,6.97191 h 10.41958 10.4196 v -7.06488 -7.06486 h -2.20402 c -1.93816,0 -2.29699,-0.11819 -2.97468,-0.97974 -1.01205,-1.28661 -0.97298,-2.19828 0.14202,-3.31327 0.74441,-0.74441 1.28412,-0.91269 2.92716,-0.91269 h 2.01447 l 0.23868,-1.49256 c 0.45015,-2.81509 2.72708,-3.8509 4.52122,-2.05678 0.62579,0.62579 0.91268,1.3271 0.91268,2.23101 v 1.31833 h 2.78877 c 3.19551,0 4.27611,0.65775 4.27611,2.60284 0,1.94511 -1.0806,2.60286 -4.27611,2.60286 h -2.78877 v 7.06486 7.06488 h 11.34098 11.34099 v -7.06488 -7.06486 h -2.41694 c -2.76562,0 -3.90427,-0.73838 -3.90427,-2.53178 0,-1.88179 0.7854,-2.46818 3.58146,-2.67392 l 2.52658,-0.18592 0.26084,-1.28326 c 0.30155,-1.48358 1.17129,-2.24917 2.55517,-2.24917 1.38373,0 2.25353,0.7655 2.55563,2.24917 l 0.26131,1.28326 2.66732,0.10892 c 2.36101,0.0964 2.75437,0.21963 3.42538,1.0727 0.94528,1.20173 0.95779,2.02153 0.048,3.14621 -0.59662,0.73752 -1.14622,0.90754 -3.43866,1.06374 l -2.72853,0.18592 0.12844,6.87896 c 0.0707,3.78343 0.17413,6.92702 0.22996,6.9858 0.0558,0.0587 4.80828,-0.01 10.56099,-0.15164 l 10.45949,-0.25848 v -6.82028 -6.82028 h -3.73526 c -3.47005,0 -3.80006,-0.0648 -4.64795,-0.91268 -1.10546,-1.10547 -1.17399,-2.54436 -0.16901,-3.54934 0.57447,-0.57448 1.23945,-0.74367 2.92279,-0.74367 1.19851,0 2.95544,-0.10639 3.90427,-0.23645 l 1.72516,-0.23647 v -2.94104 c 0,-2.62681 0.0975,-3.03857 0.91269,-3.85373 1.14558,-1.14559 2.43907,-1.16492 3.48452,-0.0521 0.69415,0.73889 0.80847,1.29102 0.80847,3.90427 v 3.04368 h 1.61779 c 2.05595,0 3.872,0.62859 4.33943,1.50201 1.20062,2.24335 -0.41347,4.07552 -3.59043,4.07552 h -1.99494 v 6.87896 6.87895 h 11.89872 11.89874 v -4.0341 c 0,-2.21874 -0.10822,-5.31426 -0.24049,-6.87895 -0.2397,-2.83566 -0.24395,-2.84486 -1.31831,-2.84486 -1.93368,0 -3.36502,-2.08231 -2.67226,-3.8876 0.27888,-0.72676 2.04406,-1.68993 3.09709,-1.68993 0.71908,0 0.76214,-0.21688 0.76214,-3.83946 0,-3.53256 0.0687,-3.90407 0.86059,-4.64794 1.11648,-1.04888 2.52174,-1.02816 3.53662,0.0522 0.67249,0.71583 0.80847,1.3022 0.80847,3.48596 0,1.44395 0.10457,3.14824 0.23241,3.78735 l 0.23239,1.16198 h 16.87204 16.87203 v -53.5443 -53.54429 h -18.03402 -18.03401 v 4.99279 c 0,4.95091 -0.009,4.99925 -0.97973,5.76344 -1.21731,0.95753 -2.03372,0.9733 -3.16223,0.0611 -0.82342,-0.66559 -0.88935,-1.01703 -1.06374,-5.67049 l -0.18592,-4.96091 h -11.15506 -11.15506 l -0.10469,4.81748 c -0.0829,3.81788 -0.22991,4.95592 -0.70835,5.48458 -0.83636,0.92416 -2.87661,0.86641 -3.78359,-0.10709 -0.64107,-0.68811 -0.73881,-1.48389 -0.87918,-7.15783 -0.17002,-6.87191 0.0319,-7.8671 1.66915,-8.22897 1.4598,-0.32263 78.88243,-0.47 79.75397,-0.1518 0.94189,0.34389 1.15198,1.83028 0.35248,2.49379 -0.26629,0.22101 -1.98137,0.45064 -3.81131,0.51033 -2.8937,0.0945 -3.32312,0.19328 -3.29617,0.75922 0.017,0.35789 0.0588,6.92544 0.0929,14.59454 l 0.062,13.94383 h 2.43384 c 2.08828,0 2.5634,0.12957 3.34652,0.91268 1.14557,1.14558 1.16491,2.43908 0.0522,3.48453 -0.70641,0.66365 -1.30591,0.80848 -3.34651,0.80848 h -2.48592 v 28.07358 28.07356 h 12.45649 12.45647 V 608.6976 591.95703 l 0.94333,-0.42981 c 0.77981,-0.35531 1.05373,-0.31945 1.5803,0.20688 0.57906,0.5788 0.64645,2.14014 0.74107,17.17038 l 0.10414,16.53367 h 11.76203 11.76203 l -0.24626,-14.00467 c -0.13547,-7.70257 -0.24628,-20.33569 -0.24628,-28.07358 v -14.06933 h -11.52677 -11.5269 v 4.75112 c 0,5.01449 -0.39182,6.40395 -1.8059,6.40395 -1.35046,0 -1.54062,-0.74357 -1.54062,-6.02374 v -5.13133 h -3.1775 c -2.87787,0 -3.26357,-0.0861 -4.09019,-0.91268 -1.11501,-1.115 -1.15407,-2.02667 -0.14203,-3.31328 0.76014,-0.96637 0.83493,-0.97973 5.48456,-0.97975 h 4.71392 l 1.0384,-1.30142 c 1.49297,-1.87112 3.54786,-1.73178 4.61986,0.31322 0.33943,0.64753 1.21608,0.68829 15.99572,0.74368 14.80917,0.0555 15.67806,0.0961 16.41971,0.76697 1.03666,0.93766 1.03745,2.85014 9.8e-4,3.789 -0.67578,0.6125 -1.49329,0.7244 -6.04233,0.82705 l -5.2608,0.11875 0.0837,19.77448 c 0.0461,10.87598 0.19019,23.49749 0.32027,28.04783 l 0.23651,8.27334 h 13.5306 13.5306 V 608.1744 590.91104 l 1.00645,-0.79168 c 1.15841,-0.9112 2.54101,-0.76634 3.5033,0.36707 0.53107,0.62551 0.63942,2.81679 0.88162,17.83224 l 0.27614,17.11909 h 13.56831 13.56832 l -0.27455,-15.39277 c -0.27268,-15.28809 -0.26935,-15.39554 0.4895,-15.80166 0.90762,-0.48574 1.78221,-0.22175 2.11931,0.63972 0.24271,0.62027 0.8896,19.51063 0.91581,26.74339 l 0.0141,3.81132 h 24.91788 24.91788 l -0.25115,-14.87821 -0.25114,-14.87819 0.86881,-0.92481 c 1.08162,-1.15134 2.26357,-1.1771 3.54229,-0.0771 l 0.98539,0.84761 0.24381,14.86244 0.24378,14.86243 h 41.83149 41.83147 l 0.0499,-26.95806 c 0.0274,-14.82694 -0.0333,-27.58555 -0.13364,-28.35245 l -0.18328,-1.39439 -29.05541,5.8e-4 c -15.98051,3.1e-4 -34.9537,0.11116 -42.16266,0.24616 l -13.1072,0.2456 v 6.0174 c 0,5.35734 -0.0746,6.08491 -0.67999,6.63279 -0.85998,0.77827 -2.80511,0.79551 -3.569,0.0316 -0.84046,-0.84046 -0.95138,-1.61557 -1.05217,-7.35284 l -0.0905,-5.14781 -1.48243,-0.50912 c -2.43032,-0.83467 -3.11889,-2.56745 -1.71123,-4.30633 l 0.71062,-0.87783 49.95195,-0.28645 c 27.47356,-0.15755 50.5924,-0.21355 51.37518,-0.12452 2.63245,0.29961 3.69828,2.44518 2.15887,4.34618 -0.56708,0.70036 -1.14494,0.88575 -3.16057,1.01411 l -2.4666,0.15706 v 40.67265 40.67265 h 42.22698 42.22704 l -0.2167,-23.33266 c -0.1193,-12.83296 -0.3173,-31.25627 -0.4403,-40.94067 l -0.2234,-17.60801 -32.58386,0.0988 c -17.9212,0.0543 -32.85405,-0.021 -33.18429,-0.16761 -0.64512,-0.28624 -1.44473,-1.7677 -1.44473,-2.67677 0,-0.30644 0.41072,-0.96787 0.9127,-1.46986 0.76769,-0.76772 1.26967,-0.91268 3.16057,-0.91268 h 2.24797 v -3.31952 c 0,-3.14327 0.0519,-3.36046 0.97967,-4.09019 1.28661,-1.01206 2.19833,-0.97297 3.3133,0.14202 0.82664,0.82662 0.9127,1.21232 0.9127,4.09019 v 3.1775 h 21.69291 c 11.93118,0 24.48065,-0.1099 27.88766,-0.24431 l 6.1947,-0.24431 v -10.44595 c 0,-5.74528 -0.1096,-11.82641 -0.241,-13.5136 l -0.2388,-3.06765 h -27.88041 -27.88051 l 0.24124,3.62539 c 0.27003,4.06005 -0.048,5.16011 -1.72582,5.96451 -0.83702,0.40135 -1.17745,0.38857 -2.07986,-0.078 -0.59352,-0.3069 -1.18166,-0.94117 -1.30718,-1.4095 -0.12551,-0.46834 -0.23037,-4.03531 -0.23311,-7.92662 -0.01,-8.19315 0.15322,-8.7279 2.59769,-8.7279 1.84831,0 2.60289,0.99418 2.60289,3.42925 v 1.77643 h 27.88765 27.88762 v -10.41137 -10.41138 h -19.65178 c -13.38903,0 -20.0275,-0.13098 -20.83064,-0.41094 -2.05842,-0.71758 -2.52671,-2.72134 -0.99406,-4.25391 l 0.9126,-0.91268 h 20.34139 20.34129 l -0.2445,-8.64517 c -0.1344,-4.75485 -0.2447,-11.44788 -0.2452,-14.87342 l -9e-4,-6.22825 h -18.32313 c -15.98202,0 -18.42865,-0.0739 -19.14955,-0.57884 -0.97301,-0.68153 -1.04996,-1.37549 -0.24203,-2.18336 0.51559,-0.51559 2.76777,-0.58432 19.14946,-0.58432 h 18.56525 V 460.9588 449.30404 l -5.63668,-0.24398 c -3.10017,-0.13421 -11.37085,-0.24397 -18.37931,-0.24397 -11.08839,0 -12.81842,-0.0759 -13.32696,-0.58432 -0.75448,-0.75448 -0.73989,-1.43798 0.048,-2.22538 0.5849,-0.58494 1.97872,-0.61145 18.77769,-0.35732 l 18.14576,0.27449 v -13.42715 -13.42715 h -17.7925 c -12.03174,0 -18.17439,-0.13308 -18.97146,-0.41095 -2.05842,-0.71757 -2.52672,-2.7213 -0.99416,-4.2539 l 0.9127,-0.91268 h 18.48192 18.482 l -0.2442,-8.08742 c -0.1344,-4.44808 -0.2446,-10.4718 -0.2451,-13.38608 l -9e-4,-5.29865 h -17.23466 c -11.07575,0 -17.63501,-0.13956 -18.35463,-0.39034 -1.07827,-0.37589 -1.9659,-1.64222 -1.9659,-2.80465 0,-0.30644 0.41072,-0.96787 0.9127,-1.46986 l 0.9127,-0.91268 h 17.86999 17.8701 l -0.098,-12.1776 -0.098,-12.17762 -33.96717,-0.006 -33.96726,-0.006 -0.91955,-1.069 c -0.68477,-0.79617 -0.85885,-1.31663 -0.68193,-2.03922 0.43148,-1.76228 1.08795,-2.07629 4.6289,-2.21438 l 3.29891,-0.12873 0.25212,-1.35869 c 0.13854,-0.74728 0.5148,-1.6515 0.83594,-2.00939 0.58852,-0.65583 2.5367,-0.87232 3.2947,-0.36614 0.65403,0.4367 1.26419,1.81691 1.26419,2.85978 v 0.96224 l 6.92318,-0.10119 6.92318,-0.10119 0.0832,-1.37909 c 0.19885,-3.28711 3.17458,-3.5137 3.17458,-0.24173 0,0.76506 0.14578,1.48117 0.32407,1.59133 0.17819,0.11018 8.88252,0.0927 19.34282,-0.0388 l 19.01862,-0.23908 -0.1003,-7.58663 -0.1004,-7.58664 -15.05922,0.0258 c -8.28264,0.0142 -16.93301,0.13309 -19.22299,0.26404 l -4.16354,0.23815 -0.11259,1.11286 c -0.0617,0.61522 -0.45273,1.33741 -0.87344,1.61495 -0.64708,0.42698 -0.88343,0.41623 -1.58024,-0.0718 -0.73196,-0.51267 -0.81939,-0.90103 -0.81939,-3.63907 0,-1.88821 0.17134,-3.23648 0.44617,-3.51135 0.68467,-0.68469 2.00819,-0.53064 2.57606,0.29986 0.50344,0.7362 0.76485,0.74275 19.81229,0.49626 l 19.30209,-0.24979 -0.2455,-16.17436 c -0.1351,-8.89589 -0.2456,-22.00331 -0.2456,-29.12758 v -12.95279 h -19.55872 -19.55861 l 0.27454,23.75691 0.27463,23.75689 -0.79502,0.42548 c -1.20994,0.64754 -2.14036,-0.0506 -2.42302,-1.81819 -0.21325,-1.33362 -0.35453,-1.50085 -1.26831,-1.50085 -1.31431,0 -2.68121,-0.95194 -2.68121,-1.86718 0,-0.87095 1.06034,-1.47934 2.57841,-1.47934 h 1.13994 l -6.8e-4,-9.20293 c -3e-4,-5.06161 -0.11103,-14.3482 -0.24595,-20.63686 l -0.24526,-11.43393 h -6.26112 -6.26122 v 20.37405 20.37405 l 1.20847,0.35577 c 1.0158,0.29905 1.20848,0.53363 1.20848,1.47127 0,0.94693 -0.19669,1.17901 -1.30149,1.53575 l -1.30139,0.42023 -0.18593,10.30343 c -0.18544,10.27678 -0.18818,10.30525 -1.06377,11.01369 -1.13916,0.92179 -1.94534,0.89681 -3.21197,-0.0995 l -1.02941,-0.8098 0.17065,-32.46947 0.17066,-32.46947 H 929.323 916.35379 l 0.20013,3.99722 c 0.10995,2.19848 0.28687,13.20017 0.3931,24.44819 0.10623,11.24801 0.30117,26.83414 0.43334,34.63582 l 0.24027,14.18487 2.77344,0.14011 c 2.36311,0.11932 2.87742,0.26853 3.47672,1.0086 0.9594,1.18482 0.88274,2.49973 -0.20943,3.59184 -0.79991,0.80001 -1.24314,0.91269 -3.5898,0.91269 h -2.6771 l 0.24183,4.7409 c 0.13286,2.6075 0.24242,8.04559 0.2433,12.08466 v 7.34374 h 1.3014 c 1.62361,0 2.78881,1.0875 2.78881,2.60284 0,1.51065 -1.16559,2.60286 -2.77775,2.60286 h -1.29033 l 0.19269,9.57476 c 0.28383,14.09908 1.2729,93.50625 1.2727,102.17783 l -1.9e-4,7.45278 1.20848,0.35576 c 1.65523,0.4873 2.46963,2.14766 1.71437,3.49512 -0.29314,0.52295 -1.00562,1.17806 -1.58327,1.45575 l -1.05046,0.50491 0.11847,14.3685 c 0.0656,7.90269 -0.01,14.727 -0.15695,15.16515 -0.15146,0.43817 -0.7299,0.97265 -1.28553,1.18779 -0.68781,0.2663 -26.23644,0.47247 -80.05322,0.64597 l -79.04304,0.25484 -0.82962,-1.05469 c -1.41773,-1.80235 -0.13492,-4.24748 2.22828,-4.24748 h 1.07432 v -5.76344 -5.76345 l -18.31289,4.7e-4 c -10.07209,2.5e-4 -25.71706,0.11116 -34.76661,0.24651 l -16.45371,0.24605 v 8.67753 c 0,8.18176 -0.0425,8.72002 -0.74368,9.42122 -0.9977,0.99769 -2.65078,0.95045 -3.64143,-0.104 -0.71202,-0.7579 -0.80753,-1.339 -0.90144,-5.48458 l -0.10512,-4.63686 -3.40362,0.12888 c -3.05705,0.11566 -3.48299,0.0494 -4.18315,-0.65072 -0.87201,-0.87201 -0.92099,-1.0947 -0.41671,-1.89504 0.26132,-0.41475 1.33232,-0.60541 4.17745,-0.74366 l 3.82603,-0.18592 0.10161,-6.86424 c 0.0955,-6.43878 0.15122,-6.91701 0.90144,-7.71559 1.83428,-1.95251 4.38852,-0.4322 4.38852,2.6121 v 1.74225 l 18.87064,-4.6e-4 c 10.37887,-2.7e-4 26.02383,-0.11117 34.76662,-0.24647 l 15.89595,-0.24599 v -12.58186 -12.58186 h -34.7666 -34.76661 v 0.95404 c 0,2.948 -3.52856,4.0878 -4.87373,1.57432 -0.71738,-1.34042 -0.49437,-21.74646 0.25006,-22.88262 0.71951,-1.09809 2.8261,-1.15058 3.87999,-0.0966 0.69149,0.69148 0.74368,1.23946 0.74368,7.80854 v 7.06487 h 26.46079 26.46077 l -0.24638,-15.12027 c -0.13548,-8.31614 -0.24639,-19.77796 -0.24639,-25.47072 v -10.35045 h -26.2144 -26.21439 v 11.66266 c 0,11.23579 -0.0282,11.69853 -0.77066,12.64242 -0.92268,1.17298 -2.61556,1.31186 -3.62967,0.29774 -0.645,-0.645 -0.69525,-2.2144 -0.92701,-28.95505 -0.17473,-20.16084 -0.12788,-28.6092 0.16332,-29.44454 0.7151,-2.05128 2.72117,-2.5169 4.25133,-0.98674 0.85085,0.85085 0.91267,1.17205 0.91253,4.7409 l -1.5e-4,3.82821 19.61447,-0.0858 c 10.78795,-0.0472 22.50892,-0.19098 26.0466,-0.31961 l 6.43215,-0.23385 -0.11088,-12.75709 c -0.061,-7.01641 -0.19461,-12.83552 -0.29686,-12.93136 -0.10231,-0.0959 -11.77323,-0.29673 -25.9355,-0.4464 l -25.74961,-0.27211 v 2.78267 c 0,2.2521 -0.14693,2.96946 -0.77066,3.7624 -1.31509,1.67184 -3.66251,1.17677 -4.39593,-0.9271 -0.54109,-1.55216 -0.54109,-13.22596 0,-14.77813 0.71758,-2.05844 2.72131,-2.52671 4.2539,-0.99414 0.74958,0.7496 0.91269,1.28119 0.91269,2.9747 v 2.06198 l 33.74406,0.0337 c 18.55922,0.0186 68.04587,0.1566 109.97031,0.30689 41.92446,0.15029 76.30988,0.17699 76.41219,0.0593 0.10232,-0.11762 0.13345,-5.6102 0.0695,-12.20563 l -0.11651,-11.99169 h -29.66772 c -20.70191,0 -30.02401,-0.12423 -30.8466,-0.41094 -2.05845,-0.71758 -2.52671,-2.72131 -0.99414,-4.25391 0.80638,-0.80638 1.23674,-0.91268 3.6948,-0.91268 h 2.78211 l 0.11651,-1.20846 c 0.10708,-1.11102 0.22146,-1.20847 1.41793,-1.20847 1.19649,0 1.31083,0.0974 1.41795,1.20847 l 0.1165,1.20846 h 12.99069 c 7.74633,0 12.99068,-0.13941 12.99068,-0.34527 0,-0.60189 1.14083,-1.51391 1.89374,-1.51391 0.41259,0 0.90761,0.40064 1.14856,0.92959 l 0.42355,0.92959 h 11.03346 c 6.06835,0 11.10307,-0.0694 11.18835,-0.15428 0.0852,-0.0849 0.0127,-11.83952 -0.16106,-26.12143 -0.22949,-18.8631 -0.43295,-26.04189 -0.74361,-26.24033 -0.23527,-0.15026 -5.26383,-0.27575 -11.17464,-0.27889 l -10.74689,-0.006 0.20346,21.53953 c 0.17427,18.45676 0.1262,21.64982 -0.33632,22.31012 -0.29685,0.42382 -0.76936,0.7706 -1.04987,0.7706 -0.80245,0 -1.67873,-1.08145 -1.67873,-2.07167 0,-0.90287 -7.8e-4,-0.90303 -4.20172,-0.90303 -4.45247,0 -5.09416,-0.2185 -5.09416,-1.73454 0,-1.30608 1.1699,-1.66032 5.23426,-1.58481 2.04462,0.0379 3.80363,-0.0171 3.90898,-0.12241 0.10525,-0.10526 0.0725,-8.74426 -0.0725,-19.19763 l -0.26406,-19.00613 H 873.0148 860.2452 v 18.91064 18.91062 l 2.28556,0.23889 c 1.25705,0.1314 3.25127,0.23888 4.43161,0.23888 1.18032,0 2.41072,0.10161 2.73421,0.2257 0.66607,0.2556 0.81189,2.19501 0.19374,2.57703 -0.21692,0.13408 -2.47584,0.22218 -5.01977,0.19581 l -4.62535,-0.0479 v 1.13553 c 0,1.47168 -1.5352,2.34659 -2.47264,1.40915 -0.52138,-0.52137 -0.57941,-2.96785 -0.52631,-22.19015 l 0.0597,-21.60414 h -12.47586 -12.4742 l 6e-4,13.85086 c 3.2e-4,7.61799 0.11102,19.49813 0.24609,26.4003 l 0.24549,12.54945 h 2.86437 c 2.33476,0 3.0455,0.1425 3.84409,0.77067 1.24364,0.97824 1.33972,2.87813 0.19788,3.9126 -0.70191,0.63593 -1.52585,0.72084 -8.05914,0.83057 -4.00252,0.0672 -7.83449,0.0177 -8.5155,-0.11005 -2.54957,-0.4783 -3.48976,-2.81122 -1.80992,-4.49105 0.78311,-0.78311 1.25822,-0.91268 3.34652,-0.91268 h 2.43383 l -6.2e-4,-14.40861 c -3.5e-4,-7.92474 -0.11103,-19.80488 -0.24603,-26.40032 l -0.24537,-11.99175 h -10.35131 -10.35129 v 26.4003 26.40031 h 1.43719 c 3.60574,0 4.76624,4.02444 1.48986,5.16659 -0.79953,0.27871 -7.12552,0.41094 -19.65965,0.41094 -12.53412,0 -18.86011,-0.13224 -19.65963,-0.41094 -2.05844,-0.71757 -2.52671,-2.72131 -0.99413,-4.25391 0.70918,-0.70915 1.30097,-0.91268 2.65402,-0.91268 h 1.74131 l -0.23397,-6.97191 c -0.12873,-3.83455 -0.32363,-14.58525 -0.43322,-23.89042 -0.10962,-9.30518 -0.2926,-18.13163 -0.40667,-19.61432 l -0.20742,-2.69581 H 760.6856 749.68793 l 0.2456,13.1072 c 0.13505,7.20897 0.24586,19.17277 0.24617,26.58624 l 5.7e-4,13.47902 h 3.11046 c 2.58373,0 3.27637,0.13056 4.09018,0.77066 1.183,0.93057 1.29433,2.47649 0.26952,3.74314 -0.69038,0.85331 -0.89434,0.88129 -7.30337,1.00229 -3.62623,0.0684 -7.16445,0.0173 -7.86273,-0.11369 -2.60609,-0.48892 -3.52215,-2.77032 -1.80276,-4.48972 0.80227,-0.80225 1.24089,-0.91265 3.6254,-0.91251 l 2.7127,1.7e-4 -0.0817,-18.68489 c -0.0448,-10.2767 -0.1889,-22.24057 -0.32005,-26.5864 l -0.23843,-7.90151 h -10.85963 -10.85962 l 0.12704,24.6341 c 0.0698,13.54876 0.21849,25.51255 0.33024,26.58623 l 0.20317,1.95213 h 1.41045 c 2.89752,0 4.51893,2.93472 2.58747,4.68327 -0.74354,0.67314 -1.68617,0.71348 -18.96361,0.81153 l -18.18117,0.10316 v 1.12219 c 0,1.37516 -1.4567,2.94756 -2.73067,2.94756 -0.49791,0 -1.30032,-0.31987 -1.78311,-0.71082 l -0.87784,-0.71081 v -22.7487 -22.74768 l 0.87784,-0.71081 c 1.1167,-0.90425 2.33318,-0.90432 3.45004,-2e-4 l 0.87783,0.71062 0.10301,18.62483 0.10301,18.62482 h 13.80845 13.80845 l -0.24649,-16.23586 c -0.13562,-8.92971 -0.2465,-20.89352 -0.2465,-26.58622 v -10.35003 h -13.53133 -13.53135 l -0.14287,2.82912 c -0.12227,2.42005 -0.26845,2.93083 -1.01143,3.53244 -1.18481,0.95941 -2.4997,0.88275 -3.59183,-0.20936 -0.79631,-0.79631 -0.91268,-1.24675 -0.91268,-3.53245 v -2.61975 h -13.43895 -13.43893 l 0.23821,33.37224 c 0.13098,18.35471 0.34618,59.77331 0.47816,92.04133 l 0.23995,58.66912 -0.86248,0.91806 c -0.47437,0.50495 -1.46054,1.08421 -2.19152,1.28727 -1.89911,0.52756 -230.43003,0.51152 -231.94408,-0.0163 -0.61473,-0.2143 -1.30519,-0.75811 -1.53434,-1.20847 -0.29741,-0.58445 -0.63272,-25.24636 -1.17141,-86.15506 -0.4151,-46.93492 -0.86279,-97.39594 -0.99486,-112.13562 -0.13211,-14.73969 -0.12901,-27.24247 0.007,-27.78397 0.1359,-0.5415 0.62161,-1.18833 1.07935,-1.43739 0.64792,-0.35253 18.5377,-0.43684 80.77684,-0.38066 43.96953,0.0396 96.6772,0.17337 117.12815,0.29708 35.97677,0.21763 37.20767,0.24807 37.9272,0.93776 0.72024,0.69038 0.74694,1.26901 0.84714,18.36495 l 0.10344,17.65211 h 13.37556 13.37558 v -32.3493 -32.34968 h -1.61778 c -4.11719,0 -6.06215,-2.39344 -3.79074,-4.66484 0.76772,-0.76774 1.26971,-0.91269 3.1606,-0.91269 h 2.24792 v -2.61975 c 0,-2.28568 0.11636,-2.73614 0.91268,-3.53244 1.02515,-1.02513 2.30905,-1.17145 3.38531,-0.38579 0.57431,0.41923 0.75977,1.12199 0.9077,3.43947 l 0.18592,2.91259 26.49327,0.0955 26.49327,0.0955 v -36.62831 -36.62826 h -26.58623 -26.58623 v 28.17675 c 0,31.37537 0.12634,29.82957 -2.43802,29.82957 -0.78455,0 -1.5683,-0.28797 -2.024,-0.74367 -0.73063,-0.73062 -0.74367,-1.23945 -0.74367,-29.00316 v -28.25949 h -10.78324 -10.78321 v 28.2325 28.23251 l -0.97974,0.77065 c -1.23595,0.97221 -2.01027,0.97221 -3.24623,0 l -0.97956,-0.77066 v -38.45797 -38.45798 l -9.01702,-7.2e-4 c -4.95936,-4e-4 -13.67448,-0.11131 -19.36697,-0.24646 l -10.34996,-0.24574 0.1033,36.55045 0.10329,36.55047 -0.85658,0.69362 c -1.95318,1.58159 -4.49255,0.1588 -4.49255,-2.51713 v -1.25127 h -11.34099 -11.34098 v 12.08465 12.08465 h 11.31419 11.31419 l 0.11973,-5.61123 c 0.11483,-5.37859 0.15616,-5.64068 0.99758,-6.32121 1.11678,-0.90324 2.33326,-0.90324 3.45005,0 0.84143,0.68053 0.88279,0.94262 0.99756,6.32121 l 0.11974,5.61123 h 5.68652 c 5.18986,0 5.77207,0.0673 6.66625,0.77065 1.76112,1.3853 0.85637,4.38922 -1.34424,4.46314 -0.46015,0.0155 -11.2945,0.004 -24.07634,-0.0251 -23.08442,-0.0528 -23.24531,-0.0584 -24.07635,-0.83659 -0.46013,-0.4309 -0.83662,-1.18021 -0.83662,-1.66513 0,-1.23825 1.58315,-2.70705 2.91782,-2.70705 h 1.09243 l 0.25162,-6.41417 c 0.13843,-3.52778 0.19822,-9.0077 0.13295,-12.1776 l -0.11875,-5.76345 -1.75489,-0.11286 c -1.36528,-0.0878 -1.92251,-0.32596 -2.50988,-1.07269 -0.99661,-1.26698 -0.95275,-2.18293 0.15768,-3.29337 0.7013,-0.7013 1.30413,-0.91268 2.60285,-0.91268 h 1.69016 v -1.67326 c 0,-2.09173 0.936,-3.1606 2.76769,-3.1606 1.62701,0 2.438,1.07886 2.438,3.24333 v 1.59053 h 11.34097 11.34099 v -13.32542 c 0,-7.32892 -0.11074,-19.12788 -0.24625,-26.21991 l -0.24623,-12.8946 -10.81586,0.0985 -10.81587,0.0985 -0.18591,20.50522 c -0.1768,19.49905 -0.22069,20.54361 -0.89426,21.28757 -1.03432,1.14239 -2.93415,1.04655 -3.91261,-0.19737 -0.70371,-0.89462 -0.77067,-1.47607 -0.77067,-6.69304 v -5.7133 h -4.06362 c -4.16158,0 -5.23227,-0.34353 -5.23227,-1.67873 0,-1.19324 1.55768,-1.66779 5.47436,-1.66779 h 3.82153 l 0.0491,-11.43394 c 0.027,-6.28867 0.0688,-12.10324 0.0929,-12.92128 l 0.0439,-1.48734 -2.8079,-0.18591 c -3.13123,-0.20733 -4.41101,-0.82841 -5.59653,-2.71601 -0.54927,-0.87456 -0.70263,-1.61668 -0.5809,-2.81104 0.20319,-1.99336 1.1615,-3.36667 2.97996,-4.27045 1.28561,-0.63896 2.51209,-0.68436 17.3593,-0.64256 l 15.97596,0.0449 v -2.44198 c 0,-2.09694 0.12902,-2.57094 0.91268,-3.35466 l 0.9127,-0.91269 h 16.13195 c 8.87257,0 19.44914,0.11109 23.5035,0.24687 6.59865,0.221 7.44693,0.32229 8.09068,0.96602 0.57399,0.57401 0.66474,0.99319 0.44957,2.07709 -0.14825,0.74688 -0.3383,4.91149 -0.42232,9.25469 l -0.15277,7.89673 41.46662,0.0977 41.46661,0.0977 1.21333,1.21341 1.21335,1.21339 -0.0126,39.6885 c -0.014,42.55386 0.0558,41.01212 -1.88859,41.75138 -0.55956,0.21275 -12.07361,0.35404 -28.85144,0.35404 h -27.92026 l 0.24104,4.18314 c 0.13252,2.30074 0.24178,16.83774 0.24273,32.30447 l 9.8e-4,28.12129 34.30181,0.224 c 18.866,0.12325 68.14349,0.32025 109.50553,0.4379 l 75.20368,0.21391 v -11.73367 c 0,-11.46713 0.0176,-11.7516 0.79002,-12.52363 0.67518,-0.67514 1.06701,-0.75668 2.6958,-0.56098 1.04821,0.12592 22.01748,0.23045 46.59829,0.23222 l 44.69255,0.003 0.9655,0.83663 0.9656,0.83664 0.5199,64.69935 c 0.286,35.58464 0.6074,73.14931 0.7144,83.47704 0.6505,62.78768 1.8095,233.86578 1.5899,234.71432 -0.1554,0.60112 -0.7537,1.28417 -1.4657,1.67327 -1.1282,0.61655 -3.9296,0.66372 -45.0123,0.75787 -30.32028,0.0694 -44.26533,-0.0223 -45.29053,-0.29849 -3.01743,-0.81248 -2.92951,-0.42257 -2.92951,-13.00208 V 631.01455 H 787.36399 658.70895 v 8.32512 c 0,7.64146 -0.0584,8.39718 -0.71052,9.20291 l -0.71051,0.87783 -15.89274,0.10836 -15.89272,0.10835 0.25941,8.84657 c 0.24032,8.19462 0.21023,8.90349 -0.40821,9.61884 l -0.66765,0.77228 -80.2475,0.21231 -80.2475,0.21231 z m 6.09563,-8.53049 c -9.8e-4,-2.09622 -0.10961,-5.19176 -0.24103,-6.87896 -0.23023,-2.95743 -0.27207,-3.06765 -1.16507,-3.06765 -0.89929,0 -0.91944,0.0569 -0.69179,1.95214 0.12901,1.07368 0.23594,4.1692 0.23772,6.87896 l 0.003,4.92681 h 0.92958 0.92959 z m 150.96548,0.18591 c -0.003,-4.79954 -0.43614,-10.50435 -0.79785,-10.50435 -0.35572,0 -0.42894,11.62436 -0.0814,12.92128 0.48009,1.79146 0.88106,0.68923 0.87923,-2.41693 z M 275.34699,616.23452 c -2.5e-4,-6.28866 -0.11116,-19.08909 -0.24655,-28.4454 l -0.24613,-17.01147 h -2.79711 c -2.36012,0 -2.93158,-0.12634 -3.65771,-0.8085 -1.08029,-1.01486 -1.10099,-2.42013 -0.0521,-3.5366 0.70125,-0.74644 1.16688,-0.86061 3.5105,-0.86061 1.48609,0 2.78878,-0.14039 2.89484,-0.31203 0.10611,-0.1716 0.0888,-9.70919 -0.0382,-21.19462 l -0.23109,-20.88258 h -11.69912 -11.6991 l 0.16795,11.33853 c 0.0923,6.23619 0.27331,11.44388 0.4021,11.57266 0.12873,0.12873 1.7541,0.3208 3.61184,0.42672 2.79042,0.1591 3.44204,0.31278 3.74765,0.88383 0.24942,0.46606 0.24029,0.9335 -0.0281,1.4349 -0.35497,0.66327 -0.77855,0.74368 -3.91736,0.74368 h -3.51935 v 7.99446 7.99445 h 2.41693 c 2.76561,0 3.90427,0.7384 3.90427,2.53179 0,1.88482 -0.78436,2.4682 -3.59509,2.67392 l -2.54019,0.18592 0.11159,26.02847 c 0.0613,14.31566 0.20632,27.07427 0.32218,28.35246 l 0.21068,2.32397 h 11.48358 11.48359 z m -89.24006,-89.52474 v -11.71819 l -11.43392,0.0984 -11.43394,0.0984 -0.0982,11.61986 -0.0982,11.61986 h 11.5322 11.53219 z m 59.81396,2.01855 -0.13436,-9.69965 0.87783,-0.71174 c 0.83304,-0.67544 1.66089,-0.71175 16.2266,-0.71175 14.44247,0 15.39952,0.041 16.20801,0.69576 0.61208,0.49563 0.85924,1.0839 0.85924,2.0451 v 1.34933 h 18.17244 18.17243 l -0.0875,-15.11286 c -0.0832,-14.3446 -0.0526,-15.13849 0.60196,-15.61709 0.52684,-0.38522 2.47181,-0.50423 8.24113,-0.50423 h 7.55156 l 2.2e-4,-19.61431 c 1.3e-4,-10.78787 0.11131,-34.54816 0.24721,-52.80061 l 0.24696,-33.18633 h -84.83974 -84.83975 l -0.0832,59.30776 c -0.0458,32.61926 -0.0875,60.68817 -0.0929,62.37538 l -0.01,3.06764 13.32569,0.18591 13.32569,0.18593 0.89702,1.04327 0.89701,1.04328 v 13.17943 13.17942 h 27.18539 27.18538 z m 633.98946,8.3445 34.72507,-0.2235 -0.23959,-12.68972 c -0.13188,-6.97933 -0.59254,-40.80045 -1.02372,-75.15804 -0.43119,-34.3576 -0.80667,-62.49371 -0.83438,-62.52468 -0.0274,-0.0309 -36.76275,-0.17991 -81.63343,-0.33096 l -81.58306,-0.27461 0.2428,17.24945 c 0.1335,9.48721 0.33519,32.3088 0.44815,50.71465 0.113,18.40586 0.28844,34.009 0.38996,34.67365 l 0.1846,1.20846 h 7.05996 c 7.21392,0 9.61608,0.38847 9.65498,1.56132 0.009,0.26609 9.7e-4,10.8201 -0.0155,23.45338 l -0.0315,22.96958 38.96522,-0.20271 c 21.43086,-0.11145 54.59153,-0.30332 73.69034,-0.42627 z M 655.15497,452.44105 c -0.10315,-14.5713 -0.35397,-63.63017 -0.55738,-109.01971 -0.20341,-45.38955 -0.40719,-82.55588 -0.45283,-82.59186 -0.0456,-0.036 -51.17246,-0.18405 -113.61513,-0.32902 l -113.53215,-0.26359 0.21668,8.11655 c 0.11917,4.46409 0.56125,52.95986 0.98243,107.76841 0.42117,54.80853 0.84913,100.36302 0.95101,101.23218 l 0.18525,1.58031 h 113.00483 113.00484 z m 89.2119,-26.95808 c -0.13112,-5.47062 -0.26549,-9.98308 -0.29873,-10.02767 -0.0333,-0.0445 -11.72281,0.0245 -25.97684,0.15358 l -25.9164,0.23467 v 9.79301 9.79301 h 26.21513 26.21515 z M 802.61,324.68239 v -26.34056 l -13.45066,-0.25545 c -7.39785,-0.14054 -13.57818,-0.12564 -13.73405,0.0332 -0.20783,0.2117 0.52989,52.23821 0.74883,52.81041 0.0195,0.0511 5.97564,0.0929 13.23572,0.0929 H 802.61 Z M 491.01196,209.53958 V 197.0831 l -3.06766,-0.006 c -3.34278,-0.006 -4.6719,-0.45686 -5.34875,-1.81449 -0.5856,-1.17457 -0.006,-2.7845 1.20162,-3.33447 0.51072,-0.23269 2.34298,-0.42309 4.07168,-0.42309 h 3.14311 v -25.84217 -25.84256 h -12.08465 -12.08465 v 25.84256 25.84256 h 4.29299 c 4.06225,0 4.34208,0.0491 5.20571,0.91268 1.115,1.115 1.15408,2.02667 0.14202,3.31328 -0.75559,0.96059 -0.85734,0.97974 -5.20568,0.97974 h -4.43504 l -0.006,11.80577 c -0.003,6.49318 -0.10596,12.18226 -0.22929,12.6424 l -0.22421,0.83664 h 12.31393 12.31395 z m 123.27479,409.07321 c -0.99415,-0.72694 -1.2545,-3.30363 -1.28565,-12.72484 -0.0268,-8.11611 -0.0174,-8.21762 0.83345,-9.017 1.11988,-1.05208 2.52247,-1.02742 3.54626,0.0624 0.78616,0.83682 0.8269,1.24737 1.04263,10.50434 0.2222,9.53524 0.21614,9.64392 -0.59439,10.65604 -0.90887,1.13491 -2.40106,1.35358 -3.5423,0.51909 z m -144.46941,-0.98388 c -0.66949,-0.66951 -0.75276,-1.30926 -0.83475,-6.41417 -0.18529,-11.53546 -0.22776,-11.01314 0.98004,-12.05152 1.24018,-1.06622 2.60282,-0.95367 3.66603,0.3028 0.57744,0.68243 0.65071,1.70629 0.65071,9.09411 0,7.82933 -0.0443,8.36939 -0.74368,9.06878 -0.41315,0.41314 -1.23945,0.74367 -1.85918,0.74367 -0.61972,0 -1.44602,-0.33053 -1.85917,-0.74367 z m 115.75449,-0.15312 -1.04329,-0.89679 -0.1113,-8.88344 c -0.10737,-8.57735 -0.084,-8.91799 0.67769,-9.88643 0.99653,-1.26689 2.88721,-1.37321 3.93091,-0.22107 0.64841,0.71578 0.71825,1.54899 0.82519,9.84667 l 0.11679,9.06471 -0.93658,0.93656 c -1.17413,1.17414 -2.12713,1.18509 -3.45952,0.0397 z m -81.48482,-0.1579 c -0.60274,-0.60275 -0.71045,-1.60314 -0.91826,-8.5292 -0.15697,-5.23182 -0.10232,-8.22835 0.1642,-8.99273 0.70662,-2.02698 2.72071,-2.4835 4.24258,-0.96164 l 0.91268,0.91269 v 8.31838 c 0,8.21433 -0.0113,8.3285 -0.86058,9.12687 -1.05143,0.98775 -2.62273,1.04351 -3.54062,0.12563 z M 158.5437,607.71845 c -0.411,-0.49496 -0.54652,-4.09539 -0.69625,-18.49881 l -0.18591,-17.88424 -4.77207,-0.18592 c -4.16886,-0.16241 -4.83861,-0.27715 -5.29864,-0.9077 -0.84383,-1.15657 -0.65081,-2.65897 0.45312,-3.52733 0.86615,-0.68131 1.49128,-0.77066 5.39162,-0.77066 h 4.41188 v -3.31954 c 0,-3.14326 0.052,-3.36044 0.97974,-4.09018 1.28661,-1.01205 2.19828,-0.97297 3.31327,0.14203 0.82662,0.82662 0.91269,1.21233 0.91269,4.09018 v 3.17751 h 9.10997 c 8.61418,0 9.15044,0.0404 9.85363,0.74366 0.97203,0.97203 0.95386,2.66899 -0.0382,3.56778 -0.71017,0.6434 -1.60488,0.72538 -9.76067,0.89425 l -8.97885,0.18592 -0.18591,17.74332 c -0.16933,16.16012 -0.24367,17.81073 -0.833,18.49881 -0.80121,0.93547 -2.94836,1.01776 -3.67646,0.14092 z m 311.22187,-24.63637 c -0.85955,-0.69501 -0.88176,-0.87111 -1.06728,-8.45925 -0.20729,-8.4785 -0.0381,-10.43178 0.96724,-11.1669 0.87319,-0.63849 2.43048,-0.61973 3.33429,0.0402 0.66684,0.48687 0.73594,1.15925 0.9077,8.83111 0.10231,4.56726 0.0598,8.82129 -0.0942,9.4534 -0.17181,0.70517 -0.64555,1.31586 -1.22595,1.58031 -1.30287,0.59362 -1.80421,0.54408 -2.8219,-0.27882 z m 34.05281,-0.18893 c -0.66336,-0.48425 -0.73844,-1.16888 -0.92762,-8.45926 -0.21299,-8.20705 -0.0613,-10.05558 0.90444,-11.02132 0.91289,-0.91288 2.75433,-0.70753 3.80368,0.42415 0.50568,0.54537 1.13772,0.99156 1.40451,0.99156 0.92234,0 1.77275,1.36983 1.64904,2.65618 -0.089,0.92526 -0.4229,1.42766 -1.32055,1.98692 l -1.20143,0.74852 0.0229,5.88702 c 0.0198,5.08675 -0.0648,5.98396 -0.62241,6.60009 -0.76524,0.84557 -2.67783,0.94147 -3.71254,0.18614 z m 82.09505,0.11313 c -1.24826,-0.46176 -1.5708,-1.54405 -1.5708,-5.27072 0,-1.9263 -0.10751,-4.53084 -0.23888,-5.78791 -0.23202,-2.21978 -0.26996,-2.28556 -1.31834,-2.28556 -1.3215,0 -2.9048,-1.47549 -2.9048,-2.70704 0,-1.21682 1.46995,-2.49865 2.86538,-2.49865 0.93754,0 1.19045,-0.1843 1.40031,-1.02046 0.32333,-1.28828 0.86611,-1.94453 1.94875,-2.35615 1.55941,-0.59289 3.45328,0.96265 3.45328,2.83636 0,0.29713 0.16732,0.54025 0.37183,0.54025 0.76488,0 1.85918,1.52547 1.85918,2.59172 0,0.79592 -0.31156,1.33472 -1.11551,1.92911 l -1.1155,0.82473 v 5.79669 c 0,4.50038 -0.12227,5.97138 -0.54703,6.57772 -0.62606,0.8938 -1.95189,1.25014 -3.08787,0.82991 z m 27.64003,-0.83215 c -0.81819,-0.81817 -0.8914,-1.25682 -1.14548,-6.86374 -0.23434,-5.17114 -0.36666,-6.07589 -0.96824,-6.6203 -0.93297,-0.84432 -0.90787,-2.81189 0.0469,-3.67593 0.4117,-0.37259 0.74366,-1.14525 0.74366,-1.73089 0,-1.37751 1.19413,-2.54522 2.60286,-2.54522 1.33076,0 2.60284,1.14755 2.60284,2.34807 0,0.61633 0.36673,1.03559 1.29166,1.47667 2.15222,1.02632 2.16096,3.90958 0.0143,4.72574 l -0.93416,0.35516 v 5.93158 5.93159 l -0.97973,0.77065 c -1.2752,1.00308 -2.19728,0.97397 -3.27462,-0.10343 z m 159.63412,-0.8551 c -0.37284,-0.44833 -0.54226,-2.20137 -0.62887,-6.50713 l -0.11847,-5.89348 -11.7802,0.004 c -6.4791,0.003 -12.39081,0.10511 -13.13712,0.22848 l -1.35695,0.2244 -0.13477,2.96854 c -0.11707,2.57788 -0.24975,3.06159 -1.00823,3.67578 -0.48038,0.38898 -1.25464,0.70723 -1.72061,0.70723 -0.46596,0 -1.24025,-0.31825 -1.72061,-0.70723 -0.7597,-0.61515 -0.89112,-1.09723 -1.00943,-3.70227 l -0.13604,-2.99502 -1.28762,-0.42495 c -1.46491,-0.48348 -2.1884,-1.70737 -1.83698,-3.10754 0.52338,-2.08532 -0.92223,-2.00006 35.55156,-2.09685 18.50812,-0.049 33.94392,-0.0648 34.30183,-0.0349 0.98546,0.0825 2.13804,1.42385 2.13804,2.48829 0,0.52056 -0.41072,1.3572 -0.91268,1.85917 l -0.91269,0.91269 h -15.81991 -15.8199 v 6.06091 c 0,6.22151 -0.15958,6.95333 -1.51617,6.95333 -0.34308,0 -0.85343,-0.27614 -1.1341,-0.61364 z m -242.24396,-33.34993 -1.07487,-0.92456 v -6.12845 c 0,-5.50475 0.0721,-6.2081 0.70834,-6.91115 1.03419,-1.14277 2.93399,-1.04711 3.91261,0.19702 0.70559,0.89702 0.77066,1.47439 0.77066,6.83776 0,5.03824 -0.091,5.96566 -0.65071,6.62704 -1.06337,1.25669 -2.42589,1.36906 -3.66603,0.30234 z m 26.62686,0.12662 c -0.65143,-0.65144 -0.7545,-1.30861 -0.83115,-5.29865 -0.16726,-8.70956 -0.19539,-8.44026 0.98778,-9.45796 1.22866,-1.05684 2.59507,-0.94017 3.65468,0.31208 0.56529,0.66807 0.65072,1.61775 0.65072,7.23493 0,5.97014 -0.0571,6.52296 -0.74366,7.2096 -0.41316,0.41315 -1.23946,0.74366 -1.85919,0.74366 -0.61972,0 -1.44603,-0.33051 -1.85918,-0.74366 z m -53.96788,-1.08185 c -0.82034,-0.6635 -0.88595,-1.00445 -1.00193,-5.20569 l -0.12409,-4.49569 h -3.07932 c -3.71274,0 -5.03877,-0.72584 -5.03877,-2.75812 0,-2.19014 0.92866,-2.61572 6.01919,-2.75832 7.29392,-0.20433 7.5528,0.0974 7.5528,8.80189 0,5.54396 -0.0243,5.72215 -0.87784,6.41416 -1.11609,0.90499 -2.33257,0.90562 -3.45003,9.8e-4 z m 207.24919,-3.99433 c -0.86606,-0.36046 -1.59756,-2.2461 -1.23811,-3.19153 0.76368,-2.00864 0.17701,-1.94937 20.45226,-2.06579 10.34762,-0.0594 19.17863,-0.0173 19.62448,0.0934 2.00648,0.49886 2.70732,3.14337 1.19573,4.51187 -0.74618,0.67553 -1.68046,0.71159 -20.17208,0.77849 -10.66431,0.0387 -19.60232,-0.0184 -19.86228,-0.12663 z m -582.21031,-25.9552 c -0.84154,-0.84155 -0.91269,-1.18936 -0.91269,-4.46202 v -3.54934 h -3.18504 c -3.60764,0 -4.62351,-0.36764 -4.62351,-1.67327 0,-1.30561 1.01587,-1.67325 4.62351,-1.67325 h 3.18504 v -19.28529 c 0,-18.94739 0.0141,-19.30246 0.77065,-20.26505 0.93069,-1.18316 2.47673,-1.2943 3.74313,-0.26907 l 0.87783,0.71066 0.11018,23.73752 c 0.0606,13.05564 0.01,24.29067 -0.1137,24.96673 -0.46708,2.5643 -2.76758,3.4702 -4.47542,1.76238 z m 815.64217,-1.61188 c -0.55484,-0.44922 -0.8843,-1.2207 -1.01442,-2.37481 l -0.19269,-1.70942 -1.80219,-0.23909 c -4.22904,-0.56098 -3.8236,-5.42268 0.45224,-5.42268 h 1.43719 v -4.02538 c 0,-3.72689 0.0636,-4.08531 0.86061,-4.83385 1.07543,-1.01032 2.62795,-1.03826 3.60145,-0.0648 0.64953,0.64952 0.74362,1.23944 0.74362,4.65961 0,2.819 0.13012,3.95054 0.46477,4.03944 2.0734,0.55094 2.74573,0.92249 3.22979,1.7849 0.86551,1.54193 0.19689,2.95815 -1.70908,3.6203 -1.43955,0.50006 -1.54362,0.63404 -1.72191,2.21632 -0.20923,1.85636 -1.23933,3.01487 -2.68053,3.01487 -0.46595,0 -1.2169,-0.29944 -1.66885,-0.66539 z m -0.3555,-28.31703 c -0.39761,-0.39762 -0.80706,-1.27607 -0.90996,-1.95213 -0.1029,-0.67606 -0.3652,-18.63046 -0.58275,-39.89867 -0.38331,-37.45614 -0.37401,-38.69866 0.29608,-39.60048 0.89008,-1.19801 2.60807,-1.39597 3.79247,-0.43696 0.80568,0.65241 0.89967,1.05871 1.03714,4.48078 l 0.15117,3.76331 h 2.51839 c 2.79684,0 3.88548,0.5771 4.28544,2.27164 0.1686,0.71484 -0.0118,1.2493 -0.68301,2.03041 -0.81224,0.94424 -1.20153,1.07655 -3.55964,1.20979 l -2.64764,0.14962 v 7.52154 c 0,4.13685 0.10976,10.05803 0.24389,13.15819 l 0.24399,5.63666 h 2.4993 c 2.63637,0 3.51343,0.46665 3.26847,1.73901 -0.21051,1.09289 -1.76392,1.63873 -3.9317,1.38157 l -1.95219,-0.2316 0.01,11.66271 c 0,6.41448 0.13345,11.86377 0.28971,12.10955 0.16713,0.26301 1.4089,0.49248 3.01822,0.55775 2.32678,0.0945 2.81397,0.2315 3.26993,0.92028 0.4819,0.72792 0.45821,0.88695 -0.23508,1.5803 -0.63317,0.63317 -1.23609,0.77092 -3.37381,0.77092 h -2.60289 v 5.03668 c 0,4.85182 -0.0333,5.07018 -0.9126,5.94938 -1.09775,1.09772 -2.54297,1.17544 -3.52861,0.18975 z M 129.33338,455.87792 c -1.30182,-0.52452 -1.60459,-1.57183 -1.60459,-5.55048 v -3.7428 h -5.92238 -5.92238 l -0.77065,-0.97974 c -0.42386,-0.53886 -0.77066,-1.26925 -0.77066,-1.62312 0,-0.35386 0.3468,-1.08425 0.77066,-1.62311 l 0.77065,-0.97974 h 5.92238 5.92238 v -4.59779 c 0,-4.08844 0.0853,-4.70634 0.77065,-5.57753 0.97864,-1.24413 2.87843,-1.33979 3.91261,-0.19702 0.66396,0.73365 0.70835,1.49295 0.70835,12.11684 v 11.33414 l -1.04328,0.89739 c -1.11966,0.96307 -1.48063,1.03187 -2.74374,0.52296 z m 813.52336,-62.58268 c -0.51627,-0.54956 -0.80843,-1.33712 -0.80843,-2.17911 0,-0.72518 -0.10642,-2.09483 -0.23654,-3.04368 -0.23488,-1.71388 -0.24585,-1.72515 -1.67325,-1.72515 -2.66457,0 -3.9128,-2.6599 -2.06351,-4.39721 0.81861,-0.76906 1.19115,-0.80848 7.63957,-0.80848 6.70152,0 6.78924,0.01 7.69156,0.91268 1.11116,1.11112 1.16795,2.39142 0.1545,3.47922 -0.64903,0.69669 -1.15727,0.81379 -3.53242,0.81379 h -2.77423 v 2.99158 c 0,2.68047 -0.095,3.0865 -0.9127,3.90429 -1.14562,1.14556 -2.43909,1.1649 -3.48455,0.0522 z M 128.33295,361.7132 c -0.29065,-0.46014 -0.64419,-2.30073 -0.78563,-4.09018 l -0.25713,-3.25356 H 109.6445 91.998795 l -0.9127,-0.91269 c -1.02921,-1.02923 -1.154052,-2.26923 -0.337224,-3.34956 0.819402,-1.08375 3.822577,-1.26615 21.277849,-1.29229 l 15.34617,-0.023 0.41209,-0.90445 c 0.9049,-1.98603 4.02423,-2.0068 4.77513,-0.0317 0.33284,0.87541 0.52245,0.93625 2.91787,0.93625 2.02878,0 2.76578,0.16038 3.54164,0.77066 1.18028,0.9284 1.29486,2.47615 0.27642,3.73386 -0.60162,0.74298 -1.1124,0.88923 -3.53244,1.01142 l -2.82911,0.14288 v 3.30587 c 0,2.8101 -0.11158,3.4174 -0.74368,4.04956 -1.05353,1.05353 -3.1658,1.00262 -3.85786,-0.0929 z m 53.33896,-8.69531 c -1.61394,-2.05179 -0.46122,-3.90171 2.62419,-4.21143 l 1.99675,-0.20045 0.10639,-3.61949 c 0.0927,-3.1544 0.20019,-3.66969 0.83662,-4.0103 0.51053,-0.27322 0.95004,-0.27322 1.46057,0 0.63643,0.34061 0.74394,0.8559 0.83662,4.0103 l 0.10639,3.61949 h 12.45649 12.45649 l 0.0968,-16.25681 c 0.0942,-15.79646 0.11777,-16.26801 0.83663,-16.65271 0.52317,-0.27999 0.95636,-0.27999 1.47953,0 0.71874,0.38465 0.74254,0.85611 0.83665,16.5725 l 0.0968,16.17657 3.77274,0.0803 c 3.11534,0.0662 3.90906,0.20367 4.55499,0.78858 1.14224,1.03434 1.04636,2.9342 -0.1975,3.91262 -0.96527,0.75928 -1.29408,0.77065 -22.28314,0.77065 h -21.30339 z m 56.35621,0.20908 c -0.70183,-0.55206 -0.97973,-1.11582 -0.97973,-1.98747 0,-1.70495 1.06342,-2.53715 3.5003,-2.73924 1.87789,-0.15573 2.01524,-0.23505 2.22524,-1.28505 0.12311,-0.61549 0.22382,-6.87852 0.22382,-13.91784 v -12.79873 l 0.91269,-0.9127 c 1.45708,-1.45708 3.32775,-1.15321 4.09213,0.6647 0.34889,0.82977 0.41615,4.36638 0.27832,14.63186 l -0.18181,13.53759 h 3.19529 c 1.75742,0 3.61017,0.18904 4.11724,0.42007 1.2163,0.55419 1.92087,2.22048 1.37232,3.24548 -0.96277,1.79895 -1.5489,1.91198 -9.91449,1.91198 -7.39032,0 -7.92031,-0.0462 -8.84132,-0.77065 z m 29.28753,0.27094 c -1.8792,-0.86901 -2.19586,-2.69252 -0.72325,-4.16513 0.81777,-0.81777 1.22381,-0.91269 3.90427,-0.91269 h 2.99159 v -8.28356 c 0,-6.89547 0.0969,-8.42205 0.57882,-9.10997 0.68155,-0.97302 1.37551,-1.04996 2.18337,-0.24209 0.49722,0.49722 0.58433,1.85515 0.58433,9.10997 v 8.52565 h 15.43116 15.43117 v -4.64794 -4.64795 h -7.4367 c -7.02858,0 -7.47903,-0.0423 -8.20764,-0.77092 -0.69405,-0.69404 -0.71734,-0.85164 -0.23353,-1.58031 0.53454,-0.80506 0.60522,-0.80936 13.27502,-0.80936 12.66981,0 12.74048,0.004 13.27503,0.80936 0.48381,0.72867 0.46052,0.88627 -0.23353,1.58031 -0.65909,0.65908 -1.22946,0.77092 -3.93153,0.77092 h -3.1606 v 4.64795 4.64794 h 13.75792 c 13.26212,0 13.78469,0.0268 14.50158,0.74366 1.00495,1.00498 0.93644,2.44388 -0.16903,3.54935 l -0.91268,0.91268 -24.09325,6.9e-4 c -13.25128,3.8e-4 -28.9457,0.0915 -34.87646,0.20261 -8.89535,0.16658 -10.98505,0.10863 -11.93606,-0.33117 z M 644.76588,227.31463 c -1.84459,-0.47847 -2.6967,-2.21164 -1.87167,-3.80706 0.29851,-0.57725 0.81361,-1.15349 1.14466,-1.28053 0.33106,-0.12704 4.01842,-0.23097 8.19413,-0.23097 h 7.59222 v -2.78877 c 0,-3.19552 0.65775,-4.27611 2.60284,-4.27611 1.94511,0 2.60285,1.08059 2.60285,4.27611 0,2.71253 0.0249,2.78877 0.91209,2.78877 3.01086,0 4.41088,3.0379 2.23365,4.84676 -0.53965,0.44836 -2.60488,0.55546 -11.66144,0.60478 -6.05312,0.033 -11.3403,-0.0269 -11.74933,-0.13298 z M 413.90626,226.4311 c -1.85565,-1.45964 -0.75701,-4.43503 1.6376,-4.43503 h 1.10102 v -3.44971 c 0,-3.74589 0.42194,-4.85722 2.08409,-5.48917 1.15468,-0.43901 2.53483,0.1769 3.0806,1.37475 0.22706,0.49834 0.41284,2.40414 0.41284,4.2351 v 3.32903 h 8.36629 c 7.87052,0 8.41037,0.0441 9.10997,0.74367 1.00308,1.00309 0.95036,2.65088 -0.11692,3.65354 -0.84665,0.79536 -1.05388,0.80848 -12.77818,0.80848 -11.49366,0 -11.95243,-0.0274 -12.89731,-0.77066 z m 101.30198,-0.20907 c -1.01205,-1.28661 -0.97297,-2.19828 0.14203,-3.31327 0.88426,-0.88427 1.07895,-0.91269 6.25108,-0.91269 4.85843,0 5.41157,0.0681 6.1522,0.75815 1.02659,0.95642 1.05987,2.71411 0.0701,3.70387 -0.67724,0.67724 -1.23946,0.74367 -6.29422,0.74367 h -5.55053 z m 40.90189,0 c -1.01204,-1.28661 -0.97297,-2.19828 0.14202,-3.31327 0.87793,-0.87793 1.10191,-0.91269 5.87927,-0.91269 4.48422,0 5.0456,0.0736 5.78035,0.75815 1.02659,0.95642 1.05987,2.71411 0.0701,3.70387 -0.67249,0.67247 -1.23946,0.74367 -5.92238,0.74367 -5.15177,0 -5.18272,-0.005 -5.94937,-0.97973 z M 390.39516,204.48149 c -0.66683,-0.73615 -0.71974,-1.72247 -0.9028,-16.82555 -0.10696,-8.82396 -0.0475,-16.50725 0.1321,-17.07396 0.60514,-1.90956 2.68396,-2.33121 4.16948,-0.84568 l 0.91269,0.91267 0.003,9.40575 c 9.8e-4,5.17316 0.10751,10.5158 0.23566,11.87253 l 0.23302,2.46679 3.34968,0.16015 c 3.09508,0.14798 3.41633,0.23762 4.22637,1.17934 1.1196,1.30163 1.10943,2.26612 -0.0359,3.41156 -0.83449,0.83449 -1.20085,0.91269 -4.27611,0.91269 h -3.36341 v 1.62311 c 0,2.16859 -1.08859,3.58258 -2.75813,3.58258 -0.76424,0 -1.48026,-0.29084 -1.92514,-0.78198 z M 556.624,196.54224 c -1.01757,-1.01757 -1.11155,-1.59055 -0.48608,-2.96333 0.64532,-1.41629 2.41205,-1.81453 7.2316,-1.63005 3.42055,0.13093 4.35676,0.2903 4.97104,0.84622 1.11694,1.01083 1.00745,2.92139 -0.22291,3.8892 -0.87626,0.68926 -1.48673,0.77065 -5.78035,0.77065 -4.60116,0 -4.83853,-0.0379 -5.7133,-0.91269 z m -40.9019,-0.37183 c -1.11499,-1.115 -1.15407,-2.02666 -0.14202,-3.31327 0.76155,-0.96816 0.82748,-0.97974 5.57753,-0.97974 4.31109,0 4.88358,0.0767 5.55055,0.74367 0.41314,0.41315 0.74366,1.23945 0.74366,1.85918 0,0.61973 -0.33052,1.44602 -0.74366,1.85917 -0.66464,0.66463 -1.23946,0.74368 -5.40853,0.74368 -4.45702,0 -4.7055,-0.0406 -5.57753,-0.91269 z m -4.7904,-27.55928 c -0.80787,-0.80787 -0.73093,-1.50184 0.2421,-2.18337 0.69608,-0.48755 2.33804,-0.57884 10.41139,-0.57884 9.0892,0 9.62346,0.0385 10.32865,0.74367 0.89663,0.89663 0.92477,1.25313 0.15937,2.01854 -0.50219,0.50219 -1.98796,0.58431 -10.57076,0.58431 -8.58279,0 -10.06856,-0.0821 -10.57075,-0.58431 z m 41.13562,0.1381 c -0.79811,-0.79811 -0.52899,-2.14358 0.50759,-2.53769 0.52459,-0.19943 4.69685,-0.36262 9.27168,-0.36262 4.57484,0 8.74709,0.16319 9.27168,0.36262 1.03659,0.39411 1.30571,1.73958 0.50759,2.53769 -0.63482,0.63482 -18.92372,0.63482 -19.55854,0 z m -35.77637,-29.607 c -2.73966,-1.43415 -3.58269,-5.07355 -1.76615,-7.62464 1.24155,-1.74358 2.6629,-2.10854 8.21215,-2.10854 4.55505,0 5.08379,0.0715 6.24018,0.84405 3.45668,2.30921 3.22477,7.04927 -0.43624,8.91606 -1.88656,0.96198 -10.39653,0.94327 -12.24994,-0.0269 z m 37.21577,0.0269 c -1.91734,-0.97768 -2.81519,-2.43022 -2.81519,-4.55441 0,-2.1242 0.89785,-3.57672 2.81519,-4.5544 1.02024,-0.52024 2.24085,-0.65014 6.10886,-0.65014 3.86801,0 5.08862,0.1299 6.10886,0.65014 3.66099,1.86678 3.89292,6.60684 0.43624,8.91606 -1.15905,0.77429 -1.68141,0.84399 -6.32121,0.84346 -4.08034,-4.7e-4 -5.30414,-0.12622 -6.33275,-0.65071 z"
       id="path6" /></g></svg>
