<?xml version="1.0" encoding="UTF-8" standalone="no"?>
<!-- Created with Inkscape (http://www.inkscape.org/) -->

<svg
   width="2214.4971"
   height="1822.9929"
   viewBox="0 0 585.919 482.33353"
   version="1.1"
   id="svg1"
   xml:space="preserve"
   xmlns="http://www.w3.org/2000/svg"
   xmlns:svg="http://www.w3.org/2000/svg"><defs
     id="defs1" /><g
     id="layer1"
     transform="translate(-260.12544,-207.15679)"><path
       style="display:none;fill:#000000;stroke-width:3.11549"
       d="m 404.64226,334.8541 c 38.52219,0.12947 159.6853,0.51572 269.25132,0.85858 186.58167,0.58383 199.29693,0.71657 200.56641,2.09413 1.12057,1.21589 1.19692,1.84824 0.44068,3.64889 -0.85493,2.03554 -1.28445,2.17812 -6.56179,2.17812 h -5.64696 l 0.28806,38.50302 c 0.23721,31.71588 0.0962,38.75339 -0.79822,39.92313 -0.87544,1.14456 -2.59301,1.42012 -8.85192,1.42012 -9.14457,0 -11.82585,-0.83223 -11.82585,-3.67056 0,-3.37584 1.44207,-4.0565 8.59418,-4.0565 h 6.69477 l -0.51979,-18.67373 c -0.28594,-10.27056 -0.52065,-26.49736 -0.52175,-36.05961 l -0.002,-17.38587 H 837.94257 820.1357 v 36.0596 36.05961 h 6.56875 c 6.74858,0 8.46813,0.72233 8.46813,3.55726 0,3.19226 -2.9977,4.1698 -12.78722,4.1698 -10.62333,0 -13.32952,-0.7452 -13.32952,-3.67056 0,-2.85151 1.45762,-4.0565 4.90679,-4.0565 h 3.00741 v -36.05961 -36.0596 h -44.31927 -44.31925 v 36.0596 36.05961 h 35.95287 c 31.62923,0 36.10245,0.16226 37.19653,1.34915 1.7195,1.86538 1.55572,3.46774 -0.51525,5.04138 -1.55713,1.18321 -9.11529,1.33517 -65.88539,1.32478 -35.26954,-0.006 -64.93166,-0.24564 -65.91578,-0.53185 -2.11984,-0.61621 -3.15596,-4.08663 -1.7635,-5.90676 0.83118,-1.08647 5.20729,-1.2767 29.37077,-1.2767 h 28.39405 v -36.05961 -36.0596 l -31.85447,-0.006 c -17.51998,-0.003 -34.79262,-0.25309 -38.38367,-0.55654 l -6.52919,-0.55138 v 35.2581 c 0,19.39194 0.21627,35.8692 0.48038,36.61612 0.35475,1.00295 1.58162,1.35809 4.69196,1.35809 2.77349,0 4.63623,0.46068 5.45525,1.34914 1.52876,1.65847 1.54314,2.17109 0.12024,4.28202 -1.03412,1.53433 -2.17002,1.66661 -14.30928,1.66661 -11.90895,0 -13.28947,-0.15347 -14.25488,-1.58593 -1.09845,-1.62962 -0.75892,-3.93903 0.74312,-5.05478 0.467,-0.34694 3.96921,-0.63669 7.78261,-0.64393 l 6.93347,-0.013 -0.20639,-36.27426 -0.2064,-36.27424 -18.79615,-0.23006 -18.79612,-0.23007 v 36.50443 36.50441 h 6.67052 c 5.0089,0 6.98029,0.33609 7.91414,1.34917 1.62912,1.76733 1.56922,2.59049 -0.33917,4.66077 -1.39829,1.51689 -2.63801,1.71714 -10.63259,1.71714 -10.40697,0 -13.10988,-0.75679 -13.10988,-3.67058 0,-2.65924 1.41754,-4.0565 4.11534,-4.0565 h 2.21599 V 379.26342 342.7745 h -35.218 -35.21802 v 35.13084 c 0,19.32194 0.21627,35.74196 0.48039,36.48888 0.42512,1.20187 3.60431,1.35807 27.64301,1.35807 23.6381,0 27.32405,0.17491 28.4063,1.34917 1.62909,1.76733 1.56921,2.59048 -0.33915,4.66076 -1.52777,1.65736 -2.63809,1.71714 -31.90111,1.71714 -23.00978,0 -30.6424,-0.25862 -31.66295,-1.07321 -1.20409,-0.96096 -1.36382,-3.67751 -1.52708,-25.97152 -0.15794,-21.56203 -0.0239,-24.89827 0.99559,-24.89827 1.00189,0 1.23711,3.27287 1.57367,21.89331 l 0.39573,21.89335 1.78929,0.2755 1.78933,0.27549 -0.2064,-36.3352 -0.2064,-36.33516 -2.17641,-0.27161 -2.17636,-0.2716 v 8.2849 c 0,6.24521 -0.24349,8.19735 -0.98929,7.92928 -0.6724,-0.24175 -1.06215,-2.87727 -1.21682,-8.22788 l -0.22762,-7.87227 H 477.8188 430.75925 v 36.48892 36.48887 h 42.5782 c 32.06114,0 42.81274,0.25441 43.52786,1.03028 1.69873,1.84282 1.12592,4.94948 -1.08036,5.85946 -1.24814,0.51481 -23.16173,0.83733 -56.89428,0.83733 -51.78841,0 -54.96349,-0.0873 -56.63523,-1.5558 -2.2196,-1.94979 -1.54947,-5.07008 1.2527,-5.83307 l 1.92584,-0.52436 V 379.17008 342.77426 H 389.20992 372.9859 v 36.48891 36.48889 h 9.04474 c 7.16728,0 9.30293,0.28004 10.28838,1.34916 1.71951,1.86536 1.55574,3.46773 -0.51526,5.04136 -2.56898,1.95204 -25.56981,1.95204 -28.13878,0 -3.3171,-2.52051 -1.23279,-6.39052 3.44182,-6.39052 h 2.71342 v -36.3564 -36.35638 l -10.09056,-0.5583 c -5.54981,-0.30697 -12.62183,-0.55988 -15.71556,-0.5618 l -5.62504,-0.003 -0.50844,5.27732 c -0.27968,2.90251 -0.50846,15.07263 -0.50846,27.04471 v 21.76739 h 3.89235 c 6.50532,0 6.39607,-0.1775 6.39607,10.3946 v 9.35233 h 2.61167 c 3.07258,0 4.51109,1.29354 4.51109,4.0565 0,2.90906 -2.70158,3.67056 -13.02224,3.67056 -7.42707,0 -9.22308,-0.25732 -10.48618,-1.50247 -1.47982,-1.45882 -1.50534,-2.61327 -0.87936,-39.70851 0.35462,-21.01331 0.47797,-38.68896 0.2743,-39.27921 -0.27817,-0.80576 -4.04395,-1.07322 -15.11104,-1.07322 h -14.74037 l 0.25423,39.15614 0.25426,39.15611 -1.85051,1.62556 c -2.08201,1.82899 -3.78151,2.02 -6.82032,0.76663 -1.66172,-0.6854 -2.03202,-1.33605 -1.83223,-3.21961 0.16122,-1.52101 0.92184,-2.66603 2.13809,-3.2192 l 1.88773,-0.85855 -0.50081,-18.45912 c -0.27547,-10.15247 -0.50166,-26.66908 -0.50271,-36.7035 l -0.002,-18.24446 H 261.00043 228.1567 v 36.91815 36.9182 h 26.8516 c 23.35532,0 27.01353,0.17556 28.09527,1.34917 1.62909,1.76732 1.56917,2.59048 -0.3392,4.66076 -1.53107,1.66096 -2.63804,1.71713 -33.85477,1.71713 -27.92779,0 -32.50874,-0.18009 -34.03088,-1.33653 -4.16419,-3.1642 -1.16343,-6.39053 5.94376,-6.39053 h 5.21538 l -0.52204,-26.40079 c -0.28715,-14.52045 -0.52265,-31.13359 -0.52343,-36.91815 l -9.4e-4,-10.51741 H 192.147 159.3032 v 36.91815 36.9182 h 22.49886 c 19.39825,0 22.6702,0.18594 23.74248,1.34917 1.62909,1.76732 1.5692,2.59048 -0.33916,4.66076 -1.51453,1.64301 -2.63809,1.71713 -26.02907,1.71713 -22.42197,0 -24.59287,-0.12882 -26.21726,-1.5558 -2.21961,-1.94979 -1.5495,-5.07007 1.25275,-5.83306 l 1.92578,-0.52436 v -36.8253 -36.82509 h -27.69946 -27.69953 v 36.91815 36.91819 h 20.5203 c 17.59954,0 20.69728,0.19211 21.76393,1.34917 1.71947,1.86536 1.55572,3.46772 -0.51529,5.04136 -1.47936,1.12408 -4.93871,1.33653 -21.76393,1.33653 h -20.00501 v 12.87844 12.87843 h 3.00736 c 3.25629,0 4.90679,1.19654 4.90679,3.55725 0,1.99199 -2.98537,4.16981 -5.71598,4.16981 h -2.19817 v 36.91816 36.91816 h 13.05834 13.05838 v -36.91816 -36.91816 h -4.1767 c -4.54219,0 -7.69454,-1.70831 -7.69454,-4.16981 0,-3.07814 1.61267,-3.55725 11.973,-3.55725 8.10257,0 10.31692,0.26381 11.31724,1.34916 1.51214,1.64045 1.53881,2.17752 0.2064,4.15455 -0.63708,0.94519 -2.46942,1.71419 -4.74849,1.99286 l -3.71111,0.45381 v 36.80649 36.80651 l 21.56613,-0.003 c 11.86133,-0.002 25.57261,-0.25441 30.46946,-0.56047 l 8.90345,-0.55655 v -36.35779 -36.3577 l -20.37895,-0.013 c -21.01127,-0.013 -24.01503,-0.44757 -24.56643,-3.55359 -0.1343,-0.75721 0.33303,-2.00314 1.03881,-2.76876 1.15183,-1.24957 5.68698,-1.39205 44.30228,-1.39205 38.05304,0 43.16268,0.15576 44.26277,1.34915 1.50492,1.63264 1.53709,2.1801 0.24078,4.1031 -0.89029,1.32082 -3.30823,1.54489 -21.56609,1.99859 -11.30985,0.28102 -20.67761,0.61427 -20.81719,0.7405 -0.13969,0.12623 0.003,16.49342 0.31804,36.37149 l 0.57186,36.142 h 33.0121 33.01206 l -0.34679,-35.84496 c -0.19085,-19.71475 -0.48745,-36.32793 -0.65937,-36.91819 -0.21953,-0.7539 -2.43085,-1.07321 -7.43231,-1.07321 -6.30978,0 -7.21614,-0.19534 -7.96685,-1.71709 -0.60305,-1.22245 -0.60067,-2.21671 0.009,-3.45121 0.82252,-1.66737 1.49806,-1.72519 17.55122,-1.50249 14.89997,0.2067 16.78971,0.39319 17.56875,1.73407 0.63562,1.09398 0.63602,1.91099 9.7e-4,3.00497 -0.72118,1.24333 -2.27815,1.54495 -9.02647,1.74867 l -8.15496,0.2463 0.52141,26.36925 c 0.28687,14.50305 0.52204,31.10202 0.5228,36.88659 l 9.6e-4,10.51739 h 16.12907 16.12906 l -0.36061,-35.84496 c -0.19832,-19.71475 -0.49236,-36.30466 -0.65337,-36.86652 -0.16092,-0.56186 -1.78941,-1.14139 -3.61874,-1.28787 -3.84748,-0.30795 -5.61413,-2.3216 -4.18833,-4.77371 0.75467,-1.29796 2.19691,-1.50248 10.5938,-1.50248 8.39693,0 9.83913,0.20442 10.59383,1.50248 1.66725,2.8674 -0.31249,4.47872 -5.8565,4.76661 l -4.99077,0.25927 0.52244,25.8522 c 0.28744,14.2187 0.52244,30.81183 0.52244,36.87361 v 11.02147 h 18.60675 18.60677 l -0.2064,-36.70353 -0.2064,-36.70355 -9.80905,-0.42927 c -8.20823,-0.35922 -9.95124,-0.67447 -10.68009,-1.93176 -0.63399,-1.09368 -0.63328,-1.91127 0.003,-3.00496 0.77545,-1.33361 2.36651,-1.50248 14.15519,-1.50248 11.7887,0 13.37978,0.16873 14.15519,1.50248 1.13833,1.95771 -0.15853,4.29117 -2.75455,4.95577 l -1.90365,0.48732 -0.20638,36.665 -0.2064,36.66498 h 16.62822 16.62825 v -36.89263 -36.89253 l -10.00583,-0.24045 c -8.51793,-0.20444 -10.13552,-0.46371 -10.87794,-1.74277 -0.63532,-1.09456 -0.63495,-1.91041 9.6e-4,-3.00497 0.8034,-1.3821 3.32131,-1.52049 31.4219,-1.72717 29.90573,-0.22 30.56651,-0.18852 31.4006,1.50249 1.5122,3.06525 -0.2647,5.1614 -4.37568,5.1614 h -3.53351 v 36.48889 36.48891 h 15.71121 15.7112 l -0.33576,-35.41571 c -0.18456,-19.47862 -0.4768,-35.89862 -0.64948,-36.48888 -0.21985,-0.75183 -2.40691,-1.07321 -7.30328,-1.07321 -7.14393,0 -8.88872,-0.68719 -8.88872,-3.50082 0,-3.19853 2.12984,-3.76084 14.31385,-3.77925 10.03729,-0.0162 11.9326,0.19503 13.09674,1.45306 1.12618,1.21694 1.20322,1.84675 0.44632,3.64889 -0.80806,1.92398 -1.39345,2.17812 -5.01657,2.17812 h -4.10177 l 0.52206,26.40079 c 0.28714,14.52046 0.52265,30.94043 0.52339,36.48889 l 9.5e-4,10.08812 h 17.93435 17.93437 l -0.52176,-25.11296 c -0.28685,-13.81211 -0.52242,-30.23212 -0.52322,-36.48888 l -0.002,-11.37596 h -9.00438 c -9.45985,0 -11.23539,-0.66995 -10.6415,-4.01535 0.53972,-3.04033 3.64847,-3.68584 17.81367,-3.69905 14.90179,-0.013 17.66053,0.55755 17.66053,3.65791 0,3.22328 -1.49556,4.05649 -7.28103,4.05649 h -5.3816 v 36.48889 36.48891 h 17.47529 17.47535 l -0.47854,-26.83007 c -0.26322,-14.75654 -0.68333,-31.17655 -0.93367,-36.48888 l -0.45513,-9.65885 h -5.69928 c -6.11533,0 -7.59867,-0.79187 -7.59867,-4.05649 0,-1.3525 0.65444,-2.26585 2.03006,-2.83324 1.11704,-0.46075 10.68793,-0.83733 21.28055,-0.83733 17.6709,0 19.40148,0.13272 21.09042,1.61629 1.62388,1.42647 1.72908,1.88013 0.89604,3.8635 l -0.94383,2.24727 h -13.99453 -13.99438 l 0.52335,25.89672 c 0.28773,14.2432 0.52329,30.66321 0.52329,36.48889 v 10.59219 h 34.84661 34.84656 l -0.42508,-13.52236 c -0.2339,-7.43728 -0.64122,-23.8573 -0.9054,-36.48888 l -0.47804,-22.96656 h -15.64171 c -12.87752,0 -15.81429,-0.22553 -16.61838,-1.2767 -1.39245,-1.82013 -0.35636,-5.29055 1.76349,-5.90677 0.98416,-0.2862 10.34641,-0.52541 20.80508,-0.53184 15.94209,-0.009 19.30003,0.20443 20.77465,1.32478 1.93524,1.47049 2.28138,3.76325 0.80923,5.36026 -0.52231,0.56666 -2.83421,1.03027 -5.1375,1.03027 h -4.18782 l 0.39331,10.08813 c 0.21626,5.54846 0.61036,21.96843 0.87566,36.48888 l 0.4823,26.40079 h 14.81707 c 8.1494,0 25.5592,-0.25537 38.68847,-0.56774 l 23.87139,-0.56773 v -35.92115 -35.92118 h -30.31116 c -22.52018,0 -30.55533,-0.26479 -31.26093,-1.03027 -1.69872,-1.84282 -1.1259,-4.94947 1.08037,-5.85946 1.20305,-0.49622 15.68834,-0.83733 35.55716,-0.83733 29.424,0 33.67934,0.16517 34.7708,1.3492 2.6276,2.85053 0.43912,6.37786 -3.95708,6.37786 h -2.71343 v 36.0596 36.05962 h 60.1563 60.15628 l -0.20638,-35.84496 -0.20669,-35.84498 -51.76361,-0.22098 c -36.6339,-0.15641 -52.07443,-0.50076 -52.82702,-1.17835 -1.56732,-1.41113 -1.29381,-4.84579 0.46741,-5.86831 2.34453,-1.36122 138.71625,-1.22335 139.97434,0.14147 1.45396,1.57728 1.13002,4.81455 -0.58109,5.80803 -0.90569,0.52584 -7.85765,0.88876 -17.0241,0.88876 h -15.49333 l 0.20639,35.84498 0.20669,35.84497 h 23.34677 23.34677 l 0.20669,-35.84497 0.20639,-35.84498 h -1.93072 c -2.10908,0 -4.41798,-2.01911 -4.41798,-3.8635 0,-0.64086 0.55965,-1.77234 1.24366,-2.51437 1.86458,-2.02278 39.96742,-2.02278 41.83199,0 1.71948,1.86537 1.55572,3.46769 -0.51529,5.04137 -1.44702,1.09953 -4.51527,1.3365 -17.30293,1.3365 h -15.54396 l -0.58476,35.28507 c -0.32162,19.40678 -0.28116,35.57612 0.0899,35.93183 0.37096,0.3557 23.79059,0.46175 52.04368,0.23558 l 51.36923,-0.41113 -0.52077,-24.49906 c -0.28656,-13.47446 -0.52079,-29.45878 -0.52079,-35.52068 v -11.02164 h -28.93874 c -18.43473,0 -29.49437,-0.32255 -30.46952,-0.88876 -1.71114,-0.99348 -2.03502,-4.23075 -0.5811,-5.80803 1.36685,-1.48281 71.91826,-1.48281 73.28509,0 1.45391,1.57728 1.13004,4.81455 -0.58109,5.80803 -0.84194,0.48882 -3.33489,0.88876 -5.5399,0.88876 h -4.00911 v 35.63034 35.63032 h 26.90813 26.90817 v -31.64697 c 0,-17.40583 -0.22656,-33.43947 -0.50323,-35.63031 l -0.50344,-3.98338 h -15.72079 c -14.85078,0 -15.81153,-0.0983 -17.36161,-1.78006 -1.47691,-1.6022 -1.52661,-1.96676 -0.49772,-3.64889 1.1043,-1.80546 1.69668,-1.87669 17.46914,-2.10088 l 16.32598,-0.23201 v -12.4318 -12.43174 h -6.55087 c -6.96506,0 -10.06875,-1.28535 -10.06875,-4.1698 0,-2.90472 1.69856,-3.55726 9.25955,-3.55726 h 7.36007 v -35.58967 -35.58966 l -20.77455,-0.25538 c -11.4261,-0.14051 -21.0035,-0.062 -21.28319,0.17392 -0.27964,0.23623 -0.76309,16.36634 -1.07437,35.84496 l -0.56588,35.41571 h 9.42382 c 9.68839,0 11.3232,0.51358 11.3232,3.55725 0,0.82322 -0.7915,2.0982 -1.75892,2.83328 -1.44756,1.0999 -4.52064,1.33653 -17.35961,1.33653 -16.89314,0 -19.66083,-0.51673 -19.66083,-3.67057 0,-3.40196 1.43021,-4.05649 8.86382,-4.05649 h 6.96452 v -6.00996 -6.00992 l -6.1335,-0.013 c -6.29352,-0.013 -8.72826,-0.78629 -7.77099,-2.46656 0.32949,-0.57838 3.17643,-0.95454 7.22412,-0.95454 h 6.68037 V 371.9659 343.63335 h -21.76399 -21.76394 v 28.33255 28.33255 h 8.65886 c 5.4994,0 8.85731,0.34828 9.20271,0.95454 1.01967,1.78985 -1.63092,2.45337 -9.85308,2.46656 l -8.21556,0.013 0.49052,3.21962 c 0.26981,1.77076 0.49448,4.47525 0.49926,6.00992 l 0.009,2.79034 h 9.3387 c 9.62117,0 11.2381,0.51595 11.2381,3.58616 0,0.83909 -0.8716,2.14514 -1.9369,2.90239 -1.58588,1.12726 -3.80518,1.32534 -12.24718,1.09297 -9.05448,-0.24922 -10.50149,-0.4929 -11.87947,-2.00087 -1.49927,-1.64066 -1.59387,-3.409 -2.12363,-39.70851 l -0.55446,-37.99136 h -3.05728 c -2.48334,0 -3.22455,-0.39819 -3.94812,-2.121 -0.68116,-1.62176 -0.65435,-2.43005 0.11395,-3.43424 0.88379,-1.15523 7.51933,-1.31327 55.13937,-1.31327 h 54.13477 l 0.6885,1.96457 c 0.3786,1.08047 0.8128,45.15759 0.9647,97.94912 0.271,94.09979 0.2461,96.00841 -1.255,97.19938 -1.2913,1.02423 -12.27609,1.22269 -70.03549,1.26521 -37.67723,0.0292 -241.40865,0.75007 -452.73648,1.60519 -326.69788,1.32192 -384.496631,1.37741 -385.996975,0.3705 l -1.764643,-1.18422 -0.21387,-58.15924 c -0.117555,-31.9876 -0.03589,-77.00829 0.181864,-100.04601 0.339528,-35.94042 0.564226,-42.01131 1.582812,-42.76435 1.120435,-0.8283 86.761112,-0.8591 309.443612,-0.1113 z m 3.95712,44.41005 v 36.48888 h 10.0204 10.02042 l -0.52206,-26.40079 c -0.28716,-14.52044 -0.52264,-30.94042 -0.52339,-36.48888 l -9.7e-4,-10.08813 h -9.49698 -9.49698 z m -71.22746,28.33254 v 8.15634 h 3.9571 3.95709 v -8.15634 -8.15636 h -3.95709 -3.9571 z m 36.40516,85.42693 v 36.91817 h 13.84975 13.84979 v -36.91817 -36.91819 h -13.84979 -13.84975 z"
       id="path4" /><path
       style="display:inline;fill:#000000;stroke-width:0.754853"
       d="m 701.49868,689.13453 c -0.23728,-0.19223 -0.51472,-0.70901 -0.61653,-1.1484 -0.10891,-0.47011 -0.18706,-12.50278 -0.18985,-29.23796 l -0.004,-28.4391 -71.05097,0.12852 c -39.07805,0.0707 -99.45294,0.18659 -134.16644,0.25757 -58.08494,0.11879 -63.1656,0.10315 -63.74451,-0.19621 -0.41137,-0.21273 -0.72119,-0.58566 -0.89533,-1.07772 -0.21878,-0.61821 -0.26628,-8.51359 -0.26628,-44.2591 v -43.50667 l 0.56036,-0.48203 c 0.80141,-0.68934 1.79937,-0.64952 2.55068,0.10179 l 0.5838,0.58379 v 6.30818 6.30818 l 21.91945,-0.008 21.91945,-0.008 0.57092,0.63271 c 0.47723,0.52888 0.55208,0.75112 0.45612,1.35425 -0.0642,0.40334 -0.32604,0.90523 -0.59381,1.13807 -0.45772,0.39802 -0.77438,0.42242 -7.12946,0.54922 -3.65775,0.073 -13.51121,0.13271 -21.89657,0.13271 h -15.2461 v 34.35271 34.35271 l 33.162,-0.0505 33.16201,-0.0505 -0.035,-8.6879 c -0.0192,-4.77833 -0.0904,-20.23679 -0.158,-34.35212 l -0.123,-25.66423 -2.16539,-0.0999 c -1.97264,-0.091 -2.19929,-0.14182 -2.54645,-0.57135 -0.48202,-0.59642 -0.49823,-1.83615 -0.0316,-2.4122 0.44,-0.54313 1.53302,-0.80029 3.42736,-0.80639 l 1.48007,-0.004 -0.13195,-5.42493 c -0.0725,-2.98372 -0.13195,-11.25219 -0.13195,-18.37439 v -12.94946 l -32.5047,0.003 c -17.87758,10e-4 -32.70692,0.0569 -32.95407,0.12314 -0.44787,0.12004 -0.44938,0.13443 -0.44938,4.30122 0,4.70901 -0.10401,5.16487 -1.26595,5.54834 -0.78579,0.25935 -1.43697,0.0711 -2.02946,-0.58671 -0.37834,-0.42006 -0.39944,-0.72445 -0.39944,-5.76492 0,-5.81238 0.0672,-6.19642 1.21594,-6.94911 0.47255,-0.30963 7.44584,-0.34161 98.38755,-0.45125 l 97.87895,-0.11801 -0.0327,-7.09012 c -0.0347,-7.52557 -0.79949,-109.08958 -0.87759,-116.53759 l -0.046,-4.39388 -11.58385,-0.10016 c -10.82243,-0.0936 -11.64117,-0.12516 -12.45579,-0.48031 -0.62368,-0.27192 -0.95065,-0.56853 -1.1484,-1.04182 -0.23017,-0.55087 -0.27646,-4.60707 -0.27646,-24.22345 0,-13.20146 -0.0766,-23.60915 -0.1743,-23.66951 -0.0959,-0.0592 -46.56111,-0.16932 -103.2561,-0.24461 l -103.08179,-0.13688 0.008,25.54755 c 0.004,14.05114 0.0876,54.08275 0.18558,88.95915 0.16803,59.83705 0.19758,63.42289 0.52419,63.61135 0.81378,0.46957 1.0802,0.90431 1.0802,1.76268 0,0.64482 -0.11723,0.97407 -0.46224,1.29819 -0.25423,0.23884 -0.5688,0.43426 -0.69903,0.43426 -0.18111,0 -0.23678,5.12035 -0.23678,21.77874 v 21.77874 l -0.49023,0.49022 c -0.59881,0.59881 -1.84131,0.66893 -2.49332,0.14072 -0.46468,-0.37646 -0.79874,-1.49342 -0.80639,-2.69625 l -0.004,-0.74895 h -3.68371 c -3.5978,0 -3.69668,-0.0112 -4.23955,-0.47811 -0.73079,-0.6286 -0.78286,-1.88892 -0.10604,-2.56664 0.42658,-0.42713 0.64284,-0.45554 4.18962,-0.55024 l 3.73982,-0.0999 0.051,-18.41185 0.051,-18.41186 -5.08976,-0.0624 -5.08976,-0.0624 -0.51591,-0.51626 c -0.85186,-0.85246 -0.68815,-2.36397 0.31207,-2.88119 0.46375,-0.23982 1.52971,-0.29739 5.50585,-0.29739 h 4.93076 l -0.12736,-32.20512 c -0.0701,-17.71282 -0.18489,-57.75201 -0.25521,-88.976 l -0.12787,-56.77088 h -3.37385 c -4.43288,0 -5.15851,-0.29065 -5.15851,-2.0662 0,-0.53021 0.14528,-0.81664 0.61448,-1.21146 0.61248,-0.51536 0.62657,-0.51705 4.2983,-0.51705 h 3.68381 l 0.21747,-0.47728 c 0.44327,-0.97288 2.07321,-1.23607 2.84922,-0.46005 0.2534,0.25339 0.49647,0.56143 0.54016,0.68453 0.0584,0.16463 33.60412,0.27875 126.90269,0.43169 69.75279,0.11433 127.09287,0.20016 127.42241,0.19072 0.32954,-0.009 21.52456,-0.029 47.10006,-0.0436 l 46.50088,-0.0264 -0.0628,-4.09429 c -0.12683,-8.26555 -0.14461,-7.95852 0.492,-8.50576 1.08326,-0.93121 2.7945,-0.381 3.03215,0.97493 0.0618,0.35223 0.17743,3.11199 0.25709,6.13278 l 0.14482,5.49234 27.71138,0.0507 27.71135,0.0507 v -7.20604 -7.20604 l 0.58381,-0.5838 c 0.61657,-0.61656 1.26672,-0.73308 2.06384,-0.36988 1.00962,0.46001 1.0266,0.58527 1.11175,8.22431 l 0.0796,7.14005 h 17.95278 17.95285 l 0.021,-6.14145 c 0.0111,-3.37779 0.12379,-30.66246 0.24962,-60.63258 0.15256,-36.32095 0.1622,-54.53542 0.0292,-54.62388 -0.1099,-0.073 -8.35585,-0.10391 -18.32451,-0.0686 l -18.12472,0.064 v 46.53015 46.53014 l -0.4902,0.49023 c -0.66473,0.6647 -1.93355,0.68099 -2.58145,0.0332 -0.45223,-0.45224 -0.45842,-0.52769 -0.59007,-7.12272 -0.0732,-3.6661 -0.133,-24.62624 -0.133,-46.57807 v -39.91284 l -27.71134,0.0507 -27.71138,0.0507 -0.0999,46.47967 -0.0999,46.47968 -0.41922,0.41921 c -0.23058,0.23057 -0.76983,0.50054 -1.19833,0.59994 -1.02436,0.23762 -41.87624,0.23762 -42.9006,0 -1.10501,-0.25633 -1.60848,-0.82887 -1.60848,-1.82917 0,-0.64821 0.11595,-0.91881 0.55584,-1.29718 l 0.55583,-0.47811 h 20.66006 20.66005 v -28.06086 -28.06089 h -33.55399 -33.55323 v 28.06089 28.06089 h 6.18023 c 6.12274,0 6.18504,0.004 6.69741,0.44937 0.30351,0.26372 0.56462,0.74747 0.63198,1.17092 0.0969,0.60901 0.0205,0.82703 -0.48943,1.39805 l -0.60424,0.67651 -6.30784,0.065 c -5.38736,0.0555 -6.30785,0.10783 -6.30785,0.35859 0,0.55334 -0.93997,1.27406 -1.66162,1.27406 -0.74899,0 -1.63827,-0.5832 -1.83516,-1.20353 -0.11998,-0.37804 -0.32768,-0.39472 -5.05477,-0.40613 -5.6158,-0.0136 -6.73833,-0.13459 -7.26344,-0.78307 -0.47977,-0.59249 -0.4701,-1.82386 0.0191,-2.42838 l 0.38154,-0.4715 5.85976,-0.0999 5.85977,-0.0999 0.0507,-28.01096 0.0507,-28.01096 h -18.97547 -18.97494 l 0.0507,28.01096 0.0507,28.01096 3.66274,0.0999 3.66274,0.0999 0.48148,0.56036 c 0.62647,0.72911 0.61391,1.54842 -0.0356,2.32027 l -0.51706,0.61449 h -5.98296 -5.98298 l -0.49023,-0.49023 c -0.97657,-0.97657 -0.36051,-3.10476 0.89875,-3.10476 h 0.40853 V 273.3644 245.30351 h -33.75369 -33.75365 l 0.0507,28.01096 0.0507,28.01095 23.76688,0.0999 c 13.07177,0.055 23.88838,0.17825 24.0369,0.27404 0.14851,0.0958 0.39688,0.47776 0.55191,0.84882 0.24318,0.58199 0.2427,0.76845 -0.004,1.35759 -0.15695,0.37563 -0.4668,0.78006 -0.68858,0.89875 -0.28582,0.15297 -15.2894,0.2158 -51.53396,0.2158 h -51.13073 l -0.55583,-0.4781 c -0.73082,-0.62863 -0.78287,-1.88895 -0.106,-2.56665 0.4287,-0.42922 0.63489,-0.45507 4.38933,-0.55025 l 3.9395,-0.0999 0.0999,-7.93358 c 0.0995,-7.90327 0.10158,-7.9353 0.55024,-8.38376 0.66561,-0.66532 1.87705,-0.61921 2.59538,0.0988 l 0.54922,0.54898 0.0999,7.83479 0.0999,7.83478 19.7225,0.0509 19.72252,0.0509 v -28.06182 -28.06187 h -19.8672 -19.86719 l -0.055,10.56441 c -0.0523,10.03109 -0.074,10.58542 -0.43197,10.98078 -0.87949,0.97151 -2.66992,0.62565 -3.09655,-0.59815 -0.15079,-0.43256 -0.22138,-3.87322 -0.22138,-10.79105 v -10.15599 h -60.1065 -60.10523 l 0.11184,19.12334 c 0.0615,10.51784 0.1689,23.12278 0.23866,28.01096 l 0.12683,8.88761 5.46035,0.0999 c 5.44223,0.0995 5.46162,0.10144 5.84186,0.57137 0.56023,0.69238 0.50768,1.91701 -0.10872,2.5334 l -0.49022,0.49023 h -11.90161 -11.90159 l -0.49022,-0.49023 c -0.67148,-0.67148 -0.68108,-1.93345 -0.0197,-2.59479 0.60224,-0.60226 2.28892,-0.77775 6.53893,-0.68034 l 3.07652,0.0705 0.0643,-3.69485 c 0.0353,-2.03216 0.002,-8.30092 -0.0737,-13.93059 l -0.13798,-10.23573 h -3.08184 c -3.51558,0 -4.0851,-0.16203 -4.44942,-1.26594 -0.25921,-0.78543 -0.0712,-1.43654 0.58598,-2.02947 0.398,-0.35908 0.77525,-0.40586 3.73394,-0.46302 l 3.29121,-0.0636 -0.11937,-20.9072 c -0.0657,-11.49895 -0.17337,-24.61451 -0.23937,-29.1457 l -0.11999,-8.23852 H 373.6198 356.36735 v 29.15937 29.15935 h 2.68091 c 2.59281,0 2.70112,0.017 3.29541,0.51706 0.82952,0.698 0.87635,1.96312 0.0997,2.6936 -0.48517,0.45634 -0.67332,0.48791 -3.2706,0.54879 l -2.75581,0.0646 -0.0936,1.61661 c -0.0841,1.4523 -0.14862,1.66396 -0.63511,2.08242 -0.36085,0.31039 -0.78769,0.46369 -1.27935,0.45945 -1.35505,-0.0117 -1.83628,-0.73932 -1.83628,-2.77662 v -1.41118 h -4.16436 c -2.53269,0 -4.41316,-0.0867 -4.79938,-0.22138 -1.287,-0.44864 -1.57453,-2.3111 -0.48868,-3.16524 0.48734,-0.38334 0.78965,-0.40809 4.98561,-0.40809 h 4.46681 v -29.16058 -29.16057 l -15.72809,0.0512 -15.72808,0.0512 -0.0506,29.10944 -0.0505,29.10943 h 1.06997 c 1.42333,0 2.12691,0.59445 2.12691,1.79705 0,1.09354 -0.62379,1.71726 -1.91043,1.91021 -0.52908,0.0793 -4.24226,0.0982 -8.25153,0.0419 l -7.28955,-0.10236 -0.5613,-0.62822 c -0.75199,-0.84162 -0.74436,-1.66791 0.0225,-2.43477 l 0.5838,-0.5838 h 5.30865 5.30866 l -0.0506,-29.10942 -0.0506,-29.10944 h -26.6628 -26.66283 l -0.0506,29.00014 -0.0506,29.00015 11.10175,0.0594 11.10174,0.0594 0.58265,0.65224 c 0.72203,0.8083 0.75636,1.62001 0.10072,2.38238 l -0.48192,0.56037 -11.15186,0.0999 -11.15188,0.0999 -0.0513,13.93058 -0.0513,13.93059 h 44.33955 44.33957 v -2.46959 c 0,-2.18462 0.0471,-2.52945 0.4081,-2.9884 0.85412,-1.08585 2.71658,-0.7983 3.16523,0.48869 0.12176,0.34927 0.22138,1.61024 0.22138,2.80217 v 2.16713 l 3.04576,0.009 c 3.56578,0.0102 4.69074,0.18229 5.18551,0.7933 0.53545,0.66127 0.46941,1.89961 -0.13347,2.50249 -0.48616,0.48617 -0.52171,0.49023 -4.29401,0.49023 h -3.80379 v 13.48121 13.48121 h 4.07217 c 3.58346,0 4.12309,0.042 4.49649,0.34952 1.09694,0.90354 0.76518,2.72561 -0.5798,3.18427 -0.43509,0.14837 -2.07049,0.24264 -4.33133,0.24964 l -3.63232,0.0113 -0.0626,3.57944 c -0.0603,3.45125 -0.0795,3.5975 -0.53699,4.08393 -0.26095,0.27747 -0.72623,0.55979 -1.03396,0.62738 -0.72508,0.15926 -1.74441,-0.3636 -1.9953,-1.02348 -0.10512,-0.2765 -0.19114,-2.01335 -0.19114,-3.85965 v -3.35691 l -5.44241,-0.14279 c -5.86002,-0.15374 -6.16263,-0.21123 -6.55579,-1.24532 -0.22932,-0.60315 0.0554,-1.6769 0.5547,-2.09182 0.24202,-0.20115 1.65787,-0.28988 5.83164,-0.3655 l 5.512,-0.0999 v -13.38141 -13.38135 h -44.23834 -44.23833 v 13.28149 13.28149 l 27.16214,0.0998 c 21.47733,0.079 27.25523,0.15307 27.60693,0.3541 1.00406,0.57388 1.17215,2.0688 0.32757,2.91338 l -0.52584,0.52582 -27.2854,0.0507 -27.2854,0.0507 -0.0512,15.1289 -0.0512,15.12892 h 44.13973 c 24.27686,0 44.20715,0.0225 44.28954,0.0499 0.0824,0.0275 0.19472,-1.40362 0.24965,-3.1802 0.0951,-3.07599 0.12296,-3.25468 0.58404,-3.74478 1.02124,-1.08549 2.82349,-0.44124 3.10722,1.11074 0.0675,0.36927 0.0959,4.3694 0.0632,8.88915 -0.0572,7.89239 -0.0754,8.2353 -0.45902,8.66088 -0.59269,0.65753 -1.24384,0.84566 -2.02946,0.58638 -1.13478,-0.3745 -1.26595,-0.8898 -1.26595,-4.97292 v -3.60609 l -44.28828,0.0504 -44.28827,0.0504 -0.0511,18.06375 c -0.0281,9.93506 0.0169,18.12645 0.0999,18.20307 0.083,0.0766 20.01317,0.17146 44.28933,0.21077 l 44.13848,0.0715 0.0999,-4.19416 c 0.10766,-4.52168 0.19419,-4.91265 1.16206,-5.25005 0.78081,-0.2722 1.51266,-0.0977 2.06764,0.49308 l 0.46515,0.49514 v 25.06627 25.06627 l -0.56037,0.48201 c -0.71695,0.61669 -1.87864,0.65148 -2.49766,0.0748 -0.24041,-0.22397 -0.45843,-0.42619 -0.4845,-0.44937 -0.026,-0.0232 -0.0935,-8.58025 -0.14979,-19.01571 l -0.1024,-18.97361 h -44.23834 -44.23834 v 33.55323 33.55324 l 44.28827,0.0504 44.28828,0.0504 v -4.30982 -4.30983 l 0.5838,-0.58379 c 1.12362,-1.12363 2.81424,-0.55707 3.10815,1.04159 0.0678,0.36927 0.0963,4.73109 0.0632,9.69291 l -0.0603,9.02151 -0.48419,0.51521 c -0.3532,0.37583 -0.68646,0.51519 -1.23192,0.51519 -1.72507,0 -1.85458,-0.2895 -1.97873,-4.42311 l -0.0999,-3.32464 -44.23835,-0.0707 -44.23833,-0.0707 v 16.27732 16.27732 l 44.28826,0.0504 44.28829,0.0504 v -3.58046 c 0,-3.56017 0.003,-3.58352 0.51705,-4.19459 0.3948,-0.46921 0.68123,-0.61449 1.21147,-0.61449 1.76848,0 2.06618,0.73287 2.06618,5.08649 v 3.30182 h 2.60952 c 2.6146,0 3.22326,0.1277 3.72529,0.78158 0.41985,0.54683 0.30588,1.73451 -0.22579,2.3529 -0.47909,0.55722 -0.49755,0.56075 -3.28436,0.6292 l -2.80256,0.0689 -0.061,4.15962 c -0.0596,4.06388 -0.072,4.17125 -0.53544,4.66421 -0.26095,0.2775 -0.72624,0.55986 -1.03396,0.62745 -0.65233,0.14327 -1.67332,-0.31547 -1.9808,-0.88999 -0.12191,-0.22782 -0.20563,-2.05664 -0.20563,-4.49211 v -4.10787 l -44.28829,0.0504 -44.28826,0.0504 v 18.3744 18.37439 h 44.23834 44.23834 l 0.0999,-5.09291 c 0.055,-2.80109 0.17296,-5.20588 0.26231,-5.34397 0.0894,-0.13809 0.43294,-0.39095 0.76353,-0.5619 0.75637,-0.39113 1.56595,-0.229 2.19455,0.43953 0.46739,0.49708 0.47595,0.57941 0.57431,5.53192 l 0.0999,5.02733 2.54105,0.0999 c 2.01128,0.079 2.62432,0.17134 2.94042,0.44273 0.79029,0.67849 0.77627,1.99687 -0.0292,2.74729 -0.3894,0.36278 -0.6992,0.40496 -2.97413,0.40496 h -2.53944 l -0.0693,1.87679 c -0.0743,2.01647 -0.31956,2.55294 -1.34624,2.94544 -0.63424,0.24248 -1.74737,-0.13075 -2.06984,-0.694 -0.13646,-0.23835 -0.29305,-1.24224 -0.34798,-2.23087 l -0.0999,-1.79761 h -44.23834 -44.23834 l -0.0502,58.06907 -0.0502,58.06907 h 44.33854 44.33854 v -48.04618 c 0,-36.14504 0.0575,-48.15425 0.23235,-48.48243 0.56399,-1.05893 1.94703,-1.27508 2.90213,-0.45355 l 0.56037,0.482 0.0515,48.25009 0.0515,48.25007 h 17.86272 17.86274 l -0.12144,-50.68204 c -0.0963,-40.18421 -0.0701,-50.77807 0.12669,-51.14564 0.13646,-0.25499 0.55544,-0.59202 0.93107,-0.74897 0.59193,-0.24733 0.77396,-0.24733 1.36589,0 0.37563,0.15695 0.80253,0.49518 0.94869,0.75163 0.21828,0.38305 0.28878,9.53969 0.39495,51.29545 0.0822,32.33742 0.0591,51.26511 -0.0635,52.02749 -0.20855,1.29699 -0.42614,1.70493 -1.10116,2.06445 -0.32915,0.17531 -16.73959,0.23234 -66.84569,0.23234 h -66.40939 l -0.51582,-0.44937 -0.51582,-0.44936 -0.0827,-202.4179 c -0.0454,-111.32985 -0.0825,-202.82234 -0.0823,-203.31666 0.008,-18.49309 0.32356,-62.5115 0.44955,-62.7699 0.0957,-0.1963 0.45518,-0.50998 0.79888,-0.69708 0.58424,-0.31804 4.8775,-0.34469 65.99982,-0.40965 52.25857,-0.0556 65.49685,-0.0189 65.98264,0.18224 1.18364,0.49028 1.22409,0.78881 1.37801,10.16899 0.0766,4.6685 0.14825,11.88117 0.15922,16.02817 l 0.02,7.54001 173.82685,-0.002 173.82685,-0.002 0.11165,-16.48124 c 0.12218,-18.03818 0.0631,-17.21705 1.27169,-17.67656 0.3141,-0.11942 19.24209,-0.1908 50.59206,-0.1908 49.95396,0 50.09164,7.5e-4 50.60319,0.40345 0.36215,0.2849 0.58422,0.73972 0.75569,1.54784 0.19039,0.89809 0.19074,14.5061 0,63.22687 -0.13289,34.14536 -0.3193,62.28682 -0.41432,62.53658 -0.0949,0.24976 -0.41619,0.64566 -0.71378,0.87978 l -0.54121,0.42566 h -48.70509 -48.70516 v 2.06921 c 0,1.13806 0.0555,2.47425 0.12337,2.96931 l 0.12338,0.9001 1.12488,0.25041 c 7.72411,1.7195 12.82782,8.57653 12.33998,16.57924 -0.46454,7.62066 -5.6812,13.94688 -12.86883,15.60599 l -0.98818,0.2281 -0.12682,34.17429 c -0.0698,18.79587 -0.18414,86.75049 -0.25421,151.01028 -0.10964,100.56257 -0.16698,116.8964 -0.41162,117.26976 -0.15634,0.2386 -0.43613,0.50876 -0.62178,0.60037 -0.18563,0.0916 -9.43734,0.1911 -20.55935,0.22108 l -20.22181,0.0545 v 5.16092 5.16094 l -0.52654,0.52653 c -0.63119,0.6312 -1.79307,0.71491 -2.45702,0.17703 z m 40.80062,-14.98021 c 0.0512,-0.083 0.12006,-26.21406 0.15282,-58.06907 l 0.0596,-57.9182 -2.25615,-0.0998 c -2.16901,-0.096 -2.27474,-0.12151 -2.7374,-0.66024 -0.51511,-0.59979 -0.62477,-1.49451 -0.26546,-2.1659 0.35991,-0.67251 1.41127,-0.96858 3.43949,-0.96858 h 1.87062 l 0.12999,-90.58776 c 0.11948,-83.26752 0.15632,-90.63235 0.45586,-91.13943 0.4598,-0.77838 0.84861,-0.97342 3.03847,-1.52419 5.03779,-1.26706 8.28639,-4.10781 9.90061,-8.6576 0.56229,-1.58487 0.61044,-1.92675 0.6081,-4.31754 -0.002,-2.30388 -0.0635,-2.77118 -0.54352,-4.14793 -1.59885,-4.58569 -5.15225,-7.41637 -10.18938,-8.11697 -1.73302,-0.24104 -2.23881,-0.48438 -2.5166,-1.21077 -0.10618,-0.27767 -0.25344,-2.27987 -0.32724,-4.44934 l -0.13418,-3.94451 -16.65494,-0.0466 c -9.16021,-0.0257 -17.88471,-0.0481 -19.38776,-0.0499 l -2.73283,-0.003 0.0533,68.85264 0.0534,68.85263 -0.60056,0.60058 c -0.64072,0.64071 -1.50562,0.78802 -2.25911,0.38477 -1.01569,-0.54358 -0.96858,1.6547 -0.96858,-45.19014 v -43.62126 l -19.72251,-0.12181 c -10.84738,-0.067 -26.50324,-0.14536 -34.79081,-0.17412 l -15.0683,-0.0523 0.0383,4.69347 c 0.021,2.5814 0.22677,31.29638 0.45706,63.81106 0.23029,32.51469 0.45267,59.23021 0.49416,59.36783 0.0602,0.19948 7.03371,0.23998 34.38367,0.19972 l 34.30825,-0.0505 -0.0753,-10.58524 c -0.0797,-11.20823 -0.0293,-11.97721 0.82444,-12.57515 0.70281,-0.49229 1.80749,-0.39199 2.41911,0.21963 l 0.52654,0.52655 -0.004,12.30557 c -0.005,13.61272 0.0856,12.65948 -1.28493,13.52887 -0.57274,0.36332 -2.30208,0.37746 -58.01914,0.47434 l -57.42879,0.0999 -0.051,18.32163 -0.051,18.32166 27.05881,0.0528 27.05883,0.0528 0.54919,0.54923 c 0.71816,0.71819 0.76445,1.92957 0.0992,2.59537 -0.43957,0.43992 -0.57633,0.4527 -5.88725,0.55025 l -5.43722,0.0998 -0.0999,2.34208 c -0.0892,2.09089 -0.14817,2.39026 -0.55025,2.79155 -0.31644,0.31583 -0.68736,0.44951 -1.24725,0.44951 -0.55989,0 -0.93081,-0.13368 -1.24725,-0.44951 -0.40208,-0.40129 -0.4611,-0.70066 -0.55024,-2.79155 l -0.0999,-2.34208 h -19.77244 -19.77245 v 34.25227 34.25226 h 19.77245 19.77244 l 0.0999,-25.33238 0.0999,-25.33239 0.4715,-0.38177 c 0.69226,-0.56054 1.91685,-0.50811 2.53341,0.10845 0.38616,0.38616 0.49631,0.71471 0.51895,1.54784 0.0158,0.58169 0.0832,11.93246 0.1498,25.22393 l 0.12105,24.16632 15.57828,-0.0708 c 8.56807,-0.0389 15.64596,-0.13356 15.72866,-0.21028 0.0827,-0.0767 0.12764,-15.45841 0.0999,-34.18149 l -0.0505,-34.04198 -2.11749,-0.0999 c -2.31512,-0.10918 -2.62763,-0.24438 -2.97119,-1.28541 -0.2528,-0.76597 -0.0592,-1.42239 0.59294,-2.01 0.43075,-0.38815 0.7242,-0.39944 10.37811,-0.39944 10.68281,0 10.70335,0.002 11.17177,1.02995 0.371,0.81425 0.25858,1.46049 -0.36202,2.08109 l -0.5838,0.58381 h -6.10687 -6.10688 l -1.4e-4,18.52418 c -8e-5,10.1883 -0.0597,25.60183 -0.13273,34.25226 l -0.13259,15.72809 h 17.30936 17.30937 l -0.0505,-34.20234 -0.0505,-34.20233 -3.19554,-0.0999 c -1.75755,-0.055 -3.30854,-0.17296 -3.44662,-0.26232 -0.13809,-0.0893 -0.39095,-0.43294 -0.5619,-0.76353 -0.39115,-0.7564 -0.22899,-1.56596 0.43958,-2.19455 0.48027,-0.45154 0.65814,-0.47771 3.68448,-0.54193 l 3.17986,-0.0675 v -1.19615 c 0,-1.05576 0.0686,-1.26467 0.5838,-1.77995 0.66542,-0.66541 1.64263,-0.78067 2.35983,-0.27833 0.48816,0.34193 0.8483,1.41535 0.84997,2.53348 l 5.8e-4,0.74187 9.9817,0.057 9.98169,0.0571 0.54908,0.54924 c 0.77745,0.77765 0.77436,1.99563 -0.007,2.66751 l -0.55583,0.47811 h -9.97494 -9.97495 v 34.25226 34.25226 h 3.08036 c 3.02255,0 3.09189,0.01 3.69485,0.51706 0.4692,0.39481 0.61449,0.68124 0.61449,1.21146 0,1.71414 -0.7816,2.06619 -4.58719,2.06619 h -2.80251 v 21.83623 c 0,12.00993 0.06,21.89616 0.13315,21.96939 0.1856,0.18559 37.56912,0.16801 37.68392,-0.0177 z M 583.60128,626.66425 c 0.19946,-0.0641 0.23997,-7.02084 0.19973,-34.28881 l -0.0505,-34.20839 -5.29262,-0.0998 c -2.91095,-0.055 -5.41415,-0.17824 -5.56266,-0.27404 -0.14852,-0.0958 -0.39977,-0.48468 -0.55834,-0.86419 -0.25945,-0.62097 -0.25242,-0.76343 0.0703,-1.4236 0.54517,-1.11517 1.05052,-1.2087 6.60096,-1.22162 l 4.84431,-0.0112 -0.051,-18.32446 -0.051,-18.32446 -39.89543,-0.0505 -39.89545,-0.0505 0.051,18.32495 0.0509,18.32496 25.7641,0.0999 c 20.34529,0.0789 25.85764,0.15333 26.20889,0.3541 1.00449,0.57412 1.17214,2.06879 0.32686,2.91408 l -0.52654,0.52654 h -25.86593 -25.86592 l 0.11724,34.40205 c 0.0645,18.92113 0.12255,34.40859 0.12905,34.41658 0.0502,0.0615 79.05843,-0.15937 79.25195,-0.22158 z M 700.4878,364.63051 c 0,-13.80545 -0.0525,-17.50043 -0.24964,-17.56993 -0.13732,-0.0484 -21.5275,-0.11299 -47.53378,-0.14352 l -47.28413,-0.0555 3e-5,17.33213 c 2e-5,13.6877 0.0526,17.34979 0.24968,17.41617 0.23508,0.0792 55.20989,0.39118 82.38518,0.46761 l 12.43266,0.035 z m -0.0999,-24.95895 v -3.59499 h -24.66563 -24.66562 v 3.49514 3.49512 l 20.07202,0.10309 c 11.03962,0.0567 22.13916,0.10163 24.66563,0.0999 l 4.5936,-0.003 z m -53.12597,-0.0999 v -3.49514 h -20.97078 -20.97077 l -0.0571,3.09569 c -0.0314,1.70263 -0.007,3.29832 0.054,3.54598 l 0.11114,0.4503 20.91681,-0.0509 20.91679,-0.0509 z M 424.51256,304.61489 c -0.23908,-0.22273 -0.49045,-0.62717 -0.55861,-0.89875 -0.1713,-0.68246 0.043,-1.40587 0.55861,-1.8863 0.43295,-0.40335 0.56367,-0.40498 32.76101,-0.40498 h 32.32633 l 0.49023,0.49024 c 0.3607,0.36071 0.49022,0.70609 0.49022,1.30726 0,0.60119 -0.12952,0.94656 -0.49022,1.30728 l -0.49023,0.49022 h -32.32633 c -32.19734,0 -32.32806,-0.002 -32.76101,-0.40497 z"
       id="path5" /></g></svg>
