<svg version="1.1" xmlns="http://www.w3.org/2000/svg" width="3000.000000pt" height="3000.000000pt" viewBox="0 0 3000.000000 3000.000000" preserveAspectRatio="xMidYMid meet" xmlns:xlink="http://www.w3.org/1999/xlink" transform="matrix(-1,1.2246467991473532e-16,-1.2246467991473532e-16,-1,0,0)">
  <g transform="translate(0.000000,3000.000000) scale(0.100000,-0.100000)" fill="#000000" stroke="none">
    <path d="M0 15000 l0 -15000 15000 0 15000 0 0 15000 0 15000 -15000 0 -15000
0 0 -15000z m21216 14105 c21 -16 37 -39 43 -63 5 -23 10 -1583 13 -4017 3
-3730 2 -3982 -14 -4011 -9 -17 -30 -40 -45 -50 -27 -19 -92 -19 -2535 -22
l-2508 -3 0 -1389 0 -1390 525 0 c512 0 525 0 545 -20 20 -20 20 -29 18 -2290
-3 -2166 -4 -2270 -21 -2287 -17 -17 -53 -18 -575 -18 l-557 0 -3 -6299 -2
-6300 -22 -23 c-53 -57 170 -53 -2979 -53 -1921 0 -2900 3 -2904 10 -3 6 -15
10 -25 10 -10 0 -30 15 -44 33 l-26 34 0 1921 0 1922 28 30 c39 43 79 52 130
30 58 -26 72 -59 72 -174 0 -52 3 -101 6 -110 5 -14 34 -16 215 -16 l209 0 0
49 c0 32 6 55 16 65 41 42 94 -2 94 -78 l0 -36 818 2 817 3 6 85 c3 47 10 97
16 111 18 42 60 69 108 69 54 0 87 -25 110 -86 16 -43 17 -77 13 -408 -6 -396
-9 -414 -66 -455 -17 -11 -43 -21 -59 -21 -38 0 -91 34 -106 68 -7 16 -14 99
-17 212 l-5 185 -1085 0 -1085 0 0 -520 0 -520 1085 0 1085 0 3 153 c3 175 13
204 77 236 35 17 42 18 78 5 22 -8 50 -27 61 -42 21 -28 21 -36 18 -435 -3
-452 0 -434 -72 -476 -30 -18 -35 -18 -74 -4 -25 9 -50 28 -63 48 -22 31 -23
43 -23 216 l0 184 -1090 0 -1090 0 0 -470 0 -470 1085 0 1085 0 0 58 c0 113
11 159 44 198 27 32 38 37 74 37 53 0 83 -16 105 -53 15 -24 17 -65 17 -310
l0 -282 -33 -33 c-60 -60 -123 -55 -175 13 -25 33 -27 44 -31 149 l-3 113
-1082 -2 -1081 -3 0 -495 0 -495 188 -3 187 -2 0 264 0 264 27 17 c24 16 38
17 136 8 113 -10 127 -16 127 -59 0 -36 -27 -49 -104 -49 l-71 0 -3 -222 -2
-223 265 0 265 0 0 220 0 220 -30 1 c-16 1 -34 3 -40 4 -5 1 -19 3 -29 4 -23
1 -51 27 -51 47 0 8 9 23 20 34 18 18 33 20 150 20 117 0 132 -2 150 -20 11
-11 20 -26 20 -34 0 -20 -27 -45 -56 -52 -24 -6 -24 -7 -25 -143 -1 -75 -2
-172 -2 -216 l-2 -80 228 -3 227 -2 -2 207 -3 208 -41 1 c-48 0 -94 26 -94 53
0 37 30 50 127 53 129 4 122 20 123 -279 l0 -243 240 0 240 0 0 201 c0 165 3
207 16 235 43 91 150 101 205 18 17 -26 19 -48 19 -241 l0 -213 400 0 400 0 0
181 c0 233 12 279 84 316 33 17 84 11 113 -15 47 -41 53 -73 53 -284 l0 -198
1038 2 1037 3 3 543 2 542 -1040 0 -1040 0 0 -153 c0 -97 -4 -162 -12 -178
-38 -80 -164 -85 -204 -7 -12 23 -14 92 -15 368 0 302 2 343 17 365 32 49 100
69 147 43 55 -29 67 -63 69 -203 l3 -120 1035 0 1035 0 0 475 0 475 -1037 3
-1038 2 0 -151 c0 -157 -4 -174 -48 -222 -21 -22 -34 -27 -73 -27 -39 0 -52 5
-76 30 -25 26 -31 42 -37 98 -10 109 -7 564 4 604 20 72 109 105 167 62 48
-36 62 -74 65 -181 l3 -98 1029 -3 c817 -2 1031 0 1038 10 12 19 10 966 -2
973 -12 7 -2049 7 -2061 -1 -5 -3 -9 -87 -9 -187 l0 -182 -30 -37 c-47 -57
-117 -59 -171 -6 l-29 30 0 989 0 989 28 30 c48 55 141 51 179 -7 17 -25 18
-73 23 -698 l5 -670 1030 4 c567 2 1033 5 1038 8 10 6 9 1995 -1 2011 -7 10
-221 12 -1038 10 l-1029 -3 -5 -130 c-3 -71 -11 -142 -17 -157 -18 -41 -70
-70 -116 -64 -60 7 -84 29 -103 93 -14 48 -15 89 -9 302 4 135 12 262 19 281
8 25 23 41 54 58 38 21 46 23 75 11 74 -29 95 -71 99 -194 l3 -90 1015 -3
c558 -1 1025 0 1038 3 l22 5 0 1069 c0 588 -3 1076 -6 1085 -6 14 -106 16
-1035 16 l-1029 0 0 -117 c0 -65 -1 -424 -3 -798 l-2 -680 -23 -33 c-13 -18
-39 -39 -58 -47 -46 -19 -101 -1 -131 45 l-23 33 0 1064 c0 1155 -3 1099 54
1137 14 9 44 16 67 16 34 0 47 -6 74 -34 38 -41 45 -87 45 -323 l0 -153 1029
0 1029 0 7 28 c3 16 3 289 0 608 -3 318 -5 805 -5 1082 l0 502 -962 -1 c-530
-1 -990 -4 -1023 -8 l-60 -6 -5 -695 c-5 -665 -6 -697 -24 -725 -29 -44 -46
-54 -94 -55 -57 0 -96 28 -117 83 -14 38 -16 174 -13 1492 3 1574 0 1489 55
1538 48 42 133 27 170 -30 17 -25 18 -82 23 -758 l5 -730 460 0 c253 1 713 2
1023 3 l562 2 0 990 0 990 -1029 0 -1029 0 -4 -102 c-2 -67 -9 -111 -18 -126
-34 -52 -127 -66 -172 -25 -51 46 -48 -214 -48 4102 0 3975 0 4016 20 4048 40
67 118 75 184 18 l29 -25 838 0 c833 0 838 0 849 -20 14 -27 5 -54 -23 -69
-16 -8 -237 -12 -837 -14 l-815 -2 -3 -452 -2 -453 572 0 c315 0 792 3 1061 7
l487 6 0 444 0 443 -48 0 c-53 0 -72 12 -72 46 0 29 19 43 71 52 l44 7 3 65
c1 36 6 74 11 85 5 11 12 28 15 37 7 25 65 58 99 58 84 0 125 -70 126 -218 l1
-92 468 2 467 3 5 261 c5 279 8 294 56 294 44 0 49 -27 54 -300 l5 -255 1901
-3 c1805 -2 1902 -1 1906 15 2 10 1 443 -2 963 l-5 945 -1520 0 c-836 0 -1697
-1 -1914 -3 l-393 -3 3 -459 c4 -450 4 -459 -16 -474 -29 -22 -50 -19 -69 9
-13 20 -16 57 -16 218 0 107 -3 309 -7 449 l-6 256 -138 4 c-124 3 -140 5
-153 23 -9 11 -16 28 -16 37 -1 47 -50 45 1555 52 831 3 1777 6 2103 6 l592 0
0 2818 c0 1549 -3 2827 -6 2840 l-6 22 -2387 0 c-1312 0 -2396 -3 -2408 -6
l-23 -6 0 -2501 0 -2500 -24 -32 c-36 -46 -78 -62 -125 -45 -46 17 -77 53 -85
99 -3 20 -6 152 -6 294 l0 257 -1045 0 -1045 0 0 -443 0 -442 -24 -36 c-16
-23 -37 -39 -62 -47 -34 -10 -44 -9 -80 9 -75 36 -74 29 -74 523 l0 436 -407
-2 c-318 -2 -408 -6 -409 -15 -1 -7 -2 -80 -3 -162 l-1 -149 -30 -30 c-41 -41
-81 -49 -127 -25 -63 33 -72 62 -75 235 l-3 153 -335 2 c-184 2 -683 4 -1108
5 -766 3 -773 3 -778 -17 -2 -11 -3 -225 -2 -475 l3 -455 1110 0 1110 0 3 120
c3 162 25 204 112 213 42 4 51 1 83 -28 l37 -32 0 -309 0 -308 -35 -36 c-29
-28 -43 -35 -76 -35 -89 0 -119 48 -119 189 0 122 -1 123 -127 117 -48 -2
-114 -5 -145 -5 l-58 -1 0 -490 0 -490 159 0 c136 0 160 2 165 16 3 9 6 99 6
201 0 183 0 187 25 219 44 57 124 58 177 2 l28 -30 0 -468 0 -467 -22 -33
c-28 -41 -86 -64 -126 -49 -15 6 -39 22 -54 37 -28 26 -28 26 -28 168 0 116
-3 145 -16 158 -14 14 -104 16 -838 16 l-823 0 -6 -97 c-4 -54 -7 -154 -7
-224 0 -134 -5 -149 -50 -149 -48 0 -50 9 -50 234 0 116 -4 217 -8 224 -7 9
-57 12 -218 10 l-209 -3 -5 -160 c-6 -182 -15 -211 -81 -240 -67 -31 -127 3
-155 88 -16 48 -17 136 -11 1385 6 1256 7 1336 24 1370 11 23 32 44 53 54 33
16 224 17 2906 18 l2872 0 7 1513 c3 831 5 1568 3 1637 l-3 125 -375 5 c-261
3 -381 9 -395 17 -19 11 -20 25 -25 215 -5 164 -3 207 8 225 l14 23 387 2 386
3 3 260 c2 279 5 296 56 344 14 13 36 29 48 36 18 10 538 13 2567 14 l2544 1
33 -25z m-5085 -5590 c16 -9 39 -30 49 -48 19 -31 20 -56 20 -815 0 -708 -2
-787 -16 -812 -47 -79 -158 -78 -201 3 -14 26 -18 66 -21 205 l-4 172 -467 -1
c-256 0 -734 -4 -1061 -8 l-595 -8 -39 -27 c-46 -31 -80 -33 -123 -6 -62 37
-63 45 -63 532 0 423 1 440 21 479 13 27 32 45 54 55 44 18 59 18 100 -2 64
-30 65 -35 65 -504 l0 -422 568 6 c312 3 786 9 1054 12 l487 6 3 557 c3 526 4
557 22 584 36 54 93 70 147 42z m-3387 -1900 c65 -31 66 -41 66 -479 0 -431
-2 -444 -59 -485 -50 -36 -124 -23 -158 28 -15 22 -19 57 -23 231 l-5 205
-1105 0 -1105 0 -3 -568 -2 -567 1107 2 1108 3 5 180 c5 193 9 208 61 239 57
34 126 10 159 -54 20 -38 20 -57 20 -960 0 -893 -1 -922 -20 -959 -38 -76
-128 -90 -186 -30 -29 30 -29 31 -34 182 l-5 152 -1105 0 -1105 0 0 -500 0
-500 1095 -2 c852 -2 1096 0 1102 10 4 7 8 78 8 158 0 135 2 149 23 180 25 38
77 60 120 52 40 -8 83 -55 90 -100 4 -21 4 -234 1 -473 -7 -472 -7 -470 -64
-504 -57 -33 -122 -11 -156 52 -17 33 -19 55 -16 246 2 116 0 226 -3 245 l-6
33 -1090 -4 c-684 -2 -1092 -7 -1098 -13 -14 -14 -16 -2554 -3 -2567 7 -7 372
-7 1099 -2 l1088 9 5 876 c5 940 2 887 55 931 29 25 96 23 130 -4 58 -45 55
14 55 -1265 l0 -1179 -23 -34 c-47 -67 -134 -68 -186 -1 -26 34 -26 36 -29
233 l-3 198 -1099 0 c-992 0 -1098 -2 -1104 -16 -3 -9 -6 -253 -6 -544 0 -413
3 -529 13 -532 6 -3 262 -1 567 4 305 5 796 12 1090 16 l535 7 5 160 c6 177
11 194 68 221 67 32 141 -7 162 -86 8 -30 9 -161 4 -461 -8 -467 -7 -462 -79
-496 -30 -14 -40 -15 -75 -3 -72 24 -80 49 -80 248 0 127 -3 172 -12 175 -13
5 -141 3 -883 -13 -242 -6 -631 -10 -865 -10 -318 0 -429 -3 -438 -12 -9 -9
-12 -121 -12 -444 0 -385 2 -433 16 -438 9 -3 501 -6 1094 -6 l1078 0 4 123
c3 133 13 166 61 201 54 40 133 17 167 -50 21 -40 28 -680 8 -728 -17 -42 -37
-61 -78 -76 -31 -11 -41 -10 -75 6 -66 31 -78 70 -83 257 l-4 157 -1094 0
-1094 0 2 -492 3 -493 1093 -3 1092 -2 0 126 c0 149 11 202 52 241 56 54 152
31 183 -44 23 -54 18 -842 -5 -887 -48 -93 -165 -90 -212 5 -14 29 -17 67 -18
242 l0 207 -1095 0 -1095 0 0 -524 0 -523 178 -6 c97 -3 590 -5 1095 -6 l917
-1 0 124 c0 86 4 134 15 159 33 79 127 103 184 47 17 -17 33 -45 36 -63 4 -18
5 -190 3 -382 -3 -315 -5 -354 -21 -378 -37 -56 -110 -70 -165 -31 -43 30 -52
74 -52 250 l0 164 -557 2 c-307 1 -799 2 -1093 2 l-535 1 -3 -1092 -2 -1093
1090 0 1090 0 2 755 3 755 33 32 c28 28 39 33 81 33 35 0 55 -6 71 -20 52 -47
50 26 50 -1566 0 -1130 -3 -1485 -12 -1506 -38 -88 -146 -107 -197 -35 -28 40
-30 97 -31 805 l0 637 -1090 0 -1090 0 -1 -147 c-6 -949 -8 -1965 -4 -1991 l6
-32 1087 2 1087 3 5 212 5 212 28 29 c38 40 87 49 135 25 71 -35 71 -35 72
-509 0 -362 -2 -427 -16 -459 -20 -48 -36 -64 -75 -75 -67 -20 -127 19 -148
95 -6 22 -11 82 -11 133 l0 92 -820 0 -820 0 0 -233 c0 -250 -1 -257 -51 -257
-54 0 -59 21 -59 267 l0 223 -209 0 c-181 0 -210 -2 -215 -16 -3 -9 -6 -98 -6
-198 l0 -182 -29 -34 c-26 -32 -34 -35 -81 -35 -48 0 -55 3 -86 39 l-33 39 -5
246 c-2 135 -4 255 -4 266 0 11 3 3582 7 7935 3 4513 10 7926 15 7940 37 105
168 115 215 17 18 -37 21 -62 21 -165 l0 -122 215 0 c165 0 215 3 216 13 1 6
3 36 5 66 5 63 27 95 58 85 34 -11 45 -36 46 -101 l0 -63 839 0 839 0 4 165
c3 158 5 165 28 191 43 46 89 55 144 29z"></path>
    <path d="M15274 28347 c-2 -7 -3 -65 -2 -128 l3 -114 345 0 345 0 0 125 0 125
-343 3 c-277 2 -344 0 -348 -11z"></path>
    <path d="M10355 23398 c-3 -7 -4 -227 -3 -488 l3 -475 893 -3 892 -2 0 490 0
490 -890 0 c-703 0 -892 -3 -895 -12z"></path>
    <path d="M14298 20132 l-498 -2 0 -640 0 -640 196 0 c154 0 203 -3 228 -15 64
-30 86 -117 44 -170 -38 -49 -70 -55 -278 -55 l-190 0 0 -2505 0 -2505 718 0
c394 -1 847 -3 1005 -6 158 -3 299 -3 312 0 24 6 25 8 25 106 l0 99 -440 3
-439 3 -23 23 c-21 21 -23 31 -23 137 0 102 2 116 20 129 52 39 83 1 87 -105
l3 -74 408 -3 c382 -2 408 -1 413 15 15 45 31 66 67 84 33 17 43 19 75 8 40
-13 48 -20 75 -61 14 -22 17 -51 17 -161 l0 -135 363 -7 c199 -3 434 -5 522
-3 l160 3 0 160 0 160 -284 1 c-264 1 -285 2 -298 19 -11 15 -13 146 -13 711
l0 692 26 31 26 31 274 0 274 0 0 1295 0 1295 -490 0 -490 0 0 -1349 c0 -1448
2 -1389 -49 -1435 -15 -13 -37 -20 -71 -20 -40 -1 -54 4 -77 26 -35 34 -53 96
-53 183 l0 65 -435 0 -435 0 -1 -97 c-1 -122 -8 -145 -42 -157 -21 -8 -31 -6
-47 9 -20 18 -20 29 -20 480 0 453 0 463 21 489 18 23 28 26 80 26 33 0 75 -7
94 -14 28 -12 35 -20 35 -43 0 -41 -17 -53 -72 -53 l-48 0 0 -265 0 -265 435
0 435 0 -2 266 -3 267 -162 -2 c-128 -2 -168 1 -191 13 -38 20 -47 51 -21 77
17 17 35 19 199 19 l180 0 0 1160 0 1160 -671 0 c-667 0 -672 0 -709 21 -45
25 -76 84 -66 123 4 15 19 40 35 58 l28 32 209 7 c115 4 426 8 692 8 l482 1
-2 648 -3 647 -560 0 c-308 0 -784 -1 -1057 -3z m1803 -5078 c19 -10 37 -31
50 -60 17 -41 19 -70 19 -269 0 -265 -8 -315 -58 -353 -42 -32 -91 -34 -129
-6 -45 33 -62 79 -63 167 l0 77 -430 0 -430 0 0 -84 c0 -67 -4 -88 -19 -107
-16 -20 -23 -22 -47 -14 l-29 10 -3 265 c-2 256 -2 266 18 282 11 9 29 14 40
11 38 -10 45 -32 45 -142 l0 -106 428 -3 427 -2 0 114 c0 90 4 124 19 158 31
70 97 96 162 62z"></path>
    <path d="M16662 14718 l3 -633 160 -3 c88 -2 197 0 243 3 l82 7 0 629 0 629
-245 0 -245 0 2 -632z"></path>
    <path d="M10357 19863 c-4 -3 -7 -233 -7 -510 l0 -503 1108 2 1107 3 0 505 0
505 -1101 3 c-605 1 -1104 -1 -1107 -5z"></path>
  </g>
</svg>