<?xml version="1.0" encoding="UTF-8" standalone="no"?>
<!-- Created with Inkscape (http://www.inkscape.org/) -->

<svg
   width="3636.4294"
   height="1437.6031"
   viewBox="0 0 962.13859 380.36582"
   version="1.1"
   id="svg1"
   xml:space="preserve"
   xmlns="http://www.w3.org/2000/svg"
   xmlns:svg="http://www.w3.org/2000/svg"><defs
     id="defs1" /><g
     id="layer1"
     transform="translate(-50.255842,-338.61225)"><path
       style="fill:#000000;stroke-width:0.83654"
       d="m 735.25301,717.63719 c -1.32733,-1.46667 -1.42841,-7.65478 -1.42841,-87.44225 v -85.86388 l -47.66683,-0.0285 -47.66687,-0.0285 -0.22511,18.6167 -0.22512,18.61667 h -77.79836 -77.79835 l -0.22449,-19.44958 -0.22448,-19.44959 H 267.18634 c -165.95783,0 -215.0367,-0.22828 -215.81227,-1.00385 -1.57638,-1.57653 -1.44456,-200.86869 0.13374,-202.17856 0.82834,-0.68745 18.93653,-0.88586 66.61222,-0.72984 l 65.47465,0.21427 1.20895,1.8209 c 1.84639,2.78092 -1.0108,5.28971 -6.02427,5.28971 h -3.76442 v 7.47068 c 0,7.02779 0.10782,7.48654 1.81667,7.73801 2.50808,0.36905 2.89061,2.16899 0.53203,2.50331 l -1.93043,0.27365 v 28.44241 28.44241 l 3.67946,0.41827 c 4.22073,0.4798 6.08767,2.43565 4.59144,4.81011 -0.81203,1.28868 -2.6846,1.49128 -15.64118,1.69222 -14.03964,0.21775 -14.76051,0.15022 -15.62436,-1.46394 -2.19121,-4.09429 2.77122,-6.60927 10.9106,-5.52954 l 4.1369,0.54878 V 383.69407 346.0209 H 149.5004 131.51477 v 37.22609 37.2261 h 4.54653 c 6.09712,0 8.83815,1.10917 8.83815,3.57642 0,3.65953 -1.17793,3.95245 -15.89431,3.95245 -14.67872,0 -15.89428,-0.29844 -15.89428,-3.90232 0,-2.68864 2.36561,-3.62655 9.14696,-3.62655 h 5.91079 V 383.24699 346.0209 H 111.85607 95.54349 v 37.22609 37.2261 h 3.16003 c 5.31692,0 8.67253,3.7271 5.87462,6.52502 -1.38436,1.38437 -20.03109,1.38437 -21.41545,0 -1.53682,-1.53683 -1.19447,-4.69107 0.61423,-5.65905 0.88993,-0.47629 3.14861,-0.86597 5.01925,-0.86597 h 3.40117 V 383.24699 346.0209 H 75.04823 57.89912 v 6.69233 6.69233 h 9.20197 9.20194 v 4.60098 c 0,3.53206 -0.29151,4.60098 -1.2548,4.60098 -0.87637,0 -1.25483,-0.88302 -1.25483,-2.9279 0,-2.76407 -0.15682,-2.92789 -2.80518,-2.92789 -1.54283,0 -5.11907,-0.24184 -7.94714,-0.53744 l -5.14196,-0.53745 v 9.7394 9.7394 h 7.89159 7.89156 l 0.26463,-2.30049 c 0.47714,-4.14665 1.9378,-1.99221 1.9378,2.85819 0,4.73493 -1.44763,7.01349 -2.32479,3.65921 -0.40815,-1.56079 -1.09921,-1.70729 -8.05366,-1.70729 h -7.60719 v 8.36542 8.36541 h 7.47332 7.47329 l 0.26474,-2.30051 c 0.41051,-3.56774 1.90804,-2.71167 2.19503,1.25481 0.17958,2.48181 -0.073,3.57146 -0.83657,3.60882 -0.60155,0.0294 -4.57587,0.008 -8.83175,-0.049 l -7.73803,-0.10253 v 8.83271 8.83271 h 7.11061 c 6.079,0 7.36222,0.25161 8.84501,1.7344 1.56028,1.56029 1.6133,1.91719 0.52801,3.5553 -1.06971,1.61462 -2.0717,1.84814 -8.84501,2.06143 l -7.63862,0.24051 v 14.18982 14.18981 h 7.36156 c 7.85747,0 9.36928,0.63775 9.36928,3.95245 0,2.75334 -3.35374,3.8107 -10.66591,3.36272 l -6.06493,-0.37158 v 35.84564 35.84565 h 18.82217 18.8222 v -35.55302 -35.55301 h -5.07423 c -6.07217,0 -8.31042,-1.01389 -8.31042,-3.76444 0,-1.1533 0.69991,-2.40708 1.61808,-2.89846 2.33563,-1.24999 23.71403,-1.13201 24.98394,0.13788 1.53682,1.53682 1.19444,4.69106 -0.61426,5.65905 -0.88994,0.47629 -3.52505,0.86597 -5.85578,0.86597 h -4.2377 v 35.55302 35.55301 h 17.1491 17.14911 v -35.55302 -35.55301 h -5.25139 c -7.53206,0 -11.03005,-2.83954 -7.65528,-6.21431 1.06352,-1.06351 3.42005,-1.31212 12.33901,-1.30176 11.30512,0.0133 12.4502,0.23862 13.32847,2.62464 0.91036,2.47324 -1.33258,4.24732 -5.92806,4.68889 l -4.32313,0.41541 v 35.44658 35.44658 h 17.56737 17.56737 v -20.36116 c 0,-11.19864 -0.24756,-27.1975 -0.5503,-35.55302 l -0.55026,-15.19185 h -5.7788 c -3.17833,0 -6.5069,-0.38969 -7.39684,-0.86597 -1.80873,-0.96799 -2.15108,-4.12223 -0.61426,-5.65905 1.4422,-1.4422 67.65613,-1.4422 69.09835,0 1.53682,1.53682 1.19444,4.69106 -0.61426,5.65905 -1.00107,0.53574 -10.25201,0.86597 -24.25968,0.86597 h -22.64164 v 16.59563 c 0,9.12761 0.2482,25.12647 0.55173,35.55302 l 0.55172,18.95738 h 34.58302 34.58302 v -35.55302 -35.55301 h -3.70998 c -5.29191,0 -8.00158,-1.21113 -8.00158,-3.57643 0,-3.50299 1.37934,-3.95244 12.12982,-3.95244 10.75052,0 12.12986,0.44945 12.12986,3.95244 0,2.16262 -2.64871,3.57643 -6.70028,3.57643 h -2.40864 l -0.25578,11.08417 c -0.1407,6.0963 -0.25547,22.00105 -0.25547,35.34388 v 24.25971 l 37.43522,0.21775 37.43522,0.21774 V 499.53485 463.97322 H 297.3173 c -20.22573,0 -27.70246,-0.26388 -28.4424,-1.00385 -1.53682,-1.53683 -1.19447,-4.69107 0.61423,-5.65905 1.04343,-0.55844 14.39555,-0.86597 37.59694,-0.86597 h 35.97883 l 1.29119,1.84341 c 1.09999,1.57045 1.12327,2.09692 0.15713,3.55531 -0.98225,1.48279 -2.1562,1.74407 -8.7726,1.95241 l -7.63865,0.24051 v 35.52163 35.52162 h 38.07171 38.07171 l -0.21816,-35.34388 -0.21816,-35.34388 -24.49255,-0.22179 -24.49254,-0.2218 -0.9612,-2.10958 c -0.79315,-1.7408 -0.70974,-2.36009 0.47717,-3.54263 1.33226,-1.32733 5.15375,-1.41324 51.80478,-1.16453 27.70155,0.14768 51.02523,0.45539 51.8304,0.68378 0.96701,0.27431 1.46394,1.24798 1.46394,2.86852 0,1.34928 -0.0942,2.53369 -0.20899,2.632 -0.11509,0.0983 -11.87888,0.38064 -26.14192,0.6274 l -25.93278,0.44866 v 35.13474 35.13475 l 34.08906,0.2185 34.08907,0.21851 v -35.56239 -35.5624 h -3.59714 c -1.97842,0 -4.04885,-0.45173 -4.60095,-1.00385 -1.53685,-1.53683 -1.19447,-4.69107 0.61423,-5.65905 2.25763,-1.20825 273.91102,-1.20825 276.16869,0 1.71514,0.91793 2.17517,4.09811 0.79274,5.48055 -0.50193,0.50191 -0.91172,12.09625 -1.04568,29.58593 -0.16947,22.10604 -0.46228,28.84117 -1.26602,29.10889 -0.8231,0.27419 -1.04568,-5.8133 -1.04568,-28.60014 v -28.94846 l -16.02884,0.2272 -16.02884,0.2272 0.19634,35.942 c 0.10813,19.7681 0.41207,36.29105 0.67573,36.71765 0.28455,0.46026 5.95692,0.56132 13.95028,0.24852 7.40898,-0.28993 14.10351,-0.53168 14.87668,-0.53723 0.77317,-0.006 1.52604,-0.77789 1.67306,-1.71632 0.35819,-2.28611 1.87728,-2.50013 2.19035,-0.30858 0.19382,1.35688 1.13275,1.92024 4.18272,2.50962 3.50193,0.67674 3.96301,1.02497 4.20886,3.17884 0.34637,3.03419 -0.87434,3.82613 -5.92277,3.8424 l -3.97357,0.0127 v 16.70344 16.70343 l 9.20532,0.23653 c 5.42151,0.1393 9.20531,0.58039 9.20531,1.07307 0,0.49268 -3.7838,0.93377 -9.20531,1.07308 l -9.20532,0.23653 v 65.6411 65.64113 h 33.04338 33.04342 v -65.66837 -65.6685 h -15.75488 c -8.66517,0 -16.00257,-0.24769 -16.3053,-0.55044 -0.3029,-0.30273 -0.13121,-1.05563 0.38127,-1.67308 0.71759,-0.86464 4.46484,-1.12265 16.3053,-1.12265 h 15.37361 v -5.08058 c 0,-4.38836 0.1995,-5.04219 1.46394,-4.7987 1.37874,0.26549 1.47637,4.47977 1.67771,72.42218 l 0.21373,72.14029 h 41.68443 c 22.92641,0 66.59176,-0.25009 97.03408,-0.55561 l 55.34981,-0.55561 v -82.262 -82.262 h -85.57821 c -65.44541,0 -85.81432,-0.23615 -86.58202,-1.00385 -1.53683,-1.53683 -1.19448,-4.69107 0.61426,-5.65906 0.88993,-0.47628 5.72788,-0.86597 10.75102,-0.86597 h 9.13298 l 0.53724,-6.90146 c 0.29562,-3.79581 0.53949,-19.98289 0.54227,-35.97129 l 0.006,-29.06982 h -15.72699 c -11.11671,0 -16.02125,-0.29426 -16.73084,-1.00385 -1.53682,-1.53682 -1.19447,-4.69106 0.61423,-5.65905 0.94413,-0.50527 7.91299,-0.86597 16.73084,-0.86597 h 15.11276 v -14.2212 -14.22121 h -5.79605 c -4.15373,0 -6.16851,-0.37248 -7.11061,-1.31456 -1.72197,-1.72199 -1.65868,-2.52404 0.35854,-4.54123 1.32986,-1.32988 2.78846,-1.67308 7.11058,-1.67308 h 5.43754 v -38.06264 -38.06263 l -12.339,-0.11923 c -6.78644,-0.0656 -14.22122,-0.1597 -16.52169,-0.20915 l -4.18272,-0.0899 -0.21753,38.27178 -0.21753,38.27176 h 4.24615 c 5.17461,0 7.48233,1.11852 7.48233,3.62656 0,3.45467 -1.40523,3.90232 -12.24972,3.90232 -9.6092,0 -10.32182,-0.11392 -11.53321,-1.84342 -1.09889,-1.56888 -1.12269,-2.09837 -0.15966,-3.5553 0.84861,-1.28393 2.20518,-1.77509 5.42645,-1.96474 l 4.29499,-0.25284 v -5.81208 -5.81207 h -17.14911 -17.14907 v 5.85579 5.85578 h 6.94329 c 7.3177,0 8.95098,0.6869 8.95098,3.76444 0,3.49366 -1.24954,3.76444 -17.3714,3.76444 -8.99083,0 -16.03488,-0.3592 -16.98179,-0.86597 -1.8087,-0.96799 -2.15108,-4.12223 -0.61423,-5.65906 0.56832,-0.56832 3.29038,-1.00385 6.27405,-1.00385 h 5.27022 v -28.82927 -28.82929 l -7.73802,-0.24054 c -6.21362,-0.19315 -7.73802,-0.48773 -7.73802,-1.49535 0,-1.00761 1.5244,-1.30219 7.73802,-1.49533 l 7.73802,-0.24055 v -7.91575 -7.91575 h -6.24464 c -5.38847,0 -6.36738,-0.22938 -7.14004,-1.67308 -0.63617,-1.18872 -0.63617,-2.15745 0,-3.34617 0.87937,-1.64312 1.7449,-1.67285 48.33971,-1.66027 28.54197,0.008 47.94422,0.32979 48.69911,0.80844 1.10572,0.70108 1.23042,12.528 1.0496,99.53561 l -0.20519,98.74001 h 56.44136 56.44134 l 0.2305,-13.17553 0.2305,-13.17553 7.738,-0.24054 7.738,-0.24052 v 13.41607 13.41606 h 9.2401 c 8.69491,0 9.36101,0.12112 11.29331,2.05333 l 2.0533,2.05332 -0.013,86.82921 c -0.01,47.75606 -0.2893,87.25582 -0.6274,87.77729 -0.4514,0.69624 -37.06461,1.098 -137.84296,1.51251 -133.80378,0.55033 -137.26395,0.52503 -138.65673,-1.01397 z M 496.66511,568.95925 v -10.03849 l 23.7398,-0.22234 c 16.81661,-0.15751 24.07437,0.0553 24.88709,0.72984 0.84905,0.70463 1.14733,3.42662 1.14733,10.46997 v 9.5178 h 44.33668 44.33671 v -17.694 -17.69401 l -45.38239,0.56501 c -47.8462,0.59568 -49.14121,0.51534 -49.83588,-3.0917 -0.48077,-2.49654 1.47068,-3.91237 5.39249,-3.91237 h 3.66202 v -15.47602 -15.47601 h -4.18272 c -3.08414,0 -4.18272,-0.31661 -4.18272,-1.20544 0,-0.663 0.33413,-1.41195 0.74253,-1.66436 0.4084,-0.2524 7.78415,-0.21386 16.39061,0.0856 16.75433,0.58302 17.04018,0.67139 15.96962,4.93684 -0.63029,2.51132 -2.44904,2.2959 -2.83629,-0.33596 -0.25674,-1.74445 -0.65214,-1.8167 -9.94295,-1.8167 h -9.6756 l 0.51944,10.66591 c 0.28582,5.86624 0.52501,12.84278 0.53184,15.50341 l 0.0126,4.83751 9.41109,-0.23653 9.41108,-0.23653 0.24377,-6.95959 c 0.17453,-4.98218 0.53114,-6.86452 1.25483,-6.62499 0.65252,0.21597 1.09709,2.76028 1.25401,7.17681 l 0.24313,6.84222 39.91089,-0.21721 39.91088,-0.21721 -0.29846,-22.16835 c -0.33461,-24.83841 -0.043,-26.76933 4.04237,-26.76933 1.39166,0 2.60991,0.0941 2.7072,0.20915 0.0974,0.11502 0.37959,11.126 0.62738,24.46884 l 0.45055,24.2597 22.3775,0.22281 22.37747,0.22281 V 500.79476 463.97328 H 684.0507 661.88234 v 7.36156 c 0,7.55402 -0.66912,9.36927 -3.45372,9.36927 -3.10975,0 -4.07515,-2.29316 -4.07515,-9.67998 v -7.05085 h -85.7455 -85.7455 v 35.55301 35.55302 h 3.76442 3.76446 v -14.89044 c 0,-10.46606 0.29815,-15.18871 1.00385,-15.89429 1.26368,-1.2637 7.90385,-1.32018 8.67418,-0.0738 0.76191,1.23282 -1.17481,2.38738 -4.03137,2.40329 l -2.30051,0.0127 v 14.01998 c 0,13.114 0.10813,14.0875 1.6731,15.06484 2.14814,1.34153 2.18048,4.88297 0.055,6.0205 -0.88993,0.47628 -3.71326,0.86597 -6.27404,0.86597 h -4.65594 v 17.84618 c 0,9.81543 0.26622,18.11261 0.59194,18.43818 0.3256,0.32557 3.0548,0.48242 6.06493,0.34856 l 5.47296,-0.24339 z m 14.16019,-25.30422 c -3.32541,-2.32876 -1.32166,-5.98373 3.64567,-6.64999 l 3.52593,-0.47292 v -14.94761 -14.94759 h -3.34616 c -2.44948,0 -3.34615,-0.34385 -3.34615,-1.28312 0,-1.08778 1.35863,-1.24696 8.92475,-1.04567 6.22035,0.16548 9.02987,0.5543 9.27168,1.28311 0.24725,0.7453 -0.88004,1.04568 -3.92441,1.04568 h -4.27127 l 0.22796,15.26688 0.22796,15.26688 4.93391,0.41827 c 5.49601,0.46592 7.52941,2.1386 5.8474,4.81012 -0.78025,1.23923 -2.44888,1.49623 -10.87076,1.67423 -5.47197,0.11566 -10.35296,-0.0725 -10.8466,-0.41827 z m 32.53232,27.27132 c 0.28456,-4.66932 0.31912,-8.81019 0.0768,-9.20196 -0.24218,-0.39175 -10.2055,-0.71228 -22.14088,-0.71228 h -21.7007 v 8.64426 c 0,4.75435 0.25104,8.89523 0.5577,9.20196 0.30669,0.30672 10.03739,0.55769 21.62371,0.55769 h 21.06602 z m 443.75287,-44.42157 -0.2321,-11.92072 -4.8101,-0.25088 -4.8101,-0.25089 v 12.17161 12.17159 h 5.0423 5.0422 z M 817.89704,377.39126 V 346.43922 H 801.1662 784.43536 l -0.21943,31.17852 -0.21942,31.17853 16.95017,-0.2265 16.95017,-0.22648 z M 763.58159,544.6398 c -3.52157,-3.52157 -0.16599,-6.21431 7.74412,-6.21431 h 5.99907 v -36.01283 c 0,-30.55384 -0.19223,-36.3848 -1.26899,-38.46674 -1.17825,-2.27853 -1.14837,-2.57452 0.41826,-4.14117 1.56544,-1.56542 2.76105,-1.68724 16.55888,-1.68724 15.69803,0 18.59003,0.63204 18.59003,4.06283 0,3.14914 -1.54504,3.46604 -16.89813,3.46604 h -14.89042 l 0.0126,34.50734 c 0.006,18.97904 0.2384,35.35433 0.51587,36.38955 0.5043,1.88179 0.50876,1.88222 19.47997,1.88222 19.92137,0 20.9833,0.1905 20.9833,3.76444 0,3.68267 -0.62918,3.76444 -28.96826,3.76444 -23.39419,0 -27.13442,-0.1739 -28.27508,-1.31457 z M 647.84697,429.2094 c -2.04554,-1.43276 -2.41142,-3.66673 -0.85537,-5.22278 0.5668,-0.56678 3.28197,-1.00385 6.23617,-1.00385 h 5.23228 l 0.48735,-2.71876 c 0.26812,-1.49532 0.37922,-18.71762 0.24693,-38.27177 l -0.24029,-35.55302 H 641.38667 623.8193 l -0.21753,37.85351 -0.21753,37.8535 h 5.25992 c 5.65732,0 8.97834,1.5028 8.97834,4.06283 0,3.1793 -1.49686,3.46604 -18.0932,3.46604 -13.5078,0 -16.29616,-0.21067 -17.40005,-1.31457 -3.89269,-3.89269 0.061,-6.2143 10.58314,-6.2143 h 8.17927 v -38.06264 -38.06263 h -44.33683 -44.33671 v 38.06263 38.06264 h 30.05573 c 26.20801,0 30.22404,0.1683 31.37029,1.31456 1.72353,1.7235 1.66073,3.13211 -0.21531,4.82984 -1.37924,1.24818 -5.52146,1.38447 -42.07806,1.38447 -42.90995,0 -42.5559,0.0325 -42.5559,-3.90232 0,-2.72499 2.37791,-3.62655 9.56522,-3.62655 h 6.32906 v -38.06264 -38.06263 h -18.8222 -18.82217 l 0.002,14.84861 c 8.2e-4,8.16673 0.24977,25.29492 0.55279,38.06263 l 0.55119,23.21403 h 5.55393 c 5.71366,0 7.56163,0.84704 7.56163,3.46604 0,3.36452 -2.97017,4.06283 -17.2808,4.06283 -14.95018,0 -17.85395,-0.58167 -17.85395,-3.57643 0,-3.2054 1.55924,-3.95244 8.24963,-3.95244 h 6.24195 l -0.55207,-26.97846 c -0.30353,-14.83816 -0.55267,-31.96634 -0.55346,-38.06264 l -0.002,-11.08417 h -15.42216 -15.4222 l -0.29436,8.99281 c -0.16188,4.94606 -0.38763,21.88602 -0.50177,37.64437 l -0.20741,28.65155 h 3.73963 c 5.78559,0 8.03125,1.15929 8.03125,4.14606 0,3.29899 -0.98024,3.50319 -15.38629,3.20505 -9.99619,-0.20687 -11.75079,-0.44529 -12.54382,-1.70446 -1.82716,-2.90119 0.31396,-4.35122 7.1028,-4.81011 l 6.18786,-0.41827 0.21752,-37.8535 0.21753,-37.8535 h -17.16615 -17.16614 l 0.21752,37.8535 0.21753,37.8535 5.76991,0.41827 c 6.35647,0.46079 8.46721,1.97984 6.68368,4.81011 -0.8145,1.29256 -2.71094,1.49068 -16.19936,1.69234 -15.83499,0.23675 -17.58602,-0.083 -17.58602,-3.21128 0,-2.87507 3.22983,-4.12771 10.64289,-4.12771 h 6.92448 V 383.66532 346.02096 H 389.16861 370.7647 v 37.64436 37.64437 h 4.50832 c 5.99315,0 8.88298,2.085 7.40025,5.33924 l -0.99765,2.18963 h -13.2353 c -13.9924,0 -15.24299,-0.32016 -15.24299,-3.90232 0,-2.68864 2.36561,-3.62655 9.14695,-3.62655 h 5.9108 v -37.64437 -37.64436 h -37.64374 -37.64436 v 37.64436 37.64437 h 25.76549 c 18.92441,0 26.03199,0.26653 26.7693,1.00384 1.55608,1.55605 1.1902,3.79002 -0.85534,5.22278 -1.63247,1.14341 -7.96507,1.30225 -51.92057,1.30225 -32.90882,0 -50.61578,-0.2967 -51.67945,-0.86597 -1.8087,-0.96799 -2.15105,-4.12223 -0.61423,-5.65906 0.73428,-0.73429 7.4731,-1.00384 25.09625,-1.00384 h 24.09239 v -37.64437 -37.64436 h -37.2261 -37.2261 v 37.64436 37.64437 h 7.42646 c 8.15161,0 9.89682,0.87178 8.98868,4.49015 -0.68821,2.74206 -2.2785,3.01416 -17.69295,3.0273 -14.14961,0.012 -17.12609,-0.69208 -17.12609,-4.05141 0,-2.4814 1.82988,-3.46604 6.44136,-3.46604 h 4.43367 v -28.41212 -28.41212 l -8.15629,-0.23944 c -6.58589,-0.19333 -8.15626,-0.48102 -8.15626,-1.49424 0,-1.01321 1.57037,-1.30091 8.15626,-1.49424 l 8.15629,-0.23943 v -7.49859 -7.49857 h -6.94329 c -4.28494,0 -7.32763,-0.38434 -7.94714,-1.00385 -1.39022,-1.39022 -1.25464,-3.64513 0.31333,-5.21324 1.19364,-1.19366 24.38403,-1.2994 246.98887,-1.12617 135.11935,0.10516 261.10572,0.38873 279.96972,0.63019 l 34.29821,0.43901 0.27602,2.41885 c 0.35759,3.1324 -0.86378,3.82669 -6.75931,3.8424 l -4.81013,0.0126 v 7.94715 7.94714 h 2.37023 c 1.30361,0 2.61788,0.24769 2.92061,0.55044 0.95207,0.95204 -1.22545,2.79573 -3.30189,2.79573 h -1.98895 v 28.86068 28.86067 h 5.6885 c 3.309,0 6.1084,0.41991 6.69234,1.00385 1.53682,1.53683 1.19447,4.69107 -0.61426,5.65905 -0.92275,0.49386 -7.39321,0.86598 -15.05775,0.86598 -12.32427,0 -13.5785,-0.13887 -15.11273,-1.67309 -2.01718,-2.01718 -2.08051,-2.81923 -0.35851,-4.54122 0.98709,-0.98711 3.07093,-1.31457 8.36541,-1.31457 h 7.05085 v -38.48072 -38.4809 h -19.65873 -19.65873 v 38.4809 38.48091 h 6.52502 c 3.95963,0 6.9197,0.39467 7.52887,1.00385 1.55608,1.55605 1.19021,3.79002 -0.85534,5.22278 -1.60154,1.12175 -6.15554,1.30224 -32.85725,1.30224 -26.70174,0 -31.25574,-0.1805 -32.85725,-1.30224 z m 49.58809,-44.70754 v -38.06264 l -17.77651,-0.22577 -17.77649,-0.22578 v 38.51418 38.51418 l 17.77649,-0.22578 17.77651,-0.22578 z"
       id="path1" /></g></svg>
