<?xml version="1.0" standalone="no"?>
<!DOCTYPE svg PUBLIC "-//W3C//DTD SVG 20010904//EN"
 "http://www.w3.org/TR/2001/REC-SVG-20010904/DTD/svg10.dtd">
<svg version="1.0" xmlns="http://www.w3.org/2000/svg"
 width="3000.000000pt" height="3000.000000pt" viewBox="0 0 3000.000000 3000.000000"
 preserveAspectRatio="xMidYMid meet">

<g transform="translate(0.000000,3000.000000) scale(0.100000,-0.100000)"
fill="#000000" stroke="none">
<path d="M0 15000 l0 -15000 15000 0 15000 0 0 15000 0 15000 -15000 0 -15000
0 0 -15000z m13565 4900 c4514 -3 7921 -9 7935 -14 105 -37 115 -168 17 -215
-37 -18 -62 -21 -165 -21 l-122 0 0 -215 c0 -165 3 -215 13 -216 6 -1 36 -3
66 -5 63 -5 95 -27 85 -58 -11 -34 -36 -45 -101 -46 l-63 0 0 -839 0 -839 165
-4 165 -4 30 -30 c59 -58 46 -153 -26 -187 -31 -15 -81 -17 -428 -17 -431 0
-444 2 -485 59 -36 50 -23 124 28 158 22 15 57 19 231 23 l205 5 0 1105 0
1105 -568 3 -567 2 2 -1107 3 -1108 180 -5 c193 -5 208 -9 239 -61 34 -57 10
-126 -54 -159 -38 -20 -57 -20 -960 -20 -893 0 -922 1 -959 20 -76 38 -90 128
-30 186 30 29 31 29 182 34 l152 5 0 1105 0 1105 -500 0 -500 0 -2 -1095 c-2
-852 0 -1096 10 -1102 7 -4 78 -8 158 -8 135 0 149 -2 180 -23 38 -25 60 -77
52 -120 -8 -40 -55 -83 -100 -90 -21 -4 -234 -4 -473 -1 -472 7 -470 7 -504
64 -33 57 -11 122 52 156 33 17 55 19 246 16 116 -2 226 0 245 3 l33 6 -4
1090 c-2 684 -7 1092 -13 1098 -14 14 -2554 16 -2567 3 -7 -7 -7 -372 -2
-1099 l9 -1088 876 -5 c940 -5 887 -2 931 -55 25 -29 23 -96 -4 -130 -45 -58
14 -55 -1265 -55 l-1179 0 -34 23 c-67 47 -68 134 -1 186 34 26 36 26 233 29
l198 3 0 1099 c0 992 -2 1098 -16 1104 -9 3 -253 6 -544 6 -413 0 -529 -3
-532 -12 -3 -7 -1 -263 4 -568 5 -305 12 -796 16 -1090 l7 -535 160 -5 c177
-6 194 -11 221 -68 32 -67 -7 -141 -86 -162 -30 -8 -161 -9 -461 -4 -467 8
-462 7 -496 79 -14 30 -15 40 -3 75 24 72 49 80 248 80 127 0 172 3 175 13 5
12 3 140 -13 882 -6 242 -10 631 -10 865 0 318 -3 429 -12 438 -9 9 -121 12
-444 12 -385 0 -433 -2 -438 -16 -3 -9 -6 -501 -6 -1094 l0 -1078 123 -4 c133
-3 166 -13 201 -61 40 -54 17 -133 -50 -167 -40 -21 -680 -28 -728 -8 -42 17
-61 37 -76 78 -11 31 -10 41 6 75 31 66 70 78 257 83 l157 4 0 1094 0 1094
-492 -2 -493 -3 -3 -1092 -2 -1093 126 0 c149 0 202 -11 241 -52 54 -56 31
-152 -44 -183 -54 -23 -842 -18 -887 5 -93 48 -90 165 5 212 29 14 67 17 242
18 l207 0 0 1095 0 1095 -524 0 -523 0 -6 -177 c-3 -98 -5 -591 -6 -1095 l-1
-918 124 0 c86 0 134 -4 159 -15 79 -33 103 -127 47 -184 -17 -17 -45 -33 -63
-36 -18 -4 -190 -5 -382 -3 -315 3 -354 5 -378 21 -79 52 -68 165 19 202 28
11 77 15 200 15 l164 0 2 558 c1 306 2 798 2 1092 l1 535 -1092 3 -1093 2 0
-1090 0 -1090 755 -2 755 -3 32 -33 c28 -28 33 -39 33 -81 0 -35 -6 -55 -20
-71 -47 -52 26 -50 -1566 -50 -1130 0 -1485 3 -1506 12 -88 38 -107 146 -35
197 40 28 97 30 805 31 l637 0 0 1090 0 1090 -147 1 c-949 6 -1965 8 -1991 4
l-32 -6 2 -1087 3 -1087 212 -5 212 -5 29 -28 c40 -38 49 -87 25 -135 -35 -71
-35 -71 -509 -72 -362 0 -427 2 -459 16 -48 20 -64 36 -75 75 -20 67 19 127
95 148 22 6 82 11 133 11 l92 0 0 820 0 820 -233 0 c-250 0 -257 1 -257 51 0
54 21 59 267 59 l223 0 0 209 c0 181 -2 210 -16 215 -9 3 -98 6 -198 6 l-182
0 -34 29 c-32 26 -35 34 -35 81 0 48 3 55 39 86 l39 34 236 0 c140 0 242 4
251 10 8 6 24 7 35 3 11 -4 3580 -10 7930 -13z m-8735 -27 c43 -40 52 -80 30
-131 -26 -58 -59 -72 -174 -72 -52 0 -101 -3 -110 -6 -14 -5 -16 -34 -16 -215
l0 -209 49 0 c32 0 55 -6 65 -16 42 -41 -2 -94 -78 -94 l-36 0 2 -817 3 -818
85 -6 c47 -3 97 -10 111 -16 42 -18 69 -60 69 -108 0 -54 -25 -87 -86 -110
-43 -16 -77 -17 -408 -13 -396 6 -414 9 -455 66 -11 17 -21 43 -21 59 0 38 34
91 68 106 16 7 99 14 212 17 l185 5 0 1085 0 1085 -520 0 -520 0 0 -1085 0
-1085 153 -3 c175 -3 204 -13 236 -77 17 -35 18 -42 5 -78 -8 -22 -27 -50 -42
-61 -28 -21 -36 -21 -435 -18 -452 3 -434 0 -476 72 -18 30 -18 35 -4 74 9 25
28 50 48 64 31 21 43 22 216 22 l184 0 0 1090 0 1090 -470 0 -470 0 0 -1085 0
-1085 58 0 c113 0 159 -11 198 -44 32 -27 37 -38 37 -74 0 -53 -16 -83 -53
-105 -24 -15 -65 -17 -310 -17 l-282 0 -33 33 c-60 60 -55 123 13 175 33 25
44 27 149 31 l113 3 -2 1082 -3 1081 -495 0 -495 0 -3 -187 -2 -188 264 0 264
0 17 -27 c16 -24 17 -38 8 -136 -10 -113 -16 -127 -59 -127 -36 0 -49 27 -49
104 l0 71 -222 3 -223 2 0 -265 0 -265 220 0 220 0 1 30 c1 17 3 35 4 40 1 6
3 19 4 29 1 23 27 51 47 51 8 0 23 -9 34 -20 18 -18 20 -33 20 -150 0 -117 -2
-132 -20 -150 -11 -11 -26 -20 -34 -20 -20 0 -45 27 -52 56 -6 24 -7 24 -143
25 -75 1 -172 2 -216 2 l-80 2 -3 -228 -2 -227 207 2 208 3 1 41 c0 48 26 94
53 94 37 0 50 -30 53 -127 4 -129 20 -122 -279 -123 l-243 0 0 -240 0 -240
201 0 c165 0 207 -3 235 -16 91 -43 101 -150 18 -205 -26 -17 -48 -19 -241
-19 l-213 0 0 -400 0 -400 181 0 c233 0 279 -12 316 -84 17 -33 11 -84 -15
-113 -41 -47 -73 -53 -284 -53 l-198 0 2 -1037 3 -1038 543 -3 542 -2 0 1040
0 1040 -153 0 c-97 0 -162 4 -178 12 -80 38 -85 164 -7 204 23 12 92 14 368
15 302 0 343 -2 365 -17 49 -32 69 -100 43 -147 -29 -55 -63 -67 -203 -69
l-120 -3 0 -1035 0 -1035 475 0 475 0 3 1038 2 1037 -151 0 c-157 0 -174 4
-221 48 -23 21 -28 34 -28 73 0 39 5 52 30 76 26 25 42 31 98 37 109 10 564 7
604 -4 72 -20 105 -109 62 -167 -36 -48 -74 -62 -181 -65 l-98 -3 -3 -1029
c-2 -817 0 -1031 10 -1038 19 -12 966 -10 973 2 7 12 7 2049 -1 2061 -3 5 -87
9 -187 9 l-182 0 -37 30 c-57 47 -59 117 -6 171 l30 29 989 0 989 0 30 -27
c55 -49 51 -142 -7 -180 -25 -17 -73 -18 -698 -23 l-670 -5 4 -1030 c2 -566 5
-1033 8 -1037 6 -11 1995 -10 2011 0 10 7 12 221 10 1038 l-3 1029 -130 5
c-71 3 -142 11 -157 17 -41 18 -70 70 -64 116 7 60 29 84 93 103 48 14 89 15
302 9 135 -4 262 -12 281 -19 25 -8 41 -23 58 -54 21 -38 23 -46 11 -75 -29
-74 -71 -95 -194 -99 l-90 -3 -3 -1015 c-1 -558 0 -1025 3 -1037 l5 -23 1069
0 c588 0 1076 3 1085 6 14 6 16 106 16 1035 l0 1029 -117 0 c-65 0 -424 1
-798 3 l-680 2 -33 23 c-18 13 -39 39 -47 58 -19 46 -1 101 45 132 l33 22
1064 0 c1155 0 1099 3 1137 -54 9 -14 16 -44 16 -67 0 -34 -6 -47 -34 -74 -41
-38 -87 -45 -323 -45 l-153 0 0 -1029 0 -1029 28 -7 c16 -3 289 -3 608 0 318
3 805 5 1082 5 l502 0 -1 963 c-1 529 -4 989 -8 1022 l-6 60 -695 5 c-665 5
-697 6 -725 24 -44 29 -54 46 -55 94 0 57 28 96 83 117 38 14 174 16 1492 13
1574 -3 1489 0 1538 -55 42 -48 27 -133 -30 -170 -25 -17 -82 -18 -758 -23
l-730 -5 0 -460 c1 -253 2 -713 3 -1022 l2 -563 990 0 990 0 0 1029 0 1029
-102 4 c-67 2 -111 9 -126 18 -52 34 -66 127 -25 172 46 51 -214 48 4102 48
3975 0 4016 0 4048 -20 67 -40 75 -118 18 -184 l-25 -29 0 -838 c0 -833 0
-838 -20 -849 -27 -14 -54 -5 -69 23 -8 16 -12 237 -14 837 l-2 815 -452 3
-453 2 0 -572 c0 -315 3 -792 7 -1060 l6 -488 444 0 443 0 0 48 c0 53 12 72
46 72 29 0 43 -19 52 -71 l7 -44 65 -3 c36 -1 74 -6 85 -11 11 -5 28 -12 37
-15 25 -7 58 -65 58 -99 0 -84 -70 -125 -218 -126 l-92 -1 2 -467 3 -468 261
-5 c279 -5 294 -8 294 -56 0 -44 -27 -49 -300 -54 l-255 -5 -3 -1901 c-2
-1805 -1 -1902 15 -1906 10 -2 443 -1 963 2 l945 5 0 1520 c0 836 -1 1697 -3
1914 l-3 393 -459 -3 c-450 -4 -459 -4 -474 16 -22 29 -19 50 9 69 20 13 57
16 218 16 107 0 309 3 449 7 l256 6 4 138 c3 124 5 140 23 153 11 9 28 16 37
16 47 1 45 50 52 -1555 3 -830 6 -1777 6 -2102 l0 -593 2818 0 c1549 0 2827 3
2840 6 l22 6 0 2387 c0 1312 -3 2396 -6 2409 l-6 22 -2501 0 -2500 0 -32 24
c-46 36 -62 78 -45 125 17 46 53 77 99 85 20 3 152 6 294 6 l257 0 0 1045 0
1045 -443 0 -442 0 -36 24 c-23 16 -39 37 -47 62 -10 34 -9 44 9 80 36 75 29
74 523 74 l436 0 -2 408 c-2 317 -6 407 -15 408 -7 1 -80 2 -162 3 l-149 1
-30 30 c-41 41 -49 81 -25 127 33 63 62 72 235 75 l153 3 2 335 c2 184 4 683
5 1108 3 766 3 773 -17 778 -11 2 -225 3 -475 2 l-455 -3 0 -1110 0 -1110 120
-3 c162 -3 204 -25 213 -112 4 -42 1 -51 -28 -83 l-32 -37 -309 0 -308 0 -36
35 c-28 29 -35 43 -35 76 0 89 48 119 189 119 122 0 123 1 117 127 -2 48 -5
114 -5 146 l-1 57 -490 0 -490 0 0 -159 c0 -136 2 -160 16 -165 9 -3 99 -6
201 -6 183 0 187 0 219 -25 57 -44 58 -124 2 -177 l-30 -28 -468 0 -467 0 -33
23 c-41 27 -64 85 -49 125 6 15 22 39 37 55 26 27 26 27 168 27 116 0 145 3
158 16 14 14 16 104 16 838 l0 823 -97 6 c-54 4 -154 7 -223 7 -135 0 -150 5
-150 50 0 48 9 50 235 50 115 0 216 4 223 8 9 7 12 57 10 218 l-3 209 -160 5
c-182 6 -211 15 -240 81 -31 67 3 127 88 155 48 16 136 17 1385 11 1256 -6
1336 -7 1370 -24 23 -11 44 -32 54 -53 16 -33 17 -224 18 -2906 l0 -2872 1513
-7 c831 -3 1568 -5 1637 -3 l125 3 5 375 c3 261 9 381 17 395 11 19 25 20 215
25 164 5 207 3 225 -8 l23 -14 2 -387 3 -386 260 -3 c199 -2 267 -6 290 -16
31 -15 71 -55 92 -93 10 -18 13 -550 13 -2564 l0 -2542 -25 -33 c-16 -21 -39
-37 -63 -43 -23 -5 -1583 -10 -4017 -13 -3730 -3 -3982 -2 -4011 14 -17 9 -40
30 -50 45 -19 27 -19 92 -22 2536 l-3 2507 -1389 0 -1390 0 0 -525 c0 -512 0
-525 -20 -545 -20 -20 -29 -20 -2290 -18 -2166 3 -2270 4 -2287 21 -17 17 -18
53 -18 575 l0 557 -6299 3 -6300 2 -23 22 c-57 53 -53 -170 -53 2979 0 1921 3
2900 10 2904 6 3 10 15 10 25 0 10 15 30 33 44 l32 26 1922 0 1923 0 30 -27z
m18351 -3504 c27 -13 45 -32 55 -54 18 -44 18 -59 -2 -100 -30 -64 -35 -65
-504 -65 l-422 0 6 -567 c3 -313 9 -787 12 -1055 l6 -487 557 -3 c527 -3 557
-4 584 -22 31 -21 57 -64 57 -96 0 -34 -29 -79 -63 -100 -31 -19 -56 -20 -815
-20 -708 0 -787 2 -812 16 -79 47 -78 158 3 201 26 14 66 18 205 21 l172 4 -1
467 c0 256 -4 734 -8 1061 l-8 595 -27 39 c-31 46 -33 80 -6 123 37 61 40 61
528 62 428 1 444 0 483 -20z"/>
<path d="M18852 18543 l3 -1108 505 0 505 0 0 1105 0 1105 -508 3 -507 2 2
-1107z"/>
<path d="M22437 19643 c-4 -3 -7 -406 -7 -895 l0 -888 490 0 490 0 -2 893 -3
892 -481 3 c-264 1 -484 -1 -487 -5z"/>
<path d="M13600 15483 c-1 -395 -3 -848 -6 -1006 -3 -158 -3 -299 0 -312 6
-24 8 -25 106 -25 l99 0 3 440 3 439 23 23 c21 21 31 23 137 23 102 0 116 -2
129 -20 39 -52 1 -83 -105 -87 l-74 -3 -3 -408 c-2 -382 -1 -408 15 -413 45
-15 66 -31 84 -67 17 -33 19 -43 8 -75 -13 -40 -20 -48 -61 -75 -22 -14 -51
-17 -161 -17 l-135 0 -7 -362 c-3 -200 -5 -435 -3 -523 l3 -160 160 0 160 0 1
284 c1 264 2 285 19 298 15 11 146 13 711 13 l692 0 31 -26 31 -26 0 -274 0
-274 1295 0 1295 0 0 490 0 490 -1349 0 c-1448 0 -1389 -2 -1435 49 -13 15
-20 37 -20 71 -1 40 4 54 26 77 34 35 96 53 183 53 l65 0 0 435 0 435 -97 1
c-122 1 -145 8 -157 42 -8 21 -6 31 9 47 18 20 29 20 480 20 453 0 463 0 489
-21 23 -18 26 -28 26 -80 0 -33 -7 -75 -14 -94 -12 -28 -20 -35 -43 -35 -41 0
-53 17 -53 72 l0 48 -265 0 -265 0 0 -435 0 -435 266 2 267 3 -2 162 c-2 128
1 168 13 191 20 38 51 47 77 21 17 -17 19 -35 19 -199 l0 -180 1160 0 1160 0
0 671 c0 667 0 672 21 709 25 45 84 76 123 66 15 -4 40 -19 58 -35 l32 -28 7
-209 c4 -115 8 -426 8 -692 l1 -482 648 2 647 3 -1 560 c0 308 -1 784 -2 1058
l-2 497 -640 0 -640 0 0 -196 c0 -154 -3 -203 -15 -228 -30 -64 -117 -86 -170
-44 -49 38 -55 70 -55 278 l0 190 -2505 0 -2505 0 0 -717z m1363 -464 c8 -11
13 -29 10 -39 -10 -38 -32 -45 -142 -45 l-106 0 -3 -427 -2 -428 114 0 c90 0
124 -4 158 -19 103 -45 104 -168 2 -212 -41 -17 -70 -19 -269 -19 -265 0 -315
8 -353 58 -32 42 -34 91 -6 129 33 45 79 62 167 63 l77 0 0 430 0 430 -83 0
c-111 0 -147 24 -117 81 10 18 24 19 275 19 255 0 264 -1 278 -21z"/>
<path d="M28105 14718 c-3 -7 -4 -164 -3 -348 l3 -335 125 0 125 0 0 345 0
345 -123 3 c-93 2 -124 -1 -127 -10z"/>
<path d="M14087 13333 c-9 -8 -9 -340 -1 -422 l7 -61 628 0 629 0 0 245 0 245
-628 0 c-346 0 -632 -3 -635 -7z"/>
</g>
</svg>
