<?xml version="1.0" standalone="no"?>
<!DOCTYPE svg PUBLIC "-//W3C//DTD SVG 20010904//EN"
 "http://www.w3.org/TR/2001/REC-SVG-20010904/DTD/svg10.dtd">
<svg version="1.0" xmlns="http://www.w3.org/2000/svg"
 width="3000.000000pt" height="3000.000000pt" viewBox="0 0 3000.000000 3000.000000"
 preserveAspectRatio="xMidYMid meet">

<g transform="translate(0.000000,3000.000000) scale(0.100000,-0.100000)"
fill="#000000" stroke="none">
<path d="M0 15000 l0 -15000 15000 0 15000 0 0 15000 0 15000 -15000 0 -15000
0 0 -15000z m2880 1136 c14 -3 698 -7 1520 -8 822 -1 1972 -5 2555 -8 987 -5
1062 -6 1095 -23 49 -24 74 -68 67 -119 -9 -68 -49 -98 -142 -107 l-60 -6 -3
-1078 c-2 -943 0 -1081 13 -1107 29 -57 10 -121 -45 -154 -25 -14 -72 -16
-373 -16 -340 0 -344 0 -377 23 -67 45 -70 144 -6 190 29 21 44 22 281 27
l250 5 6 405 c4 223 7 699 8 1058 l1 652 -427 1 c-236 0 -435 2 -443 3 -8 2
-330 6 -716 10 -576 6 -702 5 -711 -6 -7 -9 -7 -83 -2 -228 4 -118 8 -354 8
-525 1 -276 8 -612 27 -1192 l6 -183 685 0 c678 0 685 0 714 -21 32 -22 59
-67 59 -97 0 -33 -31 -83 -64 -103 -30 -18 -63 -19 -927 -19 -977 0 -942 -2
-988 56 -14 18 -21 41 -21 71 0 38 5 50 34 79 l34 34 175 0 c207 0 189 -17
182 170 -5 137 -21 934 -31 1515 -3 204 -9 388 -12 410 l-7 40 -489 3 -489 2
7 -602 c12 -1158 18 -1503 27 -1520 9 -16 26 -18 142 -18 111 -1 135 -3 153
-18 26 -22 54 -74 54 -99 0 -36 -40 -84 -86 -104 -44 -20 -62 -20 -912 -17
-645 3 -874 7 -895 16 -66 28 -97 94 -73 153 19 45 42 64 92 76 26 6 288 8
724 5 l683 -5 -8 589 c-4 324 -10 803 -14 1064 l-6 475 -1044 3 -1044 2 8
-682 c4 -376 10 -852 14 -1058 l6 -375 140 -5 c149 -6 176 -13 214 -54 32 -34
33 -97 3 -146 -18 -29 -22 -51 -22 -122 0 -75 -3 -91 -20 -108 -24 -24 -39
-25 -66 -6 -15 12 -20 30 -24 98 l-5 83 -350 5 c-227 3 -359 9 -375 16 -66 30
-90 113 -48 173 36 51 77 61 272 61 l169 0 -8 518 c-4 284 -11 760 -14 1057
l-6 540 -115 6 c-63 4 -271 7 -461 8 -279 1 -349 -2 -358 -12 -6 -8 -8 -17 -4
-20 3 -4 9 -476 12 -1049 l6 -1043 100 -5 c55 -3 112 -11 126 -17 39 -17 69
-65 69 -110 0 -83 -91 -133 -215 -118 -88 11 -85 22 -75 -300 5 -154 9 -319
10 -366 l0 -86 108 -5 c92 -4 114 -8 140 -26 53 -39 65 -120 24 -167 -34 -39
-65 -48 -169 -53 l-103 -5 5 -641 c9 -1159 15 -1584 21 -1601 6 -16 40 -17
458 -13 248 1 457 7 465 12 11 7 12 124 6 725 -4 394 -9 723 -10 731 -2 8 -4
189 -4 402 l-1 386 -172 4 c-184 4 -204 8 -245 57 -15 18 -22 40 -23 69 0 37
6 50 33 77 43 43 66 46 437 48 l295 2 5 73 c4 62 9 77 29 93 28 23 30 23 56 3
16 -12 21 -29 24 -97 3 -78 5 -84 37 -116 29 -29 34 -41 34 -80 0 -54 -18 -84
-63 -108 -25 -14 -67 -19 -185 -23 l-153 -5 1 -395 c0 -217 2 -447 5 -510 3
-63 7 -387 10 -720 3 -333 9 -607 13 -611 10 -8 3237 2 3250 10 8 5 13 319 18
1119 l7 1112 -1309 2 c-1282 3 -1310 3 -1341 23 -107 67 -71 204 59 220 29 3
730 5 1558 3 1487 -3 1505 -3 1532 -23 15 -11 34 -36 43 -57 23 -48 7 -98 -43
-136 -35 -27 -37 -27 -212 -30 l-177 -4 -7 -1086 c-4 -598 -9 -1094 -12 -1103
-3 -9 3 -25 13 -34 16 -16 32 -17 158 -11 77 3 304 6 504 6 l364 0 -7 1003
c-3 551 -9 1052 -13 1114 l-6 111 -126 4 c-141 4 -180 17 -206 68 -25 49 -19
94 18 133 43 46 77 50 383 45 268 -3 275 -5 310 -80 21 -47 13 -83 -31 -124
-37 -34 -74 -44 -174 -44 l-64 0 6 -212 c4 -117 9 -568 12 -1003 3 -434 8
-841 11 -902 l6 -113 509 0 509 0 0 228 c0 125 3 626 7 1114 l6 887 -244 3
c-247 3 -262 5 -305 43 -52 48 -41 138 23 181 27 18 53 19 514 19 524 0 520 0
555 -53 21 -32 20 -105 -2 -135 -35 -45 -58 -51 -251 -55 l-183 -4 0 -1115 0
-1116 516 6 c283 4 519 9 525 12 5 4 9 428 9 1110 l0 1103 -153 4 c-149 3
-155 4 -189 30 -71 54 -73 141 -5 190 l32 23 1460 3 c803 2 1488 0 1523 -3 72
-8 109 -33 127 -86 16 -47 0 -94 -44 -128 l-34 -26 -1304 -3 -1303 -2 2 -1108
3 -1107 1560 4 c858 2 1563 6 1566 10 4 3 4 499 1 1102 l-5 1097 -71 5 c-39 3
-82 11 -96 18 -80 40 -86 155 -11 206 24 17 99 18 1196 21 644 2 1195 0 1224
-3 44 -6 62 -14 88 -40 27 -27 33 -41 33 -77 0 -54 -21 -85 -74 -109 -39 -18
-87 -19 -1108 -19 l-1068 0 0 -818 c0 -450 3 -948 7 -1105 l6 -287 1151 1
c633 1 1214 4 1291 8 l140 6 0 1094 0 1094 -50 12 c-67 15 -92 30 -110 65 -29
56 -12 120 42 156 25 16 53 19 231 22 266 5 306 0 350 -44 32 -32 34 -38 30
-86 -5 -43 -11 -57 -38 -79 -41 -34 -66 -39 -216 -39 l-124 0 0 -1089 c0 -861
3 -1092 13 -1098 15 -10 2059 -4 2070 6 4 4 4 497 1 1094 l-7 1087 -693 0
c-615 0 -698 2 -734 16 -52 21 -80 60 -80 114 0 34 6 48 33 75 28 28 42 34 97
40 36 3 473 5 971 3 l906 -3 35 -27 c64 -49 64 -137 1 -185 l-36 -28 -195 -3
-195 -4 7 -1086 c5 -826 10 -1088 19 -1094 12 -8 966 -8 1080 0 l57 4 0 1089
0 1089 -164 0 c-197 0 -218 4 -262 45 -30 28 -34 38 -34 82 0 41 5 54 29 77
41 39 81 45 304 46 l197 0 0 70 c0 66 2 71 26 82 46 21 67 -6 79 -103 l6 -47
162 -4 c137 -3 166 -7 190 -22 83 -56 70 -173 -23 -210 -32 -13 -79 -16 -220
-16 l-180 0 0 -1090 0 -1090 550 0 550 0 0 1089 0 1089 -147 4 c-156 5 -184
12 -217 55 -22 30 -23 103 -2 135 36 55 -11 53 1061 53 l992 0 35 -27 c62 -48
60 -144 -5 -190 l-32 -23 -787 -3 -788 -2 0 -1092 0 -1091 1163 6 c640 3 1172
9 1182 13 17 7 17 23 12 288 -4 155 -7 640 -7 1078 l0 796 -192 4 c-185 3
-194 4 -227 27 -69 50 -74 126 -10 187 l30 29 1014 0 c1008 0 1014 0 1042 -21
15 -11 36 -37 46 -57 24 -48 10 -96 -41 -135 l-35 -27 -759 -3 -758 -2 0
-1070 c1 -987 2 -1071 18 -1086 15 -15 37 -16 212 -11 107 4 1264 8 2570 9
1306 1 2499 5 2650 8 l275 5 5 789 5 789 27 20 c25 19 28 19 52 3 l26 -16 2
-793 3 -792 33 1 c17 1 241 2 497 3 l465 1 0 1070 0 1070 -500 0 -500 0 0 -84
c0 -92 -11 -116 -55 -116 -38 0 -55 39 -55 124 l0 75 -322 3 c-298 3 -325 4
-351 22 -74 50 -74 152 0 202 34 22 107 24 1111 24 l672 0 0 335 c0 184 -1
335 -2 336 -2 1 -61 4 -132 8 l-129 7 -33 37 c-41 44 -45 93 -13 138 34 48 71
61 183 65 56 1 107 3 114 3 9 1 12 215 12 1035 l0 1034 -92 7 c-51 3 -320 5
-598 3 l-505 -3 0 -95 c1 -52 5 -519 10 -1037 l8 -943 256 0 c156 0 272 -4
296 -11 22 -6 54 -26 72 -46 46 -48 45 -95 -1 -149 l-34 -39 -347 2 -348 1
-31 31 c-27 27 -31 38 -31 86 0 45 4 58 28 83 l27 29 -2 219 -3 219 -570 -4
c-313 -2 -571 -4 -572 -5 -4 -4 -10 -380 -6 -396 5 -19 15 -20 400 -20 377 0
396 -1 434 -20 69 -36 98 -109 62 -160 -44 -63 -8 -59 -575 -60 l-517 0 -36
35 c-36 33 -37 36 -31 87 8 63 28 2177 21 2196 -3 9 -45 12 -160 12 -97 0
-165 4 -178 11 -38 20 -59 49 -65 91 -7 53 19 101 66 124 34 16 140 16 1601
10 1695 -8 1597 -5 1643 -60 16 -20 17 -85 18 -1188 0 -772 3 -1168 10 -1168
6 0 10 -18 10 -39 0 -22 -4 -43 -10 -46 -7 -4 -10 -563 -10 -1645 0 -1609 0
-1639 -20 -1672 -10 -18 -34 -42 -52 -53 -32 -19 -57 -20 -638 -26 -333 -3
-1606 -6 -2830 -7 -1224 -1 -2236 -5 -2250 -8 -28 -6 -3021 -19 -5250 -23
-795 -1 -1458 -4 -1475 -7 -16 -2 -1238 -7 -2715 -9 -1477 -3 -3076 -10 -3555
-15 -478 -5 -2107 -12 -3620 -16 -1512 -3 -2768 -7 -2790 -9 -22 -2 -704 -7
-1515 -11 l-1475 -7 -34 20 c-18 12 -42 35 -52 52 -18 30 -19 62 -19 779 0
411 -4 1028 -10 1372 -12 778 -17 1220 -24 2080 -3 371 -8 914 -11 1207 l-7
532 47 47 47 47 997 -6 c548 -3 1007 -8 1021 -11z m10690 -47 c1124 -9 4238
-24 8580 -40 1383 -5 2644 -13 2802 -17 282 -7 287 -7 311 -30 64 -60 57 -138
-16 -185 -23 -15 -51 -27 -63 -27 l-21 0 -7 -587 c-3 -324 -9 -803 -12 -1065
-6 -389 -4 -481 7 -494 7 -8 13 -39 13 -66 0 -47 -3 -54 -39 -85 l-38 -33
-563 0 c-538 0 -565 1 -595 19 -38 23 -69 68 -69 99 0 37 28 86 59 105 26 15
74 17 503 17 l475 0 6 828 c4 455 10 924 13 1043 l7 217 -729 4 c-414 3 -733
1 -739 -4 -11 -10 -21 -2023 -10 -2065 5 -21 11 -23 61 -23 91 0 140 -42 138
-120 -2 -45 -27 -83 -72 -104 -28 -14 -94 -16 -492 -16 -400 0 -465 2 -500 16
-85 34 -107 124 -46 188 l33 36 382 0 381 0 2 533 c1 292 2 764 2 1047 l1 515
-280 6 c-198 5 -2821 11 -3488 9 -17 0 -18 -13 -11 -227 3 -126 9 -595 13
-1043 l6 -815 1135 -7 c1496 -8 1498 -9 1532 -33 36 -27 58 -90 45 -130 -14
-43 -26 -56 -76 -78 -44 -19 -68 -19 -1285 -13 -683 3 -1412 9 -1621 12 -352
6 -382 7 -412 25 -54 33 -66 107 -27 166 30 47 67 53 340 53 l254 0 -2 463 -3
462 -269 3 c-233 2 -272 5 -288 19 -24 22 -23 45 5 71 22 21 32 22 287 24
l265 3 -4 435 c-2 240 -7 476 -10 525 l-6 90 -500 0 -500 0 -3 -527 -2 -528
41 0 c67 0 103 -27 93 -70 -8 -33 -20 -40 -77 -40 -29 0 -49 -5 -52 -12 -3 -7
-6 -214 -7 -460 -2 -366 -1 -449 10 -453 8 -3 37 -5 66 -5 93 0 156 -51 156
-127 -1 -78 -53 -113 -167 -113 l-83 0 0 -92 c0 -71 -4 -95 -17 -110 -47 -52
-93 9 -93 125 l0 77 -214 0 c-118 0 -226 4 -241 10 -47 18 -75 58 -75 107 0
24 7 55 16 68 33 50 60 55 290 55 117 0 219 3 228 6 14 6 16 107 16 1048 l0
1043 -397 6 c-645 11 -750 10 -757 -9 -3 -9 -6 -481 -6 -1049 0 -933 2 -1033
16 -1039 9 -3 94 -6 190 -6 l174 0 40 -40 c54 -54 55 -99 6 -156 l-34 -39
-408 -3 c-225 -2 -423 0 -439 3 -85 15 -130 108 -86 178 33 54 64 62 253 62
91 0 168 2 171 5 2 3 6 475 8 1050 l4 1045 -185 6 c-102 4 -593 7 -1092 8
l-908 1 0 -1055 0 -1054 723 -3 722 -3 32 -23 c66 -47 66 -147 0 -194 l-32
-23 -1490 3 c-1104 2 -1496 6 -1515 14 -67 32 -92 86 -70 152 6 19 23 43 38
53 25 17 70 18 752 23 l725 5 1 1048 c0 576 -2 1050 -6 1052 -3 2 -507 5
-1120 6 l-1115 3 0 -730 c0 -401 1 -873 3 -1050 l3 -321 197 -7 c218 -8 239
-14 268 -74 18 -38 14 -78 -12 -117 -37 -57 -6 -55 -1018 -55 -986 0 -997 1
-1050 47 -33 29 -43 85 -23 129 29 59 55 68 212 74 l140 5 3 73 3 72 -154 0
c-166 0 -177 3 -177 53 0 24 6 31 40 45 22 9 43 25 46 35 10 31 49 42 79 23
14 -9 25 -23 25 -31 0 -12 15 -15 68 -15 65 0 67 1 82 32 8 17 25 35 36 39 29
10 64 -15 64 -47 l0 -24 143 -1 c147 -1 182 -4 221 -19 30 -11 39 -45 18 -70
-16 -18 -31 -20 -197 -22 l-180 -3 0 -70 0 -70 523 -3 522 -2 0 70 0 70 -137
1 c-174 2 -195 6 -208 43 -8 24 -6 31 14 47 21 17 41 19 177 19 l154 0 -2 928
-3 927 -514 9 c-430 7 -515 6 -522 -5 -5 -8 -9 -337 -9 -731 l0 -717 -21 -15
c-16 -10 -28 -12 -46 -5 -31 12 -159 12 -200 0 -34 -10 -64 4 -83 40 -8 15 -7
26 7 49 19 34 15 33 135 30 66 -1 89 2 92 12 7 21 16 1315 10 1332 -5 14 -64
16 -532 16 l-525 0 7 -922 c4 -507 9 -925 12 -930 3 -4 68 -8 144 -8 85 0 149
-5 165 -12 30 -13 41 -48 26 -77 -11 -19 -21 -21 -174 -23 l-162 -3 -3 -66 -3
-67 163 -4 c125 -3 170 -7 193 -20 52 -28 69 -54 69 -109 0 -43 -5 -54 -32
-82 l-32 -32 -373 0 c-342 0 -374 1 -398 18 -36 24 -53 68 -46 120 11 80 70
107 240 107 l107 0 0 373 c0 204 -3 679 -7 1055 l-6 682 -499 0 -498 0 0 -740
0 -740 48 -1 c26 0 94 0 152 1 100 1 107 0 133 -24 25 -23 27 -30 27 -110 0
-81 -1 -87 -25 -102 -20 -13 -31 -14 -49 -6 -19 8 -25 22 -32 69 l-9 58 -100
3 c-55 2 -110 0 -122 -3 l-23 -5 0 -255 0 -255 126 0 c120 0 128 1 156 25 16
14 33 25 37 25 4 0 22 -16 41 -35 19 -19 39 -35 45 -35 18 0 63 -53 70 -82 10
-40 -1 -72 -36 -107 l-31 -31 -263 0 -264 0 -36 31 c-19 17 -35 39 -35 48 0 9
-11 33 -25 53 l-25 37 -2 1092 -3 1092 -94 5 c-93 4 -148 19 -168 44 -53 67
-13 180 67 190 52 6 3895 -4 4930 -13z m13229 -3353 c47 -46 57 -87 32 -139
-40 -83 80 -77 -1484 -77 -928 0 -1394 4 -1420 11 -59 16 -87 54 -87 116 0 44
4 56 30 82 20 19 43 31 68 34 20 2 666 4 1434 3 l1397 -1 30 -29z"/>
<path d="M26430 15011 l0 -781 553 0 c303 0 563 3 576 7 l24 6 -7 616 c-3 339
-9 684 -12 768 l-7 152 -86 3 c-47 2 -301 4 -563 6 l-478 4 0 -781z"/>
</g>
</svg>
