<?xml version="1.0" standalone="no"?>
<!DOCTYPE svg PUBLIC "-//W3C//DTD SVG 20010904//EN"
    "http://www.w3.org/TR/2001/REC-SVG-20010904/DTD/svg10.dtd">
<svg version="1.0" xmlns="http://www.w3.org/2000/svg"
    width="3000.000000pt" height="3000.000000pt" viewBox="0 0 3000.000000 3000.000000"
    preserveAspectRatio="xMidYMid meet">

  <g transform="translate(0.000000,3000.000000) scale(0.100000,-0.100000)"
      fill="#000000" stroke="none">
    <path d="M0 15000 l0 -15000 15000 0 15000 0 0 15000 0 15000 -15000 0 -15000
0 0 -15000z m12435 14160 c1161 -6 2408 -14 2772 -18 l663 -7 32 -33 33 -32 6
-803 c4 -441 9 -1081 12 -1422 4 -341 8 -1640 9 -2886 3 -2254 3 -2267 -17
-2289 -63 -70 -171 -66 -224 9 -18 25 -21 44 -21 126 l0 97 -727 -6 c-401 -3
-875 -9 -1056 -12 -315 -6 -329 -5 -380 14 -28 12 -72 26 -96 32 -26 7 -55 24
-72 43 l-29 31 0 296 c1 264 2 297 18 315 34 41 65 55 119 55 47 0 56 -4 93
-38 l40 -39 0 -243 0 -243 223 7 c122 3 590 9 1040 12 l817 7 0 588 0 589
-1040 0 -1040 0 0 -170 c0 -135 -3 -176 -16 -203 -22 -47 -61 -67 -127 -67
-49 0 -60 4 -91 34 l-36 33 0 479 c1 532 -3 501 68 538 42 22 87 20 132 -5 65
-37 70 -60 70 -308 0 -190 2 -220 16 -225 21 -8 2012 -7 2043 1 l24 6 -7 1511
c-6 1390 -10 1699 -21 1734 -4 9 -187 12 -875 12 l-870 0 0 -89 c0 -82 -2 -91
-22 -105 -31 -22 -54 -20 -78 6 -17 18 -20 35 -20 104 l0 83 -42 6 c-24 4 -68
5 -98 3 l-55 -3 -3 -375 c-1 -206 0 -385 3 -398 5 -22 9 -23 98 -20 l92 3 5
112 c6 144 26 173 95 141 l25 -11 0 -157 c0 -138 -2 -159 -18 -173 -14 -13
-45 -17 -157 -19 l-140 -3 4 -770 c4 -764 4 -771 -17 -811 -28 -55 -60 -74
-125 -74 -46 0 -59 4 -90 33 l-37 32 -10 965 c-15 1425 -14 1899 5 1944 21 50
57 71 125 71 43 0 63 -6 85 -23 45 -35 53 -72 54 -224 l1 -138 413 0 c226 0
692 -3 1035 -7 l622 -6 -2 1064 -3 1064 -845 6 c-465 4 -926 9 -1025 12 -99 4
-186 2 -193 -2 -10 -6 -13 -120 -12 -532 0 -288 3 -597 7 -686 7 -184 -2 -235
-48 -279 -39 -37 -119 -44 -166 -15 -54 34 -62 67 -65 251 l-3 165 -78 6
c-103 9 -139 38 -100 81 13 14 31 18 94 18 77 0 79 1 85 27 4 14 4 175 1 357
-4 182 -7 395 -7 474 l0 142 -315 0 -315 0 0 -486 0 -486 25 -30 c14 -16 25
-33 25 -36 0 -4 -11 -19 -25 -34 -24 -26 -25 -32 -25 -162 0 -130 -1 -136 -26
-165 -43 -51 -140 -63 -190 -22 -50 40 -49 22 -54 741 l-5 675 -999 8 c-549 4
-1005 6 -1012 3 -12 -5 -14 -178 -14 -1041 l0 -1035 1015 0 1015 0 1 153 c1
166 7 190 62 231 41 31 115 27 161 -8 20 -15 39 -39 43 -54 5 -15 8 -175 8
-357 0 -362 -1 -372 -60 -406 -43 -25 -108 -24 -149 3 -55 36 -66 71 -66 208
l0 120 -1015 0 -1015 0 0 -1079 c0 -1020 1 -1080 18 -1085 9 -3 466 -8 1015
-12 l997 -7 0 759 c1 694 2 762 18 793 43 87 159 106 228 37 31 -31 33 -93 40
-1112 6 -1021 6 -1031 -14 -1077 -26 -59 -61 -81 -128 -81 -64 0 -103 24 -121
75 -8 22 -12 112 -12 262 -1 173 -4 229 -13 232 -18 5 -548 14 -1340 21 l-688
7 0 -541 0 -542 1018 2 1017 3 7 113 c5 99 9 117 29 138 45 48 146 56 197 14
51 -42 52 -57 52 -525 0 -470 0 -472 -54 -516 -48 -40 -157 -31 -194 16 -18
23 -20 46 -24 327 -2 167 -7 309 -11 316 -7 9 -222 12 -1023 12 l-1014 0 2
-597 3 -598 205 0 c113 -1 572 4 1020 10 l815 10 3 115 c2 102 5 117 25 138
69 74 168 66 225 -18 l22 -33 0 -1019 c0 -1008 0 -1020 -20 -1048 -55 -77
-170 -79 -229 -4 -21 27 -21 30 -21 895 l0 869 -107 0 c-60 0 -521 -5 -1025
-12 l-918 -12 0 -1223 0 -1223 213 -1 c116 -1 226 -2 242 -4 23 -1 1497 -7
1578 -5 16 0 17 16 17 196 0 163 3 201 16 224 48 81 190 80 237 -1 15 -28 17
-66 17 -386 0 -311 -2 -358 -16 -383 -24 -39 -65 -60 -119 -60 -26 0 -59 7
-75 16 -49 30 -60 61 -60 176 l0 105 -212 6 c-116 4 -577 7 -1025 7 l-813 0 0
-524 c0 -289 3 -527 8 -529 4 -3 464 -2 1022 2 l1015 6 5 225 c6 254 9 265 81
294 51 21 72 20 118 -3 78 -40 71 126 71 -1744 l0 -1673 -27 -26 c-78 -74
-204 -42 -232 58 -8 27 -11 461 -11 1403 l0 1364 -472 -6 c-260 -4 -722 -7
-1025 -7 l-553 0 0 -1711 0 -1712 848 8 c466 4 928 10 1026 14 l179 6 2 125
c2 135 12 173 58 203 87 57 192 16 208 -81 4 -26 7 -179 6 -340 l-2 -294 -32
-28 c-64 -57 -165 -48 -210 19 -21 30 -23 46 -23 145 0 61 -4 117 -9 125 -7
11 -169 12 -1002 7 -547 -4 -1006 -9 -1022 -12 l-27 -6 2 -1056 3 -1057 520 4
c286 2 747 7 1025 10 l505 6 5 760 c5 826 3 789 63 825 74 45 183 7 200 -70 3
-14 9 -471 13 -1015 5 -748 4 -1000 -5 -1027 -23 -70 -102 -112 -168 -89 -90
32 -97 52 -103 301 l-5 205 -320 0 c-176 0 -638 -4 -1027 -9 l-708 -8 0 -1143
0 -1142 283 -6 c155 -4 618 -10 1030 -13 637 -6 747 -5 747 7 0 8 0 349 1 759
0 682 1 748 17 780 45 92 200 92 244 -1 15 -32 17 -188 24 -1850 l7 -1814 -21
-41 c-45 -89 -185 -102 -236 -21 -15 25 -26 653 -26 1569 0 464 -1 497 -17
502 -10 2 -476 8 -1035 12 l-1018 7 0 -1312 0 -1311 108 0 c833 -3 1955 1
1962 5 6 3 10 55 10 114 0 106 0 108 30 138 65 66 180 51 221 -29 18 -35 19
-63 19 -392 0 -306 -2 -360 -16 -389 -22 -47 -61 -67 -128 -67 -48 0 -60 4
-90 31 l-36 31 -2 221 -3 222 -1038 3 -1037 2 2 -2472 3 -2473 175 0 c96 0
563 4 1038 9 l862 9 0 221 c0 198 2 224 19 249 50 76 158 88 221 24 l30 -31 0
-464 0 -465 -36 -33 c-30 -29 -43 -34 -84 -34 -67 0 -94 13 -124 57 -25 37
-26 42 -26 207 l0 169 -537 -6 c-296 -4 -764 -10 -1040 -14 l-503 -6 0 -575 0
-575 448 6 c246 4 713 10 1039 14 l592 6 3 237 3 237 27 35 c52 68 142 72 211
10 l27 -26 0 -248 0 -248 335 0 335 0 0 144 c0 115 3 150 16 173 31 54 63 67
151 64 21 -1 43 -12 67 -35 l36 -33 0 -158 0 -158 873 6 c479 4 954 10 1055
14 l182 6 0 529 0 528 -107 1 c-60 0 -119 2 -133 4 -14 1 -440 6 -947 10
l-923 8 0 -229 c0 -210 -2 -231 -19 -258 -27 -40 -57 -55 -113 -56 -55 0 -98
22 -121 63 -15 26 -17 77 -17 489 0 511 -1 499 67 532 64 30 124 18 179 -38
17 -18 19 -39 22 -207 3 -183 4 -187 25 -193 29 -8 281 -8 301 0 14 5 16 29
16 165 0 146 2 161 20 179 11 11 29 20 40 20 11 0 29 -9 40 -20 18 -18 20 -33
20 -179 0 -130 3 -160 15 -164 8 -4 379 -9 825 -13 l810 -7 -2 549 -3 549
-415 8 c-228 5 -597 10 -820 10 l-405 2 -5 -188 c-5 -172 -7 -190 -24 -203
-25 -18 -47 -18 -72 0 -17 13 -19 31 -24 203 l-5 188 -167 3 -167 2 -3 -194
-3 -195 -28 -29 c-60 -63 -163 -62 -213 3 -24 31 -24 32 -24 308 -1 186 3 283
10 297 27 50 129 77 192 50 36 -15 2161 -31 2170 -17 4 7 8 43 8 80 0 53 5 75
21 98 36 50 145 62 194 21 11 -9 28 -33 38 -54 16 -34 17 -132 17 -1422 l0
-1386 -27 -30 c-35 -39 -75 -48 -223 -55 -63 -2 -830 -7 -1705 -10 -874 -3
-2098 -10 -2718 -14 -753 -6 -1141 -6 -1165 1 -20 6 -51 26 -69 45 l-33 34 0
14019 0 14018 29 30 c37 36 83 52 141 47 25 -2 995 -9 2155 -15z m3472 -7986
c66 -26 63 7 72 -857 4 -430 9 -1774 10 -2987 1 -1213 6 -2599 12 -3080 5
-481 11 -2142 14 -3690 3 -1548 10 -3166 15 -3595 6 -429 10 -1144 10 -1588 0
-881 2 -843 -57 -882 -44 -30 -121 -26 -165 7 -41 31 -48 56 -48 174 l0 84
-1078 0 c-698 0 -1081 -3 -1088 -10 -20 -20 -99 -23 -137 -5 -70 33 -72 41
-72 306 0 223 1 238 20 259 63 70 171 66 224 -9 16 -21 21 -44 21 -88 0 -32 3
-95 7 -140 l6 -83 1045 0 1045 0 -6 1186 c-3 652 -7 1187 -9 1189 -8 7 -975
25 -1503 27 l-580 3 -5 -885 c-4 -705 -8 -890 -18 -908 -58 -101 -232 -71
-246 42 -3 22 -8 489 -11 1036 -3 547 -8 1366 -11 1820 -6 754 -5 828 10 864
40 95 162 118 233 44 l28 -29 6 -367 c4 -202 7 -623 8 -935 1 -445 4 -568 14
-571 6 -3 431 -10 942 -16 512 -7 976 -14 1033 -17 l102 -5 -2 1383 -3 1384
-1050 0 -1050 0 -5 -255 c-5 -238 -6 -257 -25 -276 -68 -72 -194 -51 -230 38
-22 56 -23 784 0 828 24 47 66 70 127 70 45 0 60 -5 88 -29 l35 -29 5 -113 5
-114 1050 0 1050 0 -1 625 c0 344 -4 853 -8 1133 l-8 507 -1044 0 -1044 0 0
-876 0 -877 -36 -33 c-63 -60 -174 -46 -217 28 -16 27 -17 109 -17 1147 l0
1117 28 26 c56 53 107 61 170 29 66 -34 72 -55 72 -265 l0 -186 1045 0 1045 0
0 464 c0 256 -3 467 -7 469 -10 6 -1204 27 -1696 30 l-387 2 0 -103 c0 -121
-14 -160 -67 -192 -61 -36 -136 -22 -185 35 -16 18 -17 60 -18 487 l0 467 37
30 c69 57 179 36 216 -42 15 -30 17 -74 17 -306 0 -149 1 -271 3 -272 5 -1
1727 -22 1897 -23 l185 -1 -4 1705 c-2 938 -4 1706 -5 1706 0 1 -469 3 -1041
5 l-1040 4 -1 -1210 c-1 -665 -2 -1222 -3 -1236 -1 -35 -48 -84 -95 -99 -50
-16 -101 -2 -141 40 l-30 31 -9 1457 c-9 1561 -11 1503 41 1549 45 40 139 38
185 -4 40 -36 48 -78 48 -242 0 -86 4 -161 8 -168 5 -8 269 -12 1032 -13 564
-1 1031 -2 1038 -1 9 1 12 115 12 534 l0 534 -567 6 c-717 9 -1511 10 -1523 2
-6 -4 -8 -55 -4 -134 9 -178 -7 -241 -73 -278 -36 -20 -111 -16 -144 8 -61 43
-61 42 -67 514 -5 420 -4 432 16 478 44 99 164 118 237 37 19 -20 20 -39 23
-255 3 -198 6 -236 19 -247 13 -10 216 -14 1041 -16 563 -2 1028 0 1032 5 10
11 -7 1014 -18 1025 -5 5 -437 6 -1043 1 l-1034 -8 -5 -117 c-6 -131 -13 -146
-79 -168 -73 -24 -143 6 -175 74 -13 29 -16 74 -16 290 0 275 5 307 52 346 51
42 140 36 188 -13 l30 -31 0 -132 c0 -117 2 -132 18 -135 9 -2 478 -2 1042 1
l1025 5 0 535 0 535 -730 3 c-401 1 -740 0 -752 -3 -21 -5 -22 -10 -25 -161
-4 -210 23 -193 -315 -194 l-263 0 0 -57 c-1 -64 -15 -90 -68 -117 -42 -22
-87 -20 -132 5 -67 38 -70 55 -70 361 0 311 1 317 88 360 l47 23 1110 5 1110
5 5 90 c6 115 23 146 94 171 33 12 62 9 113 -12z m-3239 -14497 c12 -6 32 -25
42 -43 20 -31 20 -59 20 -1710 l0 -1679 -26 -28 c-48 -52 -122 -62 -181 -26
-68 42 -63 -95 -63 1753 l0 1676 28 31 c40 45 117 57 180 26z"/>
    <path d="M13623 20693 c-10 -3 -13 -38 -13 -124 l0 -119 225 0 225 0 2 23 c6
95 3 213 -6 219 -12 8 -414 9 -433 1z"/>
  </g>
</svg>
