<?xml version="1.0" encoding="UTF-8" standalone="no"?>
<!-- Created with Inkscape (http://www.inkscape.org/) -->

<svg
   width="3554.1729"
   height="766.11584"
   viewBox="0 0 940.37487 202.70148"
   version="1.1"
   id="svg1"
   xml:space="preserve"
   xmlns="http://www.w3.org/2000/svg"
   xmlns:svg="http://www.w3.org/2000/svg"><defs
     id="defs1" /><g
     id="layer1"
     transform="translate(-52.484537,-336.10273)"><path
       style="fill:#000000;stroke-width:3.17361"
       d="m 179.7908,336.82811 c 90.80697,0.43941 113.78287,0.76598 114.8266,1.63218 2.80328,2.32655 0.94583,5.91538 -3.06157,5.91538 h -2.3511 l -0.20088,28.75913 c -0.27072,38.75799 -0.21487,43.5838 0.53072,45.6375 0.43459,1.19741 0.19549,2.20897 -0.7444,3.14883 -1.15199,1.15198 -3.32198,1.38471 -12.91235,1.38471 -12.19537,0 -13.54287,-0.38976 -13.54287,-3.91698 0,-2.85664 2.43004,-3.64017 11.28961,-3.64017 h 8.04131 l -0.21898,-35.47661 -0.21898,-35.47657 -38.43332,-0.21835 -38.43329,-0.21835 0.46442,27.08827 c 0.25546,14.89852 0.67768,30.96127 0.9383,35.69498 l 0.47389,8.60675 h 22.84255 c 16.64681,0 23.11583,0.27326 23.85014,1.00763 1.54259,1.54258 1.19896,4.70868 -0.61653,5.6803 -1.03045,0.55148 -12.31942,0.86921 -30.88143,0.86921 -25.12113,0 -29.52111,-0.18471 -31.12346,-1.30714 -2.19731,-1.53905 -2.37108,-3.10613 -0.54673,-4.93051 0.95141,-0.95138 2.9803,-1.31949 7.27292,-1.31949 h 5.95343 l -0.55544,-26.58693 c -0.30562,-14.62283 -0.55548,-30.68176 -0.55548,-35.68651 v -9.09957 h -16.79363 -16.79366 l 0.003,26.24008 c 0.002,14.43203 0.24882,30.49097 0.54815,35.68651 l 0.5443,9.44642 4.28005,0.0127 c 2.35404,0.006 4.68548,0.2904 5.18098,0.62977 1.59614,1.09292 1.9532,3.35097 0.78178,4.94361 -1.07603,1.46295 -2.80198,1.54083 -30.38083,1.37104 -16.08198,-0.0991 -30.09015,-0.38959 -31.12926,-0.64577 -2.09746,-0.51703 -2.60644,-3.57909 -0.88169,-5.30388 0.7365,-0.7365 7.43799,-1.00762 24.90606,-1.00762 h 23.89845 l -0.52383,-35.37522 c -0.28817,-19.45635 -0.63243,-35.47088 -0.76519,-35.58783 -0.13266,-0.1171 -15.82794,-0.37757 -34.87826,-0.57908 l -34.63688,-0.36647 0.004,26.50788 c 0.002,14.57931 0.24787,30.7428 0.546124,35.91878 l 0.542317,9.41098 5.453919,0.24531 c 6.19097,0.27864 8.15578,1.80236 6.25289,4.84937 -0.57392,0.91898 -1.04349,3.18743 -1.04349,5.04102 0,4.54376 -2.30476,4.73423 -2.6783,0.2212 l -0.26006,-3.1488 -12.505909,-0.41985 c -10.712402,-0.35962 -12.638486,-0.63058 -13.430627,-1.8893 -0.672776,-1.06905 -0.672994,-1.86982 -8.6e-4,-2.93887 0.733011,-1.16583 2.337021,-1.51985 7.762797,-1.71335 l 6.838864,-0.24373 v -19.56356 c 0,-10.75998 -0.248807,-26.99255 -0.552897,-36.07238 l -0.55309,-16.50883 H 75.657851 59.702625 l 0.554141,20.28836 c 0.304667,11.15859 0.554142,27.16838 0.554142,35.57731 v 15.28897 l 3.937465,0.44379 c 3.555355,0.40073 6.138734,2.11503 6.138734,4.07352 0,1.74447 -2.953709,3.25825 -6.35759,3.25825 h -3.718609 v 13.01506 13.01509 h 4.030475 c 4.44238,0 6.045724,1.0388 6.045724,3.91695 0,2.41022 -2.284107,3.64018 -6.760187,3.64018 -3.232167,0 -3.471546,0.15043 -3.005565,1.88929 0.278326,1.0391 0.511486,18.04269 0.517801,37.78572 l 0.01272,35.89644 h 15.953967 15.953956 v -37.78572 -37.78573 h -5.690935 c -7.984849,0 -11.57673,-2.76473 -8.103823,-6.23765 1.073215,-1.07323 3.502297,-1.31948 13.015071,-1.31948 H 104.4757 v -2.93889 c 0,-2.05256 0.37984,-2.93887 1.25951,-2.93887 0.85481,0 1.25954,0.85561 1.25954,2.66283 0,1.46456 0.61155,3.33862 1.35902,4.16457 1.80343,1.99279 0.92626,5.40968 -1.55976,6.07586 -1.04418,0.27991 -3.93494,0.51386 -6.42395,0.52019 l -4.525446,0.0127 0.40701,37.37589 c 0.223737,20.55673 0.635584,37.6044 0.914894,37.8837 0.279267,0.27929 24.898502,0.22662 54.709292,-0.11745 l 54.20146,-0.62507 v -37.2586 -37.25863 h -43.05682 c -37.61078,0 -43.29286,-0.16533 -44.92301,-1.30713 -2.19728,-1.53905 -2.37106,-3.10614 -0.54669,-4.93052 1.17081,-1.1708 7.11294,-1.31949 52.73204,-1.31949 38.868,0 51.65844,0.24596 52.42021,1.00762 1.54258,1.5426 1.19895,4.70868 -0.61654,5.68032 -0.89331,0.47805 -4.10509,0.8692 -7.13731,0.8692 H 209.436 l -0.001,10.2861 c -7.7e-4,5.65736 -0.25073,22.47203 -0.55556,37.3659 l -0.55414,27.07975 h 17.76905 17.76903 V 493.4204 456.05451 h -4.61825 c -3.55311,0 -5.01979,-0.40151 -6.35918,-1.74091 -1.56728,-1.5673 -1.6199,-1.92319 -0.52734,-3.56866 1.13193,-1.70472 1.87794,-1.82773 11.08494,-1.82773 9.20698,0 9.95302,0.12313 11.08493,1.82773 1.09254,1.64547 1.03995,2.00136 -0.52737,3.56866 -1.09822,1.09824 -2.82584,1.74091 -4.6798,1.74091 h -2.93887 l 0.003,26.65992 c 0.002,14.66297 0.24913,31.47761 0.54944,37.36589 l 0.54602,10.70594 h 17.08389 17.08392 V 493.42039 456.0545 h -7.61228 c -8.44074,0 -10.86068,-0.81112 -10.86068,-3.64018 0,-3.67218 1.11585,-3.91696 17.85647,-3.91696 16.33911,0 19.08955,0.47953 19.08955,3.32829 0,3.15386 -2.25647,4.22885 -8.87663,4.22885 h -6.23766 v 37.36589 37.36586 h 17.63334 17.63334 V 493.42039 456.0545 h -4.67346 c -2.57038,0 -5.40432,-0.39115 -6.29762,-0.8692 -1.8155,-0.97164 -2.15913,-4.13772 -0.61655,-5.68032 1.45544,-1.45541 101.4897,-1.45541 102.94511,0 1.5426,1.5426 1.19897,4.70868 -0.61653,5.68032 -1.05878,0.56661 -16.55136,0.8692 -44.50319,0.8692 h -42.87901 v 37.50185 37.50187 l 29.10624,-0.55583 c 16.00845,-0.30562 39.62845,-0.55582 52.489,-0.55582 h 23.38271 l -0.21866,-36.73612 -0.21867,-36.7361 -2.51903,-0.28023 c -2.74228,-0.30499 -5.45793,-2.28951 -5.45793,-3.98841 0,-0.58818 0.59379,-1.66318 1.31948,-2.38893 1.16277,-1.16277 6.09225,-1.31948 41.50433,-1.31948 35.41206,0 40.34153,0.15677 41.50429,1.31948 1.73,1.73001 1.66698,3.14387 -0.21611,4.84802 -1.37837,1.24737 -5.20373,1.38964 -37.36589,1.38964 h -35.83031 v 36.94602 36.94604 h 43.66349 43.66353 v -36.51491 -36.51495 l -2.93889,-1.22792 c -2.17718,-0.90969 -2.93892,-1.73961 -2.93892,-3.20206 0,-3.39018 1.48388,-3.98936 9.8795,-3.98936 8.80677,0 11.1126,0.78404 11.1126,3.77856 0,2.71266 -2.23471,3.77858 -7.9218,3.77858 h -4.67344 v 37.0731 37.07312 l 34.89934,-0.4595 c 19.19465,-0.25263 35.06183,-0.62197 35.26033,-0.82051 0.19867,-0.19835 0.11335,-16.67466 -0.18914,-36.61358 l -0.55024,-36.25266 h -22.88588 c -12.58721,0 -23.49402,-0.23324 -24.23737,-0.51861 -2.46869,-0.94733 -3.28966,-3.62988 -1.66148,-5.42899 1.38702,-1.53266 2.98634,-1.60953 33.48627,-1.60953 33.87556,0 34.04497,0.019 34.04497,3.91695 0,2.74524 -2.39029,3.64018 -9.72258,3.64018 h -6.47391 l 0.53529,5.66787 c 0.29452,3.11731 0.53798,19.5541 0.54129,36.52619 l 0.006,30.85835 h 19.31134 19.3127 V 492.58058 456.0544 h -6.23765 c -4.55101,0 -6.59443,-0.35679 -7.55714,-1.3195 -1.67479,-1.67482 -1.67479,-3.2433 0,-4.91816 1.95736,-1.95731 29.83067,-1.95731 31.78799,0 3.55414,3.55417 -0.11298,6.23766 -8.52366,6.23766 h -6.11081 v 36.52618 36.52623 h 18.47304 18.47301 V 492.58058 456.0544 h -4.9781 c -3.40602,0 -5.39485,-0.4167 -6.29765,-1.3195 -1.80131,-1.80129 -1.65849,-4.31777 0.30467,-5.36842 2.45452,-1.31362 66.58022,-1.18293 67.90156,0.13838 1.5426,1.54259 1.19895,4.70866 -0.61652,5.68031 -1.02013,0.54591 -11.3758,0.86921 -27.844,0.86921 h -26.21967 l 0.55245,20.78214 c 0.30404,11.43019 0.55329,27.87069 0.5543,36.5345 l 10e-4,15.75235 39.25516,-0.21834 39.25516,-0.21835 V 492.5803 456.47397 l -6.71745,-0.41984 c -3.69461,-0.23104 -7.18979,-0.72556 -7.76707,-1.09918 -1.33472,-0.86383 -1.35989,-4.13244 -0.042,-5.45035 1.4476,-1.44761 67.91018,-1.44761 69.35778,0 1.54263,1.5426 1.19895,4.70868 -0.61653,5.68031 -1.01458,0.54297 -10.94545,0.86922 -26.45891,0.86922 h -24.83479 l 0.21899,36.31628 0.21898,36.31627 13.64484,-0.0127 c 7.50465,-0.006 50.29699,-0.10121 95.09406,-0.20977 l 81.44922,-0.19804 V 492.15984 456.0535 h -10.4954 c -9.50015,0 -10.66122,-0.16535 -12.23694,-1.74093 -1.56719,-1.56717 -1.61983,-1.92333 -0.52767,-3.56865 1.20294,-1.81218 1.46417,-1.82962 30.70998,-2.04839 l 29.49671,-0.22058 v -11.74483 -11.74483 h -4.63625 c -4.11569,0 -4.74241,-0.23294 -5.58142,-2.07435 -1.47065,-3.22775 0.26754,-4.64312 5.7022,-4.64312 h 4.51547 v -35.26668 -35.26667 h -20.15238 -20.1524 l 0.002,17.84328 c 0.001,9.81376 0.24913,25.46378 0.55091,34.77778 l 0.54868,16.93454 9.59461,0.27897 c 8.33869,0.24245 9.75041,0.49231 10.78483,1.90887 1.50787,2.06495 1.49238,2.56618 -0.12917,4.18787 -1.06656,1.06655 -3.44889,1.31951 -12.4273,1.31951 -7.51982,0 -11.43329,-0.32548 -12.11541,-1.00761 -1.22227,-1.22225 -1.32862,-4.57269 -0.1679,-5.29002 0.46401,-0.28689 0.83971,-4.07166 0.83971,-8.45981 v -7.94083 l -19.10278,0.54947 c -10.50654,0.30214 -19.20481,0.6307 -19.32952,0.72997 -0.12471,0.0994 -0.46407,3.25876 -0.7542,7.0211 l -0.52751,6.84063 h 13.97922 c 12.85964,0 14.11372,0.13456 15.6586,1.67935 2.02475,2.02475 2.0883,2.82984 0.35985,4.55828 -1.11317,1.11316 -3.99398,1.3195 -18.42347,1.3195 -11.44142,0 -17.29128,-0.30307 -17.66976,-0.9155 -0.31133,-0.50356 -0.50201,-17.88497 -0.424,-38.62543 l 0.14187,-37.70989 h -5.4434 c -3.82895,0 -5.83471,-0.39132 -6.76289,-1.31947 -1.82147,-1.82149 -1.65165,-4.32144 0.367,-5.40179 1.15639,-0.61888 17.88843,-0.86958 53.23526,-0.79759 43.89709,0.0894 51.81064,0.28848 53.31276,1.34049 l 1.76391,1.23553 v 94.70636 c 0,93.46186 -0.022,94.72624 -1.66991,96.21767 -1.59777,1.44593 -18.12345,1.57531 -382.26555,2.99232 -209.32758,0.81457 -419.00688,1.67777 -465.95401,1.91822 -67.040175,0.34337 -85.663207,0.21423 -86.778728,-0.60139 -1.861377,-1.36107 -1.846466,-0.7682 -2.455701,-97.50539 -0.276423,-43.87342 -0.726439,-84.54761 -1.000255,-90.38709 -0.470138,-10.02652 -0.399457,-10.71561 1.270241,-12.38532 1.462078,-1.46207 2.676425,-1.74214 7.016098,-1.61809 2.886435,0.0826 56.332825,0.39719 118.769835,0.69927 z m 724.06162,36.93644 v 26.03017 h 19.31272 19.31271 v -26.03017 -26.03016 h -19.31271 -19.31272 z m 47.86192,118.39525 v 36.10634 H 968.508 985.30167 V 492.1598 456.05347 H 968.508 951.71434 Z M 478.97301,338.25611 c 362.09483,1.76524 384.83676,1.93303 385.93812,2.84707 1.89257,1.57072 1.42022,4.89281 -0.81665,5.74324 -1.91974,0.7299 -1.98787,1.10657 -2.56162,14.16216 -0.32419,7.3768 -0.52812,24.45755 -0.45316,37.95726 0.11044,19.90573 -0.08,24.68184 -1.00702,25.2693 -0.62881,0.39837 -9.27759,0.73013 -19.21954,0.73719 -15.01615,0.009 -18.39217,-0.20852 -19.94246,-1.29426 -2.19729,-1.53905 -2.37105,-3.10618 -0.5467,-4.93052 1.10581,-1.10581 3.87172,-1.31949 17.07859,-1.31949 h 15.75908 l 0.55474,-22.80786 c 0.30529,-12.54431 0.55478,-28.16732 0.55478,-34.7178 v -11.90993 l -10.20803,-0.54888 c -5.61443,-0.3018 -16.76119,-0.54886 -24.77064,-0.54886 h -14.56263 v 35.26666 35.26667 h 2.03924 c 2.25027,0 4.67823,1.98211 4.67823,3.81918 0,0.64911 -0.91448,1.77937 -2.03214,2.51171 -1.71165,1.12151 -4.50373,1.29012 -17.70262,1.06898 -14.37348,-0.24088 -15.76894,-0.39747 -16.8607,-1.89252 -1.50794,-2.06493 -1.49244,-2.56618 0.12916,-4.18786 1.08046,-1.08045 3.56664,-1.31949 13.7226,-1.31949 h 12.40309 l 0.59292,-34.44099 c 0.32612,-18.94255 0.36328,-34.81256 0.0826,-35.26668 -0.32709,-0.52925 -23.14677,-0.82566 -63.5645,-0.82566 h -63.05424 l 0.54607,34.50497 c 0.30024,18.97773 0.75793,34.84774 1.01683,35.26668 0.27198,0.43988 18.82469,0.76168 43.91677,0.76168 32.67174,0 43.6959,0.24977 44.45361,1.00762 1.31794,1.31794 1.29275,4.58729 -0.0418,5.44748 -1.58285,1.0201 -109.98374,0.27359 -111.25795,-0.76613 -0.57728,-0.47108 -1.04962,-1.76424 -1.04962,-2.87369 0,-2.82898 2.76394,-3.65498 12.23007,-3.65498 h 7.92232 v -15.53413 -15.53411 h -9.18693 c -5.8348,0 -9.39749,-0.34066 -9.76396,-0.93358 -1.07911,-1.74603 1.72267,-2.3994 10.34414,-2.4123 l 8.60675,-0.0127 v -17.54232 -17.54228 l -15.32422,-0.60084 c -8.4283,-0.33045 -16.26884,-0.4659 -17.42339,-0.30083 l -2.09921,0.2999 v 18.05317 18.05316 l 1.91586,0.0964 c 1.0537,0.053 2.13067,0.31135 2.39322,0.57389 0.92758,0.92759 -0.65614,2.26846 -2.67927,2.26846 h -2.04967 v 15.42682 15.4268 l 3.33223,0.53286 c 2.04124,0.3264 3.66784,1.15988 4.19843,2.15131 1.12082,2.09426 1.10718,2.20762 -0.45332,3.76811 -1.94281,1.94279 -24.80708,1.94279 -26.74989,0 -3.77564,-3.77563 0.0857,-6.23765 9.78321,-6.23765 h 7.37032 v -35.28213 -35.28216 l -19.52263,0.22532 -19.52265,0.22534 -0.21898,35.05674 -0.2193,35.05673 h 6.30682 c 5.26161,0 6.59539,0.28847 8.04775,1.74091 1.56681,1.56681 1.61965,1.92374 0.52857,3.56866 -1.14825,1.73107 -1.91768,1.84042 -14.54609,2.06777 -7.33355,0.13204 -14.15869,0.0368 -15.16703,-0.21199 -2.53622,-0.62519 -3.30414,-3.52063 -1.47093,-5.54628 1.19381,-1.31916 2.60813,-1.6192 7.63282,-1.6192 h 6.16747 v -35.26667 -35.26668 h -36.94082 -36.94078 l 0.35217,1.88931 c 0.19359,1.0391 0.38026,16.90909 0.41457,35.26668 l 0.0625,33.37736 h 23.56632 c 14.63909,0 24.18156,0.32929 25.19047,0.86921 2.11346,1.13111 2.11346,4.68761 0,5.81872 -1.06588,0.57045 -18.31936,0.86922 -50.19412,0.86922 -42.6006,0 -48.7993,-0.16059 -50.43615,-1.30716 -2.05323,-1.43811 -2.42048,-3.68048 -0.85858,-5.24237 0.73706,-0.73704 7.50115,-1.00762 25.19047,-1.00762 h 24.18286 v -35.14249 -35.14246 l -37.04507,-0.61295 c -20.37477,-0.33713 -37.28387,-0.29864 -37.5758,0.0857 -0.29195,0.3843 -0.4205,16.47421 -0.28561,35.75543 l 0.24501,35.05675 h 7.12026 c 6.80773,0 7.16286,0.0936 8.09085,2.13021 0.80248,1.76126 0.72135,2.37941 -0.46824,3.56866 -1.31942,1.31907 -4.13663,1.41403 -33.94612,1.14437 -21.3067,-0.19263 -32.88359,-0.60197 -33.59939,-1.18767 -0.60061,-0.49146 -0.97849,-1.87054 -0.83969,-3.06464 0.24026,-2.0669 0.52439,-2.18299 5.92025,-2.41937 l 5.66786,-0.24817 v -2.86044 -2.86045 l -5.18138,-0.25009 c -3.20822,-0.15487 -5.31336,-0.64969 -5.52792,-1.29959 -0.19073,-0.57728 0.11552,-1.0496 0.68049,-1.0496 0.56483,0 1.54098,-0.66125 2.16916,-1.46944 1.08778,-1.39947 1.19657,-1.39947 2.28436,0 1.3981,1.79869 5.21692,1.93505 5.87894,0.20976 0.26595,-0.69273 1.06194,-1.2595 1.76918,-1.2595 0.70725,0 1.2859,0.56677 1.2859,1.2595 0,1.00762 1.25953,1.25955 6.29763,1.25955 5.03808,0 6.2976,0.25199 6.2976,1.25951 0,1.00762 -1.25952,1.25954 -6.2976,1.25954 h -6.29763 v 2.93888 2.93889 h 17.63333 17.63334 v -2.90053 -2.90051 l -5.66788,-0.24818 c -3.11729,-0.13647 -5.66783,-0.62612 -5.66783,-1.08797 0,-0.46182 2.55054,-0.95138 5.66783,-1.08794 l 5.66788,-0.24817 v -31.44973 -31.44974 h -17.63334 -17.63333 v 24.21085 c 0,13.31597 -0.15616,24.3683 -0.34718,24.56072 -0.19104,0.19232 -2.66804,0.22088 -5.50466,0.0631 -4.258,-0.23676 -5.11091,-0.52908 -4.89012,-1.67547 0.20216,-1.04962 1.01282,-1.32441 3.32067,-1.12559 1.67931,0.14471 3.23885,-0.0461 3.46563,-0.42373 0.22692,-0.37773 0.68922,-10.79445 1.02752,-23.1483 l 0.61513,-22.4615 h -18.16642 -18.16642 l 0.22025,31.27817 0.22026,31.2782 5.7246,0.24943 c 7.65779,0.33386 7.26102,2.1718 -0.54351,2.51775 -5.5253,0.245 -5.60094,0.28023 -5.60094,2.61616 0,2.3313 0.0905,2.37433 5.86551,2.78754 6.08063,0.43506 8.40908,1.52583 8.40908,3.93926 0,3.01763 -1.70133,3.42385 -14.33971,3.42385 -13.38128,0 -14.90009,-0.49273 -13.8926,-4.50703 0.56393,-2.24694 2.57034,-3.02162 7.87002,-3.03867 l 3.56866,-0.0127 v -35.2666 -35.26667 h -17.21342 -17.2135 v 25.19049 25.19047 h 5.8778 5.87777 v 3.35873 c 0,2.42574 -0.34986,3.35874 -1.25954,3.35874 -0.78369,0 -1.25951,-0.79303 -1.25951,-2.09919 0,-1.98471 -0.252,-2.09922 -4.61825,-2.09922 h -4.61827 v 8.89202 8.89206 l 5.83715,-0.26976 c 4.86552,-0.22469 6.22569,0.019 8.1714,1.47312 2.12132,1.5838 2.24157,1.94619 1.31814,3.97286 -1.00433,2.20432 -1.1157,2.22993 -9.64083,2.21723 -4.74361,-0.006 -9.04433,-0.29037 -9.55719,-0.62977 -0.51286,-0.3393 -1.55195,-1.82618 -2.3091,-3.30416 -1.21214,-2.36605 -1.37671,-6.95816 -1.37671,-38.41549 v -35.72822 h -2.46438 c -4.16573,0 -6.77212,-1.40669 -6.77212,-3.65496 0,-4.38448 -10.65111,-4.17492 167.93653,-3.30428 z m 437.30673,111.24782 c 1.5426,1.5426 1.19893,4.70867 -0.61656,5.68031 -1.0635,0.56916 -17.6848,0.86923 -48.15162,0.86923 -44.00862,0 -46.60268,-0.0832 -47.91708,-1.53559 -1.73496,-1.91708 -1.75142,-3.02082 -0.0702,-4.70208 1.16824,-1.16823 6.73129,-1.31949 48.53366,-1.31949 35.60255,0 47.46197,0.24787 48.22179,1.00762 z"
       id="path2" /></g></svg>
