<?xml version="1.0" standalone="no"?>
<!DOCTYPE svg PUBLIC "-//W3C//DTD SVG 20010904//EN"
 "http://www.w3.org/TR/2001/REC-SVG-20010904/DTD/svg10.dtd">
<svg version="1.0" xmlns="http://www.w3.org/2000/svg"
 width="3000.000000pt" height="3000.000000pt" viewBox="0 0 3000.000000 3000.000000"
 preserveAspectRatio="xMidYMid meet">

<g transform="translate(0.000000,3000.000000) scale(0.100000,-0.100000)"
fill="#000000" stroke="none">
<path d="M0 15000 l0 -15000 15000 0 15000 0 0 15000 0 15000 -15000 0 -15000
0 0 -15000z m28940 1023 c39 -35 48 -75 55 -223 2 -63 7 -830 10 -1705 3 -874
10 -2098 14 -2718 6 -753 6 -1141 -1 -1165 -6 -20 -26 -51 -45 -69 l-34 -33
-14019 0 -14018 0 -30 29 c-34 35 -57 106 -48 153 3 18 10 983 16 2143 6 1161
14 2408 18 2772 l7 663 33 32 32 33 803 6 c441 4 1081 9 1422 12 341 4 1640 8
2886 9 2254 3 2267 3 2289 -17 70 -63 66 -171 -9 -224 -25 -18 -44 -21 -126
-21 l-97 0 6 -727 c3 -401 9 -875 12 -1056 6 -315 5 -329 -14 -380 -12 -28
-26 -72 -32 -96 -7 -26 -24 -55 -43 -72 l-31 -29 -296 0 c-264 1 -297 2 -315
18 -41 34 -55 65 -55 119 0 47 4 56 38 93 l39 40 243 0 243 0 -7 223 c-3 122
-9 590 -12 1040 l-7 817 -588 0 -589 0 0 -1040 0 -1040 170 0 c135 0 176 -3
203 -16 47 -22 67 -61 67 -127 0 -49 -4 -60 -34 -91 l-33 -36 -479 0 c-532 1
-501 -3 -538 68 -22 42 -20 87 5 132 37 65 60 70 308 70 190 0 220 2 225 16 8
21 7 2012 -1 2043 l-6 24 -1511 -7 c-1390 -6 -1699 -10 -1733 -21 -10 -4 -13
-187 -13 -875 l0 -870 89 0 c82 0 91 -2 105 -22 22 -31 20 -54 -6 -78 -18 -17
-35 -20 -104 -20 l-83 0 -6 -42 c-4 -24 -5 -68 -3 -98 l3 -55 375 -3 c206 -1
385 0 398 3 22 5 23 9 20 98 l-3 92 -112 5 c-144 6 -173 26 -141 95 l11 25
157 0 c138 0 159 -2 173 -18 13 -14 17 -45 19 -157 l3 -140 770 4 c764 4 771
4 811 -17 55 -28 74 -60 74 -125 0 -46 -4 -59 -32 -90 l-33 -37 -965 -10
c-1425 -15 -1899 -14 -1944 5 -50 21 -71 57 -71 125 0 43 6 63 23 85 35 45 72
53 225 54 l137 1 0 413 c0 226 3 692 7 1035 l6 622 -1064 -2 -1064 -3 -6 -845
c-4 -465 -9 -926 -12 -1025 -4 -99 -2 -186 2 -193 6 -10 120 -13 532 -12 288
0 597 3 686 7 184 7 235 -2 279 -48 37 -39 44 -119 15 -166 -34 -54 -67 -62
-251 -65 l-165 -3 -6 -78 c-9 -103 -38 -139 -81 -100 -14 13 -18 31 -18 94 0
77 -1 79 -27 85 -14 4 -175 4 -357 1 -182 -4 -395 -7 -473 -7 l-143 0 0 -315
0 -315 486 0 486 0 30 25 c16 14 33 25 36 25 4 0 19 -11 34 -25 26 -24 32 -25
162 -25 130 0 136 -1 165 -26 51 -43 63 -140 22 -190 -40 -50 -22 -49 -741
-54 l-675 -5 -8 -999 c-4 -549 -6 -1005 -3 -1012 5 -12 178 -14 1041 -14
l1035 0 0 1015 0 1015 -152 1 c-167 1 -191 7 -232 62 -31 41 -27 115 8 161 15
20 39 39 54 43 15 5 176 8 357 8 362 0 372 -1 406 -60 25 -43 24 -108 -3 -149
-36 -55 -71 -66 -208 -66 l-120 0 0 -1015 0 -1015 1079 0 c1020 0 1080 1 1085
18 3 9 8 466 12 1015 l7 997 -759 0 c-694 1 -762 2 -793 18 -87 43 -106 159
-37 228 31 31 93 33 1112 40 1021 6 1031 6 1077 -14 59 -26 81 -61 81 -128 0
-64 -24 -103 -75 -121 -22 -8 -112 -12 -262 -12 -173 -1 -229 -4 -232 -13 -5
-18 -14 -548 -21 -1340 l-7 -688 541 0 542 0 -2 1018 -3 1017 -113 7 c-99 5
-117 9 -138 29 -48 45 -56 146 -14 197 42 51 57 52 525 52 470 0 472 0 516
-54 40 -48 31 -157 -16 -194 -23 -18 -46 -20 -327 -24 -167 -2 -309 -7 -315
-11 -10 -7 -13 -222 -13 -1023 l0 -1014 597 2 598 3 0 205 c1 113 -4 572 -10
1020 l-10 815 -115 3 c-102 2 -117 5 -138 25 -74 69 -66 168 18 225 l33 22
1019 0 c1008 0 1020 0 1048 -20 77 -55 79 -170 4 -229 -27 -21 -30 -21 -895
-21 l-869 0 0 -107 c0 -60 5 -521 12 -1025 l12 -918 1223 0 1223 0 1 213 c1
116 2 226 4 242 1 23 7 1497 5 1578 0 16 -16 17 -196 17 -163 0 -201 3 -224
16 -81 48 -80 190 1 237 28 15 66 17 386 17 389 0 391 0 427 -60 21 -36 21
-114 0 -150 -30 -49 -61 -60 -176 -60 l-105 0 -6 -212 c-4 -116 -7 -577 -7
-1025 l0 -813 524 0 c289 0 527 3 529 8 3 4 2 464 -2 1022 l-6 1015 -225 5
c-254 6 -265 9 -294 81 -21 51 -20 72 3 118 40 78 -126 71 1744 71 l1673 0 26
-27 c74 -78 42 -204 -58 -232 -27 -8 -461 -11 -1403 -11 l-1364 0 6 -472 c4
-260 7 -722 7 -1025 l0 -553 1711 0 1712 0 -8 848 c-4 466 -10 928 -14 1026
l-6 179 -125 2 c-135 2 -173 12 -203 58 -57 87 -16 192 81 208 26 4 179 7 340
6 l294 -2 28 -32 c57 -64 48 -165 -19 -210 -30 -21 -46 -23 -145 -23 -61 0
-117 -4 -125 -9 -11 -7 -12 -169 -7 -1002 4 -547 9 -1006 12 -1022 l6 -27
1056 2 1057 3 -4 520 c-2 286 -7 747 -10 1025 l-6 505 -760 5 c-826 5 -789 3
-825 63 -45 74 -7 183 70 200 14 3 471 9 1015 13 748 5 1000 4 1027 -5 70 -23
112 -102 89 -168 -32 -90 -52 -97 -301 -103 l-205 -5 0 -320 c0 -176 4 -638 9
-1027 l8 -708 1143 0 1142 0 6 283 c4 155 10 618 13 1030 6 637 5 747 -7 747
-8 0 -349 0 -759 1 -682 0 -748 1 -780 17 -92 45 -92 200 1 244 32 15 188 17
1850 24 l1814 7 41 -21 c89 -45 102 -185 21 -236 -25 -15 -653 -26 -1569 -26
-464 0 -497 -1 -502 -17 -2 -10 -8 -476 -12 -1035 l-7 -1018 1312 0 1311 0 0
108 c3 833 -1 1955 -5 1962 -3 6 -55 10 -114 10 -106 0 -108 0 -138 30 -66 65
-51 180 29 221 35 18 63 19 392 19 306 0 360 -2 389 -16 47 -22 67 -61 67
-128 0 -48 -4 -60 -31 -90 l-31 -36 -221 -2 -222 -3 -3 -1038 -2 -1037 2472 2
2473 3 0 175 c0 96 -4 563 -9 1038 l-9 862 -221 0 c-198 0 -224 2 -249 19 -76
50 -88 158 -24 221 l31 30 464 0 465 0 33 -36 c29 -30 34 -43 34 -84 0 -67
-13 -94 -57 -124 -37 -25 -42 -26 -207 -26 l-169 0 6 -537 c4 -296 10 -764 14
-1040 l6 -503 575 0 575 0 -6 448 c-4 246 -10 713 -14 1039 l-6 592 -237 3
-237 3 -35 27 c-68 52 -72 142 -10 211 l26 27 248 0 248 0 0 335 0 335 -144 0
c-115 0 -150 3 -173 16 -54 31 -67 63 -64 151 1 21 12 43 35 67 l33 36 158 0
158 0 -6 873 c-4 479 -10 954 -14 1055 l-6 182 -529 0 -528 0 -1 -107 c0 -60
-2 -119 -4 -133 -1 -14 -6 -440 -10 -947 l-8 -923 229 0 c210 0 231 -2 258
-19 40 -27 55 -57 56 -113 0 -55 -22 -98 -63 -121 -26 -15 -77 -17 -489 -17
-511 0 -499 -1 -532 67 -30 64 -18 124 38 179 18 17 39 19 207 22 183 3 187 4
193 25 8 29 8 281 0 301 -5 14 -29 16 -165 16 -146 0 -161 2 -179 20 -11 11
-20 29 -20 40 0 11 9 29 20 40 18 18 33 20 179 20 130 0 160 3 164 15 4 8 9
379 13 825 l7 810 -549 -2 -549 -3 -8 -415 c-5 -228 -10 -597 -10 -820 l-2
-405 188 -5 c172 -5 190 -7 203 -24 8 -11 14 -27 14 -36 0 -9 -6 -25 -14 -36
-13 -17 -31 -19 -203 -24 l-188 -5 -3 -167 -2 -167 194 -3 195 -3 29 -28 c63
-60 62 -163 -3 -213 -31 -24 -32 -24 -308 -24 -186 -1 -283 3 -297 10 -50 27
-77 129 -50 192 15 36 31 2161 17 2170 -7 4 -43 8 -80 8 -85 0 -121 22 -137
82 -22 78 3 138 70 170 32 16 135 18 1422 18 l1388 0 30 -27z m-3481 3 c69
-36 89 -142 39 -208 -31 -41 -56 -48 -174 -48 l-84 0 0 -1078 c0 -698 3 -1081
10 -1088 20 -20 23 -99 5 -137 -33 -70 -41 -72 -306 -72 -223 0 -238 1 -259
20 -70 63 -66 171 9 224 21 16 44 21 88 21 32 0 95 3 141 7 l82 6 0 1045 0
1045 -1186 -6 c-652 -3 -1187 -7 -1189 -9 -7 -8 -25 -975 -27 -1503 l-3 -580
885 -5 c705 -4 890 -8 908 -18 101 -58 71 -232 -42 -246 -22 -3 -489 -8 -1036
-11 -547 -3 -1366 -8 -1820 -11 -754 -6 -828 -5 -864 10 -95 40 -118 162 -44
233 l29 28 367 6 c202 4 623 7 935 8 445 1 568 4 571 14 3 6 10 431 16 942 7
512 14 976 17 1033 l5 102 -1383 -2 -1384 -3 0 -1050 0 -1050 255 -5 c238 -5
257 -6 276 -25 72 -68 51 -194 -38 -230 -56 -22 -784 -23 -828 0 -47 24 -70
66 -70 127 0 45 5 60 29 88 l29 35 113 5 114 5 0 1050 0 1050 -625 -1 c-344 0
-853 -4 -1132 -8 l-508 -8 0 -1044 0 -1044 876 0 877 0 33 -36 c60 -63 46
-174 -28 -217 -27 -16 -109 -17 -1147 -17 l-1117 0 -26 28 c-53 56 -61 107
-29 170 34 66 55 72 265 72 l186 0 0 1045 0 1045 -464 0 c-256 0 -467 -3 -469
-7 -6 -10 -27 -1204 -30 -1696 l-2 -387 103 0 c121 0 160 -14 192 -67 36 -61
22 -136 -35 -185 -18 -16 -60 -17 -487 -18 l-467 0 -30 37 c-57 69 -36 179 42
216 30 15 74 17 306 17 149 0 271 1 272 3 1 5 22 1727 23 1897 l1 185 -1705
-4 c-938 -2 -1706 -4 -1706 -5 -1 0 -3 -469 -5 -1041 l-4 -1040 1210 -1 c666
-1 1222 -2 1236 -3 36 -1 85 -49 99 -97 16 -52 2 -99 -41 -140 l-30 -29 -1457
-9 c-1561 -9 -1503 -11 -1549 41 -40 45 -38 139 4 185 36 40 78 48 242 48 86
0 161 4 168 8 8 5 12 269 13 1032 1 564 2 1031 1 1038 -1 9 -115 12 -534 12
l-534 0 -6 -567 c-9 -717 -10 -1511 -2 -1523 4 -6 55 -8 134 -4 178 9 241 -7
278 -73 20 -36 16 -111 -8 -144 -43 -61 -42 -61 -514 -67 -420 -5 -432 -4
-478 16 -99 44 -118 164 -37 237 20 19 39 20 255 23 198 3 236 6 247 19 10 13
14 216 16 1041 2 563 0 1028 -5 1032 -11 10 -1014 -7 -1025 -18 -5 -5 -6 -437
-1 -1043 l8 -1034 117 -5 c131 -6 146 -13 168 -79 24 -73 -6 -143 -74 -175
-29 -13 -74 -16 -290 -16 -275 0 -307 5 -346 52 -42 51 -36 140 13 188 l31 30
132 0 c117 0 132 2 135 18 2 9 2 478 -1 1042 l-5 1025 -535 0 -535 0 -3 -730
c-1 -401 0 -740 3 -752 5 -21 10 -22 161 -25 210 -4 193 23 194 -315 l0 -263
58 0 c63 -1 89 -15 116 -68 22 -42 20 -87 -5 -132 -38 -67 -55 -70 -361 -70
-311 0 -317 1 -360 88 l-23 47 -5 1110 -5 1110 -90 5 c-117 6 -146 23 -172 98
-10 29 -9 44 5 86 31 93 -31 86 864 95 431 4 1775 9 2988 10 1213 1 2597 6
3075 12 479 5 2173 12 3765 15 1592 3 3140 9 3440 13 300 4 981 8 1513 9 828
2 972 0 996 -12z m1324 -3322 c52 -48 62 -122 26 -181 -42 -68 95 -63 -1755
-63 l-1676 0 -34 34 c-34 34 -40 54 -34 126 3 41 18 66 57 91 27 18 90 19
1708 19 l1680 0 28 -26z"/>
<path d="M9305 14053 c-7 -20 -6 -408 1 -427 5 -13 26 -16 125 -16 l119 0 0
225 0 225 -22 1 c-13 1 -67 3 -120 4 -76 1 -98 -1 -103 -12z"/>
</g>
</svg>
