<?xml version="1.0" encoding="UTF-8" standalone="no"?>
<!-- Created with Inkscape (http://www.inkscape.org/) -->

<svg
   width="3541.071"
   height="768.11792"
   viewBox="0 0 936.90835 203.23119"
   version="1.1"
   id="svg1"
   xml:space="preserve"
   xmlns="http://www.w3.org/2000/svg"
   xmlns:svg="http://www.w3.org/2000/svg"><defs
     id="defs1" /><g
     id="layer1"
     transform="translate(-53.028471,-332.74028)"><path
       style="fill:#000000;stroke-width:3.3076"
       d="m 987.83086,334.15106 c 1.01747,1.51355 1.30174,21.60259 1.93809,136.98705 0.3271,59.28343 0.29214,61.14749 -1.17824,62.96276 -1.49184,1.84169 -8.72598,1.87063 -467.68068,1.87063 -420.15336,0 -466.264567,-0.14886 -467.178091,-1.50768 -1.44753,-2.15342 -0.439922,-194.76357 1.028174,-196.53403 0.747411,-0.90145 29.453199,-1.33648 123.467237,-1.87114 115.32879,-0.65582 122.57259,-0.59855 123.85054,0.97928 0.74653,0.92168 1.35732,2.2761 1.35732,3.00981 0,2.17396 -3.27928,4.36146 -6.53827,4.36146 h -3.03741 l 0.16612,36.708 c 0.16669,36.8439 -0.1027,41.23682 -2.65055,43.23703 -0.51439,0.40379 -5.25158,0.74088 -10.5271,0.74906 -7.6813,0.0105 -9.83842,-0.28959 -10.82953,-1.51314 -0.68073,-0.84047 -1.23768,-2.12193 -1.23768,-2.84773 0,-3.44922 2.28979,-4.37581 10.81371,-4.37581 h 8.33836 l -0.51857,-19.11811 c -0.28519,-10.51499 -0.51862,-26.70539 -0.51862,-35.97871 V 344.4092 h -20.08391 -20.08385 v 35.97869 35.97872 h 6.24458 c 6.62204,0 8.71988,1.17819 8.71988,4.89724 0,3.31364 -2.57211,3.85432 -18.33481,3.85432 -13.89052,0 -15.40887,-0.16501 -16.61045,-1.80415 -1.50019,-2.04665 -1.02707,-4.58386 1.11921,-6.00202 0.78694,-0.51996 4.82109,-0.94539 8.96476,-0.94539 h 7.53403 v -35.98536 -35.98534 l -54.54151,0.24955 -54.54155,0.24991 -0.20808,30.38742 -0.20811,30.38744 h 3.11525 c 3.2929,0 4.93316,1.5869 3.11206,3.01101 -0.59693,0.46683 -2.23728,0.85549 -3.64515,0.86367 -2.45919,0.0147 -2.55964,0.16758 -2.55964,3.90448 v 3.8896 h 13.38931 13.38921 v -3.8896 -3.8896 l -3.34732,-0.0146 c -3.96404,-0.0183 -6.12587,-1.31938 -4.83592,-2.91197 0.49885,-0.61594 2.98061,-0.93969 5.90041,-0.76979 l 5.03945,0.29331 0.2298,5.34816 0.22979,5.34818 25.60118,-0.32491 c 22.48115,-0.28518 25.83665,-0.13451 27.53311,1.23788 2.23284,1.8063 2.45107,3.65534 0.68825,5.83175 -1.11066,1.3713 -6.42767,1.50868 -49.73012,1.28497 -45.19291,-0.23339 -48.54572,-0.36605 -49.35595,-1.9522 -0.63246,-1.23799 -0.63334,-2.16539 0,-3.4034 0.66406,-1.30486 2.15276,-1.76769 6.38377,-1.98464 l 5.51762,-0.28298 0.57858,-35.55483 c 0.33351,-20.49746 0.28214,-35.92052 -0.12086,-36.41841 -0.40221,-0.49649 -15.61601,-0.5933 -35.789136,-0.22786 l -35.089618,0.63582 -0.513541,20.99337 c -0.282452,11.54636 -0.514336,27.66032 -0.515328,35.80875 v 14.81542 l 24.920849,0.25687 c 22.743594,0.23447 24.996774,0.40542 25.789944,1.95843 1.45668,2.85219 -0.33563,5.06874 -4.3225,5.34582 -1.90523,0.1323 -4.97028,0.4874 -6.811334,0.78889 -3.077961,0.50404 -3.347299,0.77811 -3.347299,3.40578 0,1.8918 -0.399288,2.8576 -1.181371,2.8576 -0.787548,0 -1.181471,-0.97242 -1.181471,-2.91719 v -2.9172 H 77.004478 60.071067 v 11.18254 11.18259 h 16.77594 c 11.030133,0 17.069221,-0.36202 17.632038,-1.05709 0.616665,-0.76125 1.004428,-0.76125 1.385536,0 0.291095,0.58141 2.768585,1.05709 5.505679,1.05709 5.2567,0 7.11549,1.27966 6.60567,4.54777 -0.58328,3.7394 -3.28877,4.17455 -26.048959,4.18947 l -21.855904,0.0145 v 27.56663 c 0,15.16165 -0.229299,30.91449 -0.509367,35.0063 l -0.509468,7.43968 h 35.16453 35.163868 v -35.50938 -35.50935 l -5.50944,0.13965 c -5.72896,0.14555 -7.87985,-0.92464 -7.87985,-3.92023 0,-3.53118 1.5654,-3.96504 14.30673,-3.96504 11.61043,0 12.47124,0.12644 13.25949,1.94482 0.58919,1.35917 0.59527,2.51653 0.021,3.84342 -0.65664,1.51504 -1.81597,1.95713 -5.73782,2.18791 l -4.91479,0.28925 -0.20661,35.25912 -0.20686,35.25914 36.43651,-0.25287 36.43651,-0.25284 0.20658,-35.24943 0.20689,-35.24941 h -26.36681 c -25.56069,0 -26.39255,-0.0596 -27.20981,-1.94479 -0.59958,-1.38311 -0.59834,-2.50921 0,-3.89917 0.8324,-1.92031 1.48684,-1.94998 37.55007,-1.70169 33.96829,0.23374 36.76764,0.37946 37.5721,1.95439 0.63305,1.23929 0.63356,2.16411 0.002,3.40339 -0.72349,1.4192 -2.28675,1.74787 -9.41824,1.97982 -5.62634,0.183 -8.7586,0.6818 -9.15841,1.45856 -0.33418,0.6493 -0.61302,16.60515 -0.61965,35.45752 l -0.0119,34.277 h 18.11429 18.11486 v -35.49252 -35.49251 h -3.84158 c -4.25247,0 -5.88438,-1.49428 -5.47318,-5.01167 0.36589,-3.1301 2.32501,-3.53265 17.73022,-3.64298 14.80093,-0.10591 17.57544,0.535 17.57544,4.06034 0,4.12997 -1.24977,4.59431 -12.36538,4.59431 h -10.47511 v 35.49251 35.49252 h 20.0917 20.09367 l -0.20659,-35.24941 -0.20688,-35.2494 -3.91803,-0.30541 c -4.54466,-0.35431 -5.927,-1.45028 -5.927,-4.69982 0,-1.61278 0.62545,-2.6296 2.02028,-3.28435 2.69886,-1.26685 66.9061,-1.26955 68.82308,-0.003 2.1463,1.41819 2.6194,3.95541 1.11924,6.00206 -1.24258,1.69509 -3.07696,1.80416 -30.35155,1.80416 h -29.02906 l 0.20658,35.24937 0.20659,35.24942 41.15226,0.25176 41.15223,0.25176 V 515.2307 c 0,-6.60339 0.23399,-22.57892 0.51978,-35.5012 l 0.51978,-23.49498 h -7.15814 c -5.45725,0 -7.45222,-0.3631 -8.39579,-1.52803 -1.57097,-1.93956 -1.57097,-3.75595 0,-5.69551 1.82743,-2.25621 24.83853,-2.25621 26.66596,0 2.94864,3.64048 0.40924,7.22354 -5.11941,7.22354 h -3.88176 v 35.4925 35.49251 h 17.72109 17.72104 v -35.45847 -35.45851 l -7.97902,-0.2771 c -7.02585,-0.24403 -8.10663,-0.51483 -9.047,-2.26701 -0.90998,-1.69549 -0.88813,-2.30694 0.14764,-4.1327 l 1.21561,-2.14279 h 55.71763 c 42.28582,0 55.94547,0.28116 56.66276,1.16688 1.6905,2.08715 1.12049,5.60571 -1.07518,6.63634 -1.2285,0.57668 -19.95235,0.94835 -47.77574,0.94835 h -45.7555 l 0.51778,22.60824 c 0.28489,12.43453 0.5186,28.40616 0.5196,35.4925 l 0.002,12.88427 h 57.1012 57.1012 v -35.49251 -35.4925 h -4.55038 c -6.69472,0 -9.90647,-3.40497 -6.8136,-7.22354 1.00494,-1.2407 3.27078,-1.52803 12.05034,-1.52803 11.4709,0 12.7029,0.44558 12.7029,4.59432 0,2.74943 -2.55118,4.15725 -7.53352,4.15725 h -3.49294 v 33.9544 c 0,18.67488 0.21522,34.64651 0.47807,35.49252 0.42614,1.37093 4.32159,1.53809 35.84564,1.53809 h 35.36754 l -0.20656,-35.73562 -0.20662,-35.73558 h -25.85211 c -24.6799,0 -25.90302,-0.0856 -26.97536,-1.88755 -1.4218,-2.38913 -1.40812,-2.97011 0.11431,-4.8498 1.088,-1.34328 5.4712,-1.52803 36.2551,-1.52803 h 35.01744 l 0.66915,2.18788 c 0.3811,1.24608 0.35824,2.92043 -0.0529,3.88963 -0.61433,1.44736 -1.89665,1.70169 -8.58025,1.70169 h -7.85805 l 0.20659,35.73557 0.20658,35.73562 h 38.59255 38.59254 l 0.20659,-35.73562 0.20658,-35.73557 h -25.54221 c -14.04828,0 -26.103,-0.26572 -26.78819,-0.59025 -1.74884,-0.82857 -1.64574,-5.94397 0.13246,-6.57331 3.05545,-1.08138 121.08833,-1.78876 123.25984,-0.73873 2.38559,1.15357 2.99299,4.87185 1.11089,6.80034 -0.72959,0.74758 -11.6012,1.15925 -35.24522,1.33457 l -34.19023,0.25361 -0.20658,35.73556 -0.20659,35.73562 h 44.11551 44.11546 v -35.97869 -35.97869 h -4.1743 c -4.3417,0 -6.06454,-1.14457 -6.06454,-4.02894 0,-3.78793 2.89003,-4.72338 14.54902,-4.70939 12.87849,0.0146 14.44476,0.38092 15.08267,3.51895 0.87567,4.30771 -0.74007,5.21938 -9.25044,5.21938 h -7.7796 v 35.979 35.97868 h 82.69809 82.69833 v -35.97884 -35.9787 h -7.53402 c -8.30175,0 -10.58087,-0.90802 -10.58087,-4.21554 0,-4.27231 1.01099,-4.53605 17.38833,-4.53605 16.79225,0 17.95708,0.35835 16.96899,5.21935 -0.56647,2.78628 -2.38826,3.50122 -8.96682,3.51893 l -4.93225,0.0147 0.20655,35.7356 0.20664,35.7356 19.49319,0.2602 19.49399,0.26022 v -27.09475 c 0,-14.90209 -0.23034,-31.10016 -0.51174,-35.99569 l -0.51184,-8.90095 h -7.75845 c -6.79972,0 -7.9602,-0.24919 -9.39136,-2.01607 -1.46917,-1.81398 -1.51894,-2.22832 -0.49666,-4.1327 1.0307,-1.91992 1.9144,-2.14228 9.5093,-2.39261 l 8.37315,-0.27602 v -11.63585 -11.63587 l -4.13519,-0.0147 c -5.76782,-0.0184 -7.62052,-0.8165 -8.16991,-3.51894 -0.80285,-3.94869 0.87418,-5.21935 6.88797,-5.21935 h 5.41713 v -36.46491 -36.4649 h -18.5096 -18.50877 v 36.4649 36.46491 h 7.81972 c 6.0588,0 8.09862,0.34401 9.05752,1.52805 1.71127,2.1127 1.54828,3.92752 -0.51275,5.70979 -1.43615,1.24194 -4.45484,1.51376 -16.81147,1.51376 -13.87412,0 -15.16923,-0.14775 -16.43535,-1.87513 -1.72265,-2.35011 -0.99543,-5.71498 1.37968,-6.38379 0.94582,-0.26646 4.20057,-0.59552 7.23286,-0.73154 l 5.51321,-0.24736 v -5.83435 -5.83438 l -6.10395,-0.28408 c -4.63112,-0.21538 -6.10389,-0.6162 -6.10389,-1.66081 0,-1.0446 1.47277,-1.44531 6.10389,-1.66078 l 6.10395,-0.28408 0.20864,-28.44263 0.20873,-28.44262 H 924.5839 906.17553 l -0.50601,5.97703 c -0.27834,3.28735 -0.50601,16.19591 -0.50601,28.68571 v 22.7087 h 6.69465 c 5.42569,0 6.69461,0.27637 6.69461,1.4586 0,1.18213 -1.26892,1.45859 -6.69461,1.45859 h -6.69465 v 6.32062 6.32058 h 6.53712 c 6.9617,0 8.42733,0.78887 8.42733,4.53602 0,3.38606 -2.30332,4.21554 -11.70598,4.21554 -10.54342,0 -11.31742,-0.5819 -10.76374,-8.09205 0.20421,-2.76941 0.57005,-20.45998 0.81307,-39.31232 l 0.4418,-34.27702 h -3.01807 c -3.45665,0 -4.90837,-1.35887 -4.90837,-4.59434 0,-1.53186 0.65125,-2.56628 2.02027,-3.20892 1.22884,-0.57683 20.01248,-0.94832 47.94738,-0.94832 39.16999,0 46.06768,0.20766 46.87645,1.41063 z m -116.19764,0.0724 c 0.89026,0.54822 1.73968,1.77263 1.8876,2.72078 0.47137,3.02202 -1.37714,4.54777 -5.50976,4.54777 h -3.88051 l 0.12175,39.99071 c 0.0997,32.71346 -0.0725,40.14269 -0.94558,40.82579 -0.58707,0.4593 -4.4977,0.84177 -8.69028,0.84998 -5.8916,0.0105 -7.90396,-0.33224 -8.86052,-1.51318 -1.62128,-2.00164 -1.56164,-2.93398 0.33754,-5.27875 1.22513,-1.5126 2.62534,-1.94477 6.30083,-1.94477 h 4.72562 v -36.62376 -36.62379 l -39.90781,0.64829 c -21.94931,0.3565 -39.98308,0.75622 -40.075,0.88816 -0.0921,0.13193 -0.29767,16.43028 -0.45683,36.21862 l -0.28966,35.97868 29.1413,-0.362 c 27.87774,-0.34621 29.22247,-0.28042 31.01347,1.51895 2.01556,2.02493 1.85307,5.46896 -0.30625,6.49199 -1.61263,0.76406 -125.36512,0.92053 -126.36206,0.15988 -1.30236,-0.99379 -0.98642,-6.06645 0.41933,-6.73243 0.68519,-0.32452 15.01832,-0.59024 31.85143,-0.59024 16.83309,0 30.76185,-0.32819 30.95279,-0.7293 0.1911,-0.40111 0.60498,-16.81029 0.92009,-36.46489 l 0.57287,-35.73562 h -46.55454 -46.55456 v 36.46492 36.46489 h 9.07434 c 8.95017,0 9.08675,0.033 9.98467,2.46691 0.75243,2.03886 0.67666,2.75596 -0.43667,4.1327 -1.97813,2.44604 -26.43837,3.06133 -29.31121,0.73731 -3.95075,-3.19599 -1.44237,-7.33692 4.4443,-7.33692 h 3.88176 v -36.46489 -36.46492 h -38.19876 -38.19872 v 36.46492 36.46489 h 28.79931 c 18.34588,0 29.35222,0.36532 30.3227,1.00661 2.03879,1.34714 1.92876,4.36699 -0.22714,6.23123 -1.52353,1.31753 -6.51068,1.51375 -38.47047,1.51375 -34.57348,0 -36.79621,-0.10406 -38.02349,-1.77824 -1.67046,-2.27897 -1.64246,-3.37595 0.13693,-5.36405 1.09288,-1.22108 2.99279,-1.6093 7.87603,-1.6093 h 6.43571 V 378.82777 342.2614 l -15.68671,0.34437 c -8.6277,0.18965 -15.84841,0.56333 -16.04609,0.83075 -0.19764,0.26757 -0.5346,16.56723 -0.74874,36.22178 l -0.38938,35.73564 h 3.65856 c 3.75218,0 7.15947,2.03704 7.15947,4.28022 0,0.68902 -0.64815,1.97693 -1.44033,2.86206 -2.10001,2.34639 -30.87165,2.41775 -32.76413,0.0812 -1.71119,-2.11273 -1.54821,-3.92751 0.51277,-5.7098 1.34378,-1.16203 3.90567,-1.51375 11.02646,-1.51375 h 9.27599 l 0.002,-10.45326 c 7.7e-4,-5.7493 0.23486,-21.93972 0.52023,-35.97869 l 0.51856,-25.52545 h -57.11009 -57.11015 l -0.56939,35.46918 c -0.31315,19.50806 -0.34165,35.92413 -0.0635,36.48016 0.34606,0.69133 13.12607,0.81617 40.42279,0.39492 28.12512,-0.43408 40.55656,-0.30209 42.08263,0.44687 2.39426,1.17501 2.98898,4.89159 1.09354,6.83374 -0.77788,0.79708 -14.65113,1.03006 -50.51774,0.8484 -46.10601,-0.2334 -49.50405,-0.36533 -50.31467,-1.95217 -0.632,-1.23718 -0.63315,-2.16619 -0.004,-3.40337 0.67473,-1.32695 2.32177,-1.80881 7.47822,-2.18793 l 6.61295,-0.48621 0.20658,-36.2218 0.20658,-36.22179 h -18.12444 -18.12447 l -0.002,12.39805 c -7.9e-4,6.81894 -0.23488,23.22817 -0.51992,36.46492 l -0.51821,24.06683 h 6.83763 c 6.55571,0 6.87514,0.10184 7.748,2.46695 1.75953,4.76776 0.34303,5.22137 -17.25138,5.52444 -14.15045,0.24367 -16.05736,0.09 -17.26692,-1.39179 -1.12591,-1.3793 -1.20318,-2.08997 -0.44934,-4.13265 0.89445,-2.42378 1.06228,-2.46695 9.59089,-2.46695 h 8.68089 V 379.90134 343.43643 H 390.9063 c -11.10245,0 -17.46156,0.36126 -17.78648,1.01023 -0.27803,0.55566 -0.24768,16.96486 0.0678,36.46491 l 0.57348,35.45465 h 3.66624 c 4.07691,0 5.55649,1.22337 5.55649,4.59435 0,3.218 -2.66917,4.15724 -11.81406,4.15724 -9.14481,0 -11.814,-0.93924 -11.814,-4.15724 0,-3.51909 1.5137,-4.59435 6.46792,-4.59435 h 4.57766 l -0.20657,-36.22181 -0.2066,-36.22175 -11.42024,-0.30467 c -6.28112,-0.16761 -14.34419,-0.0184 -17.91795,0.33038 l -6.49774,0.63486 v 26.16746 26.16744 h 5.42896 c 6.45854,0 6.3851,-0.12938 6.3851,11.26206 0,8.01912 0.0389,8.18586 1.91275,8.18586 2.0974,0 4.38809,2.29174 4.38809,4.39009 0,3.23394 -3.26454,4.3619 -12.58,4.3466 -4.99351,-0.007 -9.46907,-0.33628 -9.94571,-0.7293 -2.47568,-2.04092 -2.67761,-5.24304 -2.67761,-42.46355 v -37.50124 h -2.31155 c -3.90733,0 -6.35208,-1.62903 -6.35208,-4.23266 0,-1.28481 0.49758,-2.84585 1.10578,-3.46902 1.04916,-1.07503 67.58222,-1.51451 489.12653,-3.23094 40.74996,-0.16575 61.92664,0.0854 63.00123,0.74688 z m -537.48149,73.87777 v 8.26535 h 4.33184 4.3318 v -8.26535 -8.26539 h -4.3318 -4.33184 z m 581.44776,39.46002 c 1.71236,1.23137 1.77885,4.15066 0.1408,6.17323 -1.10174,1.36024 -7.33522,1.52809 -56.75919,1.52809 -36.76621,0 -56.03615,-0.33995 -57.04493,-1.00664 -1.84139,-1.21669 -1.97536,-4.1309 -0.28576,-6.21691 1.10224,-1.36089 7.32761,-1.5248 56.90429,-1.4985 36.34289,0.0183 56.14511,0.37362 57.04495,1.02073 z"
       id="path3" /></g></svg>
