<?xml version="1.0" standalone="no"?>
<!DOCTYPE svg PUBLIC "-//W3C//DTD SVG 20010904//EN"
 "http://www.w3.org/TR/2001/REC-SVG-20010904/DTD/svg10.dtd">
<svg version="1.0" xmlns="http://www.w3.org/2000/svg"
 width="3000.000000pt" height="3000.000000pt" viewBox="0 0 3000.000000 3000.000000"
 preserveAspectRatio="xMidYMid meet">

<g transform="translate(0.000000,3000.000000) scale(0.100000,-0.100000)"
fill="#000000" stroke="none">
<path d="M0 15000 l0 -15000 15000 0 15000 0 0 15000 0 15000 -15000 0 -15000
0 0 -15000z m10800 951 c1081 -4 3041 -8 4355 -9 1315 -2 2793 -7 3285 -12
492 -5 2171 -9 3730 -10 2021 0 2846 -3 2874 -11 94 -26 126 -121 65 -190
l-30 -34 -165 -3 -164 -4 0 -536 c0 -296 5 -647 10 -782 5 -135 10 -388 11
-562 3 -419 31 -388 -346 -388 -216 0 -257 2 -286 17 -44 22 -53 31 -66 70
-16 44 0 97 36 123 27 18 44 20 219 20 140 0 192 3 200 13 6 8 7 84 1 222 -4
116 -9 534 -10 930 -1 396 -4 755 -7 798 l-4 77 -544 0 -544 0 0 -1004 c0
-552 3 -1011 6 -1020 5 -14 33 -16 204 -16 l198 0 31 -31 c26 -25 31 -38 31
-77 0 -53 -18 -81 -67 -106 -27 -14 -77 -16 -341 -16 -329 0 -355 3 -397 50
-13 15 -19 36 -19 72 0 46 4 54 34 80 32 26 40 28 121 28 70 0 88 3 93 16 10
27 7 1998 -4 2014 -8 13 -171 15 -1367 15 l-1358 0 0 -1020 0 -1020 1110 -2
c840 -2 1116 -6 1133 -15 28 -15 62 -68 62 -98 0 -35 -32 -80 -72 -101 -36
-18 -90 -19 -2046 -19 -2159 0 -2049 -3 -2096 49 -13 14 -18 36 -18 73 0 47 3
55 33 80 l33 28 873 0 873 0 0 1025 0 1025 -1182 0 -1181 0 8 -707 c4 -390 11
-850 14 -1023 l6 -315 138 -5 139 -5 29 -33 c35 -40 39 -90 8 -133 -40 -57
-56 -59 -461 -59 -350 0 -371 1 -408 20 -63 32 -85 92 -56 149 30 58 45 61
282 61 l217 0 -7 783 c-5 651 -15 1257 -20 1263 0 1 -256 4 -568 6 l-568 3 0
-1027 0 -1028 208 0 208 0 31 -31 c60 -58 49 -135 -26 -177 -37 -21 -50 -22
-334 -22 -314 0 -340 3 -382 50 -14 16 -20 36 -20 72 0 45 4 53 34 79 29 24
45 29 100 31 l66 3 3 1019 c1 561 -1 1023 -5 1027 -5 4 -494 11 -1087 15
l-1079 7 8 -649 c4 -357 10 -822 14 -1034 l6 -385 847 -5 848 -5 29 -28 c59
-55 46 -135 -30 -175 l-41 -22 -939 0 c-912 0 -941 1 -978 20 -37 19 -71 68
-71 105 0 9 7 30 16 47 14 28 15 68 5 412 -6 210 -11 495 -11 635 0 223 2 257
17 273 20 23 45 23 65 1 14 -16 17 -102 28 -618 6 -330 13 -610 16 -622 4 -19
11 -23 46 -23 l41 0 -7 893 c-3 490 -9 956 -12 1035 l-7 142 -43 0 c-25 0 -44
-5 -47 -12 -2 -7 -2 -99 1 -204 4 -170 3 -194 -13 -217 -20 -31 -50 -35 -77
-10 -16 15 -18 35 -18 214 0 108 -3 204 -6 213 -6 15 -143 16 -1451 16 l-1444
0 3 -1022 c2 -563 7 -1029 11 -1035 6 -10 280 -13 1314 -13 1300 0 1305 0
1334 -21 16 -11 33 -36 40 -59 10 -32 9 -44 -7 -77 -39 -78 120 -72 -1812 -73
-1564 0 -1726 1 -1755 16 -49 25 -67 53 -67 106 0 39 5 52 31 77 24 24 39 31
70 31 l39 0 0 1035 0 1035 -495 0 -495 0 2 -1032 3 -1033 275 -2 c189 -2 282
-7 298 -15 26 -14 62 -67 62 -93 0 -37 -33 -86 -71 -105 -36 -19 -61 -20 -422
-20 -418 0 -433 2 -476 56 -14 18 -21 41 -21 69 0 35 6 48 32 74 31 30 35 31
120 31 l88 0 0 1034 0 1034 -72 7 c-40 3 -257 5 -483 3 l-410 -3 -6 -250 c-4
-137 -10 -478 -14 -757 l-8 -508 140 0 c193 0 178 23 187 -276 4 -132 9 -249
13 -261 5 -21 11 -23 70 -23 79 0 117 -22 134 -80 10 -32 9 -44 -7 -77 -34
-69 -48 -72 -389 -72 -338 0 -353 3 -389 70 -18 33 -19 42 -8 90 8 38 15 362
21 1094 5 572 7 1043 4 1048 -2 4 -207 7 -455 7 l-450 0 6 -667 c3 -368 9
-852 12 -1077 7 -435 4 -464 -40 -514 -31 -36 -81 -52 -155 -52 -87 0 -138 28
-159 86 -14 38 -14 45 1 77 19 40 52 64 93 69 l29 3 -2 70 c-1 39 -5 502 -8
1030 -4 582 -11 964 -17 970 -6 7 -356 10 -1011 10 l-1002 0 4 -1025 c2 -599
7 -1032 12 -1042 9 -17 59 -18 825 -18 743 0 818 -1 844 -17 52 -31 67 -109
29 -157 -46 -58 -3 -56 -1084 -56 -1087 0 -1040 -3 -1084 59 -33 46 -28 96 13
137 l34 34 151 0 c113 0 151 3 152 13 4 35 -3 2044 -7 2058 -4 15 -96 17
-1002 21 -649 4 -1001 2 -1009 -5 -10 -7 -13 -225 -13 -1026 0 -559 3 -1026 6
-1038 l6 -23 690 0 c626 0 693 -2 718 -17 52 -31 66 -103 29 -154 -43 -61 -20
-59 -839 -59 -819 0 -796 -2 -839 59 -51 71 -3 170 81 171 31 0 39 4 43 23 3
12 4 483 3 1047 l-3 1025 -852 3 -853 2 0 -1050 0 -1050 638 0 c700 0 664 3
697 -60 20 -39 19 -69 -5 -107 -39 -64 -28 -63 -711 -63 l-619 0 0 -360 0
-360 76 0 c88 0 132 -17 157 -59 23 -38 21 -76 -3 -116 -25 -40 -62 -54 -157
-62 l-73 -6 0 -1045 0 -1045 389 5 c214 3 394 8 400 12 17 11 16 2076 -1 2076
-133 1 -269 10 -293 20 -61 26 -88 104 -56 163 28 53 53 57 371 57 322 0 340
-3 373 -61 23 -40 22 -74 -4 -110 -34 -48 -73 -62 -179 -64 l-95 -3 -3 -1036
c-2 -918 0 -1037 13 -1042 8 -4 431 -2 940 2 l925 9 0 1029 c0 566 -3 1032 -6
1035 -3 3 -299 8 -657 11 -484 4 -657 8 -673 17 -34 19 -54 59 -54 106 0 55
39 97 96 102 87 9 2591 14 2629 5 51 -11 95 -61 95 -107 0 -48 -18 -78 -60
-102 -37 -21 -44 -21 -641 -21 -332 0 -609 -4 -615 -8 -9 -5 -10 -278 -6
-1039 l5 -1033 1013 0 c934 0 1013 1 1016 17 4 19 -9 1082 -20 1658 l-7 400
-205 5 c-219 5 -233 8 -269 59 -46 64 -10 149 73 170 57 14 906 15 955 1 19
-5 47 -22 63 -37 23 -22 28 -35 28 -72 -1 -51 -10 -68 -55 -97 -26 -17 -54
-20 -255 -24 l-225 -5 0 -165 c0 -91 3 -338 8 -550 4 -212 9 -601 13 -864 3
-264 7 -483 10 -488 3 -4 219 -8 480 -8 401 0 475 2 480 14 6 16 -14 1949 -20
1981 -3 11 -5 35 -5 53 l-1 32 -74 0 c-123 0 -176 35 -176 118 0 58 14 80 63
103 37 17 68 19 282 19 132 0 256 -5 276 -10 108 -30 114 -178 8 -216 -19 -7
-85 -13 -153 -13 l-119 -1 6 -257 c7 -244 11 -521 22 -1422 3 -298 7 -386 17
-393 19 -13 1084 -6 1098 8 7 7 9 327 8 1035 l-3 1024 -280 5 c-300 5 -307 7
-344 59 -42 59 -16 137 55 167 49 20 730 20 778 0 47 -19 66 -51 66 -109 0
-59 -26 -90 -91 -107 -24 -7 -50 -14 -57 -16 -10 -3 -12 -214 -10 -1031 l3
-1028 365 0 c201 0 425 1 498 3 l132 3 0 1030 0 1029 -266 0 c-176 0 -280 4
-306 12 -111 33 -118 170 -12 214 49 21 1799 21 1848 0 39 -16 76 -64 76 -100
0 -78 -56 -117 -181 -124 l-89 -5 0 -1028 0 -1029 464 0 c255 0 470 2 478 5
10 4 12 27 11 93 -2 48 -8 505 -14 1017 -7 629 -14 934 -21 943 -8 9 -50 12
-175 9 -201 -5 -248 2 -285 43 -39 43 -39 106 0 148 44 47 96 53 452 50 274
-3 319 -5 346 -20 69 -38 85 -118 35 -178 l-29 -35 -110 -5 c-61 -3 -114 -8
-118 -12 -4 -4 -2 -214 4 -465 7 -252 14 -710 17 -1018 4 -423 9 -561 18 -568
11 -8 1047 0 1055 8 2 2 0 465 -4 1029 l-7 1026 -261 0 c-285 0 -315 5 -344
60 -17 33 -9 105 13 131 41 45 91 49 551 49 497 0 512 -2 552 -77 28 -52 4
-120 -52 -147 -27 -13 -66 -16 -190 -16 l-156 0 0 -797 c0 -439 3 -903 7
-1030 l6 -233 523 0 c288 0 525 3 527 8 2 4 1 97 -4 207 -4 110 -10 367 -13
570 -5 305 -21 953 -29 1210 l-2 60 -175 5 c-196 6 -220 13 -240 75 -13 41 -4
98 19 119 49 45 72 46 695 46 508 0 599 -2 637 -15 56 -20 82 -55 82 -112 0
-36 -5 -50 -32 -76 l-31 -32 -422 -3 -421 -3 7 -347 c15 -877 25 -1352 32
-1525 l7 -189 1043 4 c738 2 1046 6 1054 14 8 8 8 178 -1 615 -6 332 -13 780
-15 994 -3 215 -7 400 -9 412 l-5 22 -478 3 c-526 3 -507 1 -538 67 -18 37
-14 92 8 118 7 9 31 24 53 34 37 17 82 19 647 19 532 0 613 -2 647 -16 51 -20
74 -56 74 -113 0 -38 -4 -49 -32 -72 -38 -31 -75 -39 -188 -39 l-82 0 4 -367
c3 -203 8 -435 11 -518 3 -82 9 -373 13 -646 4 -272 11 -501 16 -509 7 -11
143 -12 794 -7 432 4 965 7 1184 7 l397 0 0 1020 0 1020 -902 0 c-497 0 -919
3 -939 6 -57 10 -91 45 -96 101 -4 39 -1 53 18 77 46 58 -4 56 1133 56 942 0
1049 -2 1079 -16 62 -30 85 -105 51 -163 -25 -42 -44 -50 -143 -57 l-91 -7 0
-1018 0 -1019 1853 2 1852 3 0 525 c-1 814 -6 1462 -12 1493 l-6 29 -1592 -3
-1592 -3 -35 26 c-52 39 -60 114 -19 162 42 49 -77 46 2203 46 2092 0 2134 -1
2162 -19 55 -36 70 -94 41 -151 -29 -55 -21 -55 -555 -60 l-495 -5 0 -340 c0
-477 16 -1678 23 -1689 7 -12 1404 2 1417 15 6 6 9 387 10 1012 l0 1002 -60 6
c-76 7 -90 14 -115 54 -24 39 -26 78 -4 115 37 62 12 60 679 60 554 0 609 -1
636 -17 29 -17 59 -67 59 -98 0 -27 -28 -72 -59 -94 -29 -21 -39 -21 -524 -21
l-494 0 -8 -1002 c-4 -552 -8 -1007 -9 -1013 -1 -10 3157 -15 3167 -5 3 3 3
457 -1 1010 l-7 1005 -900 3 c-998 2 -947 -1 -980 68 -23 48 -13 99 27 136
l30 28 1109 0 1110 0 28 -21 c16 -11 34 -39 42 -61 12 -36 11 -44 -7 -76 -33
-61 -61 -70 -211 -71 l-133 -1 0 -994 c0 -547 3 -1001 6 -1010 6 -14 88 -16
825 -16 l819 0 -5 543 c-3 298 -8 585 -10 637 -2 52 -5 263 -5 468 l0 372
-488 0 c-540 0 -534 -1 -573 64 -23 38 -24 55 -3 99 33 69 17 67 568 67 l496
0 0 350 0 350 -208 0 c-177 0 -214 3 -243 17 -51 26 -68 52 -69 105 0 39 5 52
31 77 l30 31 227 2 227 3 3 1006 2 1007 -22 6 c-13 3 -308 6 -655 6 l-633 0
-2 -312 c0 -172 -2 -324 -3 -338 -6 -78 -7 -1358 -1 -1368 5 -9 81 -12 279
-12 l271 0 33 -32 c28 -27 33 -39 33 -77 -1 -52 -18 -79 -69 -104 -31 -15 -84
-17 -541 -17 -556 0 -557 0 -599 59 -33 46 -28 96 13 137 l34 34 204 0 c145 0
207 3 216 12 8 8 12 59 12 165 0 152 0 153 -22 154 -13 0 -95 1 -183 1 -186
-1 -225 9 -225 55 0 51 8 53 226 53 l202 0 6 253 c4 138 6 495 4 792 l-3 540
-669 3 -669 2 7 -662 c3 -365 9 -723 12 -795 l7 -133 266 -2 266 -3 9 -28 c8
-23 6 -31 -12 -50 -22 -21 -29 -22 -275 -24 l-252 -3 0 -162 0 -163 283 -3
c313 -3 316 -3 347 -68 25 -54 2 -115 -57 -145 -34 -17 -62 -19 -348 -19
l-311 0 -54 25 c-86 41 -91 56 -100 280 -4 105 -11 586 -14 1070 l-6 880 -71
6 c-39 4 -87 14 -107 24 -35 17 -67 64 -67 102 0 30 37 81 72 99 31 16 141 17
1663 11 896 -4 1637 -7 1646 -7 22 0 56 -31 71 -66 13 -30 17 -573 33 -4263
l5 -1254 -25 -32 c-52 -69 157 -63 -2650 -70 -1397 -3 -2587 -8 -2645 -10 -58
-2 -1500 -6 -3205 -9 -1705 -3 -3113 -8 -3130 -10 -16 -3 -1490 -7 -3275 -11
-1785 -3 -3308 -8 -3385 -11 -122 -6 -2324 -14 -8291 -30 l-1580 -4 -38 32
-37 33 0 1610 c1 1296 -2 1621 -12 1665 -11 46 -11 66 -1 110 10 43 13 306 14
1191 l0 1137 37 33 37 32 3921 -8 c2156 -4 4804 -11 5885 -14z"/>
<path d="M10682 14678 l3 -1033 290 0 290 0 0 415 c0 228 -2 693 -3 1033 l-2
617 -290 0 -290 0 2 -1032z"/>
<path d="M8480 13865 l0 -225 117 0 116 0 -7 133 c-3 72 -9 174 -13 225 l-6
92 -103 0 -104 0 0 -225z"/>
<path d="M9605 12448 c-3 -7 -4 -470 -3 -1028 l3 -1015 423 -3 422 -2 0 1030
0 1030 -420 0 c-327 0 -422 -3 -425 -12z"/>
</g>
</svg>
