<?xml version="1.0" encoding="UTF-8" standalone="no"?>
<!-- Created with Inkscape (http://www.inkscape.org/) -->

<svg
   width="3447.6418"
   height="769.12292"
   viewBox="0 0 912.18854 203.4971"
   version="1.1"
   id="svg1"
   xml:space="preserve"
   xmlns="http://www.w3.org/2000/svg"
   xmlns:svg="http://www.w3.org/2000/svg"><defs
     id="defs1" /><g
     id="layer1"
     transform="translate(-93.381267,-334.31697)"><path
       style="fill:#000000;stroke-width:3.11549"
       d="m 404.64226,334.8541 c 38.52219,0.12947 159.6853,0.51572 269.25132,0.85858 186.58167,0.58383 199.29693,0.71657 200.56641,2.09413 1.12057,1.21589 1.19692,1.84824 0.44068,3.64889 -0.85493,2.03554 -1.28445,2.17812 -6.56179,2.17812 h -5.64696 l 0.28806,38.50302 c 0.23721,31.71588 0.0962,38.75339 -0.79822,39.92313 -0.87544,1.14456 -2.59301,1.42012 -8.85192,1.42012 -9.14457,0 -11.82585,-0.83223 -11.82585,-3.67056 0,-3.37584 1.44207,-4.0565 8.59418,-4.0565 h 6.69477 l -0.51979,-18.67373 c -0.28594,-10.27056 -0.52065,-26.49736 -0.52175,-36.05961 l -0.002,-17.38587 H 837.94257 820.1357 v 36.0596 36.05961 h 6.56875 c 6.74858,0 8.46813,0.72233 8.46813,3.55726 0,3.19226 -2.9977,4.1698 -12.78722,4.1698 -10.62333,0 -13.32952,-0.7452 -13.32952,-3.67056 0,-2.85151 1.45762,-4.0565 4.90679,-4.0565 h 3.00741 v -36.05961 -36.0596 h -44.31927 -44.31925 v 36.0596 36.05961 h 35.95287 c 31.62923,0 36.10245,0.16226 37.19653,1.34915 1.7195,1.86538 1.55572,3.46774 -0.51525,5.04138 -1.55713,1.18321 -9.11529,1.33517 -65.88539,1.32478 -35.26954,-0.006 -64.93166,-0.24564 -65.91578,-0.53185 -2.11984,-0.61621 -3.15596,-4.08663 -1.7635,-5.90676 0.83118,-1.08647 5.20729,-1.2767 29.37077,-1.2767 h 28.39405 v -36.05961 -36.0596 l -31.85447,-0.006 c -17.51998,-0.003 -34.79262,-0.25309 -38.38367,-0.55654 l -6.52919,-0.55138 v 35.2581 c 0,19.39194 0.21627,35.8692 0.48038,36.61612 0.35475,1.00295 1.58162,1.35809 4.69196,1.35809 2.77349,0 4.63623,0.46068 5.45525,1.34914 1.52876,1.65847 1.54314,2.17109 0.12024,4.28202 -1.03412,1.53433 -2.17002,1.66661 -14.30928,1.66661 -11.90895,0 -13.28947,-0.15347 -14.25488,-1.58593 -1.09845,-1.62962 -0.75892,-3.93903 0.74312,-5.05478 0.467,-0.34694 3.96921,-0.63669 7.78261,-0.64393 l 6.93347,-0.013 -0.20639,-36.27426 -0.2064,-36.27424 -18.79615,-0.23006 -18.79612,-0.23007 v 36.50443 36.50441 h 6.67052 c 5.0089,0 6.98029,0.33609 7.91414,1.34917 1.62912,1.76733 1.56922,2.59049 -0.33917,4.66077 -1.39829,1.51689 -2.63801,1.71714 -10.63259,1.71714 -10.40697,0 -13.10988,-0.75679 -13.10988,-3.67058 0,-2.65924 1.41754,-4.0565 4.11534,-4.0565 h 2.21599 V 379.26342 342.7745 h -35.218 -35.21802 v 35.13084 c 0,19.32194 0.21627,35.74196 0.48039,36.48888 0.42512,1.20187 3.60431,1.35807 27.64301,1.35807 23.6381,0 27.32405,0.17491 28.4063,1.34917 1.62909,1.76733 1.56921,2.59048 -0.33915,4.66076 -1.52777,1.65736 -2.63809,1.71714 -31.90111,1.71714 -23.00978,0 -30.6424,-0.25862 -31.66295,-1.07321 -1.20409,-0.96096 -1.36382,-3.67751 -1.52708,-25.97152 -0.15794,-21.56203 -0.0239,-24.89827 0.99559,-24.89827 1.00189,0 1.23711,3.27287 1.57367,21.89331 l 0.39573,21.89335 1.78929,0.2755 1.78933,0.27549 -0.2064,-36.3352 -0.2064,-36.33516 -2.17641,-0.27161 -2.17636,-0.2716 v 8.2849 c 0,6.24521 -0.24349,8.19735 -0.98929,7.92928 -0.6724,-0.24175 -1.06215,-2.87727 -1.21682,-8.22788 l -0.22762,-7.87227 H 477.8188 430.75925 v 36.48892 36.48887 h 42.5782 c 32.06114,0 42.81274,0.25441 43.52786,1.03028 1.69873,1.84282 1.12592,4.94948 -1.08036,5.85946 -1.24814,0.51481 -23.16173,0.83733 -56.89428,0.83733 -51.78841,0 -54.96349,-0.0873 -56.63523,-1.5558 -2.2196,-1.94979 -1.54947,-5.07008 1.2527,-5.83307 l 1.92584,-0.52436 V 379.17008 342.77426 H 389.20992 372.9859 v 36.48891 36.48889 h 9.04474 c 7.16728,0 9.30293,0.28004 10.28838,1.34916 1.71951,1.86536 1.55574,3.46773 -0.51526,5.04136 -2.56898,1.95204 -25.56981,1.95204 -28.13878,0 -3.3171,-2.52051 -1.23279,-6.39052 3.44182,-6.39052 h 2.71342 v -36.3564 -36.35638 l -10.09056,-0.5583 c -5.54981,-0.30697 -12.62183,-0.55988 -15.71556,-0.5618 l -5.62504,-0.003 -0.50844,5.27732 c -0.27968,2.90251 -0.50846,15.07263 -0.50846,27.04471 v 21.76739 h 3.89235 c 6.50532,0 6.39607,-0.1775 6.39607,10.3946 v 9.35233 h 2.61167 c 3.07258,0 4.51109,1.29354 4.51109,4.0565 0,2.90906 -2.70158,3.67056 -13.02224,3.67056 -7.42707,0 -9.22308,-0.25732 -10.48618,-1.50247 -1.47982,-1.45882 -1.50534,-2.61327 -0.87936,-39.70851 0.35462,-21.01331 0.47797,-38.68896 0.2743,-39.27921 -0.27817,-0.80576 -4.04395,-1.07322 -15.11104,-1.07322 h -14.74037 l 0.25423,39.15614 0.25426,39.15611 -1.85051,1.62556 c -2.08201,1.82899 -3.78151,2.02 -6.82032,0.76663 -1.66172,-0.6854 -2.03202,-1.33605 -1.83223,-3.21961 0.16122,-1.52101 0.92184,-2.66603 2.13809,-3.2192 l 1.88773,-0.85855 -0.50081,-18.45912 c -0.27547,-10.15247 -0.50166,-26.66908 -0.50271,-36.7035 l -0.002,-18.24446 H 261.00043 228.1567 v 36.91815 36.9182 h 26.8516 c 23.35532,0 27.01353,0.17556 28.09527,1.34917 1.62909,1.76732 1.56917,2.59048 -0.3392,4.66076 -1.53107,1.66096 -2.63804,1.71713 -33.85477,1.71713 -27.92779,0 -32.50874,-0.18009 -34.03088,-1.33653 -4.16419,-3.1642 -1.16343,-6.39053 5.94376,-6.39053 h 5.21538 l -0.52204,-26.40079 c -0.28715,-14.52045 -0.52265,-31.13359 -0.52343,-36.91815 l -9.4e-4,-10.51741 H 192.147 159.3032 v 36.91815 36.9182 h 22.49886 c 19.39825,0 22.6702,0.18594 23.74248,1.34917 1.62909,1.76732 1.5692,2.59048 -0.33916,4.66076 -1.51453,1.64301 -2.63809,1.71713 -26.02907,1.71713 -22.42197,0 -24.59287,-0.12882 -26.21726,-1.5558 -2.21961,-1.94979 -1.5495,-5.07007 1.25275,-5.83306 l 1.92578,-0.52436 v -36.8253 -36.82509 h -27.69946 -27.69953 v 36.91815 36.91819 h 20.5203 c 17.59954,0 20.69728,0.19211 21.76393,1.34917 1.71947,1.86536 1.55572,3.46772 -0.51529,5.04136 -1.47936,1.12408 -4.93871,1.33653 -21.76393,1.33653 h -20.00501 v 12.87844 12.87843 h 3.00736 c 3.25629,0 4.90679,1.19654 4.90679,3.55725 0,1.99199 -2.98537,4.16981 -5.71598,4.16981 h -2.19817 v 36.91816 36.91816 h 13.05834 13.05838 v -36.91816 -36.91816 h -4.1767 c -4.54219,0 -7.69454,-1.70831 -7.69454,-4.16981 0,-3.07814 1.61267,-3.55725 11.973,-3.55725 8.10257,0 10.31692,0.26381 11.31724,1.34916 1.51214,1.64045 1.53881,2.17752 0.2064,4.15455 -0.63708,0.94519 -2.46942,1.71419 -4.74849,1.99286 l -3.71111,0.45381 v 36.80649 36.80651 l 21.56613,-0.003 c 11.86133,-0.002 25.57261,-0.25441 30.46946,-0.56047 l 8.90345,-0.55655 v -36.35779 -36.3577 l -20.37895,-0.013 c -21.01127,-0.013 -24.01503,-0.44757 -24.56643,-3.55359 -0.1343,-0.75721 0.33303,-2.00314 1.03881,-2.76876 1.15183,-1.24957 5.68698,-1.39205 44.30228,-1.39205 38.05304,0 43.16268,0.15576 44.26277,1.34915 1.50492,1.63264 1.53709,2.1801 0.24078,4.1031 -0.89029,1.32082 -3.30823,1.54489 -21.56609,1.99859 -11.30985,0.28102 -20.67761,0.61427 -20.81719,0.7405 -0.13969,0.12623 0.003,16.49342 0.31804,36.37149 l 0.57186,36.142 h 33.0121 33.01206 l -0.34679,-35.84496 c -0.19085,-19.71475 -0.48745,-36.32793 -0.65937,-36.91819 -0.21953,-0.7539 -2.43085,-1.07321 -7.43231,-1.07321 -6.30978,0 -7.21614,-0.19534 -7.96685,-1.71709 -0.60305,-1.22245 -0.60067,-2.21671 0.009,-3.45121 0.82252,-1.66737 1.49806,-1.72519 17.55122,-1.50249 14.89997,0.2067 16.78971,0.39319 17.56875,1.73407 0.63562,1.09398 0.63602,1.91099 9.7e-4,3.00497 -0.72118,1.24333 -2.27815,1.54495 -9.02647,1.74867 l -8.15496,0.2463 0.52141,26.36925 c 0.28687,14.50305 0.52204,31.10202 0.5228,36.88659 l 9.6e-4,10.51739 h 16.12907 16.12906 l -0.36061,-35.84496 c -0.19832,-19.71475 -0.49236,-36.30466 -0.65337,-36.86652 -0.16092,-0.56186 -1.78941,-1.14139 -3.61874,-1.28787 -3.84748,-0.30795 -5.61413,-2.3216 -4.18833,-4.77371 0.75467,-1.29796 2.19691,-1.50248 10.5938,-1.50248 8.39693,0 9.83913,0.20442 10.59383,1.50248 1.66725,2.8674 -0.31249,4.47872 -5.8565,4.76661 l -4.99077,0.25927 0.52244,25.8522 c 0.28744,14.2187 0.52244,30.81183 0.52244,36.87361 v 11.02147 h 18.60675 18.60677 l -0.2064,-36.70353 -0.2064,-36.70355 -9.80905,-0.42927 c -8.20823,-0.35922 -9.95124,-0.67447 -10.68009,-1.93176 -0.63399,-1.09368 -0.63328,-1.91127 0.003,-3.00496 0.77545,-1.33361 2.36651,-1.50248 14.15519,-1.50248 11.7887,0 13.37978,0.16873 14.15519,1.50248 1.13833,1.95771 -0.15853,4.29117 -2.75455,4.95577 l -1.90365,0.48732 -0.20638,36.665 -0.2064,36.66498 h 16.62822 16.62825 v -36.89263 -36.89253 l -10.00583,-0.24045 c -8.51793,-0.20444 -10.13552,-0.46371 -10.87794,-1.74277 -0.63532,-1.09456 -0.63495,-1.91041 9.6e-4,-3.00497 0.8034,-1.3821 3.32131,-1.52049 31.4219,-1.72717 29.90573,-0.22 30.56651,-0.18852 31.4006,1.50249 1.5122,3.06525 -0.2647,5.1614 -4.37568,5.1614 h -3.53351 v 36.48889 36.48891 h 15.71121 15.7112 l -0.33576,-35.41571 c -0.18456,-19.47862 -0.4768,-35.89862 -0.64948,-36.48888 -0.21985,-0.75183 -2.40691,-1.07321 -7.30328,-1.07321 -7.14393,0 -8.88872,-0.68719 -8.88872,-3.50082 0,-3.19853 2.12984,-3.76084 14.31385,-3.77925 10.03729,-0.0162 11.9326,0.19503 13.09674,1.45306 1.12618,1.21694 1.20322,1.84675 0.44632,3.64889 -0.80806,1.92398 -1.39345,2.17812 -5.01657,2.17812 h -4.10177 l 0.52206,26.40079 c 0.28714,14.52046 0.52265,30.94043 0.52339,36.48889 l 9.5e-4,10.08812 h 17.93435 17.93437 l -0.52176,-25.11296 c -0.28685,-13.81211 -0.52242,-30.23212 -0.52322,-36.48888 l -0.002,-11.37596 h -9.00438 c -9.45985,0 -11.23539,-0.66995 -10.6415,-4.01535 0.53972,-3.04033 3.64847,-3.68584 17.81367,-3.69905 14.90179,-0.013 17.66053,0.55755 17.66053,3.65791 0,3.22328 -1.49556,4.05649 -7.28103,4.05649 h -5.3816 v 36.48889 36.48891 h 17.47529 17.47535 l -0.47854,-26.83007 c -0.26322,-14.75654 -0.68333,-31.17655 -0.93367,-36.48888 l -0.45513,-9.65885 h -5.69928 c -6.11533,0 -7.59867,-0.79187 -7.59867,-4.05649 0,-1.3525 0.65444,-2.26585 2.03006,-2.83324 1.11704,-0.46075 10.68793,-0.83733 21.28055,-0.83733 17.6709,0 19.40148,0.13272 21.09042,1.61629 1.62388,1.42647 1.72908,1.88013 0.89604,3.8635 l -0.94383,2.24727 h -13.99453 -13.99438 l 0.52335,25.89672 c 0.28773,14.2432 0.52329,30.66321 0.52329,36.48889 v 10.59219 h 34.84661 34.84656 l -0.42508,-13.52236 c -0.2339,-7.43728 -0.64122,-23.8573 -0.9054,-36.48888 l -0.47804,-22.96656 h -15.64171 c -12.87752,0 -15.81429,-0.22553 -16.61838,-1.2767 -1.39245,-1.82013 -0.35636,-5.29055 1.76349,-5.90677 0.98416,-0.2862 10.34641,-0.52541 20.80508,-0.53184 15.94209,-0.009 19.30003,0.20443 20.77465,1.32478 1.93524,1.47049 2.28138,3.76325 0.80923,5.36026 -0.52231,0.56666 -2.83421,1.03027 -5.1375,1.03027 h -4.18782 l 0.39331,10.08813 c 0.21626,5.54846 0.61036,21.96843 0.87566,36.48888 l 0.4823,26.40079 h 14.81707 c 8.1494,0 25.5592,-0.25537 38.68847,-0.56774 l 23.87139,-0.56773 v -35.92115 -35.92118 h -30.31116 c -22.52018,0 -30.55533,-0.26479 -31.26093,-1.03027 -1.69872,-1.84282 -1.1259,-4.94947 1.08037,-5.85946 1.20305,-0.49622 15.68834,-0.83733 35.55716,-0.83733 29.424,0 33.67934,0.16517 34.7708,1.3492 2.6276,2.85053 0.43912,6.37786 -3.95708,6.37786 h -2.71343 v 36.0596 36.05962 h 60.1563 60.15628 l -0.20638,-35.84496 -0.20669,-35.84498 -51.76361,-0.22098 c -36.6339,-0.15641 -52.07443,-0.50076 -52.82702,-1.17835 -1.56732,-1.41113 -1.29381,-4.84579 0.46741,-5.86831 2.34453,-1.36122 138.71625,-1.22335 139.97434,0.14147 1.45396,1.57728 1.13002,4.81455 -0.58109,5.80803 -0.90569,0.52584 -7.85765,0.88876 -17.0241,0.88876 h -15.49333 l 0.20639,35.84498 0.20669,35.84497 h 23.34677 23.34677 l 0.20669,-35.84497 0.20639,-35.84498 h -1.93072 c -2.10908,0 -4.41798,-2.01911 -4.41798,-3.8635 0,-0.64086 0.55965,-1.77234 1.24366,-2.51437 1.86458,-2.02278 39.96742,-2.02278 41.83199,0 1.71948,1.86537 1.55572,3.46769 -0.51529,5.04137 -1.44702,1.09953 -4.51527,1.3365 -17.30293,1.3365 h -15.54396 l -0.58476,35.28507 c -0.32162,19.40678 -0.28116,35.57612 0.0899,35.93183 0.37096,0.3557 23.79059,0.46175 52.04368,0.23558 l 51.36923,-0.41113 -0.52077,-24.49906 c -0.28656,-13.47446 -0.52079,-29.45878 -0.52079,-35.52068 v -11.02164 h -28.93874 c -18.43473,0 -29.49437,-0.32255 -30.46952,-0.88876 -1.71114,-0.99348 -2.03502,-4.23075 -0.5811,-5.80803 1.36685,-1.48281 71.91826,-1.48281 73.28509,0 1.45391,1.57728 1.13004,4.81455 -0.58109,5.80803 -0.84194,0.48882 -3.33489,0.88876 -5.5399,0.88876 h -4.00911 v 35.63034 35.63032 h 26.90813 26.90817 v -31.64697 c 0,-17.40583 -0.22656,-33.43947 -0.50323,-35.63031 l -0.50344,-3.98338 h -15.72079 c -14.85078,0 -15.81153,-0.0983 -17.36161,-1.78006 -1.47691,-1.6022 -1.52661,-1.96676 -0.49772,-3.64889 1.1043,-1.80546 1.69668,-1.87669 17.46914,-2.10088 l 16.32598,-0.23201 v -12.4318 -12.43174 h -6.55087 c -6.96506,0 -10.06875,-1.28535 -10.06875,-4.1698 0,-2.90472 1.69856,-3.55726 9.25955,-3.55726 h 7.36007 v -35.58967 -35.58966 l -20.77455,-0.25538 c -11.4261,-0.14051 -21.0035,-0.062 -21.28319,0.17392 -0.27964,0.23623 -0.76309,16.36634 -1.07437,35.84496 l -0.56588,35.41571 h 9.42382 c 9.68839,0 11.3232,0.51358 11.3232,3.55725 0,0.82322 -0.7915,2.0982 -1.75892,2.83328 -1.44756,1.0999 -4.52064,1.33653 -17.35961,1.33653 -16.89314,0 -19.66083,-0.51673 -19.66083,-3.67057 0,-3.40196 1.43021,-4.05649 8.86382,-4.05649 h 6.96452 v -6.00996 -6.00992 l -6.1335,-0.013 c -6.29352,-0.013 -8.72826,-0.78629 -7.77099,-2.46656 0.32949,-0.57838 3.17643,-0.95454 7.22412,-0.95454 h 6.68037 V 371.9659 343.63335 h -21.76399 -21.76394 v 28.33255 28.33255 h 8.65886 c 5.4994,0 8.85731,0.34828 9.20271,0.95454 1.01967,1.78985 -1.63092,2.45337 -9.85308,2.46656 l -8.21556,0.013 0.49052,3.21962 c 0.26981,1.77076 0.49448,4.47525 0.49926,6.00992 l 0.009,2.79034 h 9.3387 c 9.62117,0 11.2381,0.51595 11.2381,3.58616 0,0.83909 -0.8716,2.14514 -1.9369,2.90239 -1.58588,1.12726 -3.80518,1.32534 -12.24718,1.09297 -9.05448,-0.24922 -10.50149,-0.4929 -11.87947,-2.00087 -1.49927,-1.64066 -1.59387,-3.409 -2.12363,-39.70851 l -0.55446,-37.99136 h -3.05728 c -2.48334,0 -3.22455,-0.39819 -3.94812,-2.121 -0.68116,-1.62176 -0.65435,-2.43005 0.11395,-3.43424 0.88379,-1.15523 7.51933,-1.31327 55.13937,-1.31327 h 54.13477 l 0.6885,1.96457 c 0.3786,1.08047 0.8128,45.15759 0.9647,97.94912 0.271,94.09979 0.2461,96.00841 -1.255,97.19938 -1.2913,1.02423 -12.27609,1.22269 -70.03549,1.26521 -37.67723,0.0292 -241.40865,0.75007 -452.73648,1.60519 -326.69788,1.32192 -384.496631,1.37741 -385.996975,0.3705 l -1.764643,-1.18422 -0.21387,-58.15924 c -0.117555,-31.9876 -0.03589,-77.00829 0.181864,-100.04601 0.339528,-35.94042 0.564226,-42.01131 1.582812,-42.76435 1.120435,-0.8283 86.761112,-0.8591 309.443612,-0.1113 z m 3.95712,44.41005 v 36.48888 h 10.0204 10.02042 l -0.52206,-26.40079 c -0.28716,-14.52044 -0.52264,-30.94042 -0.52339,-36.48888 l -9.7e-4,-10.08813 h -9.49698 -9.49698 z m -71.22746,28.33254 v 8.15634 h 3.9571 3.95709 v -8.15634 -8.15636 h -3.95709 -3.9571 z m 36.40516,85.42693 v 36.91817 h 13.84975 13.84979 v -36.91817 -36.91819 h -13.84979 -13.84975 z"
       id="path4" /></g></svg>
