<?xml version="1.0" encoding="UTF-8" standalone="no"?>
<!-- Created with Inkscape (http://www.inkscape.org/) -->

<svg
   version="1.1"
   id="svg1"
   width="3437.8281"
   height="1487.0256"
   viewBox="0 0 3437.8281 1487.0256"
   xml:space="preserve"
   xmlns="http://www.w3.org/2000/svg"
   xmlns:svg="http://www.w3.org/2000/svg"><defs
     id="defs1" /><g
     id="g1"
     transform="translate(-183.36627,-647.32062)"><path
       style="fill:#060606;stroke:none"
       d="m 2943.8701,1085.283 v 140 h -242.6667 -73.3333 c -10.5552,0 -24.5414,-2.3948 -34.6462,0.8705 -11.1862,3.6145 -9.3538,16.4785 -9.3538,25.7962 v 76 c 0,9.0244 -3.3765,25.0027 8.0205,28.0874 28.0711,7.5975 65.6203,1.2459 94.6461,1.2459 h 201.3334 72 c 9.5387,0 23.2217,2.0752 31.8548,-2.9002 8.4144,-4.8493 5.4785,-19.6236 5.4785,-27.7665 v -70.6666 c 0,-6.9909 3.724,-20.5915 -0.8047,-26.2953 -6.1224,-7.7112 -23.8255,-4.3714 -32.5286,-4.3714 V 989.28301 927.94968 c 0,-7.30339 2.0817,-18.76725 -2.4776,-25.02865 -4.0498,-5.56185 -10.4339,-3.48242 -16.1891,-3.09049 -11.903,0.81022 -24.0703,0.11914 -36,0.11914 h -156 -44 c -4.7891,0.008 -13.4422,-0.71485 -14.998,5.45247 -1.7603,6.97754 8.229,6.53907 12.3313,6.54753 h 45.3334 192 V 1065.283 h -320 c 0,-12.4254 0.3699,-24.9144 -0.021,-37.3333 -0.127,-4.0365 -0.9099,-10.6966 -6.5598,-10.0453 -5.3787,0.6201 -5.3582,7.3418 -5.4145,11.3786 -0.1675,11.9951 -0.01,24.0036 -0.01,36 H 2134.5367 V 913.28301 h 24 14.6667 c 3.8257,-0.002 27.6572,-2.52604 15.5752,-10.62956 -3.9466,-2.64713 -11.0653,-1.37044 -15.5752,-1.37044 -12.7399,0 -25.9811,1.03972 -38.6667,-0.139 -5.7644,-0.53548 -11.8346,-4.16699 -16.755,0.7181 -4.2591,4.22884 -3.2446,11.29981 -3.245,16.75424 v 40 h -536 c 0,-19.29558 4.6597,-45.43197 -0.5782,-63.9795 -3.9688,-14.05306 -17.7303,-5.72037 -18.0884,5.31283 -9.9289,0 -51.3889,-5.91439 -47.5505,11.97949 2.923,13.62695 37.1102,8.02051 47.5505,8.02051 V 1065.283 H 1385.2034 V 919.94968 c 15.1896,0 33.1183,2.63476 47.9948,-0.45899 7.3932,-1.53743 12.394,-10.10612 6.0936,-16.18912 -7.6699,-7.40495 -29.4925,-3.35189 -39.4217,-3.35189 h -81.3334 c -11.8318,0 -27.256,-2.6097 -38.646,0.76335 -11.8273,3.5026 -8.2377,17.46972 2.6471,18.9847 26.9377,3.74934 56.7848,0.25195 83.9989,0.25195 V 1065.283 h -156 V 919.94968 c 6.8976,0 16.2998,1.59538 22.5885,-1.75716 6.0869,-3.24512 7.0088,-11.68099 1.214,-15.7653 -11.3678,-8.0127 -40.8868,-2.47754 -54.4691,-2.47754 h -145.3334 -43.99996 c -5.90641,0.009 -13.72452,-0.50163 -17.08951,5.51139 -3.61011,6.45117 1.47542,12.49837 7.76131,13.96289 12.64176,2.94532 28.36486,0.52572 41.32816,0.52572 h 176 V 1065.283 H 890.53674 V 919.94968 c 7.38705,0 18.59522,2.07552 25.25513,-1.57194 7.40991,-4.05827 6.37997,-14.37988 -1.28084,-17.43848 -16.26579,-6.49414 -46.45052,-1.49121 -63.97429,-0.96907 -9.38883,0.27962 -21.81372,10.92968 -9.18831,18.03711 9.33683,5.25618 26.72306,1.94238 37.18831,1.94238 V 1065.283 h -148 V 919.94968 c 14.3733,0 31.2487,2.44889 45.33228,-0.45899 6.37573,-1.3164 11.68335,-7.47428 7.96297,-14.02962 -3.40218,-5.99479 -11.38957,-5.50195 -17.29525,-5.51139 h -48 -170.66666 -42.66667 c -5.77238,3.2e-4 -13.5354,-1.04395 -18.08846,3.35189 -5.67969,5.48372 -2.09566,13.84993 4.77572,15.88476 11.77205,3.486 27.74105,0.76335 39.97941,0.76335 v 74.66667 c 0,5.24674 -2.63941,22.80335 6.58024,21.78385 8.21151,-0.9082 5.41976,-17.60417 5.41976,-23.11719 V 919.94968 H 718.53674 V 1065.283 H 543.87008 c 0,-3.8776 0.21305,-29.0771 -9.67798,-19.1891 -4.12077,4.1195 -2.32202,13.8795 -2.32202,19.1891 h -328 V 919.94968 h 176 c 14.13863,0 28.55692,0.82487 42.66666,-0.0586 5.60421,-0.35091 11.28191,-2.94303 11.72429,-9.27897 0.43734,-6.26367 -4.74898,-9.88541 -10.39095,-10.51725 -13.88452,-1.55501 -28.69373,-0.14518 -42.66667,-0.14518 H 203.87008 v -53.33333 h 61.33333 c 7.26288,-0.003 18.61269,-0.11394 17.46399,-10.66146 -1.02262,-9.38998 -12.01487,-8.00521 -18.79732,-8.00521 h -60 V 669.28301 h 192 v 109.33334 c 0,12.38541 4.15865,33.76855 -0.80453,45.13574 -2.12996,4.87825 -8.11564,4.18847 -12.52881,4.19759 h -36 c -6.15661,0.0104 -14.94889,-0.20313 -15.55041,8.01953 -1.00619,13.75456 19.15857,10.64714 27.55041,10.64714 h 82.66667 c 7.93901,0 23.68396,2.95898 27.17489,-6.72527 3.19808,-8.87174 -5.71424,-11.84147 -12.50822,-11.93619 -11.5516,-0.16114 -23.11389,0.0186 -34.66667,-0.005 -4.41313,-0.009 -10.39897,0.68034 -12.52881,-4.19759 -4.96317,-11.36719 -0.80452,-32.75033 -0.80452,-45.13574 V 669.28301 h 170.66666 v 157.33334 c -16.04891,0 -36.38423,-2.97299 -52,1.44531 -10.55236,2.98567 -9.09928,16.32129 1.33846,18.25 24.92798,4.60644 54.61748,0.30469 79.99488,0.30469 8.08077,0 22.28414,2.69368 29.13582,-2.32292 7.08871,-5.19043 3.5284,-14.1416 -3.82308,-16.41992 -12.74088,-3.94857 -29.40031,-1.25716 -42.64608,-1.25716 V 669.28301 h 168 v 157.33334 c -17.47371,0 -35.97338,-1.74577 -53.33333,0.23242 -6.40877,0.73047 -14.98478,5.1237 -12.28499,13.04231 2.81331,8.25163 13.47371,6.72527 20.28499,6.72527 h 62.66667 262.66662 74.6667 c 7.5732,0 20.855,2.5192 25.2953,-5.47852 5.3374,-9.61361 -5.7278,-14.30111 -13.2953,-14.50195 -22.6322,-0.60091 -45.3591,-0.0195 -68,-0.0195 H 777.20341 v -88 c 0,-7.24805 -3.30021,-25.75749 2.13786,-31.19532 5.29028,-5.29004 22.83634,-2.13802 29.86214,-2.13802 h 85.33333 342.66666 l 2.6667,121.33334 c -13.086,0 -33.0633,-3.7448 -45.1935,1.53092 -10.3991,4.52279 -6.2233,17.19108 3.8612,18.32389 16.0421,1.80241 33.1856,0.14519 49.3323,0.14519 7.2274,0 17.162,1.73014 23.9743,-0.98959 7.6162,-3.04069 8.7298,-13.28222 1.2808,-17.25325 -6.2886,-3.35254 -15.6911,-1.75716 -22.5885,-1.75716 l -1.3333,-121.33334 h 230.6667 57.3333 c 5.4164,0 16.341,-2.0498 20.5288,2.13802 5.438,5.43783 2.1379,23.94727 2.1379,31.19532 v 88 h -182.6667 c -14.1515,0 -28.5397,-0.75879 -42.6667,0.0576 -5.6744,0.3278 -12.3984,2.65007 -12.8837,9.29525 -0.4502,6.16374 4.661,9.8776 10.2181,10.50195 14.3141,1.60808 29.5927,0.14519 43.999,0.14519 h 184 c 1.7487,6.02832 6.7171,9.64029 13.1943,7.01041 3.7479,-1.52181 5.6133,-5.50553 9.6113,-6.58756 8.3059,-2.24772 19.2789,-0.42285 27.861,-0.42285 h 57.3334 249.3333 58.6667 c 6.7497,0 17.1443,1.54069 21.0895,-5.5114 9.5366,-17.04752 -22.6012,-14.4886 -30.4229,-14.4886 h -120 -109.3333 -158.6667 V 705.28301 l 536,1.33334 v 120 c -16.1699,0 -39.2483,-4.24056 -54.609,0.87044 -12.1094,4.02929 -6.763,17.78613 3.9424,18.98437 23.3711,2.61621 48.5013,0.25098 72,0.14616 9.5766,-0.0426 22.9632,2.4056 31.9743,-1.19238 8.3463,-3.33268 8.4171,-14.45833 0,-17.81901 -9.4836,-3.78646 -24.5052,-0.98958 -34.641,-0.98958 v -120 h 640 v 120 c -18.9033,0 -44.4736,-4.55306 -62.6461,0.57812 -11.9561,3.37598 -7.606,17.10449 2.6513,18.98242 28.3405,5.18815 61.8252,0.43946 90.6615,0.43946 8.7038,0 24.555,2.91145 31.5761,-3.41862 5.9418,-5.35678 1.917,-14.09864 -4.9156,-16.00326 -13.3314,-3.71582 -31.4961,-0.57812 -45.3272,-0.57812 v -120 h 158.6667 v 120 c -13.709,0 -32.1035,-3.24545 -45.2757,0.57812 -7.8594,2.28158 -9.4164,12.33431 -2.5463,16.83757 9.0362,5.92317 26.7959,2.58431 37.1553,2.58431 30.8343,0 65.5534,4.51302 96,-0.40625 10.6693,-1.72364 15.5026,-16.87045 2.6462,-19.28907 -21.1638,-3.98112 -46.4239,-0.30468 -67.9795,-0.30468 V 669.28301 h 581.3333 v 157.33334 h -342.6667 -80 c -8.0084,0 -23.4267,-2.96745 -26.9856,6.72526 -2.585,7.04036 3.5882,11.45865 9.6575,12.65006 13.8721,2.72298 29.8789,0.62468 43.9948,0.62468 0.419,19.56705 19.5811,19.56705 20,0 91.054,0 182.2119,-1.33334 273.3333,-1.33334 h 72 c 7.1482,0 21.4506,-2.71745 27.5762,1.37044 7.6976,5.13672 3.0905,35.3073 3.0905,43.9629 h -289.3333 c -26.3184,0 -53.7764,2.27636 -79.9795,-0.0781 -8.0957,-0.72754 -9.7048,-11.92155 -18.6624,-9.95182 -10.6511,2.34212 -8.0248,18.09179 -8.0248,26.02995 v 74.66666 c 0,7.55502 -1.9717,21.16506 8.0248,23.36326 12.8678,2.8294 11.9752,-14.20896 11.9752,-22.02992 v -80 h 376 V 1065.283 h -376 c 0,-9.0169 2.4115,-22.1735 -1.3457,-30.5267 -2.9284,-6.5107 -11.4254,-8.1566 -15.9753,-2.2809 -6.291,8.1243 -3.9378,33.3184 -3.6666,43.4743 0.2702,10.1191 -2.7103,32.9095 3.3105,41.1357 4.2002,5.7386 12.7487,4.9144 16.1052,-1.2138 4.2591,-7.7764 1.5719,-21.9183 1.5719,-30.5886 h 376 v 140 h -376 c 0,-19.5247 0.5921,-39.1523 -0.021,-58.6667 -0.2129,-6.7799 -3.667,-14.6627 -11.959,-12.8837 -9.0244,1.9362 -8.0202,12.5263 -8.0205,19.5504 v 56 c 0,6.8415 -0.569,17.0143 8.0576,18.9896 5.9219,1.3561 13.5951,-2.9554 19.9424,-2.9886 20.4434,-0.1065 40.8897,0 61.3333,0 h 204 c 0,5.2822 -2.8694,29.8672 7.7162,26.9981 7.317,-1.9834 4.2838,-21.2963 4.2838,-26.9981 h 146.6667 v 238.6667 h -146.6667 c 0,-5.9652 3.3005,-27.7044 -4.177,-29.6647 -11.0446,-2.8955 -7.823,24.0446 -7.823,29.6647 h -205.3333 -60 c -6.376,-0.011 -15.388,-3.8713 -21.2747,-1.6564 -8.8737,3.3387 -6.7253,15.5324 -6.7253,22.9897 v 69.3333 c 0,7.758 -1.9173,22.738 9.3386,23.5505 11.4371,0.8255 10.6611,-13.3035 10.6614,-20.8838 v -73.3333 h 376 v 201.3333 h -376 v -68 c -0.012,-7.4466 -0.904,-20.4642 -11.9752,-18.0299 -9.6241,2.116 -8.0248,14.6816 -8.0248,22.0299 v 62.6667 c 0,7.5363 -1.3932,18.473 8.0205,20.9095 11.5163,2.9808 26.7585,0.4238 38.6462,0.4238 h 82.6666 266.6667 v 117.3333 h -376 c 0,-27.6735 2.2832,-56.4397 -0.1256,-84 -0.8897,-10.1777 -13.8047,-17.2454 -18.683,-5.2747 -3.8961,9.5609 -1.1914,24.4045 -1.1914,34.6081 0,25.3525 -0.305,50.7666 -0.01,76 0.1165,9.8027 -3.4225,27.4241 2.4828,35.8024 4.5478,6.452 13.5888,4.3727 16.331,-2.4948 3.9902,-9.9928 1.1914,-25.3206 1.1914,-35.9743 h 376 v 62.6667 h -354.6667 -82.6666 c -7.9382,0 -23.6878,-2.6262 -26.03,8.0247 -1.7881,8.1314 6.0567,11.5851 12.6966,11.9217 17.684,0.8964 35.6254,0.054 53.3334,0.054 h 222.6666 v 78.6666 c 0,5.7227 -3.0494,23.7592 5.3386,24.712 9.2786,1.054 6.6614,-18.1307 6.6614,-23.3786 v -80 h 162.6667 v 169.3333 h -162.6667 c 0,-5.3502 3.07,-35.2646 -8.7613,-29.8364 -6.4776,2.9718 -3.2387,23.7853 -3.2387,29.8364 h -385.3333 v -169.3333 c 16.9095,0 39.7536,4.0418 55.9795,-0.7634 9.8102,-2.9052 9.8112,-15.5678 0,-18.4733 -13.6201,-4.0335 -32.4746,-0.7633 -46.6462,-0.7633 h -100 c -10.6048,0 -38.5026,-4.9131 -45.6757,4.3714 -5.4616,7.069 1.0696,14.3641 8.3434,15.3765 19.2751,2.6824 40.5332,0.2521 59.999,0.2521 h 48 v 142.6666 h -177.3333 v -142.6666 c 7.1696,0 44.8519,1.5845 31.1953,-15.6286 -8.0397,-10.1335 -41.9577,-4.3714 -53.862,-4.3714 h -144 c -11.2747,0 -40.6071,-5.1976 -48.3426,4.5257 -4.541,5.7078 -0.4297,12.6209 5.6965,14.6038 10.8227,3.5031 25.9967,0.8705 37.3128,0.8705 h 160 v 142.6666 l -318.6667,-1.3333 v -141.3333 c 26.2411,0 56.8851,4.4262 82.6657,-0.3045 10.7137,-1.966 12.3148,-16.0544 1.3281,-19.1172 -11.0517,-3.0809 -25.8802,-0.5783 -37.3271,-0.5783 h -78.6667 c -9.7635,0 -30.466,-3.8863 -37.9805,3.5371 -6.0649,5.9912 -1.1271,14.2742 5.9867,15.9372 15.8048,3.6946 35.7646,0.5257 51.9938,0.5257 v 141.3333 h -153.3333 v -141.3333 c 17.7482,0 37.091,2.1938 54.6657,-0.2521 6.8165,-0.9488 13.0916,-7.084 9.0905,-14.2365 -3.767,-6.7338 -13.2709,-5.5111 -19.7562,-5.5114 h -56 -181.3334 -44 c -5.8271,0 -13.6422,-0.8495 -17.6759,4.3714 -6.6369,8.5902 3.257,15.1821 11.0093,15.575 23.4282,1.1875 47.2059,0.054 70.6666,0.054 h 62.6667 98.6667 v 141.3333 l -324,-1.3333 v -140 c 13.0176,0 30.1308,2.9428 42.6461,-0.7634 7.4621,-2.2098 10.6193,-11.7327 3.716,-16.7592 -7.8761,-5.7351 -25.0651,-2.4774 -34.3621,-2.4774 -30.9351,0 -68.4151,-5.8309 -98.6615,0.4588 -11.4485,2.3807 -11.4485,16.7017 0,19.0824 20.541,4.2714 45.6693,0.4588 66.6615,0.4588 l -0.01,130.6666 -8.8776,20 8.8838,18.6667 h -29.3334 -18.6666 c -5.8363,0 -13.244,-1.0921 -18.5886,1.7572 -6.7819,3.6155 -6.7184,12.9912 0,16.6707 5.7855,3.1686 14.8796,1.5721 21.2552,1.5721 h 48 c 6.7173,0 16.6695,1.6318 21.3158,-4.5257 5.1966,-6.8867 -3.8887,-16.867 -3.9824,-24.8076 l 1009.3333,2.6666 v 6.6667 c -6.8613,0 -42.8698,0.974 -27.3138,16.6481 6.5837,6.6335 24.0807,3.3519 32.6471,3.3519 h 88 354.6667 108 c 10.2123,0 31.4427,4.0025 39.4219,-3.5371 7.526,-7.1115 3.2448,-30.783 3.2448,-40.4629 v -117.3333 -468 h 38.6666 l 16.3438,-4.3045 2.3229,-18.3622 v -42.6667 -153.3333 -38.6667 l -2.3229,-17.0286 -16.3438,-4.3047 H 3563.861 V 797.28301 690.61635 c 0,-9.36687 4.8613,-31.25684 -1.9115,-38.24284 -7.0263,-7.24707 -29.9407,-3.0905 -39.4219,-3.0905 h -113.3333 -374.6667 -90.6666 c -8.5759,0 -26.3783,-3.34831 -32.3425,4.37142 -13.6422,17.65723 25.0075,15.62858 32.3425,15.62858 v 17.33334 h -810.6667 c 0,-8.65007 8.9652,-26.97885 4.3426,-32.96192 -5.8266,-7.54167 -22.6504,-4.37142 -31.0093,-4.37142 h -86.6666 -349.3334 -74.6666 c -9.8462,0 -24.0422,-2.57096 -33.2748,1.19141 -16.2583,6.62565 9.8599,35.16113 -12.0595,36.11621 -53.9921,2.35254 -108.6161,0.0257 -162.6657,0.0257 h -328 -185.33336 c -29.01562,0 -62.03491,4.45345 -90.64095,-0.1976 -21.29923,-3.46321 15.02914,-28.52832 -4.05143,-36.14615 -15.0402,-6.00489 -41.13086,-0.98959 -57.30762,-0.98959 H 587.87008 289.20341 214.53674 c -7.63319,0 -21.51869,-2.65853 -27.42181,3.24479 -5.34955,5.34994 -3.24485,16.54362 -3.24485,23.42188 v 62.66667 252 71.99997 c 0,7.8083 -2.17397,21.1755 8.02057,23.5567 6.96799,1.6276 16.68453,-0.89 23.97943,-0.89 h 57.33333 188 591.99999 1890.6667 M 2114.5367,669.28301 v 17.33334 h -536 v -17.33334 h 536 m 120.0206,158.09668 c -10.6727,3.16048 -8.6976,16.33561 1.3333,18.71094 18.514,4.38379 42.2796,0.52572 61.3128,0.52572 h 246.6667 73.3333 c 7.8534,0 21.3135,2.50032 27.5762,-3.35189 8.7176,-8.14616 -2.0557,-16.37045 -10.2429,-16.62761 -27.0524,-0.84928 -54.2661,-0.0205 -81.3333,-0.0205 h -220 -66.6667 c -9.8777,0 -22.4539,-2.05762 -31.9794,0.76334 m 377.3128,84.56999 v 65.33333 c 0,5.09538 -2.1472,19.99544 6.5802,19.27149 7.5622,-0.62728 5.4198,-14.29948 5.4198,-19.27149 v -65.33333 c 4.5003,0 26.366,2.25846 21.2181,-7.70182 -3.0708,-5.94141 -13.1249,-4.29818 -18.5515,-4.29818 h -56 c -78.2605,0 -156.3671,1.33333 -234.6666,1.33333 h -70.6667 c -5.083,0 -19.8817,-2.52962 -21.6647,4.17188 -2.3029,8.6556 14.5934,6.49479 18.998,6.49479 h 66.6667 282.6667 m -497.3334,66.66667 v 86.66665 h -536 v -86.66665 h 536 m 864,266.66665 v 100 h -374.6666 v -100 h 374.6666 m 468.2839,52.182 c -4.6605,2.3006 -4.2601,8.8203 -4.2829,13.1513 -0.065,12.3889 -0.5758,24.9613 0.052,37.3334 0.2149,4.2274 1.656,11.9217 7.7738,9.784 4.9297,-1.7225 4.1644,-8.3307 4.1728,-12.4507 0.026,-12.8657 0.3855,-25.8065 -0.021,-38.6657 -0.1269,-4.0203 -1.6481,-12.1377 -7.6956,-9.1523 m -292.1387,18.5226 c -10.1497,5.6354 -7.7311,41.6714 7.7963,34.3324 12.3108,-5.8187 8.65,-43.4637 -7.7963,-34.3324 m 292.1387,68.144 c -8.2044,4.0503 -5.141,34.5821 -4.0319,42.4795 0.5423,3.8628 3.4404,10.396 8.5094,7.6215 3.8151,-2.0884 3.2185,-7.9904 3.2377,-11.6163 0.055,-10.4554 1.0543,-21.5921 -0.1442,-31.9794 -0.433,-3.7535 -2.9141,-8.8042 -7.571,-6.5053 m -469.6172,119.8181 v 201.3333 h -636 -165.3333 -42.6667 c -5.602,0 -13.6947,-1.4334 -18.4691,2.1379 -5.4497,4.0763 -4.6803,11.9301 1.2139,15.1585 5.9282,3.2471 16.0064,1.3703 22.5885,1.3703 l 1.3334,80 h -196 c -15.8265,0 -32.2347,-1.2523 -48,0.1255 -5.8988,0.5154 -12.0456,3.6761 -11.5505,10.5359 0.4945,6.8495 7.0482,8.9893 12.8838,9.285 15.4749,0.7844 31.1711,0.054 46.6667,0.054 h 196 v 18.6666 c -8.8524,0.031 -24.3047,9.5342 -10.5215,17.2964 6.6302,3.7339 19.1032,1.3703 26.5215,1.3703 h 62.6666 233.3334 80 c 7.3266,-5e-4 25.2523,-2.6704 16.5278,-14.4691 -5.3239,-7.1998 -20.6794,-4.1976 -28.5278,-4.1976 h -80 -208 -52 c -5.1734,0 -15.1813,1.8763 -19.1955,-2.1378 -5.29,-5.2901 -2.1379,-22.8366 -2.1379,-29.8622 v -86.6666 l 818.6667,1.3333 v 117.3333 h -181.3333 c -14.6231,0 -29.3916,-0.6067 -44,0.026 -5.5189,0.2389 -11.6048,2.8025 -11.6048,9.3076 0,6.5053 6.0862,9.0687 11.6048,9.3076 14.6087,0.6325 29.3766,0.026 44,0.026 h 142.6666 c 12.6205,0 42.8676,5.535 53.1358,-2.1378 6.501,-4.858 5.528,-17.3169 5.5309,-24.5289 v -64 -238.6666 -58.6667 c 0,-6.1785 2.0635,-17.1649 -3.2448,-21.6769 -4.4857,-3.8128 -12.3626,-2.4937 -14.6172,3.0884 -2.6097,6.4614 2.2298,22.823 -3.32,27.5514 -5.0781,4.3265 -19.1666,1.7038 -25.4847,1.7038 h -70.6666 c -0.3591,-14.8539 -11.9463,-15.1996 -12,0 h -264 v -77.3334 h 264 c 0,5.0669 -1.9252,15.354 2.137,19.1698 9.6569,9.0711 9.863,-15.3351 9.863,-19.1698 h 64 c 8.9746,0 20.5807,-1.9583 29.2552,0.4239 11.2933,3.1014 -0.8376,25.5897 14.7448,24.4599 15.3372,-1.1119 12.7809,-39.8766 -0.021,-44.0133 -9.0173,-2.9139 -21.2396,-0.8705 -30.6462,-0.8705 h -62.6667 -209.3333 -69.3333 c -7.6859,0 -21.2251,-2.5665 -27.6955,2.3231 -6.8302,5.1616 -4.3045,18.2018 -4.3045,25.6769 v 66.6667 c 0,8.528 -1.188,19.6447 9.3538,22.141 12.2038,2.8898 27.4569,0.5257 39.9795,0.5257 h 82.6667 261.3333 m 177.4785,-111.9621 c -10.7402,5.9632 -7.6559,45.9147 8.903,36.6659 10.8822,-6.0783 7.9805,-46.0398 -8.903,-36.6659 m -281.4065,45.3036 c -8.1534,0.1334 -7.9447,21.7472 1.109,20.7037 8.0859,-0.9319 7.4085,-20.8431 -1.109,-20.7037 M 758.53674,2101.283 h 69.33334 c 7.3763,0 20.51473,1.3091 20.99072,-9.3374 0.47575,-10.6403 -12.21094,-10.6505 -19.65739,-10.6626 h -70.66667 v -137.3333 h 273.33336 c 22.5756,0 45.4555,1.0892 68,-0.054 7.3801,-0.374 16.6211,-5.7383 11.7562,-14.435 -4.4049,-7.8744 -17.6211,-5.5114 -25.0896,-5.5114 h -73.3333 -255.99999 -60 c -6.82292,5e-4 -17.29516,-1.2429 -20.32308,6.7397 -2.9401,7.751 4.25887,12.5466 10.98975,13.1348 16.64022,1.4543 33.96061,0.1255 50.66666,0.1255 v 169.3333 h -148 v -169.3333 c 14.78838,0 32.1766,2.5327 46.66565,-0.4588 7.36719,-1.5212 12.79558,-10.0668 6.24382,-16.1893 -6.45907,-6.036 -20.79545,-3.3519 -28.90947,-3.3519 -26.78182,0 -56.15478,-3.4375 -82.66564,0.2521 -10.88489,1.5148 -14.47417,15.4821 -2.6471,18.9845 14.37195,4.2561 34.34814,0.7634 49.31274,0.7634 V 2113.283 H 203.87008 v -169.3333 h 224 c 17.77205,0 35.56315,0.2428 53.33333,-0.01 6.69348,-0.093 14.98316,-2.1758 14.39095,-10.6574 -0.58602,-8.3934 -9.12597,-9.3016 -15.72428,-9.3364 -17.33228,-0.091 -34.66744,0 -52,0 h -224 v -62.6667 h 534.66666 125.33334 c 9.25244,0 37.04321,4.9813 37.04321,-9.3333 0,-14.3146 -27.79077,-9.3334 -37.04321,-9.3334 H 738.53674 203.87008 V 1723.9497 H 1382.5367 c 0,10.3572 -7.0107,39.3802 0.8046,47.1955 3.2345,3.2345 9.7278,2.1375 13.8621,2.1378 11.0215,7e-4 37.0275,4.8298 46.2419,-1.3703 12.631,-8.499 -11.729,-10.6297 -15.5752,-10.6297 h -13.3334 -21.3333 l 1.3333,-37.3333 h 165.3334 v 37.3333 h -61.3334 c -5.0942,0 -18.2791,-2.1577 -19.1171,5.4198 -0.9325,8.4319 12.8706,6.5802 17.7838,6.5802 h 62.6667 v 49.3333 c 0,4.9252 1.6959,14.0284 -2.1379,17.8622 -4.8349,4.8349 -19.5127,2.1378 -25.8621,2.1378 h -74.6667 -294.6667 -116 c -8.6493,0 -34.0576,-4.4617 -34.0576,9.3334 0,13.4026 22.9943,9.3333 31.391,9.3333 h 105.3333 324 78.6667 c 7.8502,0 23.2011,3.0015 28.5278,-4.1976 4.34,-5.8655 -1.8612,-25.0706 -1.8612,-33.1357 h 176 c 13.9729,0 28.7823,1.4098 42.6667,-0.1452 5.6421,-0.6318 10.8283,-4.2533 10.391,-10.5174 -0.4424,-6.336 -6.1202,-8.9279 -11.7243,-9.2788 -13.6695,-0.8558 -27.6363,-0.059 -41.3334,-0.059 h -176 l 1.3334,-80 c 9.098,-0.082 23.3279,-11.5957 9.1881,-17.6769 -7.2285,-3.1089 -18.7648,-0.9898 -26.5215,-0.9898 h -60 -210.6666 c -243.5367,0 -487.07912,-1.3333 -730.66669,-1.3333 H 290.53674 c -25.77569,0 -51.55832,0.1766 -77.33333,-10e-4 -7.74772,-0.053 -15.43194,-8.3719 -22.59363,-5.6554 -8.98051,3.4064 -6.7397,16.8104 -6.7397,24.323 v 72 242.6667 64 c 0,7.7979 -2.16388,19.7123 2.47737,26.4886 6.15638,8.9885 24.13453,5.5114 33.52263,5.5114 h 96 338.66666 73.33334 c 7.73901,0 21.51595,2.6305 27.57617,-3.2449 6.02189,-5.8384 3.09049,-21.0274 3.09049,-28.7551 m 1825.47856,-257.296 c -7.5477,4.2507 -5.4916,14.7933 2.542,16.8726 8.8131,2.2811 20.2303,0.4238 29.3128,0.4238 h 60 c 7.7731,0 23.8143,3.0171 30.0885,-2.3231 6.1016,-5.193 2.4447,-14.6805 -4.7757,-16.039 -26.5057,-4.987 -58.3089,-0.3046 -85.3128,-0.3046 -8.6641,0 -24.1571,-2.9648 -31.8548,1.3703 m -856.1452,99.9631 v 26.6666 h -77.3334 c -7.4318,0 -22.5543,-2.8704 -28.9095,1.3703 -4.0734,2.7183 -3.0885,9.0961 -3.0905,13.2964 0,9.6405 -4.3789,31.7212 6.6924,36.1419 8.9829,3.5868 22.4252,1.1914 31.9743,1.1914 h 70.6667 v 29.3334 h -380 -89.3334 c -6.93,0 -27.1113,-3.5293 -26.2171,7.9619 0.7587,9.7497 20.749,4.0381 27.5505,4.0381 h 88 380 v 20 c -141.4071,0 -282.6416,-1.3334 -424,-1.3334 h -98.6667 c -8.8364,0 -30.5869,-3.9575 -31.5504,9.3334 -0.9646,13.3047 20.7743,10.6666 28.8837,10.6666 h 100 c 141.765,0 283.6843,0.9426 425.3334,1.3334 -0.3029,9.2536 -15.4341,15.784 -8.3426,24.9619 4.2666,5.522 12.8798,4.3711 19.0092,4.3714 h 44 c 6.0429,0 14.4309,1.4352 19.9219,-1.5721 6.7189,-3.6798 6.7816,-13.0553 0,-16.6707 -7.4627,-3.9785 -19.713,-1.7572 -27.9219,-1.7572 h -26.6666 c 0.3162,-9.6603 24.4904,-26.598 0,-29.3333 v -140 c 19.0361,0 38.3232,0.91 57.3333,-0.054 7.0116,-0.3554 15.5578,-4.6792 12.3231,-13.2067 -3.6128,-9.5241 -19.069,-6.7397 -26.9898,-6.7397 h -80 -340 -97.3333 c -8.6552,0 -28.3748,-3.6691 -32.3231,6.7397 -5.3459,14.0934 15.1166,13.2603 22.9898,13.2603 h 89.3333 374.6667 m 0,38.6666 v 28 h -97.3334 v -28 h 97.3334 m -830.52167,100.9898 c -9.34131,4.0177 -4.3466,15.8556 3.86011,17.3724 17.50545,3.2353 38.18441,0.3045 55.99487,0.3045 h 115.99999 41.3333 c 5.0901,0 12.5586,1.2492 16.7552,-2.3231 6.1059,-5.1974 1.9411,-13.8968 -4.7613,-15.7653 -11.4304,-3.1865 -26.8184,-0.5783 -38.6605,-0.5783 H 953.20341 c -15.4043,0 -41.68961,-5.1028 -55.85498,0.9898 z"
       id="path3" /></g></svg>
